<svg width="214" height="106" viewBox="0 0 214 106" fill="none" xmlns="http://www.w3.org/2000/svg">
<path d="M100.054 62.1906L98.1019 60.016C98.9204 59.2684 99.8552 58.6591 100.87 58.2121C101.912 57.7741 103.034 57.5608 104.164 57.5861C105.597 57.4994 107.019 57.8716 108.225 58.6486C108.688 58.9717 109.062 59.4057 109.314 59.9107C109.566 60.4158 109.687 60.9759 109.667 61.5399C109.711 62.2943 109.489 63.0403 109.041 63.6486C108.54 64.2267 107.899 64.6663 107.179 64.9254C107.986 65.1134 108.724 65.5211 109.313 66.1033C109.581 66.4082 109.786 66.7632 109.916 67.1477C110.046 67.5323 110.099 67.9388 110.071 68.3438C110.076 68.9622 109.929 69.5725 109.641 70.1201C109.354 70.6677 108.935 71.1356 108.423 71.4822C107.102 72.3645 105.529 72.7924 103.942 72.7013C101.692 72.7434 99.5092 71.9344 97.8301 70.4361L99.7411 68.1379C100.943 69.1578 102.457 69.7387 104.033 69.7853C104.721 69.8149 105.405 69.6644 106.018 69.3488C106.257 69.2281 106.458 69.0415 106.595 68.8109C106.732 68.5804 106.8 68.3154 106.792 68.0473C106.797 67.7936 106.73 67.5437 106.601 67.3254C106.471 67.1072 106.284 66.9294 106.059 66.8117C105.428 66.4827 104.717 66.3371 104.008 66.3916H101.306V63.7145H104.09C104.692 63.7543 105.289 63.5919 105.787 63.2532C105.981 63.1063 106.137 62.9154 106.243 62.6963C106.349 62.4773 106.402 62.2362 106.397 61.9929C106.403 61.7645 106.35 61.5383 106.244 61.3362C106.137 61.1342 105.98 60.9631 105.787 60.8397C105.277 60.533 104.683 60.3947 104.09 60.4444C102.583 60.5404 101.156 61.1578 100.054 62.1906Z" fill="#F08050"/>
<path d="M111.546 72.4871L117.823 57.7261H120.796L127.057 72.4871H123.688L122.353 69.1922H116.15L114.816 72.4871H111.546ZM117.312 66.3586H121.208L119.264 61.6058L117.312 66.3586Z" fill="#F08050"/>
<path d="M134.469 57.8333H138.299L143.052 63.764H143.719V57.8333H146.907L146.858 63.764H147.574L152.344 57.8333H156.133L150.21 64.9914L156.66 72.4872H152.83L147.722 66.4823H146.825L146.874 72.4872H143.686V66.4823H142.764L137.764 72.4872H133.975L140.441 64.9914L134.469 57.8333Z" fill="#F08050"/>
<path d="M171.538 72.4872H168.309V62.9238L161.365 72.4872H158.515V57.8333H161.744V67.1083L168.457 57.8333H171.538V72.4872Z" fill="#F08050"/>
<path d="M178.457 72.4872V60.8069H174.009V57.8333H186.15V60.8069H181.686V72.4872H178.457Z" fill="#F08050"/>
<path d="M192.032 72.4872V60.8069H187.575V57.8333H199.717V60.8069H195.252V72.4872H192.032Z" fill="#F08050"/>
<path d="M213.81 57.8333V72.4872H210.581V67.8003H208.242L204.947 72.4872H201.133L204.84 67.2978C203.902 66.9941 203.074 66.4212 202.459 65.6504C201.852 64.8586 201.54 63.8797 201.578 62.8827C201.527 62.1715 201.647 61.4586 201.926 60.8027C202.205 60.1467 202.636 59.5666 203.184 59.11C204.507 58.1918 206.098 57.7424 207.706 57.8333H213.81ZM210.581 60.7492H207.385C205.737 60.7492 204.848 61.4494 204.848 62.858C204.834 63.1447 204.885 63.4308 204.998 63.6948C205.11 63.9588 205.282 64.1937 205.499 64.3819C206.014 64.7882 206.665 64.9826 207.319 64.9255H210.614L210.581 60.7492Z" fill="#F08050"/>
<path d="M95.6564 25.247C95.6386 30.1183 94.2741 34.8899 91.7138 39.0343C89.1536 43.1786 85.4972 46.5343 81.1489 48.7303C76.8006 50.9264 71.9297 51.8774 67.0747 51.4781C62.2197 51.0789 57.5697 49.3449 53.6386 46.4679C49.7075 43.5909 46.6485 39.683 44.7997 35.1761C42.9509 30.6691 42.3843 25.7388 43.1626 20.9299C43.9408 16.1211 46.0336 11.6211 49.2097 7.92743C52.3857 4.23373 56.5212 1.49016 61.1591 0L64.388 10.0576C61.6042 10.9495 59.1213 12.5939 57.2139 14.809C55.3064 17.0242 54.0488 19.7237 53.5801 22.6091C53.1114 25.4945 53.4498 28.4533 54.5579 31.1583C55.6661 33.8633 57.5008 36.2091 59.8592 37.9363C62.2175 39.6635 65.0077 40.7048 67.921 40.9451C70.8343 41.1853 73.7573 40.6151 76.3667 39.2975C78.9761 37.9799 81.1703 35.9663 82.7066 33.4794C84.2429 30.9924 85.0614 28.129 85.0716 25.2058L95.6564 25.247Z" fill="#258635"/>
<path d="M82.7892 19.2833C82.2077 20.6635 81.2295 21.84 79.9785 22.6635C78.7276 23.4871 77.2603 23.9206 75.7626 23.9091C74.2649 23.8977 72.8044 23.4417 71.5662 22.5991C70.328 21.7565 69.3679 20.5651 68.8077 19.1761C68.2475 17.7871 68.1124 16.2631 68.4194 14.7972C68.7265 13.3313 69.462 11.9896 70.5326 10.9423C71.6032 9.89493 72.9607 9.1891 74.433 8.91428C75.9053 8.63946 77.426 8.80804 78.8024 9.39864C80.6374 10.186 82.0864 11.6673 82.8333 13.5191C83.5802 15.371 83.5644 17.4431 82.7892 19.2833Z" fill="#F08050"/>
<path d="M0.84668 31.7213C4.46286 28.4576 8.91131 26.2576 13.7 25.3647C18.4888 24.4718 23.4311 24.9208 27.9805 26.6621C32.5299 28.4033 36.5091 31.369 39.4779 35.2311C42.4467 39.0931 44.2894 43.701 44.8023 48.5452C45.3151 53.3894 44.4782 58.281 42.3839 62.6791C40.2897 67.0772 37.0198 70.8104 32.9359 73.4657C28.852 76.121 24.1132 77.5951 19.2437 77.7247C14.3742 77.8544 9.56364 76.6347 5.34418 74.2005L10.616 65.049C13.1474 66.5182 16.0362 67.2577 18.9621 67.1855C21.8881 67.1133 24.7369 66.2323 27.1928 64.6401C29.6487 63.0479 31.6157 60.8067 32.8757 58.165C34.1358 55.5232 34.6397 52.5842 34.3316 49.6736C34.0235 46.763 32.9154 43.9946 31.1301 41.6752C29.3449 39.3559 26.9523 37.5762 24.2175 36.5335C21.4826 35.4908 18.5125 35.2257 15.6363 35.7678C12.7601 36.3098 10.0901 37.6377 7.92243 39.6043L0.84668 31.7213Z" fill="#258635"/>
<path d="M92.0644 92.9484C93.6658 88.3476 93.9639 83.3936 92.9256 78.634C91.8873 73.8744 89.5531 69.4946 86.181 65.9788C82.8089 62.4629 78.5303 59.948 73.8182 58.712C69.106 57.4761 64.1439 57.5671 59.4803 58.9752C54.8167 60.3833 50.6333 63.0536 47.3925 66.6908C44.1518 70.328 41.9799 74.7905 41.117 79.585C40.254 84.3795 40.7337 89.3193 42.5029 93.8582C44.2722 98.3971 47.262 102.358 51.142 105.304L57.5341 96.894C55.2103 95.1262 53.4203 92.7504 52.3618 90.0292C51.3034 87.308 51.0177 84.3471 51.5363 81.4737C52.0549 78.6003 53.3577 75.9262 55.3006 73.7466C57.2436 71.5671 59.7511 69.967 62.5464 69.1231C65.3416 68.2792 68.3156 68.2243 71.1401 68.9645C73.9646 69.7047 76.5295 71.2112 78.5515 73.3175C80.5736 75.4239 81.9741 78.0481 82.5984 80.9004C83.2227 83.7527 83.0464 86.7221 82.0891 89.4805L92.0644 92.9484Z" fill="#258635"/>
<path d="M77.9453 94.291C77.851 92.798 77.3158 91.3665 76.4077 90.1777C75.4995 88.9888 74.2592 88.0961 72.8435 87.6124C71.4278 87.1287 69.9005 87.0759 68.4547 87.4604C67.009 87.845 65.7098 88.6498 64.7216 89.7729C63.7334 90.8961 63.1005 92.2871 62.9031 93.77C62.7056 95.253 62.9525 96.7612 63.6124 98.1037C64.2724 99.4463 65.3157 100.563 66.6105 101.312C67.9052 102.062 69.3932 102.41 70.8861 102.314C72.8856 102.185 74.7521 101.267 76.0757 99.7631C77.3993 98.2588 78.0717 96.2907 77.9453 94.291Z" fill="#F08050"/>
<path d="M97.7236 48.4593H99.2722L104.569 35.98H108.152L113.407 48.4593H115.005V54.6949H111.817V51.5565H100.903V54.6949H97.7236V48.4593ZM106.315 39.7361L102.757 48.5993H109.873L106.315 39.7361Z" fill="#258635"/>
<path d="M133.045 49.489C131.447 50.9717 129.347 51.7956 127.167 51.7956C124.987 51.7956 122.888 50.9717 121.29 49.489C120.537 48.7559 119.943 47.8763 119.543 46.9044C119.143 45.9324 118.947 44.8889 118.967 43.8383V43.7888C118.948 42.7348 119.147 41.6882 119.551 40.7145C119.955 39.7407 120.555 38.8609 121.315 38.1299C122.088 37.361 123.01 36.7572 124.024 36.3551C125.037 35.953 126.122 35.7609 127.213 35.7905C128.296 35.7576 129.374 35.9468 130.381 36.3462C131.388 36.7457 132.303 37.3471 133.069 38.1134C133.827 38.8401 134.426 39.7159 134.829 40.6856C135.231 41.6553 135.429 42.6979 135.409 43.7477V43.7888C135.427 44.8504 135.227 45.9044 134.82 46.8852C134.414 47.8659 133.809 48.7523 133.045 49.489ZM123.852 47.2567C124.289 47.7002 124.811 48.0525 125.386 48.2928C125.96 48.5332 126.577 48.657 127.2 48.657C127.823 48.657 128.44 48.5332 129.015 48.2928C129.59 48.0525 130.111 47.7002 130.549 47.2567C131.415 46.3326 131.882 45.1045 131.85 43.8383V43.7888C131.878 42.5114 131.401 41.2744 130.524 40.3457C130.087 39.9011 129.566 39.548 128.991 39.307C128.416 39.066 127.799 38.9418 127.176 38.9418C126.552 38.9418 125.935 39.066 125.36 39.307C124.785 39.548 124.264 39.9011 123.827 40.3457C122.961 41.2733 122.494 42.5037 122.526 43.7724V43.8135C122.495 45.0963 122.972 46.3394 123.852 47.2732V47.2567Z" fill="#258635"/>
<path d="M141.298 51.5564V36.0869H144.7V42.2072H150.944V36.0869H154.346V51.5564H150.944V45.3702H144.667V51.5811L141.298 51.5564Z" fill="#258635"/>
<path d="M174.346 49.489C172.748 50.9717 170.649 51.7956 168.469 51.7956C166.289 51.7956 164.19 50.9717 162.592 49.489C161.84 48.7555 161.246 47.8756 160.848 46.9037C160.45 45.9317 160.256 44.8884 160.277 43.8383V43.7888C160.256 42.7353 160.453 41.6889 160.856 40.7152C161.258 39.7414 161.858 38.8613 162.616 38.1299C163.39 37.361 164.311 36.7572 165.325 36.3551C166.339 35.953 167.424 35.7609 168.514 35.7905C169.597 35.7576 170.676 35.9468 171.683 36.3462C172.69 36.7457 173.605 37.3471 174.371 38.1134C175.129 38.8401 175.728 39.7159 176.13 40.6856C176.533 41.6553 176.73 42.6979 176.71 43.7477V43.7888C176.731 44.8507 176.532 45.9053 176.125 46.8863C175.718 47.8673 175.112 48.7535 174.346 49.489ZM165.153 47.2567C165.582 47.7163 166.103 48.0795 166.682 48.3224C167.262 48.5652 167.886 48.6821 168.514 48.6653C169.138 48.686 169.758 48.5724 170.334 48.3322C170.909 48.092 171.426 47.7308 171.85 47.2732C172.72 46.351 173.188 45.1216 173.152 43.8547V43.8053C173.168 43.1724 173.059 42.5426 172.831 41.9518C172.604 41.361 172.262 40.8208 171.826 40.3622C171.389 39.9178 170.869 39.5649 170.295 39.324C169.72 39.0831 169.104 38.959 168.481 38.959C167.859 38.959 167.242 39.0831 166.668 39.324C166.094 39.5649 165.573 39.9178 165.137 40.3622C164.265 41.2866 163.794 42.5185 163.827 43.7888V43.83C163.801 45.1071 164.277 46.3434 165.153 47.2732V47.2567Z" fill="#258635"/>
<path d="M182.6 51.5564V36.087H188.926C190.505 36.0006 192.056 36.5324 193.25 37.5697C193.78 38.0615 194.196 38.6623 194.471 39.3308C194.745 39.9992 194.871 40.7192 194.84 41.4411V41.4823C194.884 42.2438 194.747 43.0048 194.44 43.7034C194.134 44.4019 193.667 45.0182 193.077 45.5021C191.792 46.4833 190.204 46.9844 188.588 46.9189H186.002V51.5564H182.6ZM186.002 43.8876H188.703C189.417 43.9236 190.117 43.6882 190.664 43.2286C190.896 43.0221 191.082 42.7683 191.208 42.4841C191.335 42.2 191.399 41.8922 191.397 41.5812V41.54C191.416 41.2147 191.36 40.8894 191.233 40.5893C191.106 40.2893 190.911 40.0226 190.664 39.8102C190.084 39.3679 189.365 39.1487 188.637 39.1924H186.002V43.8876Z" fill="#258635"/>
<path d="M213.975 51.5564H210.573V41.4576L203.242 51.5564H200.235V36.0869H203.662V45.8809L210.754 36.0869H214L213.975 51.5564Z" fill="#258635"/>
<path d="M5.07987 45.2551C6.49108 44.7665 8.01546 44.7071 9.46038 45.0846C10.9053 45.4621 12.2059 46.2594 13.1978 47.3757C14.1898 48.4921 14.8285 49.8775 15.0334 51.3568C15.2382 52.8361 15 54.3429 14.3487 55.6868C13.6975 57.0308 12.6624 58.1515 11.3745 58.9074C10.0865 59.6632 8.60332 60.0204 7.11244 59.9336C5.62156 59.8468 4.18985 59.3201 2.99824 58.4199C1.80663 57.5197 0.908593 56.2865 0.417624 54.8761C-0.239413 52.982 -0.117381 50.9045 0.756891 49.1004C1.63116 47.2962 3.18611 45.9131 5.07987 45.2551Z" fill="#F08050"/>
</svg>
