<svg class="img-responsive " width="213" height="60" viewBox="0 0 213 60" fill="none" xmlns="http://www.w3.org/2000/svg">
	<path id="org" d="M50.9886 51.6563C50.8422 51.8027 50.6959 51.9491 50.4031 52.0955C44.987 57.0724 38.2535 59.7072 31.52 60C31.3736 60 31.2272 60 31.2272 59.8536C31.0809 59.7073 31.0809 59.2681 31.3736 59.2681C43.5232 57.0724 52.7452 46.6794 52.8916 33.7979C53.038 27.7963 50.5495 22.3802 46.7436 18.2816C42.9377 14.3293 37.668 11.8408 31.8128 11.6944C22.8835 11.4017 15.4182 17.9888 14.5399 26.6253C14.5399 27.2108 14.3935 27.6499 14.3935 28.2354C14.2471 35.8472 20.3951 42.1416 27.8605 42.4343C28.7388 42.4343 29.6171 42.4343 30.4953 42.1416C30.7881 41.9952 30.7881 41.5561 30.4953 41.5561C25.5184 41.4097 21.7125 37.311 21.7125 32.4805C21.8589 26.4789 26.6894 21.7947 32.5447 21.6483C32.691 21.6483 32.9838 21.6483 33.1302 21.6483C40.1565 21.7947 45.8653 27.0644 46.5972 33.9443C46.7436 34.6762 46.7436 35.2617 46.7436 35.9936C46.5972 41.5561 43.816 46.3866 39.7173 49.607C38.8391 50.1925 37.9607 50.778 37.0825 51.2172C31.9591 54.1448 25.9576 54.7303 20.5415 52.9738C20.3951 52.9738 20.3951 52.9737 20.2487 52.8274C20.1023 52.8274 19.956 52.681 19.8096 52.681C19.8096 52.681 19.8096 52.681 19.6632 52.681C19.3704 52.5346 18.9313 52.3882 18.6385 52.2419C18.4921 52.2419 18.4922 52.0955 18.3458 52.0955C18.1994 52.0955 18.053 51.9491 17.9066 51.9491C17.7602 51.9491 17.6139 51.8027 17.6139 51.8027C17.4675 51.6563 17.1747 51.6563 17.0284 51.5099C16.882 51.5099 16.7356 51.3636 16.5892 51.2172C16.4428 51.2172 16.2965 51.0708 16.2965 51.0708C16.1501 50.9244 16.0037 50.9244 15.8573 50.778C15.7109 50.778 15.7109 50.6317 15.5646 50.6317C15.2718 50.4853 15.1254 50.3389 14.8327 50.1925C14.6863 50.1925 14.6863 50.0461 14.5399 50.0461C14.3935 49.8998 14.2471 49.7534 14.1008 49.7534C13.9544 49.7534 13.9544 49.607 13.9544 49.607C13.6616 49.4606 13.5152 49.3142 13.2225 49.0215L13.0761 48.8751C12.9297 48.7287 12.6369 48.5823 12.4906 48.4359L12.3442 48.2896C12.0514 48.1432 11.905 47.8504 11.7587 47.704C11.4659 47.4113 11.3195 47.2649 11.0268 46.9721C4.58601 39.7995 2.82944 28.9673 7.22085 20.4773C7.36723 20.1845 6.9281 19.8917 6.63534 20.1845C1.80478 27.0644 1.51201 34.8226 2.82944 40.9705C2.97582 41.4097 2.24391 41.7025 2.09753 41.2633C-2.29388 29.992 0.194606 16.6714 9.70934 7.88856C21.4198 -2.79722 39.8637 -2.65085 51.2814 8.47407C63.2846 20.1845 63.431 39.214 52.0133 51.0708L51.8669 51.2172C51.7205 51.3636 51.7205 51.3636 51.5741 51.5099C51.5741 51.5099 51.5742 51.5099 51.4278 51.6563L51.2814 51.8027C51.135 51.5099 51.135 51.6563 50.9886 51.6563Z" fill="#B8D637" style="transform: rotate(-720deg);"></path>
	<path d="M209.226 1.88721C207.323 1.88721 205.713 3.49741 205.713 5.40035C205.713 7.3033 207.323 8.91348 209.226 8.91348C211.129 8.91348 212.739 7.3033 212.739 5.40035C212.593 3.49741 211.129 1.88721 209.226 1.88721ZM211.861 5.40035C211.861 6.86416 210.69 8.18157 209.08 8.18157C207.469 8.18157 206.298 7.01054 206.298 5.40035C206.298 3.79017 207.469 2.61911 209.08 2.61911C210.69 2.61911 211.861 3.93655 211.861 5.40035Z" fill="#B8D637"></path>
	<path d="M209.665 7.15719L209.08 5.98614H208.641V7.15719H207.909V3.64404H209.226C209.958 3.64404 210.544 4.08319 210.544 4.81509C210.544 5.40061 210.251 5.69337 209.812 5.83975L210.544 7.15719H209.665ZM209.812 4.81509C209.812 4.37595 209.519 4.22958 209.226 4.22958H208.641V5.25424H209.226C209.519 5.40062 209.812 5.25423 209.812 4.81509Z" fill="#B8D637"></path>
	<path d="M183.903 2.76514H179.072C178.779 2.76514 178.633 2.91151 178.486 3.05789L170.143 17.2568L161.799 3.05789C161.653 2.91151 161.506 2.76514 161.214 2.76514H156.383C155.797 2.76514 155.505 3.35065 155.797 3.7898L167.215 23.4048V34.3833C167.215 34.8224 167.508 35.1152 167.947 35.1152H172.046C172.485 35.1152 172.778 34.8224 172.778 34.3833V23.5512L184.342 3.93619C184.634 3.35066 184.342 2.76514 183.903 2.76514Z" fill="#B8D637"></path>
	<path d="M152.431 35.1151H148.186C147.746 35.1151 147.454 34.8224 147.454 34.3832V3.35055C147.454 2.91141 147.746 2.61865 148.186 2.61865H152.431C152.87 2.61865 153.162 2.91141 153.162 3.35055V34.3832C153.162 34.676 152.87 35.1151 152.431 35.1151Z" fill="#B8D637"></path>
	<path d="M87.5839 35.7007C86.4128 35.7007 85.3882 35.1152 84.8027 34.0905L73.2386 14.1828V34.3833C73.2386 34.8224 72.9459 35.1152 72.5067 35.1152H68.2617C67.8225 35.1152 67.5298 34.8224 67.5298 34.3833V5.25359C67.5298 3.78978 68.5544 2.47235 70.0182 2.17959C71.482 1.88682 72.9458 2.47235 73.5313 3.64339L85.2418 23.5511V3.20427C85.2418 2.76513 85.5346 2.47236 85.9737 2.47236H90.2188C90.6579 2.47236 90.9507 2.76513 90.9507 3.20427V32.1876C90.9507 33.505 90.2187 34.6761 89.0477 35.2616C88.4622 35.5543 88.023 35.7007 87.5839 35.7007Z" fill="#B8D637"></path>
	<path d="M141.306 34.9688H122.276C121.837 34.9688 121.398 34.5297 121.398 34.0906V3.64341C121.398 3.20426 121.837 2.76514 122.276 2.76514H141.306C143.209 2.76514 144.672 4.22895 144.672 6.13189V31.6021C144.672 33.3587 143.209 34.9688 141.306 34.9688ZM127.107 29.26H139.11V8.3276H127.107V29.26Z" fill="#B8D637"></path>
	<path d="M113.64 4.96084C113.347 3.64342 112.176 2.76514 110.712 2.76514H102.076C100.758 2.76514 99.4407 3.64341 99.148 5.10721L93.2927 34.3833C93.1464 34.8224 93.5855 35.1152 93.8783 35.1152H98.4161C98.7088 35.1152 99.0016 34.8225 99.0016 34.5297L100.758 26.186H111.151L112.469 34.5297C112.469 34.8225 112.761 35.1152 113.054 35.1152H117.592C118.031 35.1152 118.324 34.8224 118.177 34.3833L113.347 5.39999L113.64 4.96084ZM102.076 20.3308L104.418 8.47397H108.37L110.273 20.3308H102.076Z" fill="#B8D637"></path>
	<path d="M200.736 4.96084C200.443 3.64342 199.272 2.76514 197.808 2.76514H189.172C187.854 2.76514 186.537 3.64341 186.244 5.10721L180.389 34.3833C180.243 34.8224 180.682 35.1152 180.974 35.1152H185.512C185.805 35.1152 186.098 34.8225 186.098 34.5297L187.854 26.186H198.247L199.565 34.5297C199.565 34.8225 199.858 35.1152 200.15 35.1152H204.688C205.127 35.1152 205.42 34.8224 205.274 34.3833L200.443 5.39999L200.736 4.96084ZM189.172 20.3308L191.514 8.47397H195.466L197.369 20.3308H189.172Z" fill="#B8D637"></path>
	<path d="M154.187 41.7027C154.187 40.6781 154.919 39.7998 156.09 39.7998C156.822 39.7998 157.115 40.0926 157.554 40.3853L157.115 40.8245C156.822 40.5317 156.529 40.3853 156.09 40.3853C155.358 40.3853 154.919 40.9708 154.919 41.7027C154.919 42.4346 155.358 43.0202 156.09 43.0202C156.529 43.0202 156.822 42.8738 157.115 42.581L157.554 43.0202C157.115 43.4593 156.822 43.6057 156.09 43.6057C154.919 43.6057 154.187 42.7274 154.187 41.7027Z" fill="#B8D637"></path>
	<path d="M159.164 39.9463H159.75V43.0203H161.653V43.6058H159.164V39.9463Z" fill="#B8D637"></path>
	<path d="M163.263 39.9463H163.848V43.6058H163.263V39.9463Z" fill="#B8D637"></path>
	<path d="M165.751 39.9463H166.337L168.24 42.4348V39.9463H168.825V43.6058H168.24L166.19 40.9709V43.6058H165.605V39.9463H165.751Z" fill="#B8D637"></path>
	<path d="M170.875 39.9463H171.46V43.6058H170.875V39.9463Z" fill="#B8D637"></path>
	<path d="M173.216 41.7027C173.216 40.6781 173.948 39.7998 175.119 39.7998C175.851 39.7998 176.144 40.0926 176.583 40.3853L176.144 40.8245C175.851 40.5317 175.558 40.3853 175.119 40.3853C174.387 40.3853 173.948 40.9708 173.948 41.7027C173.948 42.4346 174.387 43.0202 175.119 43.0202C175.558 43.0202 175.851 42.8738 176.144 42.581L176.583 43.0202C176.144 43.4593 175.851 43.6057 175.119 43.6057C174.095 43.6057 173.216 42.7274 173.216 41.7027Z" fill="#B8D637"></path>
	<path d="M180.536 41.7027C180.536 40.6781 181.268 39.7998 182.439 39.7998C183.61 39.7998 184.342 40.6781 184.342 41.7027C184.342 42.7274 183.61 43.6057 182.439 43.6057C181.268 43.6057 180.536 42.7274 180.536 41.7027ZM183.61 41.7027C183.61 40.9708 183.171 40.3853 182.439 40.3853C181.707 40.3853 181.268 40.9708 181.268 41.7027C181.268 42.4346 181.853 43.0202 182.439 43.0202C183.024 43.0202 183.61 42.4346 183.61 41.7027Z" fill="#B8D637"></path>
	<path d="M185.952 39.9463H188.586V40.5318H186.537V41.5565H188.294V42.142H186.537V43.6058H185.952V39.9463Z" fill="#B8D637"></path>
	<path d="M154.333 46.0938H155.944C156.822 46.0938 157.261 46.5329 157.261 47.2648C157.261 47.8503 156.968 48.2895 156.383 48.2895L157.407 49.6069H156.676L155.797 48.2895H155.065V49.6069H154.333V46.0938ZM155.944 47.9967C156.383 47.9967 156.676 47.7039 156.676 47.4112C156.676 46.972 156.383 46.8257 155.944 46.8257H155.065V47.9967H155.944Z" fill="#B8D637"></path>
	<path d="M159.017 46.0938H161.652V46.6793H159.603V47.5576H161.36V48.1431H159.603V49.1677H161.652V49.7533H158.871V46.0938H159.017Z" fill="#B8D637"></path>
	<path d="M163.409 46.0938H164.873C165.751 46.0938 166.19 46.5329 166.19 47.2648C166.19 48.1431 165.605 48.4358 164.727 48.4358H163.995V49.6069H163.409V46.0938ZM164.873 47.9967C165.312 47.9967 165.605 47.7039 165.605 47.4112C165.605 46.972 165.312 46.8257 164.873 46.8257H164.141V48.1431H164.873V47.9967Z" fill="#B8D637"></path>
	<path d="M167.8 46.0938H169.41C170.289 46.0938 170.728 46.5329 170.728 47.2648C170.728 47.8503 170.435 48.2895 169.85 48.2895L170.874 49.6069H170.142L169.264 48.2895H168.532V49.6069H167.947V46.0938H167.8ZM169.41 47.9967C169.85 47.9967 170.142 47.7039 170.142 47.4112C170.142 46.972 169.85 46.8257 169.41 46.8257H168.532V47.9967H169.41Z" fill="#B8D637"></path>
	<path d="M172.338 47.9967C172.338 46.972 173.07 46.0938 174.241 46.0938C175.412 46.0938 176.144 46.972 176.144 47.9967C176.144 49.0214 175.412 49.8997 174.241 49.8997C173.07 49.7533 172.338 49.0214 172.338 47.9967ZM175.412 47.9967C175.412 47.2648 174.827 46.6793 174.241 46.6793C173.509 46.6793 173.07 47.2648 173.07 47.9967C173.07 48.7286 173.656 49.3141 174.241 49.3141C174.973 49.1678 175.412 48.5822 175.412 47.9967Z" fill="#B8D637"></path>
	<path d="M177.754 46.0938H179.072C180.243 46.0938 180.975 46.8257 180.975 47.8503C180.975 48.875 180.243 49.6069 179.072 49.6069H177.754V46.0938ZM179.218 49.1677C179.95 49.1677 180.536 48.7286 180.536 47.9967C180.536 47.2648 180.096 46.8257 179.218 46.8257H178.486V49.3141H179.218V49.1677Z" fill="#B8D637"></path>
	<path d="M182.731 48.1431V46.0938H183.317V48.1431C183.317 48.875 183.61 49.1677 184.195 49.1677C184.781 49.1677 185.074 48.875 185.074 48.1431V46.0938H185.659V48.1431C185.659 49.1678 185.074 49.7533 184.049 49.7533C183.317 49.7533 182.731 49.3141 182.731 48.1431Z" fill="#B8D637"></path>
	<path d="M187.416 47.9967C187.416 46.972 188.147 46.0938 189.318 46.0938C190.05 46.0938 190.343 46.3865 190.782 46.6793L190.343 47.1184C190.05 46.8257 189.758 46.6793 189.318 46.6793C188.587 46.6793 188.147 47.2648 188.147 47.9967C188.147 48.7286 188.587 49.3141 189.318 49.3141C189.758 49.3141 190.05 49.1678 190.343 48.875L190.782 49.3141C190.343 49.7533 190.05 49.8997 189.318 49.8997C188.294 49.7533 187.416 49.0214 187.416 47.9967Z" fill="#B8D637"></path>
	<path d="M193.271 46.6793H192.1V46.0938H195.027V46.6793H193.856V49.7533H193.271V46.6793Z" fill="#B8D637"></path>
	<path d="M196.637 46.0938H197.223V49.7533H196.637V46.0938Z" fill="#B8D637"></path>
	<path d="M198.979 46.0938H199.711L200.736 48.875L201.761 46.0938H202.493L201.029 49.7533H200.443L198.979 46.0938Z" fill="#B8D637"></path>
	<path d="M203.956 46.0938H206.591V46.6793H204.542V47.5576H206.299V48.1431H204.542V49.1677H206.591V49.7533H203.81V46.0938H203.956Z" fill="#B8D637"></path>
	<path d="M154.333 52.3887H155.065L156.236 54.1452L157.407 52.3887H158.139V56.0482H157.261V53.4133L156.09 55.1699L154.919 53.4133V56.0482H154.333V52.3887Z" fill="#B8D637"></path>
	<path d="M159.749 52.3887H162.384V52.9742H160.335V53.8525H162.091V54.438H160.335V55.4627H162.384V56.0482H159.603V52.3887H159.749Z" fill="#B8D637"></path>
	<path d="M164.141 52.3887H165.459C166.63 52.3887 167.361 53.1206 167.361 54.1452C167.361 55.1699 166.63 55.9018 165.459 55.9018H164.141V52.3887ZM165.459 55.3163C166.19 55.3163 166.776 54.8771 166.776 54.1452C166.776 53.4133 166.337 52.9742 165.459 52.9742H164.727V55.4627H165.459V55.3163Z" fill="#B8D637"></path>
	<path d="M169.118 52.3887H169.703V56.0482H169.118V52.3887Z" fill="#B8D637"></path>
	<path d="M171.606 54.1451C171.606 53.1205 172.338 52.2422 173.509 52.2422C174.241 52.2422 174.534 52.5349 174.973 52.8277L174.534 53.2668C174.241 52.9741 173.949 52.8277 173.509 52.8277C172.778 52.8277 172.338 53.4132 172.338 54.1451C172.338 54.877 172.778 55.4626 173.509 55.4626C173.949 55.4626 174.241 55.3162 174.534 55.0234L174.973 55.4626C174.534 55.9017 174.241 56.0481 173.509 56.0481C172.338 56.0481 171.606 55.1698 171.606 54.1451Z" fill="#B8D637"></path>
	<path d="M176.437 52.3887H177.023V56.0482H176.437V52.3887Z" fill="#B8D637"></path>
	<path d="M179.072 52.3887H179.657L181.56 54.8771V52.3887H182.146V56.0482H181.56L179.511 53.4133V56.0482H178.925V52.3887H179.072Z" fill="#B8D637"></path>
	<path d="M184.049 52.3887H186.684V52.9742H184.634V53.8525H186.391V54.438H184.634V55.4627H186.684V56.0482H183.902V52.3887H184.049Z" fill="#B8D637"></path>
	<path d="M77.1023 49.9894C75.9237 51.1907 74.4333 51.7914 72.6313 51.7914C70.8293 51.7914 69.3447 51.1964 68.1773 50.0064C67.01 48.8164 66.4263 47.3601 66.4263 45.6374C66.4263 43.9374 67.0157 42.4867 68.1943 41.2854C69.373 40.0841 70.8633 39.4834 72.6653 39.4834C74.4673 39.4834 75.952 40.0784 77.1193 41.2684C78.2867 42.4584 78.8703 43.9147 78.8703 45.6374C78.8703 47.3374 78.281 48.7881 77.1023 49.9894ZM69.7583 48.6464C70.529 49.4624 71.498 49.8704 72.6653 49.8704C73.8327 49.8704 74.7903 49.4624 75.5383 48.6464C76.2977 47.8304 76.6773 46.8274 76.6773 45.6374C76.6773 44.4587 76.292 43.4614 75.5213 42.6454C74.762 41.8181 73.7987 41.4044 72.6313 41.4044C71.464 41.4044 70.5007 41.8124 69.7413 42.6284C68.9933 43.4444 68.6193 44.4474 68.6193 45.6374C68.6193 46.8161 68.999 47.8191 69.7583 48.6464ZM81.3967 51.5874V39.6874H85.8337C87.6924 39.6874 89.211 40.2541 90.3897 41.3874C91.5684 42.5094 92.1577 43.9261 92.1577 45.6374C92.1577 47.3374 91.5627 48.7541 90.3727 49.8874C89.194 51.0207 87.681 51.5874 85.8337 51.5874H81.3967ZM83.4877 49.6834H85.8337C87.069 49.6834 88.0664 49.3094 88.8257 48.5614C89.585 47.8021 89.9647 46.8274 89.9647 45.6374C89.9647 44.4587 89.585 43.4897 88.8257 42.7304C88.0664 41.9711 87.069 41.5914 85.8337 41.5914H83.4877V49.6834ZM94.6946 51.5874V39.6874H103.518V41.5574H96.7856V44.6514H102.753V46.5214H96.7856V49.7174H103.603V51.5874H94.6946ZM110.248 51.7574C108.356 51.7574 106.701 51.1227 105.284 49.8534L106.542 48.3574C107.732 49.3887 108.985 49.9044 110.299 49.9044C110.945 49.9044 111.455 49.7684 111.829 49.4964C112.215 49.2131 112.407 48.8391 112.407 48.3744C112.407 47.9324 112.226 47.5811 111.863 47.3204C111.501 47.0484 110.787 46.7877 109.721 46.5384C108.339 46.2097 107.33 45.7961 106.695 45.2974C106.072 44.7874 105.76 44.0111 105.76 42.9684C105.76 41.9484 106.14 41.1211 106.899 40.4864C107.659 39.8404 108.633 39.5174 109.823 39.5174C111.455 39.5174 112.895 40.0161 114.141 41.0134L113.019 42.5944C111.92 41.7784 110.843 41.3704 109.789 41.3704C109.189 41.3704 108.713 41.5064 108.361 41.7784C108.021 42.0504 107.851 42.3961 107.851 42.8154C107.851 43.2801 108.038 43.6427 108.412 43.9034C108.798 44.1527 109.551 44.4134 110.673 44.6854C111.988 45.0027 112.951 45.4277 113.563 45.9604C114.187 46.4931 114.498 47.2411 114.498 48.2044C114.498 49.3037 114.107 50.1707 113.325 50.8054C112.543 51.4401 111.518 51.7574 110.248 51.7574ZM120.956 51.7574C119.064 51.7574 117.409 51.1227 115.992 49.8534L117.25 48.3574C118.44 49.3887 119.693 49.9044 121.007 49.9044C121.653 49.9044 122.163 49.7684 122.537 49.4964C122.923 49.2131 123.115 48.8391 123.115 48.3744C123.115 47.9324 122.934 47.5811 122.571 47.3204C122.209 47.0484 121.495 46.7877 120.429 46.5384C119.047 46.2097 118.038 45.7961 117.403 45.2974C116.78 44.7874 116.468 44.0111 116.468 42.9684C116.468 41.9484 116.848 41.1211 117.607 40.4864C118.367 39.8404 119.341 39.5174 120.531 39.5174C122.163 39.5174 123.603 40.0161 124.849 41.0134L123.727 42.5944C122.628 41.7784 121.551 41.3704 120.497 41.3704C119.897 41.3704 119.421 41.5064 119.069 41.7784C118.729 42.0504 118.559 42.3961 118.559 42.8154C118.559 43.2801 118.746 43.6427 119.12 43.9034C119.506 44.1527 120.259 44.4134 121.381 44.6854C122.696 45.0027 123.659 45.4277 124.271 45.9604C124.895 46.4931 125.206 47.2411 125.206 48.2044C125.206 49.3037 124.815 50.1707 124.033 50.8054C123.251 51.4401 122.226 51.7574 120.956 51.7574ZM126.396 51.5874L131.632 39.6024H133.57L138.806 51.5874H136.596L135.389 48.7144H129.762L128.538 51.5874H126.396ZM130.527 46.8614H134.624L132.567 42.1014L130.527 46.8614Z" fill="#B8D637"></path>
</svg>