<svg width="203" height="183" viewBox="0 0 203 183" fill="none" xmlns="http://www.w3.org/2000/svg">
<path d="M96.15 11.9209C69.6678 11.9209 48.2242 33.1882 48.2242 59.4528C48.2242 85.7173 69.6678 106.985 96.15 106.985C122.632 106.985 144.076 85.7173 144.076 59.4528C144.076 33.1882 122.632 11.9209 96.15 11.9209ZM130.718 36.4422C131.655 36.0936 132.241 36.2098 132.71 37.0233C133.53 38.3017 134.35 39.6962 135.053 41.0908C135.756 42.6016 135.405 43.2989 133.764 43.6475C132.827 43.88 131.889 43.88 130.952 44.1124C128.608 44.6935 126.382 45.7394 124.273 47.134C122.984 47.9475 121.695 48.6448 120.406 49.4583C120.171 49.5745 119.937 49.6907 119.703 49.8069C119.703 49.8069 119.586 49.8069 119.586 49.6907C119.586 49.3421 119.586 48.9934 119.703 48.761C121.46 42.834 124.976 38.6503 130.718 36.4422ZM108.454 75.258C109.391 77.1174 109.977 79.3255 110.211 81.4174C110.563 84.5552 108.805 86.4146 105.524 85.6011C103.181 85.02 100.954 83.6255 98.7279 82.4633C97.2046 81.5336 97.0874 78.7444 98.4936 77.5823C99.5482 76.6526 100.837 75.8391 101.892 74.7931C102.595 74.212 102.946 73.2823 103.532 72.4688C102.712 71.8878 101.892 70.958 101.071 70.958C98.7279 70.7256 96.3844 70.958 94.158 70.958C93.2206 70.958 92.2831 70.958 91.5801 70.958C91.5801 68.5175 91.5801 66.3094 91.5801 63.9851C91.4629 60.8473 88.5335 57.4771 85.4868 56.896C84.9009 56.7798 84.315 57.2447 83.7292 57.3609C81.62 58.1744 79.3936 58.6393 76.6985 57.0123C78.1046 55.9663 79.042 54.9204 80.2138 54.4555C82.323 53.642 83.612 52.4799 83.3776 50.0394C83.2604 49.3421 84.0807 48.1799 84.7838 47.8313C86.4243 47.0178 88.1819 46.4367 89.8224 45.8556C90.1739 45.7394 90.9942 46.0881 91.3457 46.4367C92.5175 47.8313 92.4003 48.761 93.5721 50.2718C94.158 50.9691 95.9157 52.3637 96.6187 53.2934C99.431 51.7826 99.8997 49.2259 102.126 46.5529C102.595 46.0881 103.649 45.7394 104.352 45.9718C105.759 46.2043 106.93 47.0178 108.337 47.2502C112.203 47.9475 113.727 50.6204 114.547 53.9907C115.367 58.0582 114.781 58.7555 110.563 57.8258C110.211 57.7095 109.86 57.7095 109.508 57.4771C107.516 55.6177 106.11 57.2447 104.587 58.4068C102.946 59.6852 102.126 61.4284 102.595 63.5203C102.595 63.7527 102.829 63.8689 103.064 64.2176C103.415 63.7527 103.767 63.2879 104.001 62.823C104.821 61.4284 105.993 60.8473 107.516 61.4284C109.391 62.1257 110.797 62.0095 112.086 60.1501C113.258 58.4068 114.43 58.6393 115.133 60.6149C115.367 61.3122 115.719 62.0095 115.953 62.823C116.656 65.0311 116.07 66.4257 114.078 67.5878C112.555 68.5175 106.93 66.6581 105.524 67.704C103.884 68.9824 107.399 73.1661 108.454 75.258ZM77.9874 58.523C79.042 59.3365 79.8623 60.2663 80.9169 60.8473C81.8543 61.4284 82.9089 62.0095 83.8463 61.8933C87.596 61.3122 89.8224 62.3581 89.1193 65.8446C86.893 66.3094 85.2525 66.4257 83.2604 66.8905C82.5574 67.0067 80.331 67.704 79.5108 67.704C77.2844 67.9365 76.2298 66.8905 76.1126 64.7986C76.1126 62.7068 76.347 60.6149 77.9874 58.523ZM75.9954 47.7151C75.1752 46.4367 74.3549 45.1583 73.6519 43.88C72.9488 42.7178 72.4801 41.5557 71.8942 40.3935C71.777 40.1611 71.6598 39.9287 71.6598 39.58C71.5427 39.2314 71.6598 39.1152 72.0114 39.1152C72.5973 39.3476 73.1831 39.58 73.6519 39.8125C75.5267 40.8584 77.2844 42.1368 78.9249 43.7638C79.8623 44.6935 79.8623 45.0421 79.042 45.9718C78.4562 46.6691 77.7531 47.3664 77.05 47.9475C76.4641 48.2961 76.2298 48.1799 75.9954 47.7151ZM83.0261 80.139C83.4948 78.3958 84.1979 76.6526 84.9009 75.0256C85.8384 73.0499 87.9476 72.3526 89.8224 73.631C91.5801 74.7931 93.2206 76.1877 94.8611 77.6985C96.15 78.9769 95.5641 81.3012 94.2752 82.4633C92.2832 84.2065 90.4083 85.8335 87.4789 85.8335C83.4948 85.8335 81.9715 83.9741 83.0261 80.139ZM114.313 46.9016C114.195 46.5529 114.078 46.0881 114.078 45.8556C114.195 43.9962 114.898 42.6016 116.187 41.6719C117.359 40.7422 118.531 40.0449 119.82 39.2314C120.054 39.1152 120.289 39.1152 120.64 38.999C120.64 39.2314 120.757 39.58 120.757 39.8125C120.523 41.4395 119.937 42.9503 119.117 44.3448C118.531 45.2746 117.945 46.2043 117.242 47.134C117.008 47.2502 116.891 47.3664 116.773 47.3664C115.953 48.4124 114.781 48.1799 114.313 46.9016ZM126.148 30.3991C127.437 30.7477 128.374 31.6774 128.96 32.8396C129.311 33.5369 129.311 33.8855 128.491 34.0017C126.968 34.4666 125.327 34.8152 123.804 35.1639C120.406 35.8612 116.891 36.4422 113.492 37.0233C113.375 37.0233 113.258 37.0233 113.024 37.0233C115.25 34.2341 117.711 31.7936 121.109 30.6315C122.749 30.1666 124.39 29.9342 126.148 30.3991ZM113.375 22.3802C113.492 21.9154 113.61 21.6829 114.078 21.6829C114.43 21.6829 114.898 21.7992 115.25 22.0316C116.891 22.7289 118.297 23.6586 119.703 24.8207C120.172 25.1694 120.523 25.6342 120.875 26.0991C121.226 26.6802 120.992 27.145 120.406 27.3775C120.289 27.3775 120.172 27.4937 120.054 27.4937C119.117 27.4937 118.414 27.8423 117.828 28.4234C116.187 29.818 114.781 31.445 113.492 33.1882C111.735 35.3963 110.329 37.7206 108.922 40.1611C108.454 41.0908 107.751 41.9043 107.165 42.7178C106.93 43.0665 106.579 43.2989 106.227 43.5313C105.759 43.88 105.407 43.7638 105.29 43.0665C105.29 42.834 105.173 42.6016 105.173 42.3692C105.173 42.3692 105.173 42.3692 105.056 42.3692C105.29 41.4395 105.524 40.5097 105.876 39.58C107.399 35.1639 109.157 30.8639 111.383 26.6802C111.969 25.6342 112.555 24.5883 113.141 23.5424C113.141 23.1937 113.258 22.7289 113.375 22.3802ZM103.532 22.4964C103.767 21.7992 104.001 21.1019 104.235 20.5208C104.587 19.7073 105.173 19.3586 105.876 19.3586C107.165 19.2424 108.454 19.2424 109.625 19.9397C110.094 20.1722 110.563 20.5208 110.914 20.8694C111.5 21.5667 111.5 22.4964 110.914 23.0775C109.743 24.2397 108.922 25.7505 108.219 27.3775C106.813 30.6315 105.524 34.1179 104.821 37.7206C104.47 39.58 104.001 41.3233 103.532 43.0665C103.298 43.88 102.829 44.5773 102.36 45.2746C102.009 45.8556 101.423 46.0881 100.837 45.8556C100.251 45.6232 99.6654 45.1583 99.5482 44.3448C99.431 43.5313 99.431 42.7178 99.3138 41.9043C99.3138 39.3476 99.7825 36.7909 100.486 34.2341C101.54 30.2828 102.478 26.3315 103.532 22.4964ZM93.3377 17.9641C93.9236 17.6154 95.0954 17.383 96.3844 17.383C97.439 17.383 98.6108 17.6154 99.7825 18.0803C100.486 18.4289 100.72 18.7776 100.368 19.4749C99.5482 21.2181 99.431 23.1937 99.3138 25.1694C98.9623 29.2369 98.8451 33.4206 98.6108 37.4882C98.4936 39.3476 98.3764 41.0908 98.142 42.9503C98.142 43.1827 98.0249 43.4151 98.0249 43.6475C97.9077 44.2286 97.439 44.5773 96.8531 44.5773C96.5016 44.5773 96.0328 44.5773 95.6813 44.4611C94.9782 44.3448 94.6267 43.88 94.5095 43.0665C94.3924 42.1368 94.3924 41.0908 94.3924 40.0449C94.158 36.4422 94.0408 32.9558 93.6893 29.3531C93.4549 26.2153 93.2206 23.0775 92.869 19.9397C92.869 19.7073 92.7519 19.3586 92.7519 19.1262C92.6347 18.5451 92.7519 18.3127 93.3377 17.9641ZM82.323 19.8235C83.2604 19.4749 84.1979 19.2424 85.1353 19.1262C85.604 19.01 85.9555 19.01 86.4242 19.01C87.2445 19.01 87.8304 19.3586 88.1819 20.1721C88.6506 21.2181 89.0022 22.1478 89.3537 23.1937C90.5255 26.564 91.3457 30.0504 91.8144 33.5369C92.0488 35.5125 92.166 37.3719 92.4003 39.3476C92.2831 40.8584 92.2832 42.3692 91.9316 43.7638C91.5801 45.0421 90.877 45.507 89.9396 45.0421C89.4709 44.8097 89.2365 44.4611 89.1193 43.88C88.5335 40.9746 87.8304 37.953 87.2445 35.0477C86.4243 30.9801 84.9009 27.2613 82.7917 23.891C82.4402 23.31 82.0887 22.8451 81.8543 22.264C81.0341 21.2181 81.2684 20.2884 82.323 19.8235ZM71.6598 26.2153C72.2457 25.518 72.9488 24.937 73.6519 24.2397C74.7065 23.31 75.9954 22.4964 77.2844 21.7992C78.1046 21.4505 78.339 21.4505 78.9249 22.264C79.7451 23.5424 80.6825 24.937 81.3856 26.3315C83.2604 29.9342 84.9009 33.7693 86.1899 37.7206C86.5414 38.8827 87.0101 40.0449 87.0101 41.6719C86.893 42.0205 86.893 42.7178 86.6586 43.4151C86.5414 43.88 86.3071 43.9962 85.9555 43.5313C85.1353 42.3692 84.315 41.207 83.612 40.0449C82.0887 37.4882 80.5654 34.8152 78.6905 32.6071C77.2844 30.9801 75.9954 29.3531 74.1206 28.191C73.6519 27.8423 72.9488 27.7261 72.4801 27.4937C72.3629 27.4937 72.2457 27.4937 72.1285 27.4937C71.3083 27.3775 71.0739 26.7964 71.6598 26.2153ZM64.512 32.0261C65.4494 30.6315 66.7384 30.1666 68.2617 30.1666C70.4881 30.1666 72.4801 30.9801 74.3549 32.1423C75.9954 33.1882 77.2844 34.699 78.5733 36.0936C78.6905 36.2098 78.6905 36.326 78.8077 36.4422C78.8077 36.5584 78.8077 36.5584 78.9249 36.7909C78.4562 36.7909 77.9874 36.9071 77.6359 36.7909C74.7065 36.326 71.777 35.8612 68.8476 35.2801C67.6758 35.0476 66.504 34.699 65.4494 34.4666C63.6917 34.0017 63.5746 33.4206 64.512 32.0261ZM58.6531 38.7665C59.0046 38.1854 59.3561 37.6044 59.8249 37.1395C60.2936 36.6747 60.8795 36.4422 61.5825 36.4422C62.52 36.4422 63.223 36.7909 64.0433 37.1395C65.6838 37.953 66.9727 39.1152 68.1445 40.5097C70.0193 42.834 71.777 45.2746 73.1831 48.0637C73.3003 48.4124 73.4175 48.761 73.5347 49.1096C73.5347 49.2259 73.5347 49.5745 73.4175 49.6907C73.3003 49.8069 73.066 49.6907 72.9488 49.6907C71.6598 49.1096 70.3709 48.4124 69.0819 47.8313C66.8555 46.6691 64.6292 45.6232 62.4028 44.5773C61.4653 44.1124 60.5279 43.88 59.5905 43.88C59.3561 43.88 59.0046 43.7638 58.7703 43.6475C58.1844 43.4151 57.8328 42.9503 57.8328 42.253C57.5985 40.9746 58.0672 39.8125 58.6531 38.7665ZM53.0285 49.1096C53.2629 47.9475 54.0831 47.2502 55.1377 46.7854C56.0752 46.3205 57.1298 46.3205 58.1844 46.3205C60.5279 46.3205 62.7543 46.9016 64.9807 47.7151C66.7384 48.4124 68.3788 49.1096 70.1365 49.9231C70.4881 50.0394 70.8396 50.388 71.0739 50.6204C71.1911 50.7367 71.1911 50.8529 71.1911 50.9691C71.0739 50.9691 70.9568 51.0853 70.8396 51.0853C70.1365 50.9691 69.4334 50.9691 68.8476 50.8529C67.0899 50.6204 65.4494 50.1556 63.6917 50.0394C61.4654 49.8069 59.4733 50.388 57.7157 51.7826C57.1298 52.2474 56.3095 52.7123 55.6065 53.061C55.2549 53.1772 54.7862 53.2934 54.4347 53.2934C53.8488 53.2934 53.3801 52.8285 53.1457 52.2474C52.7942 51.2015 52.7942 50.1556 53.0285 49.1096ZM53.7316 60.0338C53.2629 58.1744 53.7316 56.6636 55.0206 55.5015C56.4267 54.2231 58.1844 53.5258 59.942 53.1772C62.8715 52.4799 65.8009 52.4799 68.7304 52.8285C70.2537 53.061 71.777 53.2934 73.1831 53.642C73.4175 53.642 73.5347 53.7582 73.769 53.8745V53.9907C73.5347 54.1069 73.3003 54.2231 73.066 54.2231C71.0739 54.5717 68.9647 55.0366 66.9727 55.3853C65.5666 55.7339 64.1604 56.0825 62.8715 56.6636C61.6997 57.2447 60.7623 58.0582 59.8249 58.9879C58.5359 60.2663 57.2469 61.5446 55.8408 62.823C54.9034 63.6365 54.5519 63.5203 54.2003 62.3581C54.2003 61.4284 53.966 60.7311 53.7316 60.0338ZM64.3948 80.2552C64.3948 80.8363 64.1604 81.5336 64.0433 82.1147C63.9261 82.4633 63.6917 82.5795 63.4574 82.3471C62.6371 81.5336 61.6997 80.7201 60.8795 79.7904C59.1218 77.9309 57.4813 76.0715 56.0752 73.8634C55.1377 72.3526 54.669 70.958 54.669 69.331C54.669 67.9365 55.3721 66.4257 56.3095 65.1473C57.95 62.5906 60.2936 60.8473 62.9887 59.4528C65.3322 58.2906 67.793 57.2447 70.3709 57.0123C71.1911 56.896 72.0114 57.0123 72.8316 57.1285C73.769 57.3609 74.4721 58.2906 74.3549 59.2203C74.3549 59.4528 74.1206 59.8014 73.8862 59.9176C73.4175 60.1501 72.8316 60.3825 72.3629 60.4987C69.3163 61.3122 67.5586 63.5203 66.3868 66.4257C65.5666 68.75 65.0979 71.1905 64.8635 73.631C64.7463 75.8391 64.6292 78.0471 64.3948 80.2552ZM83.3776 100.36C82.323 100.477 81.2684 100.128 80.2138 99.7793C75.058 97.8037 71.3083 94.201 68.6132 89.2038C66.6212 85.6011 65.6838 81.6498 65.5666 76.7688C65.5666 72.9337 66.8555 68.75 69.1991 65.0311C70.1365 63.6365 71.3083 62.5906 72.9488 62.1257C73.769 61.8933 74.2377 62.1257 74.4721 62.9392C74.7065 63.6365 74.8236 64.3338 74.9408 64.9149C75.1752 65.6122 75.4095 66.3094 75.6439 67.0067C75.7611 67.3554 75.9954 67.5878 76.2298 67.704C76.5813 67.9365 76.6985 68.2851 76.5813 68.6337C76.5813 68.8662 76.4641 69.2148 76.3469 69.4472C75.6439 70.8418 75.4095 72.3526 75.1752 73.8634C74.8236 77.0012 74.8236 80.2552 75.1752 83.393C75.5267 86.647 76.5813 89.6686 78.4562 92.4578C79.8623 94.4334 81.3856 96.2929 82.7917 98.2685C83.0261 98.6172 83.2604 98.9658 83.4948 99.3145C84.0807 100.128 83.9635 100.36 83.3776 100.36ZM102.595 99.1982C101.423 99.7793 100.486 100.709 99.1966 101.523C98.4936 99.3145 98.8451 96.7577 95.7985 95.5956C95.7985 96.9902 95.9157 98.2685 95.7985 99.4307C95.6813 100.128 95.2126 100.709 94.9782 101.406C94.5095 101.174 93.9236 100.825 93.4549 100.593C91.6973 99.5469 89.9396 98.3847 88.1819 97.3388C85.4868 95.7118 85.7212 91.0632 88.4163 89.4362C89.7052 88.6227 90.7598 87.3443 92.0488 86.4146C92.7519 85.9497 93.8065 85.7173 94.7439 85.6011C96.3844 85.4849 98.0249 85.4849 99.7825 85.6011C100.368 85.6011 100.954 85.7173 101.423 86.066C103.181 87.3443 104.821 88.6227 106.579 89.9011C106.813 90.1335 107.633 92.6902 107.516 92.9226C106.462 95.9442 105.876 97.3388 102.595 99.1982ZM126.03 83.5092C125.796 85.7173 124.859 87.5768 123.687 89.4362C121.578 92.9226 118.883 95.9442 115.484 98.1523C114.078 99.1982 112.555 100.012 110.797 100.244C109.977 100.36 109.04 100.36 108.219 100.36L108.102 100.244C109.274 98.6172 110.329 96.8739 111.735 95.5956C113.844 93.5037 114.898 90.947 115.836 88.274C116.773 85.6011 117.359 82.9282 117.828 80.139C118.062 78.2796 117.945 76.4201 117.359 74.5607C117.008 73.2823 116.539 72.004 116.187 70.7256C115.953 69.7959 115.953 68.9824 116.305 68.1689C117.008 66.5419 117.711 64.9149 118.531 63.4041C119 62.5906 119.468 62.4744 120.406 62.823C121.695 63.2879 122.515 64.3338 123.335 65.3797C124.507 66.8905 125.093 68.6337 125.445 70.4932C126.382 74.6769 126.616 79.0931 126.03 83.5092ZM137.045 73.0499C135.053 76.1877 132.827 78.9769 130.132 81.5336C129.78 81.8822 129.429 82.1147 129.077 82.2309C128.843 82.3471 128.608 82.2309 128.374 82.2309C128.374 81.9984 128.374 81.766 128.374 81.5336C128.374 80.7201 128.491 79.9066 128.491 79.2093C127.905 74.4445 126.968 69.6797 125.562 65.1473C124.741 62.5906 122.984 61.196 120.523 60.3825C120.054 60.2663 119.586 60.1501 119.117 59.9176C118.414 59.569 118.297 59.2203 118.531 58.523C118.648 58.0582 118.765 57.4771 119 57.0123C119.117 56.7798 119.351 56.6636 119.468 56.6636C120.172 56.6636 120.875 56.6636 121.46 56.7798C125.21 57.5933 128.725 58.8717 132.241 60.7311C134.584 62.0095 135.991 63.9851 136.928 66.5419C137.162 67.2392 137.397 68.0527 137.514 68.75C137.631 69.2148 137.631 69.6797 137.631 70.2607C137.865 71.3067 137.514 72.2364 137.045 73.0499ZM138.334 62.0095C137.983 62.9392 137.631 63.0554 136.811 62.5906C135.991 62.1257 135.287 61.4284 134.584 60.8473C133.53 59.9176 132.592 58.9879 131.655 58.1744C129.897 56.7798 127.788 55.9663 125.679 55.5015C123.57 54.9204 121.343 54.4555 119.234 53.8745C119.117 53.8745 119 53.7582 118.883 53.7582V53.642C121.109 53.4096 123.218 53.1772 125.445 52.9447C127.437 52.7123 129.429 52.7123 131.303 52.9447C133.295 53.1772 135.17 53.8745 136.694 55.269C138.568 56.6636 139.272 59.8014 138.334 62.0095ZM136.928 53.061C136.459 52.8285 135.991 52.5961 135.756 52.2474C134.584 50.9691 133.061 50.5042 131.421 50.5042C128.14 50.5042 124.859 50.6204 121.695 50.6204C121.578 50.6204 121.578 50.6204 121.46 50.6204C124.624 49.1096 127.671 47.4826 131.186 46.9016C132.944 46.5529 134.702 46.4367 136.576 46.9016C137.162 47.0178 137.631 47.2502 138.1 47.5989C139.154 48.2961 139.74 49.2259 139.623 50.6204C139.506 51.2015 139.389 51.8988 139.037 52.4799C138.568 53.1772 137.748 53.4096 136.928 53.061Z" fill="#2D4B7E"/>
<path d="M96.15 0.531738C63.3402 0.531738 36.7408 26.9125 36.7408 59.4527C36.7408 91.9928 63.3402 118.374 96.15 118.374C128.96 118.374 155.559 91.9928 155.559 59.4527C155.559 26.9125 128.96 0.531738 96.15 0.531738ZM96.15 113.376C66.1525 113.376 41.7795 89.2037 41.7795 59.4527C41.7795 29.7017 66.1525 5.52898 96.15 5.52898C126.148 5.52898 150.521 29.7017 150.521 59.4527C150.521 89.2037 126.148 113.376 96.15 113.376Z" fill="#2D4B7E"/>
<path d="M22.3912 182.611H21.6881V174.127H22.3912V178.078H27.1955V174.127H27.8986V182.611H27.0783V178.776H22.3912V182.611Z" fill="#2D4B7E"/>
<path d="M37.6243 182.611H32.4685V174.127H37.6243V174.824H33.1716V177.962H37.2728V178.659H33.1716V181.913H37.6243V182.611Z" fill="#2D4B7E"/>
<path d="M47.936 182.611H47.1158L46.0611 180.054H42.4286L41.374 182.611H40.5538L43.9519 174.127H44.3035L47.936 182.611ZM45.8268 179.357L44.3035 175.405L42.7802 179.357H45.8268Z" fill="#2D4B7E"/>
<path d="M57.0759 182.611H51.5685V174.127H52.2716V181.913H57.0759V182.611Z" fill="#2D4B7E"/>
<path d="M60.9427 182.611V174.824H58.3647V174.127H64.2236V174.824H61.6457V182.611H60.9427Z" fill="#2D4B7E"/>
<path d="M68.5593 182.611H67.8562V174.127H68.5593V178.078H73.3636V174.127H74.0667V182.611H73.3636V178.776H68.5593V182.611Z" fill="#2D4B7E"/>
<path d="M82.3863 182.727C81.0973 182.727 80.1599 182.379 79.3397 181.565C78.5194 180.752 78.0507 179.706 78.0507 178.427C78.0507 177.149 78.5194 176.103 79.3397 175.29C80.1599 174.476 81.2145 174.011 82.5035 174.011C83.3237 174.011 84.0268 174.244 84.7299 174.592C85.4329 174.941 85.9016 175.406 86.2532 175.987L85.6673 176.336C85.3158 175.871 84.847 175.406 84.3783 175.173C83.7924 174.941 83.2066 174.709 82.5035 174.709C81.4489 174.709 80.6286 175.057 79.9256 175.754C79.2225 176.452 78.871 177.381 78.871 178.427C78.871 179.473 79.2225 180.403 79.9256 181.1C80.6286 181.798 81.4489 182.146 82.5035 182.146C83.0894 182.146 83.7924 182.03 84.2612 181.681C84.847 181.449 85.3158 180.984 85.6673 180.519L86.136 180.984C85.6673 181.565 85.1986 182.03 84.4955 182.262C83.9096 182.611 83.2065 182.727 82.3863 182.727Z" fill="#2D4B7E"/>
<path d="M96.0961 182.611H95.2759L94.2213 180.054H90.5888L89.5342 182.611H88.7139L92.1121 174.127H92.4636L96.0961 182.611ZM94.1041 179.357L92.5808 175.405L91.0575 179.357H94.1041Z" fill="#2D4B7E"/>
<path d="M105.236 182.611H104.416L102.189 179.008H100.432V182.611H99.7286V174.127H102.307C103.127 174.127 103.83 174.359 104.299 174.824C104.767 175.289 105.002 175.87 105.002 176.567C105.002 177.149 104.767 177.613 104.416 178.078C104.064 178.543 103.596 178.776 102.892 178.892L105.236 182.611ZM102.424 174.824H100.549V178.427H102.307C103.01 178.427 103.478 178.311 103.83 177.962C104.181 177.613 104.416 177.149 104.416 176.684C104.416 176.103 104.181 175.754 103.83 175.405C103.478 174.94 103.01 174.824 102.424 174.824Z" fill="#2D4B7E"/>
<path d="M114.376 182.611H109.22V174.127H114.376V174.824H109.923V177.962H114.024V178.659H109.923V181.913H114.376V182.611Z" fill="#2D4B7E"/>
<path d="M129.492 182.611H128.672L127.617 180.054H123.984L122.93 182.611H122.11L125.508 174.127H125.859L129.492 182.611ZM127.5 179.357L125.976 175.405L124.453 179.357H127.5Z" fill="#2D4B7E"/>
<path d="M136.757 182.726C135.468 182.726 134.413 182.262 133.593 181.448C132.773 180.635 132.304 179.589 132.304 178.31C132.304 177.032 132.773 175.986 133.593 175.172C134.413 174.359 135.468 173.894 136.757 173.894C137.46 173.894 138.163 174.01 138.749 174.359C139.452 174.591 139.921 175.056 140.272 175.521L139.803 175.986C139.452 175.521 138.983 175.289 138.515 174.94C137.929 174.708 137.343 174.591 136.757 174.591C135.702 174.591 134.882 174.94 134.062 175.637C133.359 176.335 133.007 177.264 133.007 178.31C133.007 179.356 133.359 180.286 134.062 180.983C134.765 181.68 135.585 182.029 136.64 182.029C137.811 182.029 138.866 181.564 139.803 180.635V178.659H136.405V178.078H140.507V180.983C139.569 182.145 138.28 182.726 136.757 182.726Z" fill="#2D4B7E"/>
<path d="M149.881 182.611H144.725V174.127H149.881V174.824H145.428V177.962H149.529V178.659H145.428V181.913H149.881V182.611Z" fill="#2D4B7E"/>
<path d="M159.841 181.1V174.127H160.544V182.611H160.192L154.685 175.754V182.611H153.982V174.127H154.334L159.841 181.1Z" fill="#2D4B7E"/>
<path d="M168.981 182.727C167.692 182.727 166.754 182.379 165.934 181.565C165.114 180.752 164.645 179.706 164.645 178.427C164.645 177.149 165.114 176.103 165.934 175.29C166.754 174.476 167.809 174.011 169.098 174.011C169.918 174.011 170.621 174.244 171.324 174.592C172.027 174.941 172.496 175.406 172.848 175.987L172.262 176.336C171.91 175.871 171.441 175.406 170.973 175.173C170.387 174.941 169.801 174.709 169.098 174.709C168.043 174.709 167.223 175.057 166.52 175.754C165.817 176.452 165.465 177.381 165.465 178.427C165.465 179.473 165.817 180.403 166.52 181.1C167.223 181.798 168.043 182.146 169.098 182.146C169.684 182.146 170.387 182.03 170.856 181.681C171.441 181.449 171.91 180.984 172.262 180.519L172.73 180.984C172.262 181.565 171.793 182.03 171.09 182.262C170.387 182.611 169.684 182.727 168.981 182.727Z" fill="#2D4B7E"/>
<path d="M181.167 174.127H181.987L179.058 179.24V182.611H178.355V179.24L175.543 174.127H176.363L178.824 178.543L181.167 174.127Z" fill="#2D4B7E"/>
<path d="M0.830444 142.516V158.321H5.16604V145.421H10.9077V141.121H5.28321C5.51756 140.192 5.98628 139.262 6.80652 138.448C7.9783 137.286 9.26726 136.821 10.9077 136.821V132.521C8.09548 132.521 5.75191 133.451 3.75989 135.427C1.88504 137.403 0.830444 139.727 0.830444 142.516Z" fill="#2D4B7E"/>
<path d="M23.9146 138.216C21.1023 138.216 18.7588 139.146 16.7667 141.121C14.7747 143.097 13.8373 145.421 13.8373 148.21C13.8373 150.999 14.7747 153.324 16.7667 155.299C18.7588 157.275 21.1023 158.205 23.9146 158.205C26.7269 158.205 29.0704 157.275 31.0624 155.299C33.0545 153.324 33.9919 150.999 33.9919 148.21C33.9919 145.421 33.0545 143.097 31.0624 141.121C29.0704 139.262 26.7269 138.216 23.9146 138.216ZM28.0158 152.278C26.844 153.44 25.5551 153.905 23.9146 153.905C22.2741 153.905 20.9851 153.324 19.8134 152.278C18.6416 151.232 18.1729 149.837 18.1729 148.21C18.1729 146.583 18.7588 145.305 19.8134 144.143C20.868 142.981 22.2741 142.516 23.9146 142.516C25.5551 142.516 26.844 143.097 28.0158 144.143C29.1876 145.305 29.6563 146.583 29.6563 148.21C29.6563 149.837 29.1876 151.232 28.0158 152.278Z" fill="#2D4B7E"/>
<path d="M36.9213 148.327V158.321H41.2568V148.327C41.2568 146.7 41.8427 145.421 42.8973 144.259C44.0691 143.097 45.3581 142.632 46.9986 142.632V138.332C44.1863 138.332 41.8427 139.262 39.8507 141.237C37.8587 143.097 36.9213 145.537 36.9213 148.327Z" fill="#2D4B7E"/>
<path d="M58.9508 145.886C55.787 145.072 54.1465 144.259 54.1465 143.445C54.1465 142.864 54.8496 142.516 56.3729 142.516H64.341V138.216H55.6698C51.8029 138.216 49.9281 140.191 49.9281 144.027C49.9281 145.421 50.3968 146.7 51.217 147.745C52.1545 148.791 54.6152 149.837 58.8336 150.767C60.1226 151.116 60.7085 151.581 60.7085 152.394C60.5913 153.324 59.6539 153.789 57.779 153.905H49.9281V158.205H57.8962C60.3569 158.205 62.1146 157.624 63.4035 156.578C64.6925 155.532 65.2784 153.905 65.2784 151.697C65.2784 150.07 64.8097 148.791 63.8723 147.978C62.9348 147.281 61.2943 146.467 58.9508 145.886Z" fill="#2D4B7E"/>
<path d="M109.103 138.216C106.29 138.216 103.947 139.146 101.955 141.121C99.9627 143.097 99.0253 145.421 99.0253 148.21C99.0253 150.999 99.9627 153.324 101.955 155.299C103.947 157.275 106.29 158.205 109.103 158.205C111.329 158.205 113.204 157.624 114.844 156.462V158.321C114.844 159.948 114.258 161.226 113.204 162.388C112.032 163.551 110.743 164.016 109.103 164.016V168.315C111.915 168.315 114.258 167.386 116.25 165.41C118.242 163.434 119.18 161.11 119.18 158.321V148.327C119.18 145.537 118.242 143.213 116.25 141.237C114.258 139.262 111.798 138.216 109.103 138.216ZM113.087 152.278C111.915 153.44 110.626 153.905 108.985 153.905C107.345 153.905 106.056 153.324 104.884 152.278C103.712 151.116 103.244 149.837 103.244 148.21C103.244 146.583 103.83 145.305 104.884 144.143C106.056 142.981 107.345 142.516 108.985 142.516C110.626 142.516 111.915 143.097 113.087 144.143C114.258 145.305 114.727 146.583 114.727 148.21C114.844 149.837 114.258 151.232 113.087 152.278Z" fill="#2D4B7E"/>
<path d="M126.328 132.521H121.993V158.321H126.328V132.521Z" fill="#2D4B7E"/>
<path d="M139.335 138.216C136.523 138.216 134.179 139.146 132.187 141.121C130.195 143.097 129.258 145.421 129.258 148.21C129.258 150.999 130.195 153.324 132.187 155.299C134.179 157.275 136.523 158.205 139.335 158.205C142.147 158.205 144.491 157.275 146.483 155.299C148.475 153.324 149.412 150.999 149.412 148.21C149.412 145.421 148.475 143.097 146.483 141.121C144.491 139.262 142.147 138.216 139.335 138.216ZM143.436 152.278C142.264 153.44 140.975 153.905 139.335 153.905C137.695 153.905 136.406 153.324 135.234 152.278C134.062 151.116 133.593 149.837 133.593 148.21C133.593 146.583 134.179 145.305 135.234 144.143C136.406 142.981 137.695 142.516 139.335 142.516C140.975 142.516 142.264 143.097 143.436 144.143C144.608 145.305 145.077 146.583 145.077 148.21C145.077 149.837 144.491 151.232 143.436 152.278Z" fill="#2D4B7E"/>
<path d="M162.419 138.216C160.193 138.216 158.318 138.797 156.677 139.959V132.521H152.342V148.21C152.342 151 153.279 153.324 155.271 155.3C157.263 157.275 159.607 158.205 162.419 158.205C165.231 158.205 167.575 157.275 169.567 155.3C171.559 153.324 172.496 151 172.496 148.21C172.496 145.421 171.559 143.097 169.567 141.121C167.575 139.262 165.231 138.216 162.419 138.216ZM166.52 152.278C165.348 153.44 164.059 153.905 162.419 153.905C160.778 153.905 159.489 153.324 158.318 152.278C157.146 151.116 156.677 149.837 156.677 148.21C156.677 146.583 157.263 145.305 158.318 144.143C159.489 142.981 160.778 142.516 162.419 142.516C164.059 142.516 165.348 143.097 166.52 144.143C167.692 145.305 168.161 146.583 168.161 148.21C168.161 149.837 167.575 151.232 166.52 152.278Z" fill="#2D4B7E"/>
<path d="M202.845 132.521H198.51V158.321H202.845V132.521Z" fill="#2D4B7E"/>
<path d="M83.0894 140.075C81.4489 138.913 79.4569 138.332 77.3477 138.332C74.5354 138.332 72.1919 139.262 70.1998 141.237C68.2078 143.213 67.2704 145.537 67.2704 148.327C67.2704 151.116 68.2078 153.44 70.1998 155.416C72.1919 157.391 74.5354 158.321 77.3477 158.321C79.5741 158.321 81.4489 157.74 83.0894 156.578V158.321H87.425V148.327V138.332H83.0894V140.075ZM81.4489 152.278C80.2771 153.44 78.9882 153.905 77.3477 153.905C75.7072 153.905 74.4182 153.324 73.2464 152.278C72.0747 151.116 71.606 149.837 71.606 148.21C71.606 146.583 72.1918 145.305 73.2464 144.143C74.4182 142.981 75.7072 142.516 77.3477 142.516C78.9882 142.516 80.2771 143.097 81.4489 144.143C82.6207 145.305 83.0894 146.583 83.0894 148.21C83.0894 149.837 82.5035 151.232 81.4489 152.278Z" fill="#2D4B7E"/>
<path d="M191.01 140.075C189.37 138.913 187.378 138.332 185.269 138.332C182.456 138.332 180.113 139.262 178.121 141.237C176.129 143.213 175.191 145.537 175.191 148.327C175.191 151.116 176.129 153.44 178.121 155.416C180.113 157.391 182.456 158.321 185.269 158.321C187.495 158.321 189.37 157.74 191.01 156.578V158.321H195.346V148.327V138.332H191.01V140.075ZM189.37 152.278C188.198 153.44 186.909 153.905 185.269 153.905C183.628 153.905 182.339 153.324 181.167 152.278C179.996 151.116 179.527 149.837 179.527 148.21C179.527 146.583 180.113 145.305 181.167 144.143C182.339 142.981 183.628 142.516 185.269 142.516C186.909 142.516 188.198 143.097 189.37 144.143C190.542 145.305 191.01 146.583 191.01 148.21C191.01 149.837 190.542 151.232 189.37 152.278Z" fill="#2D4B7E"/>
</svg>
