<?xml version="1.0" encoding="utf-8"?>
<!-- Generator: Adobe Illustrator 24.0.0, SVG Export Plug-In . SVG Version: 6.00 Build 0)  -->
<svg version="1.1" id="Шар_1" xmlns="http://www.w3.org/2000/svg" xmlns:xlink="http://www.w3.org/1999/xlink" x="0px" y="0px"
	 viewBox="0 0 427.1 83.2" style="enable-background:new 0 0 427.1 83.2;" xml:space="preserve">
<style type="text/css">
	.st0{fill-rule:evenodd;clip-rule:evenodd;fill:#004896;}
	.st1{fill:#004896;}
</style>
<path class="st0" d="M33.4,8.4C41.5,3,51.2,0.2,60.9,0c8-0.2,16,1.4,23.5,4.2c1.8,0.7,3.6,1.3,5.2,2.4c-4.8-1.4-9.6-2.7-14.7-3.1
	C59.5,2,43.5,5.9,30.8,15c-4.2,3.1-8.2,6.5-11.4,10.7c-1.6,2.1-3.3,4.2-4.7,6.5c-1.2,1.7-2.1,3.7-3.2,5.5c0.1-0.4,0.2-0.8,0.3-1.2
	c2-5.1,4.7-10,7.8-14.5C23.4,16.7,28.1,12,33.4,8.4"/>
<path class="st0" d="M48,8.4C60.2,4.5,73.6,5,85.7,9.1c11.8,3.9,21.7,12.6,28.1,23.2c2,3.4,4,6.9,5.2,10.6c-0.9-1.2-1.6-2.6-2.4-3.8
	C110,28.4,100,19.8,88.4,14.9c-11.6-4.7-24.2-7.3-36.7-5.8c-4,0.4-7.8,1.5-11.6,2.7C42.5,10.2,45.3,9.4,48,8.4"/>
<path class="st0" d="M58.5,12.1c9.6-0.9,19.5,0.6,28.4,4.4c5.7,2.7,11.3,6,15.6,10.8c-2.3-1.8-4.8-3.3-7.4-4.8
	c-9.8-5-20.9-6.7-31.8-6.5C50.1,16.1,37,21.1,27.1,29.7c-0.9,0.8-1.8,1.7-2.8,2.3c3.4-4.4,7.6-8.1,12.2-11.3
	C43,16.1,50.5,13,58.5,12.1"/>
<path class="st0" d="M61.4,37.2c4.5-1.4,9.7,2.3,9.8,7c0.4,4.2-3.4,8.4-7.6,8.2c-3,0.2-5.8-1.7-7.1-4.4
	C54.3,43.9,56.9,38.3,61.4,37.2"/>
<path class="st0" d="M0,46.4c5-0.1,10,0.1,15,0.4c8.4,0.6,16.8,1.5,25,3.6c8.5,2.2,17.1,5.5,23.5,11.7c4.6-4.6,10.6-7.5,16.7-9.7
	c13.8-4.6,28.4-5.7,42.8-6c1.4,0,2.7-0.1,4.1,0c-0.4,0.2-0.9,0.4-1.4,0.4c-10.3,1.7-20.5,4.8-29.7,9.8c-3.1,1.8-6.2,3.6-8.8,6
	c-4.8,3.9-8.5,9.2-9.9,15.2c-0.5,1.8-0.3,3.6-0.6,5.4c-8.8,0-17.5,0-26.3,0c-0.1-4.3-1.2-8.6-3.4-12.4c-1.3-2.3-3-4.2-4.7-6.1
	c-6.2-6-14-9.9-22-12.9c-6.1-2.2-12.4-3.9-18.8-4.9C0.9,46.8,0.4,46.6,0,46.4"/>
<path class="st1" d="M394.1,82.2v-6h-13.7v-7.6h12.8v-6h-12.8v-6.4h13.3v-6h-21.3v31.9L394.1,82.2L394.1,82.2z M300.2,79.5v-7.4
	c-3.8,2.6-7.8,4-11.6,4c-6,0-9.7-3.9-9.7-9.9c0-6.1,3.9-9.8,10.4-9.8c3.5,0,7,1.2,10.6,3.4v-7.4c-3.6-1.8-7.2-2.7-11.1-2.7
	c-11.1,0-18.1,6.9-18.1,16.5c0,4.8,1.8,9,4.9,12c3.1,2.9,7.3,4.6,12.4,4.6C292.4,82.8,296.4,81.8,300.2,79.5z M265.9,50.3h-8.3v31.9
	h8.3V50.3z M216.3,82.2v-6h-13.7v-7.6h12.8v-6h-12.8v-6.4h13.3v-6h-21.3v31.9L216.3,82.2L216.3,82.2z M188.3,82.2V50.3h-7
	l-10.4,12.9l-10.2-12.9h-7v31.9h7.9V62.5l9.4,11.7l9.5-11.7v19.7H188.3z"/>
<path class="st1" d="M246.4,53.6c-3-2.2-6.1-2.9-9.5-3.2c-1.2,0-2.3-0.1-3.7-0.1h-12v31.9h12c1.3,0,2.5,0,3.7-0.1
	c3-0.1,5.7-0.6,8.3-2.3c4.8-3.1,7.5-7.9,7.5-13.6C252.7,61.1,250.5,56.7,246.4,53.6 M236.9,75.6c-0.5,0.1-1.1,0.2-1.7,0.2h-5.9v-19
	h5.9c0.6,0,1.2,0,1.7,0.1c4.5,0.7,7.6,4.4,7.6,9.4S241.4,74.9,236.9,75.6z"/>
<path class="st1" d="M337.4,61.3c-0.8-2.7-2.2-5-4.4-7.1c-3.1-3-7.3-4.6-12.3-4.6c-5.1,0-9.2,1.5-12.4,4.6c-3.2,3.1-5,7.2-5,11.9
	s1.8,8.9,5,11.9s7.3,4.6,12.4,4.6c5,0,9.1-1.6,12.3-4.6c2.1-2,3.6-4.3,4.4-7c0.4-1.6,0.7-3.2,0.7-5
	C338.1,64.5,337.8,62.9,337.4,61.3 M320.7,76c-5.4,0-9.2-4-9.2-9.8c0-5.7,3.8-9.7,9.2-9.7c5.3,0,9.1,4,9.1,9.7
	C329.8,72,326,76,320.7,76z"/>
<polygon class="st1" points="361.5,50.3 353.1,68.9 345.2,50.3 336.7,50.3 337.4,51.8 351.2,82.6 354.6,82.6 370.1,50.3 "/>
<path class="st1" d="M422,71.3c-0.9-2.1-2.2-3.4-3.8-4.1c3.8-1.7,5.5-4.2,5.5-7.7c0-6.3-4.1-9.2-12.4-9.3h-12.1v31.9h8V69.3
	c0.4,0,0.6-0.1,1-0.1c1.3,0,2.3,0.2,3.1,0.5c1.2,0.6,1.9,1.6,2.6,3.3l4.1,9.2h9L422,71.3z M411.4,63.4h-4.1V56h4.1
	c2.7,0.1,4.1,1.4,4.1,3.7C415.5,62.1,414.2,63.3,411.4,63.4z"/>
</svg>
