<svg xmlns="http://www.w3.org/2000/svg" width="480" height="213" viewBox="0 0 480.1 213.1" enable-background="new 0 0 480.1 213.1"><g><path fill="#E6E7E8" d="M375.7 141.3h11.2v-46.3c3.4-5 9-10.3 15.9-10.3 7.3 0 9.9 3.3 9.9 10.9v45.7h11.2v-46.4c0-11.9-5-18.9-17.3-18.9-7.5 0-14.5 3.5-19.6 9.6v-34.9c-3.6 1.4-7.3 2.7-11.1 4.1v86.5zM335.4 77.5h-10.2v8.5h10.2v38.3c0 11 5.3 18.5 17.2 18.5 5.3 0 10.4-1.5 14.3-4.4l-4.2-7.6c-3.2 1.9-5.7 2.8-8.5 2.8-5.6 0-7.6-3-7.6-9.5v-38.1h14.8l1.3-8.5h-16.1v-12.7c-3.6 1.2-7.4 2.4-11.2 3.5v9.2z"/><path fill="#ED1C24" d="M311.1 62.9c4.6 0 7.9-3.3 7.9-7.6 0-4.2-3.3-7.5-7.9-7.5-4.6 0-7.8 3.3-7.8 7.5 0 4.3 3.2 7.6 7.8 7.6z"/><path fill="#E6E7E8" d="M305.5 141.3h11.2v-67.5l-11.2 3.1zM252.2 141.3h-11.2v-62.2l9.6-1.5.8 8.6c5.2-6.5 12.8-10.2 20.4-10.2 12.4 0 17.3 7 17.3 18.9v46.4h-11.1v-45.7c0-7.6-2.7-10.9-9.9-10.9-6.9 0-12.5 5.3-15.9 10.3v46.3zM204.2 130.1h-8.8c-5.1 0-6.9-2.3-6.9-5.2 0-2.3 1.2-4.5 2.7-5.8 2.8.7 5.6 1.1 8.5 1.1 15.2 0 24.1-9.2 24.1-21.6 0-.9-.1-1.7-.2-2.6-3.6.7-7.2 1.4-10.9 2v.3c0 8.7-4.6 14.4-13.3 14.4-7.2 0-11.8-4.1-13.1-10.3l-11.1 1.7c1.4 5.1 4.6 9.2 9.3 12-4 2.9-6.3 6.9-6.3 10.8 0 7.6 6.7 12.5 17 12.5h8.5c11 0 13.6 3.9 13.6 9.2 0 5.5-4.1 9.8-18.3 9.8-10.4 0-17.3-2.2-17.3-10.7l-10.1.8v.1c.2 12.2 8.7 18.5 27.4 18.5 16.4 0 29.6-5.8 29.6-19.2-.1-11.5-9-17.8-24.4-17.8zM185.9 99.5v-1.1c0-8.2 4.7-14.4 13.6-14.4 7.9 0 12.2 4.1 13.1 11.3 3.5-.6 7-1.2 10.5-1.9-1.4-4.8-4.8-8.4-9.5-10.6v-.5c6.5 0 12.6-.2 17.9-1.9l-3.3-10.1c-7 3.2-14.9 5.7-28.8 5.7-15.6 0-25 9.8-25 22.4 0 .9.1 1.8.2 2.7 3.8-.5 7.5-1 11.3-1.6zM106.5 107.5c0-19.5-9-31.5-25.8-31.5-17 0-27 14.2-27 33.5v1.9s.1 2.5.3 3.8c1.7 16.7 11.4 27.6 28.6 27.6 8.2 0 15.4-2.9 21.3-7.6l-5.1-7.4c-5.5 4.5-10.2 5.9-16 5.9-9.4 0-15.8-5.9-17.1-19-.2-2-.2-3.1-.3-3.8 14-.6 27.7-1.4 41.1-2.5v-.9zm-40.9-2.5c.8-13.7 6.4-20.1 15.2-20.1 9.9 0 14.5 6.9 14.8 20.1h-30zM131.9 132.1v-28.6h24.2l3.9-.5v-8.7h-28.1v-27.3h32.4l1.3-9.2h-45.2v83.5h46.2v-9.2h-34.7z"/></g></svg>