<svg width="223" height="102" viewBox="0 0 223 102" fill="none" xmlns="http://www.w3.org/2000/svg">
<path d="M50.7001 9.84692C28.1 9.84692 9.80005 28.2345 9.80005 50.9426C9.80005 73.6508 28.1 92.0383 50.7001 92.0383C73.3001 92.0383 91.6001 73.6508 91.6001 50.9426C91.6001 28.2345 73.3001 9.84692 50.7001 9.84692ZM80.2001 31.0479C81.0001 30.7464 81.5 30.8469 81.9 31.5503C82.6 32.6555 83.3 33.8613 83.9 35.067C84.5 36.3732 84.2 36.9761 82.8 37.2775C82 37.4785 81.2 37.4785 80.4 37.6795C78.4 38.1819 76.5001 39.0862 74.7001 40.2919C73.6001 40.9952 72.5 41.5981 71.4 42.3015C71.2 42.4019 71 42.5024 70.8 42.6029C70.8 42.6029 70.7001 42.6029 70.7001 42.5024C70.7001 42.201 70.7 41.8996 70.8 41.6986C72.3 36.5742 75.3001 32.957 80.2001 31.0479ZM61.2001 64.6077C62.0001 66.2153 62.5001 68.1244 62.7001 69.9331C63.0001 72.646 61.5001 74.2536 58.7001 73.5503C56.7001 73.0479 54.8 71.8421 52.9 70.8374C51.6 70.0335 51.5001 67.622 52.7001 66.6173C53.6001 65.8134 54.7001 65.1101 55.6001 64.2058C56.2001 63.7034 56.5 62.8996 57 62.1962C56.3 61.6938 55.6 60.89 54.9 60.89C52.9 60.689 50.9 60.89 49 60.89C48.2 60.89 47.4 60.89 46.8 60.89C46.8 58.7799 46.8 56.8709 46.8 54.8613C46.7 52.1484 44.2 49.2345 41.6 48.7321C41.1 48.6316 40.6 49.0335 40.1 49.134C38.3 49.8374 36.4 50.2393 34.1 48.8326C35.3 47.9283 36.1 47.024 37.1 46.622C38.9 45.9187 40 44.9139 39.8 42.8039C39.7 42.201 40.4 41.1962 41 40.8948C42.4 40.1914 43.9 39.689 45.3 39.1866C45.6 39.0862 46.3001 39.3876 46.6001 39.689C47.6001 40.8948 47.5 41.6986 48.5 43.0048C49 43.6077 50.5001 44.8134 51.1001 45.6173C53.5001 44.311 53.9 42.1005 55.8 39.7895C56.2 39.3876 57.1001 39.0862 57.7001 39.2871C58.9001 39.4881 59.9001 40.1914 61.1001 40.3924C64.4001 40.9953 65.7 43.3063 66.4 46.2201C67.1 49.7369 66.6 50.3397 63 49.5359C62.7 49.4354 62.4001 49.4354 62.1001 49.2345C60.4001 47.6268 59.2 49.0335 57.9 50.0383C56.5 51.1436 55.8001 52.6508 56.2001 54.4594C56.2001 54.6603 56.4001 54.7608 56.6001 55.0622C56.9001 54.6603 57.2 54.2584 57.4 53.8565C58.1 52.6508 59.1 52.1484 60.4 52.6508C62 53.2536 63.2 53.1531 64.3 51.5455C65.3 50.0383 66.3 50.2393 66.9 51.9474C67.1 52.5503 67.4001 53.1531 67.6001 53.8565C68.2001 55.7656 67.7 56.9713 66 57.9761C64.7 58.7799 59.9001 57.1723 58.7001 58.0766C57.3001 59.1819 60.3001 62.7991 61.2001 64.6077ZM35.2001 50.1388C36.1001 50.8421 36.8001 51.646 37.7001 52.1484C38.5001 52.6508 39.4001 53.1531 40.2001 53.0527C43.4001 52.5503 45.3001 53.4546 44.7001 56.4689C42.8001 56.8708 41.4001 56.9713 39.7001 57.3732C39.1001 57.4737 37.2 58.0766 36.5 58.0766C34.6 58.2775 33.7 57.3732 33.6 55.5646C33.6 53.756 33.8001 51.9474 35.2001 50.1388ZM33.5 40.7943C32.8 39.689 32.1 38.5838 31.5 37.4785C30.9 36.4737 30.5 35.4689 30 34.4641C29.9 34.2632 29.8 34.0622 29.8 33.7608C29.7 33.4594 29.8 33.3589 30.1 33.3589C30.6 33.5598 31.1 33.7608 31.5 33.9618C33.1 34.8661 34.6 35.9713 36 37.378C36.8 38.1819 36.8 38.4833 36.1 39.2871C35.6 39.89 35 40.4929 34.4 40.9952C33.9 41.2967 33.7 41.1962 33.5 40.7943ZM39.5 68.8278C39.9 67.3206 40.5 65.8134 41.1 64.4067C41.9 62.6986 43.7 62.0957 45.3 63.201C46.8 64.2058 48.2001 65.4115 49.6001 66.7177C50.7001 67.823 50.2001 69.8326 49.1001 70.8374C47.4001 72.3445 45.8 73.7512 43.3 73.7512C39.9 73.7512 38.6 72.1436 39.5 68.8278ZM66.2001 40.0909C66.1001 39.7895 66 39.3876 66 39.1866C66.1 37.579 66.7 36.3732 67.8 35.5694C68.8 34.7656 69.8 34.1627 70.9 33.4594C71.1 33.3589 71.3001 33.3589 71.6001 33.2584C71.6001 33.4594 71.7001 33.7608 71.7001 33.9618C71.5001 35.3685 71 36.6747 70.3 37.8804C69.8 38.6842 69.3001 39.4881 68.7001 40.2919C68.5001 40.3924 68.4 40.4929 68.3 40.4929C67.6 41.3972 66.6001 41.1962 66.2001 40.0909ZM76.3 25.823C77.4 26.1244 78.2001 26.9283 78.7001 27.933C79.0001 28.5359 79 28.8374 78.3 28.9378C77 29.3397 75.6 29.6412 74.3 29.9426C71.4 30.5455 68.4 31.0479 65.5 31.5503C65.4 31.5503 65.3001 31.5503 65.1001 31.5503C67.0001 29.1388 69.1 27.0287 72 26.024C73.4 25.622 74.8 25.4211 76.3 25.823ZM65.4 18.89C65.5 18.4881 65.6 18.2871 66 18.2871C66.3 18.2871 66.7 18.3876 67 18.5886C68.4 19.1914 69.6 19.9952 70.8 21C71.2 21.3015 71.5 21.7034 71.8 22.1053C72.1 22.6077 71.9 23.0096 71.4 23.2106C71.3 23.2106 71.2001 23.311 71.1001 23.311C70.3001 23.311 69.7001 23.6125 69.2001 24.1149C67.8001 25.3206 66.6 26.7273 65.5 28.2345C64 30.1436 62.8001 32.1531 61.6001 34.2632C61.2001 35.067 60.6001 35.7704 60.1001 36.4737C59.9001 36.7752 59.6 36.9761 59.3 37.1771C58.9 37.4785 58.6 37.378 58.5 36.7752C58.5 36.5742 58.4 36.3732 58.4 36.1723C58.4 36.1723 58.4 36.1723 58.3 36.1723C58.5 35.3685 58.7 34.5646 59 33.7608C60.3 29.9426 61.8001 26.2249 63.7001 22.6077C64.2001 21.7034 64.7001 20.7991 65.2001 19.8948C65.2001 19.5933 65.3 19.1914 65.4 18.89ZM57 18.9905C57.2 18.3876 57.4001 17.7847 57.6001 17.2823C57.9001 16.579 58.4 16.2775 59 16.2775C60.1 16.1771 61.2001 16.1771 62.2001 16.7799C62.6001 16.9809 63 17.2823 63.3 17.5838C63.8 18.1866 63.8 18.9905 63.3 19.4929C62.3 20.4976 61.6 21.8039 61 23.2106C59.8 26.024 58.7001 29.0383 58.1001 32.1531C57.8001 33.7608 57.4 35.268 57 36.7752C56.8 37.4785 56.4 38.0814 56 38.6842C55.7 39.1866 55.2001 39.3876 54.7001 39.1866C54.2001 38.9857 53.7001 38.5838 53.6001 37.8804C53.5001 37.1771 53.5 36.4737 53.4 35.7704C53.4 33.5598 53.8 31.3493 54.4 29.1388C55.3 25.7225 56.1 22.3063 57 18.9905ZM48.3 15.0718C48.8 14.7704 49.8 14.5694 50.9 14.5694C51.8 14.5694 52.8 14.7704 53.8 15.1723C54.4 15.4737 54.6 15.7752 54.3 16.378C53.6 17.8852 53.5 19.5933 53.4 21.3015C53.1 24.8182 53 28.4354 52.8 31.9522C52.7 33.5598 52.6 35.067 52.4 36.6747C52.4 36.8756 52.3 37.0766 52.3 37.2775C52.2 37.7799 51.8 38.0814 51.3 38.0814C51 38.0814 50.6 38.0814 50.3 37.9809C49.7 37.8804 49.4 37.4785 49.3 36.7752C49.2 35.9713 49.2001 35.067 49.2001 34.1627C49.0001 31.0479 48.9001 28.0335 48.6001 24.9187C48.4001 22.2058 48.2 19.4929 47.9 16.7799C47.9 16.579 47.8 16.2775 47.8 16.0766C47.7 15.5742 47.8 15.3732 48.3 15.0718ZM38.9 16.6795C39.7 16.378 40.5 16.1771 41.3 16.0766C41.7 15.9761 42 15.9761 42.4 15.9761C43.1 15.9761 43.6 16.2775 43.9 16.9809C44.3 17.8852 44.6 18.689 44.9 19.5933C45.9 22.5072 46.6 25.5216 47 28.5359C47.2 30.2441 47.3 31.8517 47.5 33.5598C47.4 34.8661 47.4001 36.1723 47.1001 37.378C46.8001 38.4833 46.2 38.8852 45.4 38.4833C45 38.2823 44.8001 37.9809 44.7001 37.4785C44.2001 34.9665 43.6 32.3541 43.1 29.8421C42.4 26.3254 41.1 23.1101 39.3 20.1962C39 19.6938 38.7 19.2919 38.5 18.7895C37.8 17.8852 38 17.0814 38.9 16.6795ZM29.8 22.2058C30.3 21.6029 30.9 21.1005 31.5 20.4976C32.4 19.6938 33.5 18.9905 34.6 18.3876C35.3 18.0862 35.5 18.0862 36 18.7895C36.7 19.8948 37.5 21.1005 38.1 22.3063C39.7 25.4211 41.1001 28.7369 42.2001 32.1531C42.5001 33.1579 42.9 34.1627 42.9 35.5694C42.8 35.8708 42.8 36.4737 42.6 37.0766C42.5 37.4785 42.3 37.579 42 37.1771C41.3 36.1723 40.6 35.1675 40 34.1627C38.7 31.9522 37.4 29.6412 35.8 27.7321C34.6 26.3254 33.5 24.9187 31.9 23.9139C31.5 23.6125 30.9 23.512 30.5 23.311C30.4 23.311 30.3001 23.311 30.2001 23.311C29.5001 23.2106 29.3 22.7082 29.8 22.2058ZM23.7001 27.2297C24.5001 26.024 25.6 25.622 26.9 25.622C28.8 25.622 30.5 26.3254 32.1 27.3302C33.5 28.2345 34.6001 29.5407 35.7001 30.7464C35.8001 30.8469 35.8 30.9474 35.9 31.0479C35.9 31.1484 35.9 31.1484 36 31.3493C35.6 31.3493 35.2 31.4498 34.9 31.3493C32.4 30.9474 29.9 30.5455 27.4 30.0431C26.4 29.8421 25.4 29.5407 24.5 29.3397C23 28.9378 22.9001 28.4354 23.7001 27.2297ZM18.7001 33.0574C19.0001 32.5551 19.3001 32.0527 19.7001 31.6508C20.1001 31.2488 20.6001 31.0479 21.2001 31.0479C22.0001 31.0479 22.6 31.3493 23.3 31.6508C24.7 32.3541 25.8 33.3589 26.8 34.5646C28.4 36.5742 29.9 38.6842 31.1 41.0957C31.2 41.3972 31.3 41.6986 31.4 42C31.4 42.1005 31.4 42.4019 31.3 42.5024C31.2 42.6029 31 42.5024 30.9 42.5024C29.8 42 28.7 41.3972 27.6 40.8948C25.7 39.89 23.8 38.9857 21.9 38.0814C21.1 37.6795 20.3 37.4785 19.5 37.4785C19.3 37.4785 19 37.378 18.8 37.2775C18.3 37.0766 18 36.6747 18 36.0718C17.8 34.9665 18.2001 33.9618 18.7001 33.0574ZM13.9 42C14.1 40.9952 14.8001 40.3924 15.7001 39.9905C16.5001 39.5886 17.4 39.5885 18.3 39.5885C20.3 39.5885 22.2 40.0909 24.1 40.7943C25.6 41.3972 27 42 28.5 42.7034C28.8 42.8039 29.1 43.1053 29.3 43.3063C29.4 43.4067 29.4 43.5072 29.4 43.6077C29.3 43.6077 29.2 43.7082 29.1 43.7082C28.5 43.6077 27.9 43.6077 27.4 43.5072C25.9 43.3063 24.5 42.9043 23 42.8039C21.1 42.6029 19.4 43.1053 17.9 44.311C17.4 44.713 16.7 45.1149 16.1 45.4163C15.8 45.5168 15.4 45.6173 15.1 45.6173C14.6 45.6173 14.2 45.2153 14 44.713C13.7 43.8086 13.7 42.9043 13.9 42ZM14.5 51.445C14.1 49.8374 14.5 48.5311 15.6 47.5264C16.8 46.4211 18.3 45.8182 19.8 45.5168C22.3 44.9139 24.8 44.9139 27.3 45.2153C28.6 45.4163 29.9 45.6173 31.1 45.9187C31.3 45.9187 31.4 46.0192 31.6 46.1197V46.2201C31.4 46.3206 31.2 46.4211 31 46.4211C29.3 46.7225 27.5 47.1244 25.8 47.4259C24.6 47.7273 23.4 48.0287 22.3 48.5311C21.3 49.0335 20.5001 49.7369 19.7001 50.5407C18.6001 51.646 17.5 52.7512 16.3 53.8565C15.5 54.5598 15.2 54.4594 14.9 53.4546C14.9 52.6508 14.7 52.0479 14.5 51.445ZM23.6 68.9283C23.6 69.4307 23.4 70.0335 23.3 70.5359C23.2 70.8374 23 70.9378 22.8 70.7369C22.1 70.0335 21.3 69.3302 20.6 68.5264C19.1 66.9187 17.7 65.311 16.5 63.402C15.7 62.0957 15.3 60.89 15.3 59.4833C15.3 58.2775 15.9001 56.9713 16.7001 55.8661C18.1001 53.6555 20.1 52.1484 22.4 50.9426C24.4 49.9378 26.5001 49.0335 28.7001 48.8326C29.4001 48.7321 30.1 48.8326 30.8 48.9331C31.6 49.134 32.2 49.9378 32.1 50.7417C32.1 50.9426 31.9001 51.2441 31.7001 51.3445C31.3001 51.5455 30.8 51.7464 30.4 51.8469C27.8 52.5503 26.3 54.4594 25.3 56.9713C24.6 58.9809 24.2 61.0909 24 63.201C23.9 65.1101 23.8 67.0192 23.6 68.9283ZM39.8 86.311C38.9 86.4115 38 86.1101 37.1 85.8086C32.7 84.1005 29.5001 80.9857 27.2001 76.6651C25.5001 73.5503 24.7 70.134 24.6 65.9139C24.6 62.5981 25.7001 58.9809 27.7001 55.7656C28.5001 54.5598 29.5 53.6555 30.9 53.2536C31.6 53.0527 32.0001 53.2536 32.2001 53.957C32.4001 54.5598 32.5 55.1627 32.6 55.6651C32.8 56.268 33.0001 56.8708 33.2001 57.4737C33.3001 57.7752 33.5001 57.9761 33.7001 58.0766C34.0001 58.2775 34.1 58.579 34 58.8804C34 59.0814 33.9 59.3828 33.8 59.5838C33.2 60.7895 33 62.0957 32.8 63.402C32.5 66.1149 32.5 68.9283 32.8 71.6412C33.1 74.4546 34 77.067 35.6 79.4785C36.8 81.1866 38.1 82.7943 39.3 84.5024C39.5 84.8039 39.7 85.1053 39.9 85.4067C40.4 86.1101 40.3 86.311 39.8 86.311ZM56.2001 85.3063C55.2001 85.8086 54.4 86.6125 53.3 87.3158C52.7 85.4067 53 83.1962 50.4 82.1914C50.4 83.3972 50.5 84.5024 50.4 85.5072C50.3 86.1101 49.9001 86.6125 49.7001 87.2153C49.3001 87.0144 48.8 86.713 48.4 86.512C46.9 85.6077 45.4 84.6029 43.9 83.6986C41.6 82.2919 41.8 78.2728 44.1 76.8661C45.2 76.1627 46.1001 75.0574 47.2001 74.2536C47.8001 73.8517 48.7 73.6508 49.5 73.5503C50.9 73.4498 52.3 73.4498 53.8 73.5503C54.3 73.5503 54.8001 73.6508 55.2001 73.9522C56.7001 75.0575 58.1001 76.1627 59.6001 77.268C59.8001 77.4689 60.5 79.6795 60.4 79.8804C59.5 82.4929 59.0001 83.6986 56.2001 85.3063ZM76.2001 71.7417C76.0001 73.6508 75.2001 75.2584 74.2001 76.8661C72.4001 79.8804 70.1001 82.4929 67.2001 84.4019C66.0001 85.3063 64.7001 86.0096 63.2001 86.2106C62.5001 86.311 61.7 86.311 61 86.311L60.9 86.2106C61.9 84.8039 62.8 83.2967 64 82.1914C65.8 80.3828 66.7 78.1723 67.5 75.8613C68.3 73.5503 68.8001 71.2393 69.2001 68.8278C69.4001 67.2201 69.3 65.6125 68.8 64.0048C68.5 62.8996 68.1 61.7943 67.8 60.689C67.6 59.8852 67.6 59.1819 67.9 58.4785C68.5 57.0718 69.1 55.6651 69.8 54.3589C70.2 53.6555 70.6 53.5551 71.4 53.8565C72.5 54.2584 73.2 55.1627 73.9 56.067C74.9 57.3732 75.4001 58.8804 75.7001 60.4881C76.5001 64.1053 76.7001 67.9235 76.2001 71.7417ZM85.6001 62.6986C83.9001 65.4115 82.0001 67.823 79.7001 70.0335C79.4001 70.335 79.1 70.5359 78.8 70.6364C78.6 70.7369 78.4001 70.6364 78.2001 70.6364C78.2001 70.4354 78.2001 70.2345 78.2001 70.0335C78.2001 69.3302 78.3 68.6268 78.3 68.024C77.8 63.9043 77 59.7847 75.8 55.8661C75.1 53.6555 73.6 52.4498 71.5 51.7464C71.1 51.646 70.7 51.5455 70.3 51.3445C69.7 51.0431 69.6 50.7417 69.8 50.1388C69.9 49.7369 70.0001 49.2345 70.2001 48.8326C70.3001 48.6316 70.5001 48.5311 70.6001 48.5311C71.2001 48.5311 71.8 48.5311 72.3 48.6316C75.5 49.335 78.5 50.4402 81.5 52.0479C83.5 53.1531 84.7 54.8613 85.5 57.0718C85.7 57.6747 85.9 58.378 86 58.9809C86.1 59.3828 86.1001 59.7847 86.1001 60.2871C86.3001 61.1914 86.0001 61.9952 85.6001 62.6986ZM86.7001 53.1531C86.4001 53.957 86.1 54.0574 85.4 53.6555C84.7 53.2536 84.1 52.6508 83.5 52.1484C82.6 51.3445 81.8 50.5407 81 49.8374C79.5 48.6316 77.7 47.9283 75.9 47.5264C74.1 47.024 72.2 46.622 70.4 46.1197C70.3 46.1197 70.2001 46.0192 70.1001 46.0192V45.9187C72.0001 45.7177 73.8001 45.5168 75.7001 45.3158C77.4001 45.1149 79.1001 45.1149 80.7001 45.3158C82.4001 45.5168 84 46.1197 85.3 47.3254C86.9 48.5311 87.5001 51.2441 86.7001 53.1531ZM85.5 45.4163C85.1 45.2153 84.7 45.0144 84.5 44.713C83.5 43.6077 82.2 43.2058 80.8 43.2058C78 43.2058 75.2 43.3063 72.5 43.3063C72.4 43.3063 72.4 43.3063 72.3 43.3063C75 42 77.6001 40.5933 80.6001 40.0909C82.1001 39.7895 83.6001 39.689 85.2001 40.0909C85.7001 40.1914 86.1 40.3924 86.5 40.6938C87.4 41.2967 87.9 42.1005 87.8 43.3063C87.7 43.8086 87.6 44.4115 87.3 44.9139C86.9 45.5168 86.2 45.7177 85.5 45.4163Z" fill="#2D4B7E"/>
<path d="M50.7 0C22.7 0 0 22.8086 0 50.9426C0 79.0766 22.7 101.885 50.7 101.885C78.7 101.885 101.4 79.0766 101.4 50.9426C101.4 22.8086 78.7 0 50.7 0ZM50.7 97.5646C25.1 97.5646 4.3 76.6651 4.3 50.9426C4.3 25.2201 25.1 4.32057 50.7 4.32057C76.3 4.32057 97.1 25.2201 97.1 50.9426C97.1 76.6651 76.3 97.5646 50.7 97.5646Z" fill="#2D4B7E"/>
<path d="M114 58.4795C114 56.0861 114.837 54.0466 116.51 52.361C118.184 50.6753 120.209 49.8325 122.585 49.8325V53.5384C121.231 53.5384 120.075 54.0209 119.117 54.986C118.465 55.6422 118.037 56.395 117.833 57.2442H122.585V60.9501H117.679V72.0676H114V58.4795Z" fill="#E8B9CD"/>
<path d="M129.135 64.6559C129.34 65.5052 129.768 66.2579 130.419 66.9142C131.377 67.8793 132.534 68.3618 133.888 68.3618C135.242 68.3618 136.398 67.8793 137.356 66.9142L137.375 66.8949L139.982 69.5199L139.962 69.5392C138.289 71.2248 136.264 72.0676 133.888 72.0676C131.511 72.0676 129.487 71.2248 127.813 69.5392C126.139 67.8535 125.303 65.814 125.303 63.4206C125.303 61.0273 126.139 58.9878 127.813 57.3021C129.487 55.6165 131.511 54.7737 133.888 54.7737C136.264 54.7737 138.289 55.6165 139.962 57.3021C141.636 58.9878 142.473 61.0273 142.473 63.4206C142.473 63.8324 142.435 64.2442 142.358 64.6559H141.246H129.135ZM138.142 60.9501C137.938 60.5898 137.676 60.2488 137.356 59.9271C136.398 58.962 135.242 58.4795 133.888 58.4795C132.534 58.4795 131.377 58.962 130.419 59.9271C130.1 60.2488 129.838 60.5898 129.634 60.9501H138.142Z" fill="#E8B9CD"/>
<path d="M145.281 63.4206C145.281 61.0273 146.117 58.9878 147.791 57.3021C149.465 55.6165 151.489 54.7737 153.866 54.7737V58.4795C152.511 58.4795 151.355 58.962 150.397 59.9271C149.439 60.8922 148.96 62.0567 148.96 63.4206V72.0676H145.281V63.4206Z" fill="#E8B9CD"/>
<path d="M160.262 58.4795V63.4206C160.262 64.7846 160.742 65.9491 161.7 66.9142C162.658 67.8793 163.814 68.3618 165.168 68.3618V72.0676C162.792 72.0676 160.767 71.2248 159.094 69.5392C157.42 67.8535 156.583 65.814 156.583 63.4206V49.8325H160.262V54.7737H165.168V58.4795H160.262Z" fill="#E8B9CD"/>
<path d="M172.655 54.7737V72.0676H168.976V54.7737H172.655ZM170.816 53.5384C170.305 53.5384 169.87 53.3582 169.513 52.9979C169.155 52.6376 168.976 52.2001 168.976 51.6854C168.976 51.1707 169.155 50.7332 169.513 50.373C169.87 50.0127 170.305 49.8325 170.816 49.8325C171.327 49.8325 171.761 50.0127 172.119 50.373C172.476 50.7332 172.655 51.1707 172.655 51.6854C172.655 52.2001 172.476 52.6376 172.119 52.9979C171.761 53.3582 171.327 53.5384 170.816 53.5384Z" fill="#E8B9CD"/>
<path d="M181.142 49.8325V72.0676H177.463V49.8325H181.142Z" fill="#E8B9CD"/>
<path d="M189.629 54.7737V72.0676H185.95V54.7737H189.629ZM187.79 53.5384C187.279 53.5384 186.844 53.3582 186.487 52.9979C186.129 52.6376 185.95 52.2001 185.95 51.6854C185.95 51.1707 186.129 50.7332 186.487 50.373C186.844 50.0127 187.279 49.8325 187.79 49.8325C188.301 49.8325 188.735 50.0127 189.093 50.373C189.45 50.7332 189.629 51.1707 189.629 51.6854C189.629 52.2001 189.45 52.6376 189.093 52.9979C188.735 53.3582 188.301 53.5384 187.79 53.5384Z" fill="#E8B9CD"/>
<path d="M198.116 58.4795V63.4206C198.116 64.7846 198.595 65.9491 199.554 66.9142C200.512 67.8793 201.668 68.3618 203.022 68.3618V72.0676C200.646 72.0676 198.621 71.2248 196.947 69.5392C195.274 67.8535 194.437 65.814 194.437 63.4206V49.8325H198.116V54.7737H203.022V58.4795H198.116Z" fill="#E8B9CD"/>
<path d="M205.83 63.4206V54.7737H209.509V63.4206C209.509 64.7846 209.988 65.9491 210.946 66.9142C211.904 67.8793 213.061 68.3618 214.415 68.3618C215.769 68.3618 216.925 67.8793 217.883 66.9142C218.842 65.9491 219.321 64.7846 219.321 63.4206V54.7737H223V72.0676C223 74.461 222.163 76.5005 220.49 78.1862C218.816 79.8718 216.791 80.7146 214.415 80.7146V77.0088C215.769 77.0088 216.925 76.5262 217.883 75.5612C218.842 74.5961 219.321 73.4316 219.321 72.0676V70.5428C217.903 71.5594 216.267 72.0676 214.415 72.0676C212.039 72.0676 210.014 71.2248 208.34 69.5392C206.667 67.8535 205.83 65.814 205.83 63.4206Z" fill="#E8B9CD"/>
<path fill-rule="evenodd" clip-rule="evenodd" d="M113.7 29.6412V43.3062H117.4V32.1531H122.3V28.4354H117.5C117.7 27.6316 118.1 26.8278 118.8 26.1244C119.8 25.1196 120.9 24.7177 122.3 24.7177V21C119.9 21 117.9 21.8038 116.2 23.512C114.6 25.2201 113.7 27.2297 113.7 29.6412ZM133.4 25.9234C131 25.9234 129 26.7272 127.3 28.4353C125.6 30.1435 124.8 32.153 124.8 34.5645C124.8 36.976 125.6 38.9856 127.3 40.6937C129 42.4018 131 43.2057 133.4 43.2057C135.8 43.2057 137.8 42.4018 139.5 40.6937C141.2 38.9856 142 36.976 142 34.5645C142 32.153 141.2 30.1435 139.5 28.4353C137.8 26.8277 135.8 25.9234 133.4 25.9234ZM136.9 38.0812C135.9 39.086 134.8 39.4879 133.4 39.4879C132 39.4879 130.9 38.9856 129.9 38.0812C128.9 37.1769 128.5 35.9712 128.5 34.5645C128.5 33.1578 129 32.0525 129.9 31.0478C130.8 30.043 132 29.6411 133.4 29.6411C134.8 29.6411 135.9 30.1434 136.9 31.0478C137.9 32.0525 138.3 33.1578 138.3 34.5645C138.3 35.9712 137.9 37.1769 136.9 38.0812ZM144.5 43.3062V34.6651C144.5 32.2536 145.3 30.1435 147 28.5359C148.7 26.8278 150.7 26.0239 153.1 26.0239V29.7416C151.7 29.7416 150.6 30.1435 149.6 31.1483C148.7 32.1531 148.2 33.2584 148.2 34.6651V43.3062H144.5ZM163.3 32.5549C160.6 31.8516 159.2 31.1482 159.2 30.4449C159.2 29.9425 159.8 29.6411 161.1 29.6411H167.9V25.9234H160.5C157.2 25.9234 155.6 27.6315 155.6 30.9473C155.6 32.153 156 33.2583 156.7 34.1626C157.5 35.0669 159.6 35.9712 163.2 36.775C164.3 37.0765 164.8 37.4784 164.8 38.1817C164.7 38.9856 163.9 39.3875 162.3 39.4879H155.6V43.2057H162.4C164.5 43.2057 166 42.7033 167.1 41.799C168.2 40.8946 168.7 39.4879 168.7 37.5789C168.7 36.1722 168.3 35.0669 167.5 34.3635C166.7 33.7607 165.3 33.0573 163.3 32.5549ZM179 26.0239C180.8 26.0239 182.5 26.5263 183.9 27.5311V26.0239H187.6V34.6651V43.3062H183.9V41.799C182.5 42.8038 180.9 43.3062 179 43.3062C176.6 43.3062 174.6 42.5024 172.9 40.7943C171.2 39.0861 170.4 37.0766 170.4 34.6651C170.4 32.2536 171.2 30.244 172.9 28.5359C174.6 26.8278 176.6 26.0239 179 26.0239ZM179 39.488C180.4 39.488 181.5 39.0861 182.5 38.0813C183.4 37.177 183.9 35.9713 183.9 34.5646C183.9 33.1579 183.5 32.0526 182.5 31.0478C181.5 30.1435 180.4 29.6412 179 29.6412C177.6 29.6412 176.5 30.0431 175.5 31.0478C174.6 32.0526 174.1 33.1579 174.1 34.5646C174.1 35.9713 174.5 37.0766 175.5 38.0813C176.5 38.9856 177.6 39.488 179 39.488Z" fill="#2D4B7E"/>
</svg>
