<svg width="229" height="51" viewBox="0 0 229 51" fill="none" xmlns="http://www.w3.org/2000/svg">
<path d="M13.6 1.72754H16L29.6 35.0275H26.9L22.6 24.3275H6.9L2.6 34.9275H0L13.6 1.72754ZM21.6 21.9275L14.7 4.72754L7.8 21.9275H21.6Z" fill="black"/>
<path d="M34.9001 1.72754H44.9001C47.1001 1.72754 48.9001 1.92754 50.4001 2.42754C51.9001 2.92754 53.1 3.52754 54 4.42754C54.9 5.22754 55.6 6.22754 56 7.42754C56.4 8.52754 56.6 9.82754 56.6 11.2275C56.6 13.4275 56.0001 15.3275 54.9001 17.0275C53.8001 18.7275 52 19.8275 49.6 20.4275L57.5 35.1275H54.8L47.1 20.7275H37.2001V35.1275H34.8V1.72754H34.9001ZM45.9001 18.3275C51.4001 18.3275 54.1 15.9275 54.1 11.1275C54.1 8.72754 53.4001 6.92754 51.9001 5.72754C50.5001 4.52754 48.3 3.92754 45.5 3.92754H37.2001V18.3275H45.9001Z" fill="black"/>
<path d="M64.6001 1.72754H67.0001V19.0275L83.4001 1.72754H86.3001L73.7001 15.1275L88.0001 34.9275H85.2001L72.0001 16.9275L67.0001 22.2275V34.9275H64.6001V1.72754Z" fill="black"/>
<path d="M222.5 5.92752L217.7 6.02752C219.9 7.82752 221.5 10.4275 222.1 13.5275C222.2 14.1275 222.3 14.8275 222.3 15.4275L225.1 11.4275L229 5.92752H222.5Z" fill="black"/>
<path d="M151.9 0.727539C150.1 0.727539 148.4 1.02754 147 1.52754C145.6 2.02754 144.4 2.72754 143.3 3.52754C142.3 4.32754 141.4 5.22754 140.7 6.12754C140.6 6.22754 140.6 6.32754 140.5 6.42754C140.5 5.82754 140.5 5.32754 140.5 4.82754C140.5 4.32754 140.5 3.72754 140.4 3.32754C140.4 2.82754 140.3 2.32754 140.3 1.82754V1.02754H135.8L135.9 1.82754C135.9 2.32754 136 2.82754 136 3.22754C136 3.62754 136 4.12754 136 4.62754V35.1275H140.7V17.7275C140.7 16.2275 141 14.7275 141.5 13.2275C142 11.7275 142.7 10.4275 143.7 9.22754C144.6 8.12754 145.7 7.12754 147 6.42754C148.3 5.72754 149.7 5.42754 151.3 5.42754C151.6 5.42754 152 5.42754 152.5 5.52754C152.9 5.52754 153.2 5.62754 153.5 5.72754L154.3 6.02754L155.7 1.52754L155.1 1.22754C154 0.927539 153 0.727539 151.9 0.727539Z" fill="#E7CC00"/>
<path d="M183.3 1.02753L172.9 28.1275L160.9 1.02753H155.7L170.5 34.0275L167.9 40.6275C167.2 42.4275 166.5 43.7275 165.8 44.7275C165.2 45.5275 164.3 45.9275 163.1 45.9275C162.3 45.9275 161.5 45.8275 160.9 45.5275C160.3 45.2275 159.7 44.9275 159.4 44.5275L158.8 43.9275L156.3 47.4275L156.8 47.8275C157.6 48.5275 158.5 49.1275 159.5 49.5275C160.5 49.9275 161.8 50.2275 163.2 50.2275C164.5 50.2275 165.7 49.9275 166.7 49.4275C167.7 48.9275 168.5 48.2275 169.2 47.4275C169.9 46.6275 170.4 45.8275 170.9 44.9275C171.3 44.0275 171.7 43.2275 172 42.5275L188.4 1.02753H183.3Z" fill="#E7CC00"/>
<path d="M218.4 20.6275C218.1 22.7275 217.4 24.8275 216.1 26.7275C211.6 33.4275 202.6 35.2275 195.9 30.7275C189.2 26.2275 187.4 17.2275 191.9 10.5275C196.2 4.02753 204.9 2.12753 211.5 6.12753L217.7 6.02753C216.7 4.92753 215.6 3.92753 214.3 3.12753C205.8 -2.57247 194.2 -0.272473 188.5 8.32753C182.8 16.8275 185.1 28.4275 193.7 34.1275C202.2 39.8275 213.8 37.5275 219.5 28.9275C222.3 24.7275 223.2 19.8275 222.3 15.3275L218.4 20.6275Z" fill="#E7CC00"/>
<path d="M122.6 31.0275C115.8 35.2275 106.8 33.2275 102.6 26.3275C98.4 19.5275 100.4 10.5275 107.3 6.32752C113.2 2.62752 120.7 3.72752 125.3 8.42752H130.5C125 0.0275164 113.7 -2.47248 105.1 2.82752C96.4 8.22752 93.7 19.7275 99.1 28.4275C104.5 37.1275 116 39.8275 124.7 34.4275C127.3 32.8275 129.4 30.6275 130.8 28.2275H125.8C124.9 29.2275 123.9 30.2275 122.6 31.0275Z" fill="#E7CC00"/>
</svg>
