<?xml version="1.0" encoding="utf-8"?>
<!-- Generator: Adobe Illustrator 24.0.0, SVG Export Plug-In . SVG Version: 6.00 Build 0)  -->
<svg version="1.1" id="Layer_1" xmlns="http://www.w3.org/2000/svg" xmlns:xlink="http://www.w3.org/1999/xlink" x="0px" y="0px"
	 viewBox="0 0 167 74.1" style="enable-background:new 0 0 167 74.1;" xml:space="preserve">
<style type="text/css">
	.st0{fill:#131638;}
	.st1{fill:#F05B2A;}
</style>
<g>
	<path class="st0" d="M99,20.1l-0.6-1.5h-1.8l-0.6,1.5h-0.5l1.8-4.6h0.4l1.8,4.6H99z M98.3,18.2l-0.5-1.4c-0.1-0.2-0.1-0.4-0.2-0.7
		c0,0.2-0.1,0.4-0.2,0.7l-0.5,1.4H98.3z"/>
	<path class="st0" d="M102.8,15.9c-0.5,0-0.9,0.2-1.2,0.5c-0.3,0.3-0.4,0.8-0.4,1.4c0,0.6,0.1,1.1,0.4,1.4c0.3,0.3,0.7,0.5,1.2,0.5
		c0.3,0,0.7-0.1,1.1-0.2V20c-0.3,0.1-0.7,0.2-1.2,0.2c-0.7,0-1.2-0.2-1.6-0.6c-0.4-0.4-0.5-1-0.5-1.7c0-0.5,0.1-0.9,0.3-1.2
		c0.2-0.4,0.4-0.6,0.8-0.8c0.3-0.2,0.7-0.3,1.2-0.3c0.5,0,0.9,0.1,1.3,0.3l-0.2,0.5C103.5,16,103.2,15.9,102.8,15.9z"/>
	<path class="st0" d="M109.5,17.8c0,0.7-0.2,1.3-0.6,1.7c-0.4,0.4-0.9,0.6-1.5,0.6c-0.7,0-1.2-0.2-1.6-0.6c-0.4-0.4-0.5-1-0.5-1.7
		c0-0.7,0.2-1.3,0.6-1.7c0.4-0.4,0.9-0.6,1.6-0.6c0.7,0,1.2,0.2,1.5,0.6C109.4,16.5,109.5,17.1,109.5,17.8z M105.9,17.8
		c0,0.6,0.1,1.1,0.4,1.4c0.3,0.3,0.6,0.5,1.2,0.5c0.5,0,0.9-0.2,1.2-0.5c0.3-0.3,0.4-0.8,0.4-1.4c0-0.6-0.1-1.1-0.4-1.4
		c-0.3-0.3-0.6-0.5-1.1-0.5c-0.5,0-0.9,0.2-1.2,0.5C106,16.7,105.9,17.2,105.9,17.8z"/>
	<path class="st0" d="M114.6,19.6h0.5v1.7h-0.5v-1.2h-3.5v-4.6h0.5v4.1h2.4v-4.1h0.5V19.6z"/>
	<path class="st0" d="M116.6,20.1v-4.6h0.5v4.6H116.6z"/>
	<path class="st0" d="M121.9,20.1l-0.6-1.5h-1.8l-0.6,1.5h-0.5l1.8-4.6h0.4l1.8,4.6H121.9z M121.1,18.2l-0.5-1.4
		c-0.1-0.2-0.1-0.4-0.2-0.7c0,0.2-0.1,0.4-0.2,0.7l-0.5,1.4H121.1z"/>
	<path class="st0" d="M127.1,19.6h0.5v1.7h-0.5v-1.2h-3.5v-4.6h0.5v4.1h2.4v-4.1h0.5V19.6z"/>
	<path class="st0" d="M129.1,20.1v-4.6h0.5v4.6H129.1z"/>
	<path class="st0" d="M132.9,18.2l-1.2,1.9H131l1.3-2c-0.3-0.1-0.6-0.3-0.7-0.5c-0.2-0.2-0.2-0.5-0.2-0.8c0-0.4,0.1-0.7,0.4-0.9
		c0.3-0.2,0.7-0.3,1.3-0.3h1.3v4.6h-0.5v-1.9H132.9z M133.8,16h-0.7c-0.4,0-0.7,0.1-0.9,0.2c-0.2,0.1-0.3,0.3-0.3,0.6
		c0,0.6,0.4,0.9,1.2,0.9h0.7V16z"/>
	<path class="st0" d="M98.2,27.8l-1.6-4.1h0c0,0.3,0,0.7,0,1.1v2.9h-0.5v-4.6H97l1.5,3.8h0l1.5-3.8h0.8v4.6h-0.5v-3
		c0-0.3,0-0.7,0-1.1h0l-1.6,4.1H98.2z"/>
	<path class="st0" d="M105.2,27.8h-2.6v-4.6h2.6v0.5h-2v1.5h1.9v0.5h-1.9v1.7h2V27.8z"/>
	<path class="st0" d="M110.4,29h-0.5v-1.2h-3.2V29h-0.5v-1.7h0.4c0.3-0.5,0.6-1.2,0.8-2c0.2-0.8,0.4-1.5,0.4-2.1h2.1v4.1h0.6V29z
		 M109.3,27.3v-3.6h-1c0,0.5-0.2,1.1-0.4,1.8c-0.2,0.7-0.5,1.3-0.8,1.8H109.3z"/>
	<path class="st0" d="M111.8,23.2h0.5v2.5c0,0.5,0,0.9,0,1.3h0l2.6-3.8h0.6v4.6H115v-2.5c0-0.4,0-0.9,0.1-1.3h0l-2.6,3.8h-0.6V23.2z
		"/>
	<path class="st0" d="M120.6,27.8H120v-1.9c-0.3,0.1-0.6,0.2-0.8,0.2c-0.2,0-0.4,0.1-0.6,0.1c-0.4,0-0.8-0.1-1-0.3
		c-0.2-0.2-0.3-0.5-0.3-0.9v-1.8h0.5V25c0,0.3,0.1,0.4,0.2,0.6c0.1,0.1,0.3,0.2,0.6,0.2c0.2,0,0.4,0,0.6,0c0.2,0,0.5-0.1,0.8-0.2
		v-2.2h0.5V27.8z"/>
	<path class="st0" d="M126,27.8h-0.5v-2.2H123v2.2h-0.5v-4.6h0.5v1.9h2.4v-1.9h0.5V27.8z"/>
	<path class="st0" d="M131.8,25.5c0,0.7-0.2,1.3-0.6,1.7c-0.4,0.4-0.9,0.6-1.5,0.6c-0.7,0-1.2-0.2-1.6-0.6c-0.4-0.4-0.5-1-0.5-1.7
		c0-0.7,0.2-1.3,0.6-1.7c0.4-0.4,0.9-0.6,1.6-0.6c0.7,0,1.2,0.2,1.5,0.6C131.6,24.2,131.8,24.8,131.8,25.5z M128.2,25.5
		c0,0.6,0.1,1.1,0.4,1.4c0.3,0.3,0.6,0.5,1.2,0.5c0.5,0,0.9-0.2,1.2-0.5c0.3-0.3,0.4-0.8,0.4-1.4c0-0.6-0.1-1.1-0.4-1.4
		c-0.3-0.3-0.6-0.5-1.1-0.5c-0.5,0-0.9,0.2-1.2,0.5C128.3,24.4,128.2,24.9,128.2,25.5z"/>
	<path class="st0" d="M136.1,23.2v0.5h-2v4.1h-0.5v-4.6H136.1z"/>
	<path class="st0" d="M141.5,25.5c0,0.7-0.2,1.3-0.6,1.7c-0.4,0.4-0.9,0.6-1.5,0.6c-0.7,0-1.2-0.2-1.6-0.6c-0.4-0.4-0.5-1-0.5-1.7
		c0-0.7,0.2-1.3,0.6-1.7c0.4-0.4,0.9-0.6,1.6-0.6c0.7,0,1.2,0.2,1.5,0.6C141.3,24.2,141.5,24.8,141.5,25.5z M137.8,25.5
		c0,0.6,0.1,1.1,0.4,1.4c0.3,0.3,0.6,0.5,1.2,0.5c0.5,0,0.9-0.2,1.2-0.5c0.3-0.3,0.4-0.8,0.4-1.4c0-0.6-0.1-1.1-0.4-1.4
		c-0.3-0.3-0.6-0.5-1.1-0.5c-0.5,0-0.9,0.2-1.2,0.5C137.9,24.4,137.8,24.9,137.8,25.5z"/>
	<path class="st0" d="M97.6,35.5H97v-4.1h-1.5v-0.5H99v0.5h-1.5V35.5z"/>
	<path class="st0" d="M103.3,32.3c0,0.5-0.2,0.8-0.5,1.1c-0.3,0.2-0.8,0.4-1.4,0.4h-0.5v1.8h-0.5v-4.6h1.2
		C102.7,30.9,103.3,31.4,103.3,32.3z M100.9,33.2h0.5c0.5,0,0.8-0.1,1-0.2c0.2-0.2,0.3-0.4,0.3-0.7c0-0.3-0.1-0.5-0.3-0.7
		c-0.2-0.1-0.5-0.2-0.9-0.2h-0.6V33.2z"/>
	<path class="st0" d="M107.7,35.5l-0.6-1.5h-1.8l-0.6,1.5h-0.5l1.8-4.6h0.4l1.8,4.6H107.7z M107,33.6l-0.5-1.4
		c-0.1-0.2-0.1-0.4-0.2-0.7c0,0.2-0.1,0.4-0.2,0.7l-0.5,1.4H107z"/>
	<path class="st0" d="M113,35.5h-0.5v-2.2h-2.4v2.2h-0.5v-4.6h0.5v1.9h2.4v-1.9h0.5V35.5z"/>
	<path class="st0" d="M116.9,31.3c-0.5,0-0.9,0.2-1.2,0.5c-0.3,0.3-0.4,0.8-0.4,1.4c0,0.6,0.1,1.1,0.4,1.4c0.3,0.3,0.7,0.5,1.2,0.5
		c0.3,0,0.7-0.1,1.1-0.2v0.5c-0.3,0.1-0.7,0.2-1.2,0.2c-0.7,0-1.2-0.2-1.6-0.6c-0.4-0.4-0.5-1-0.5-1.7c0-0.5,0.1-0.9,0.3-1.2
		c0.2-0.4,0.4-0.6,0.8-0.8c0.3-0.2,0.7-0.3,1.2-0.3c0.5,0,0.9,0.1,1.3,0.3l-0.2,0.5C117.6,31.4,117.3,31.3,116.9,31.3z"/>
	<path class="st0" d="M123.1,35.5h-0.5v-4.1h-2.4v4.1h-0.5v-4.6h3.4V35.5z"/>
	<path class="st0" d="M128.9,33.2c0,0.7-0.2,1.3-0.6,1.7c-0.4,0.4-0.9,0.6-1.5,0.6c-0.7,0-1.2-0.2-1.6-0.6c-0.4-0.4-0.5-1-0.5-1.7
		c0-0.7,0.2-1.3,0.6-1.7c0.4-0.4,0.9-0.6,1.6-0.6c0.7,0,1.2,0.2,1.5,0.6C128.8,31.9,128.9,32.5,128.9,33.2z M125.3,33.2
		c0,0.6,0.1,1.1,0.4,1.4c0.3,0.3,0.6,0.5,1.2,0.5c0.5,0,0.9-0.2,1.2-0.5c0.3-0.3,0.4-0.8,0.4-1.4c0-0.6-0.1-1.1-0.4-1.4
		c-0.3-0.3-0.6-0.5-1.1-0.5c-0.5,0-0.9,0.2-1.2,0.5C125.4,32.1,125.3,32.6,125.3,33.2z"/>
	<path class="st0" d="M133.5,32.3c0,0.5-0.2,0.8-0.5,1.1c-0.3,0.2-0.8,0.4-1.4,0.4h-0.5v1.8h-0.5v-4.6h1.2
		C132.9,30.9,133.5,31.4,133.5,32.3z M131.1,33.2h0.5c0.5,0,0.8-0.1,1-0.2c0.2-0.2,0.3-0.4,0.3-0.7c0-0.3-0.1-0.5-0.3-0.7
		c-0.2-0.1-0.5-0.2-0.9-0.2h-0.6V33.2z"/>
	<path class="st0" d="M136.5,35.5H136v-4.1h-1.5v-0.5h3.4v0.5h-1.5V35.5z"/>
	<path class="st0" d="M139.6,35.6c-0.2,0-0.4,0-0.6-0.1V35c0.2,0.1,0.4,0.1,0.6,0.1c0.2,0,0.4-0.1,0.6-0.2c0.1-0.1,0.3-0.3,0.4-0.6
		l-1.8-3.4h0.6l1.4,2.6c0.1,0.1,0.1,0.2,0.1,0.3h0c0.1-0.2,0.1-0.3,0.1-0.3l1.1-2.6h0.6l-1.5,3.3c-0.2,0.4-0.3,0.7-0.5,0.9
		c-0.1,0.2-0.3,0.3-0.5,0.4C140.1,35.5,139.8,35.6,139.6,35.6z"/>
	<path class="st0" d="M143.9,30.9h1.3c0.6,0,1,0.1,1.3,0.3c0.3,0.2,0.4,0.5,0.4,0.9c0,0.3-0.1,0.5-0.2,0.7c-0.2,0.2-0.4,0.3-0.7,0.3
		v0c0.7,0.1,1,0.5,1,1.1c0,0.4-0.1,0.7-0.4,1c-0.3,0.2-0.7,0.3-1.2,0.3h-1.6V30.9z M144.5,32.9h0.9c0.4,0,0.6-0.1,0.8-0.2
		c0.2-0.1,0.2-0.3,0.2-0.6c0-0.3-0.1-0.4-0.3-0.6c-0.2-0.1-0.5-0.2-0.9-0.2h-0.8V32.9z M144.5,33.3v1.7h1c0.4,0,0.6-0.1,0.8-0.2
		c0.2-0.1,0.3-0.4,0.3-0.7c0-0.3-0.1-0.5-0.3-0.6c-0.2-0.1-0.5-0.2-0.9-0.2H144.5z"/>
	<path class="st0" d="M151.6,35.5L151,34h-1.8l-0.6,1.5h-0.5l1.8-4.6h0.4l1.8,4.6H151.6z M150.9,33.6l-0.5-1.4
		c-0.1-0.2-0.1-0.4-0.2-0.7c0,0.2-0.1,0.4-0.2,0.7l-0.5,1.4H150.9z"/>
	<path class="st0" d="M156.9,35.5h-0.5v-2.2H154v2.2h-0.5v-4.6h0.5v1.9h2.4v-1.9h0.5V35.5z"/>
	<path class="st0" d="M162.3,35.5h-0.5v-2.2h-2.4v2.2h-0.5v-4.6h0.5v1.9h2.4v-1.9h0.5V35.5z"/>
	<path class="st0" d="M165.6,33.6l-1.2,1.9h-0.6l1.3-2c-0.3-0.1-0.6-0.3-0.7-0.5c-0.2-0.2-0.2-0.5-0.2-0.8c0-0.4,0.1-0.7,0.4-0.9
		c0.3-0.2,0.7-0.3,1.3-0.3h1.3v4.6h-0.5v-1.9H165.6z M166.5,31.4h-0.7c-0.4,0-0.7,0.1-0.9,0.2c-0.2,0.1-0.3,0.3-0.3,0.6
		c0,0.6,0.4,0.9,1.2,0.9h0.7V31.4z"/>
	<path class="st0" d="M96.5,43.3c-0.2,0-0.4,0-0.6-0.1v-0.5c0.2,0.1,0.4,0.1,0.6,0.1c0.2,0,0.4-0.1,0.6-0.2c0.1-0.1,0.3-0.3,0.4-0.6
		l-1.8-3.4h0.6l1.4,2.6c0.1,0.1,0.1,0.2,0.1,0.3h0c0.1-0.2,0.1-0.3,0.1-0.3l1.1-2.6h0.6l-1.5,3.3c-0.2,0.4-0.3,0.7-0.5,0.9
		c-0.1,0.2-0.3,0.3-0.5,0.4C96.9,43.2,96.7,43.3,96.5,43.3z"/>
	<path class="st0" d="M104.1,43.2h-0.6l-2.1-2.3v2.3h-0.5v-4.6h0.5v2.2l2.1-2.2h0.6l-2,2.2L104.1,43.2z"/>
	<path class="st0" d="M108.3,40c0,0.5-0.2,0.8-0.5,1.1s-0.8,0.4-1.4,0.4h-0.5v1.8h-0.5v-4.6h1.2C107.7,38.6,108.3,39.1,108.3,40z
		 M105.9,41h0.5c0.5,0,0.8-0.1,1-0.2c0.2-0.2,0.3-0.4,0.3-0.7c0-0.3-0.1-0.5-0.3-0.7c-0.2-0.1-0.5-0.2-0.9-0.2h-0.6V41z"/>
	<path class="st0" d="M112.8,43.2l-0.6-1.5h-1.8l-0.6,1.5h-0.5l1.8-4.6h0.4l1.8,4.6H112.8z M112,41.3l-0.5-1.4
		c-0.1-0.2-0.1-0.4-0.2-0.7c0,0.2-0.1,0.4-0.2,0.7l-0.5,1.4H112z"/>
	<path class="st0" d="M114,37.8c0-0.1,0-0.2,0.1-0.2c0.1,0,0.1-0.1,0.2-0.1c0.1,0,0.1,0,0.2,0.1c0.1,0,0.1,0.1,0.1,0.2
		c0,0.1,0,0.2-0.1,0.2c-0.1,0.1-0.1,0.1-0.2,0.1c-0.1,0-0.1,0-0.2-0.1C114,38,114,37.9,114,37.8z M114.6,43.2v-4.6h0.5v4.6H114.6z
		 M115.2,37.8c0-0.1,0-0.2,0.1-0.2c0.1,0,0.1-0.1,0.2-0.1c0.1,0,0.1,0,0.2,0.1c0.1,0,0.1,0.1,0.1,0.2c0,0.1,0,0.2-0.1,0.2
		c-0.1,0.1-0.1,0.1-0.2,0.1c-0.1,0-0.1,0-0.2-0.1C115.2,38,115.2,37.9,115.2,37.8z"/>
	<path class="st0" d="M120.5,43.2H120v-2.2h-2.4v2.2H117v-4.6h0.5v1.9h2.4v-1.9h0.5V43.2z"/>
	<path class="st0" d="M122.4,38.6h0.5v2.5c0,0.5,0,0.9,0,1.3h0l2.6-3.8h0.6v4.6h-0.5v-2.5c0-0.4,0-0.9,0.1-1.3h0l-2.6,3.8h-0.6V38.6
		z"/>
</g>
<g>
	<path class="st0" d="M4.6,60.8H0l0.7-4.1h14.4l-0.7,4.1H9.8l-2.3,13H2.3L4.6,60.8z"/>
	<path class="st0" d="M24.4,68.3h-1.9l-1,5.5h-5.2l3-17.2h9.2c1.3,0,2.3,0.3,3.2,0.8c0.8,0.5,1.4,1.2,1.7,2.1c0.3,0.9,0.4,1.9,0.2,3
		c-0.2,1.3-0.7,2.4-1.5,3.3c-0.8,0.9-1.6,1.5-2.5,1.9l2,6.1h-5.9L24.4,68.3z M28.1,61.2c-0.3-0.3-0.7-0.5-1.1-0.5h-3.2l-0.6,3.4h3.2
		c0.5,0,0.9-0.2,1.3-0.5c0.4-0.3,0.6-0.7,0.7-1.3C28.5,61.9,28.4,61.5,28.1,61.2z"/>
	<path class="st0" d="M47.6,71.6H41l-1.1,2.2h-5.6l9.4-17.2h6.5l3.3,17.2h-5.6L47.6,71.6z M43,67.5h4l-0.9-6L43,67.5z"/>
	<path class="st0" d="M63.6,64.6L62,73.8h-5.2l3-17.2h5.3l4.4,8.6l1.5-8.6h5.2l-3,17.2h-5L63.6,64.6z"/>
	<path class="st0" d="M80.9,67.8c0.6,0.7,1.3,1.2,2.2,1.6c0.9,0.4,1.9,0.6,3,0.6c0.5,0,1-0.1,1.4-0.4c0.4-0.2,0.7-0.6,0.7-1
		c0.1-0.4-0.1-0.8-0.4-1c-0.3-0.3-0.9-0.5-1.7-0.7c-1.4-0.2-2.5-0.5-3.4-0.8c-0.9-0.3-1.6-0.8-2.2-1.5c-0.6-0.7-0.8-1.7-0.6-3
		c0.2-1,0.6-1.8,1.3-2.7c0.7-0.8,1.6-1.5,2.8-2c1.2-0.5,2.5-0.7,4-0.7c1.4,0,2.7,0.2,3.9,0.6c1.2,0.4,2.2,0.9,3,1.7l-3.4,3.6
		c-0.6-0.5-1.3-1-2.2-1.3c-0.8-0.3-1.6-0.4-2.3-0.4c-1,0-1.6,0.3-1.7,1c-0.1,0.4,0.1,0.6,0.4,0.8c0.3,0.2,1,0.4,1.9,0.5
		c1.3,0.2,2.4,0.5,3.3,0.8c0.9,0.3,1.7,0.8,2.3,1.6c0.6,0.7,0.8,1.7,0.6,2.9c-0.3,1.9-1.2,3.4-2.7,4.4c-1.5,1-3.4,1.6-5.7,1.6
		c-3.3,0-5.8-0.9-7.5-2.6L80.9,67.8z"/>
	<path class="st0" d="M99.7,56.6h13l-0.7,4.1h-7.8l-0.4,2.2h7.6l-0.7,4.1H103l-1.2,6.7h-5.2L99.7,56.6z"/>
	<path class="st0" d="M117.3,56.6h13l-0.7,4.1h-7.8l-0.4,2.2h7.6l-0.7,4.1h-7.6l-0.5,2.6h7.8l-0.7,4.1h-13L117.3,56.6z"/>
	<path class="st0" d="M140,68.3h-1.9l-1,5.5H132l3-17.2h9.2c1.3,0,2.3,0.3,3.2,0.8c0.8,0.5,1.4,1.2,1.7,2.1c0.3,0.9,0.4,1.9,0.2,3
		c-0.2,1.3-0.7,2.4-1.5,3.3c-0.8,0.9-1.6,1.5-2.5,1.9l2,6.1h-5.9L140,68.3z M143.7,61.2c-0.3-0.3-0.7-0.5-1.1-0.5h-3.2l-0.6,3.4h3.2
		c0.5,0,0.9-0.2,1.3-0.5c0.4-0.3,0.6-0.7,0.7-1.3C144.1,61.9,144,61.5,143.7,61.2z"/>
</g>
<rect x="37.4" y="14.6" class="st0" width="10.9" height="29.6"/>
<path class="st0" d="M68.8,13.8c-8.5,0-15.3,6.9-15.3,15.5s6.8,15.5,15.3,15.5S84.2,38,84.2,29.4S77.3,13.8,68.8,13.8z M68.8,35.6
	c-3.4,0-6.1-2.8-6.1-6.2s2.7-6.2,6.1-6.2c3.4,0,6.1,2.8,6.1,6.2S72.2,35.6,68.8,35.6z"/>
<path class="st1" d="M42.9,0c-3.4,0-6.1,2.8-6.1,6.2c0,3.4,2.7,6.2,6.1,6.2c3.4,0,6.1-2.8,6.1-6.2C49,2.8,46.3,0,42.9,0z"/>
<path class="st0" d="M24.7,23.5c-1.9,1.2-3,3.4-3,5.7c0,0.1,0,0.1,0,0.2c0,3.4-2.7,6.2-6.1,6.2s-6.1-2.8-6.1-6.2
	c0-3.4,2.7-6.2,6.1-6.2c0.2,0,0.5,0,0.7,0c2.3,0.3,4.5-0.5,6-2.3l2.9-3.6c-2.6-2.1-6-3.4-9.6-3.4c-1.5,0-3,0.2-4.4,0.7V0.7H0.2v29.6
	h0c0.5,8.2,7.1,14.6,15.3,14.6c8.5,0,15.3-6.9,15.3-15.5c0-3.1-0.9-5.9-2.4-8.4L24.7,23.5z"/>
</svg>
