 <svg
	width="39"
	height="33"
	viewBox="0 0 39 33"
	fill="none"
	xmlns="http://www.w3.org/2000/svg"
>
	<path
		d="M33.0331 5.4707L28.873 5.55737C30.7797 7.11737 32.1664 9.3707 32.6864 12.0574C32.7731 12.5774 32.8597 13.184 32.8597 13.704L35.2864 10.2374L38.6664 5.4707H33.0331Z"
		fill="black"
	/>
	<path
		d="M29.4798 18.2107C29.2198 20.0307 28.6132 21.8507 27.4865 23.4974C23.5865 29.304 15.7865 30.864 9.97981 26.964C4.17314 23.064 2.61314 15.264 6.51314 9.45735C10.2398 3.82402 17.7798 2.17735 23.4998 5.64402L28.8732 5.55735C28.0065 4.60402 27.0532 3.73735 25.9265 3.04402C18.5598 -1.89598 8.50648 0.0973525 3.56648 7.55069C-1.37352 14.9174 0.619811 24.9707 8.07315 29.9107C15.4398 34.8507 25.4932 32.8574 30.4332 25.404C32.8598 21.764 33.6398 17.5174 32.8598 13.6174L29.4798 18.2107Z"
		fill="#E7CC00"
	/>
</svg>