<svg width="90" height="90" viewBox="0 0 90 90" fill="none" xmlns="http://www.w3.org/2000/svg">
<path d="M90 86C90 88.2091 88.2091 90 86 90H4C1.79086 90 0 88.2091 0 86V4C0 1.79086 1.79086 0 4 0H86C88.2091 0 90 1.79086 90 4V86Z" fill="#FC2B2B"/>
<path d="M15.3991 62.0733L14.4412 62.6701L15.4865 64.3486L14.8135 64.7683L13.7679 63.0897L12.4473 63.9127L11.9244 63.0734L15.5495 60.8144L17.2566 63.556L16.5834 63.9733L15.3991 62.0733Z" fill="white"/>
<path d="M17.6043 63.9663L18.1962 64.7589L14.7756 67.3164L14.1837 66.5237L17.6043 63.9663Z" fill="white"/>
<path d="M19.6119 67.9575C19.6035 67.757 19.4996 67.5472 19.3005 67.3281L18.7608 66.7289L17.6558 67.7267L18.1957 68.3258C18.3948 68.545 18.5941 68.6686 18.7946 68.6965C18.9946 68.7245 19.1823 68.6592 19.3576 68.5007C19.5357 68.3398 19.6203 68.158 19.6119 67.9575ZM17.3501 70.3378L17.6809 68.9297L17.6483 68.8923L17.0716 68.2536L16.1887 69.0532L15.5259 68.3189L18.696 65.456L19.935 66.8268C20.1887 67.1089 20.3619 67.3956 20.4554 67.6871C20.5484 67.9785 20.5596 68.2559 20.4882 68.524C20.4171 68.7898 20.2637 69.0299 20.0283 69.2444C19.7928 69.4565 19.5387 69.5824 19.266 69.6244C18.993 69.664 18.7172 69.6221 18.4386 69.4962L18.0616 71.1257L17.3501 70.3378Z" fill="white"/>
<path d="M19.1725 72.042C18.9953 71.7669 18.8824 71.5105 18.8347 71.2727L19.5767 70.9323C19.6266 71.1538 19.7196 71.3799 19.8564 71.6061C19.9928 71.8322 20.1562 72.0304 20.3465 72.1959C20.5579 72.3801 20.7419 72.485 20.8978 72.5106C21.0538 72.5363 21.1771 72.4966 21.268 72.3917C21.3349 72.3148 21.3606 72.2262 21.3447 72.1236C21.3291 72.0211 21.2878 71.9115 21.2212 71.7996C21.1542 71.6877 21.0573 71.5431 20.93 71.3683C20.7353 71.0955 20.5854 70.8624 20.4798 70.6689C20.3742 70.4731 20.3215 70.2633 20.322 70.0371C20.3222 69.811 20.4159 69.5895 20.6034 69.375C20.7661 69.1885 20.9647 69.0626 21.1981 68.9997C21.4314 68.9367 21.689 68.9484 21.9704 69.037C22.2518 69.1256 22.5397 69.2981 22.8341 69.5545C23.0395 69.734 23.2188 69.9345 23.3727 70.1537C23.5261 70.3752 23.6363 70.5943 23.7032 70.8158L22.9799 71.1795C22.8295 70.7528 22.6057 70.4078 22.3082 70.149C22.0998 69.9672 21.9161 69.8669 21.7578 69.8483C21.5993 69.8273 21.472 69.8739 21.3757 69.9835C21.2794 70.0954 21.2654 70.2259 21.3338 70.3798C21.4018 70.5337 21.5312 70.7412 21.7219 70.9976C21.9166 71.2704 22.0665 71.5035 22.1723 71.6993C22.2777 71.8928 22.3315 72.1026 22.3339 72.3264C22.3362 72.5479 22.2439 72.7671 22.0567 72.9816C21.8963 73.1657 21.6986 73.2893 21.4636 73.3522C21.2286 73.4128 20.9694 73.3988 20.6866 73.3103C20.4036 73.2193 20.1147 73.0468 19.8205 72.7881C19.566 72.5666 19.3501 72.3171 19.1725 72.042Z" fill="white"/>
<path d="M24.6652 72.1282L23.5451 71.3449L24.0064 70.6828L27.0576 72.8159L26.5962 73.4757L25.4758 72.6924L23.4903 75.5343L22.6802 74.9678L24.6652 72.1282Z" fill="white"/>
<path d="M30.5195 79.3203L31.5681 76.982L29.5541 78.3878L29.148 78.206L28.8536 75.8164L27.822 78.1034L26.9767 77.7211L28.7337 73.8278L29.4788 74.1635L29.8441 77.2408L32.3712 75.469L33.1107 75.8024L31.365 79.7027L30.5195 79.3203Z" fill="white"/>
<path d="M36.0842 80.2808L35.8639 81.0408L32.6869 80.1223L33.8737 76.0192L36.9745 76.9167L36.7542 77.6791L34.5971 77.0543L34.3395 77.9448L36.2444 78.4974L36.0306 79.2364L34.1257 78.6839L33.8511 79.635L36.0842 80.2808Z" fill="white"/>
<path d="M38.9586 80.782C39.381 80.845 39.7356 80.7774 40.0225 80.5815C40.3095 80.3834 40.4834 80.0826 40.5443 79.6816C40.6049 79.2783 40.5273 78.9403 40.3116 78.6675C40.0957 78.3948 39.7766 78.2269 39.3544 78.1616L38.4613 78.0264L38.0657 80.6468L38.9586 80.782ZM37.605 77.0776L39.5239 77.3667C39.9825 77.4366 40.3743 77.5858 40.7 77.8143C41.0255 78.0404 41.2616 78.3295 41.4087 78.6768C41.5558 79.0242 41.5975 79.4089 41.5334 79.8308C41.4698 80.2528 41.3164 80.6095 41.0732 80.8963C40.8301 81.1853 40.5193 81.3905 40.141 81.5117C39.7626 81.6329 39.3442 81.6609 38.8856 81.591L36.967 81.3019L37.605 77.0776Z" fill="white"/>
<path d="M42.4346 77.6861L43.4219 77.7351L43.2139 82.0014L42.2266 81.9524L42.4346 77.6861Z" fill="white"/>
<path d="M45.3227 81.8125C44.9628 81.6377 44.6748 81.3882 44.4592 81.0618C44.2433 80.7354 44.1261 80.3601 44.1076 79.9381C44.0892 79.5162 44.1732 79.1315 44.3597 78.7888C44.5462 78.4438 44.811 78.1687 45.1544 77.9659C45.4975 77.7607 45.8887 77.6488 46.3277 77.6301C46.6974 77.6138 47.0348 77.6651 47.339 77.7817C47.6435 77.8982 47.9025 78.0754 48.1165 78.3086L47.508 78.9217C47.2049 78.6023 46.8401 78.4508 46.4133 78.4694C46.1491 78.4811 45.916 78.5487 45.7136 78.6746C45.5115 78.7981 45.357 78.9683 45.2502 79.1805C45.1434 79.3926 45.0959 79.6304 45.1075 79.8939C45.1189 80.1596 45.1872 80.3928 45.312 80.5932C45.4369 80.7961 45.6057 80.9499 45.8179 81.0572C46.0302 81.1644 46.2685 81.211 46.5326 81.1994C46.9595 81.1807 47.3096 80.9966 47.5835 80.6469L48.243 81.2041C48.0505 81.4628 47.8069 81.661 47.512 81.8055C47.2168 81.9477 46.8844 82.027 46.5147 82.0433C46.0799 82.0643 45.6824 81.985 45.3227 81.8125Z" fill="white"/>
<path d="M51.36 79.7166L50.4158 78.2176L50.0251 79.9451L51.36 79.7166ZM51.7936 80.4044L49.8393 80.7378L49.6211 81.7052L48.6226 81.8754L49.7768 77.3434L50.7392 77.1778L53.3439 81.0665L52.3214 81.2413L51.7936 80.4044Z" fill="white"/>
<path d="M52.852 76.7372L53.7994 76.4551L54.7874 79.7772L56.8405 79.1687L57.0702 79.9404L54.0696 80.8333L52.852 76.7372Z" fill="white"/>
<path d="M59.8511 78.3458C59.3965 78.1942 59.03 77.8399 58.7512 77.278L57.6865 75.1356L58.5719 74.695L59.6201 76.8048C59.9604 77.4902 60.4148 77.6907 60.9834 77.4086C61.2601 77.271 61.4303 77.0822 61.4935 76.8444C61.5569 76.6066 61.5007 76.3106 61.3249 75.9585L60.2768 73.8487L61.151 73.4151L62.2157 75.5552C62.4945 76.117 62.5567 76.6253 62.4029 77.0776C62.249 77.5322 61.8989 77.8935 61.3524 78.1663C60.806 78.4367 60.3057 78.4973 59.8511 78.3458Z" fill="white"/>
<path d="M65.0274 70.8204L67.4437 74.3429L66.7746 74.7999L63.5517 73.8674L65.0187 76.0052L64.2138 76.5577L61.7972 73.0351L62.4711 72.5735L65.6897 73.5107L64.2224 71.3729L65.0274 70.8204Z" fill="white"/>
<path d="M65.6559 70.2492L66.4117 69.6127L69.1647 72.8789L68.4091 73.5153L65.6559 70.2492Z" fill="white"/>
<path d="M71.3932 69.4263C71.451 69.1978 71.4456 68.9717 71.3771 68.7432C71.3088 68.5171 71.1794 68.3096 70.9889 68.1277C70.7989 67.9435 70.5891 67.82 70.3592 67.7594C70.1294 67.6988 69.9021 67.7011 69.6776 67.7664C69.4529 67.834 69.2528 67.9552 69.0775 68.137C68.9022 68.3189 68.7854 68.524 68.7276 68.7502C68.6696 68.9763 68.6749 69.2048 68.7437 69.4309C68.8122 69.6594 68.9416 69.8645 69.1318 70.0487C69.3218 70.2329 69.5316 70.3541 69.7615 70.4147C69.9914 70.4753 70.2187 70.473 70.4432 70.4077C70.6679 70.3424 70.8677 70.2189 71.0432 70.0371C71.2185 69.8552 71.3351 69.6524 71.3932 69.4263ZM70.6094 71.2866C70.2245 71.4079 69.8415 71.4265 69.4601 71.3379C69.0789 71.2493 68.7376 71.0605 68.4364 70.7691C68.135 70.4777 67.9336 70.142 67.8322 69.7643C67.7308 69.3866 67.7349 69.0043 67.845 68.615C67.9548 68.2256 68.1639 67.8713 68.4721 67.5519C68.7801 67.2325 69.126 67.0134 69.5095 66.8921C69.893 66.7709 70.2758 66.7522 70.6586 66.8385C71.0411 66.9271 71.3831 67.1159 71.6846 67.4073C71.9858 67.6987 72.1865 68.0345 72.2863 68.4121C72.3863 68.7921 72.3821 69.1768 72.2737 69.5638C72.1653 69.9508 71.9568 70.3028 71.6487 70.6222C71.3405 70.9416 70.9943 71.1631 70.6094 71.2866Z" fill="white"/>
<path d="M72.7475 62.339L76.211 64.8382L75.7362 65.4956L72.3868 65.7054L74.4896 67.2231L73.9182 68.0158L70.4547 65.5143L70.9336 64.8522L74.2789 64.647L72.1763 63.1293L72.7475 62.339Z" fill="white"/>
<path d="M16.9827 45.0572C16.9827 45.6726 17.0098 46.2811 17.0489 46.8872V43.2271C17.0098 43.8332 16.9827 44.4417 16.9827 45.0572Z" fill="white"/>
<path d="M44.921 72.9955C45.5343 72.9955 46.1409 72.9698 46.7443 72.9302H43.098C43.7013 72.9698 44.3079 72.9955 44.921 72.9955Z" fill="white"/>
<path d="M54.3628 18.7578C51.9586 17.8952 49.4014 17.3543 46.7436 17.1841H43.0987C40.4406 17.3543 37.8836 17.8952 35.4794 18.7578H54.3628Z" fill="white"/>
<path d="M29.9029 29.2929V21.504C29.3662 21.8467 28.8396 22.2034 28.3288 22.5811V27.7193H23.0222C22.6165 28.2299 22.2258 28.7544 21.8563 29.2929H29.9029Z" fill="white"/>
<path d="M35.4789 71.3566C37.8829 72.2192 40.4398 72.7601 43.0979 72.9303H46.7442C49.4021 72.7601 51.959 72.2192 54.363 71.3566H35.4789Z" fill="white"/>
<path d="M71.2195 54.5012C72.0823 52.0977 72.6215 49.5426 72.7935 46.8872V43.2271C72.6959 41.7187 72.4777 40.2453 72.1501 38.8116H71.2195V54.5012Z" fill="white"/>
<path d="M59.9957 60.2013V68.5753C60.5321 68.2303 61.0592 67.8736 61.5697 67.4936V61.7772H67.3072C67.6888 61.2667 68.0469 60.7375 68.3935 60.2013H59.9957Z" fill="white"/>
<path d="M18.6228 35.613C17.76 38.0166 17.2206 40.5717 17.0488 43.2271V46.8872C17.2206 49.5426 17.76 52.0977 18.6228 54.5012V35.613Z" fill="white"/>
<path d="M59.9957 29.1623H67.8935C67.5512 28.6681 67.1925 28.1878 66.8202 27.7192H61.5697V22.6207C61.0592 22.2407 60.5321 21.884 59.9957 21.5389V29.1623Z" fill="white"/>
<path d="M29.903 60.2013H21.4489C21.7953 60.7375 22.1537 61.2667 22.535 61.7773H28.3289V67.5333C28.8397 67.9109 29.3663 68.2676 29.903 68.6103V60.2013Z" fill="white"/>
<path d="M31.4838 20.5853V31.8735H20.4503V58.2476H31.4838V69.5287H58.3207V58.2476H69.3921V38.8115H67.818V56.6739H56.7467V67.9551H33.0581V56.6739H22.0243V33.4472H33.0581V22.159H56.7467V29.1622H58.3207V20.5853H31.4838Z" fill="white"/>
<path d="M35.1696 23.9751V35.219H23.798V54.8393H35.1696V66.0575H54.7433V54.8393H65.9296V38.8116H64.3555V53.2657H53.1692V64.4839H36.7437V53.2657H25.3721V36.7927H36.7437V25.5488H53.1692V29.1623H54.7433V23.9751H35.1696Z" fill="white"/>
<path d="M38.6391 27.591V38.7952H27.4344V51.3679H38.6391V62.5722H51.2117V51.3679H62.4164V38.8115H49.6377V40.3689H60.8424V49.7943H49.6377V60.9986H40.2131V49.7943H29.0087V40.3689H40.2131V29.1646H48.3867V29.1623H51.2117V27.591H38.6391Z" fill="white"/>
<path d="M49.5829 31.011H51.0388V36.1166H54.1929V37.3032H49.5829V31.011Z" fill="white"/>
<path d="M60.8931 31.011L58.1702 37.3032H56.7325L54.0187 31.011H55.5911L57.5053 35.5058L59.4463 31.011H60.8931Z" fill="white"/>
<path d="M62.332 31.011H63.7876V37.3032H62.332V31.011Z" fill="white"/>
<path d="M71.9741 31.011L69.2512 37.3032H67.8132L65.0994 31.011H66.6721L68.5863 35.5058L70.5271 31.011H71.9741Z" fill="white"/>
<path d="M8.25986 39.6625L12.5135 40.0541L12.4235 41.0309L8.97206 40.7139L8.79512 42.6349L12.2465 42.9519L12.1566 43.9311L7.90295 43.5394L8.25986 39.6625Z" fill="white"/>
<path d="M12.6547 35.7459L13.4277 35.9231L12.6871 39.1473L8.52417 38.1891L9.24732 35.0442L10.0204 35.2214L9.51728 37.4105L10.4213 37.618L10.8652 35.6853L11.6147 35.8578L11.1706 37.7905L12.1341 38.012L12.6547 35.7459Z" fill="white"/>
<path d="M12.4405 32.2047C12.3736 32.0159 12.2295 31.8807 12.008 31.7991C11.7828 31.7152 11.5833 31.7245 11.4098 31.8247C11.2362 31.925 11.0982 32.1161 10.9953 32.3936L10.717 33.1489L12.1085 33.6618L12.3869 32.9065C12.4894 32.629 12.5074 32.3936 12.4405 32.2047ZM10.7767 31.2046C10.9912 30.9878 11.2334 30.8479 11.5031 30.7873C11.7726 30.7243 12.0563 30.75 12.354 30.8596C12.648 30.9668 12.8785 31.1323 13.0461 31.3538C13.2135 31.5776 13.3075 31.841 13.3273 32.1441C13.3478 32.4495 13.2923 32.7782 13.1618 33.1326L12.8641 33.9415L13.9693 34.3472L13.6278 35.275L9.61945 33.7993L10.2587 32.0648C10.3892 31.7081 10.562 31.4237 10.7767 31.2046Z" fill="white"/>
<path d="M14.1256 24.3132L17.8402 26.423L15.057 31.3258L11.3421 29.2159L11.8272 28.3627L14.8413 30.0738L15.5069 28.9012L12.493 27.19L12.9779 26.3344L15.992 28.0456L16.6548 26.8776L13.6405 25.1664L14.1256 24.3132Z" fill="white"/>
<path d="M19.8838 22.6533L20.5025 23.1499L18.4326 25.7283L15.1013 23.0543L17.1215 20.5365L17.7402 21.0331L16.335 22.7862L17.0583 23.3667L18.2995 21.8187L18.8991 22.3013L17.6577 23.8469L18.4289 24.4647L19.8838 22.6533Z" fill="white"/>
<path d="M25.0616 18.9325L23.4132 16.9789L23.8039 19.3987L23.4675 19.6832L21.1826 18.9162L22.7949 20.8372L22.0848 21.434L19.3384 18.1608L19.9646 17.6363L22.8959 18.6411L22.3947 15.594L23.0211 15.0695L25.7722 18.338L25.0616 18.9325Z" fill="white"/>
<path d="M28.9627 15.4496L29.3772 16.1257L26.5568 17.8531L24.3258 14.2093L27.0785 12.5238L27.4928 13.1999L25.5779 14.3748L26.0624 15.1652L27.7534 14.1277L28.1549 14.7852L26.4638 15.8202L26.9802 16.6642L28.9627 15.4496Z" fill="white"/>
<path d="M30.4463 13.8828C30.5249 14.2232 30.5351 14.496 30.4778 14.6988L32.2267 13.9318L31.158 11.4932L29.8171 12.0831L30.0502 12.6589C30.2358 13.1345 30.3678 13.5401 30.4463 13.8828ZM33.6686 13.2977L34.3472 14.8457L33.5091 15.214L33.1538 14.405L30.3932 15.615L30.7487 16.424L29.9101 16.7923L29.2369 15.242L29.3935 15.1744C29.6248 15.0625 29.7155 14.8177 29.6653 14.44C29.6152 14.0623 29.4649 13.5588 29.2145 12.927L28.7224 11.6821L31.7287 10.3649L33.1207 13.5378L33.6686 13.2977Z" fill="white"/>
<path d="M33.3741 9.77294L34.3223 9.51415L35.0499 12.2021L36.2894 8.98262L37.1848 8.74016L38.3015 12.8619L37.3592 13.1184L36.633 10.4374L35.3918 13.6499L34.4906 13.8947L33.3741 9.77294Z" fill="white"/>
<path d="M42.0317 8.03832L42.5735 12.2766L41.6051 12.4002L41.41 10.8732C41.0598 11.055 40.7274 11.1646 40.4124 11.2042C39.8436 11.2765 39.3906 11.1972 39.0528 10.9641C38.7155 10.7286 38.5139 10.3556 38.4484 9.84508L38.2789 8.51856L39.2473 8.395L39.403 9.61195C39.4401 9.90103 39.5459 10.1109 39.72 10.2391C39.8942 10.365 40.1285 10.4116 40.4229 10.3719C40.7458 10.3323 41.0405 10.2297 41.3069 10.0689L41.0631 8.16187L42.0317 8.03832Z" fill="white"/>
<path d="M47.4729 7.98944L47.4155 12.2604L46.427 12.2487L46.4506 10.4956L44.5103 10.4699L44.487 12.2208L43.4985 12.2091L43.5559 7.93815L44.5443 7.94981L44.5217 9.63534L46.4618 9.66097L46.4846 7.97779L47.4729 7.98944Z" fill="white"/>
<path d="M51.7323 12.0669L51.6157 12.8503L48.3443 12.3653L48.9728 8.13867L52.1657 8.61427L52.0489 9.39992L49.8279 9.06887L49.6915 9.98739L51.653 10.2788L51.54 11.0388L49.5782 10.7474L49.4328 11.7242L51.7323 12.0669Z" fill="white"/>
<path d="M56.7714 13.3957C57.0015 13.3538 57.2055 13.2535 57.3836 13.095C57.5615 12.9388 57.6939 12.7336 57.7813 12.4842C57.8685 12.2347 57.8916 11.9946 57.8506 11.7591C57.8098 11.526 57.7123 11.3209 57.5587 11.1437C57.4046 10.9665 57.209 10.8383 56.971 10.7544C56.7325 10.6704 56.4984 10.6494 56.2681 10.6914C56.038 10.7357 55.8338 10.8336 55.6559 10.9922C55.478 11.1507 55.3456 11.3535 55.2582 11.603C55.171 11.8524 55.1479 12.0948 55.189 12.3303C55.2298 12.5634 55.3272 12.7686 55.4811 12.9458C55.6347 13.1206 55.8308 13.2512 56.0688 13.3351C56.3068 13.4167 56.5409 13.4377 56.7714 13.3957ZM54.7537 13.4633C54.4805 13.1649 54.3047 12.8246 54.2255 12.4422C54.1457 12.0576 54.1751 11.6682 54.3136 11.2719C54.4518 10.8779 54.6712 10.5539 54.9722 10.3044C55.2729 10.0526 55.6228 9.89644 56.0222 9.83349C56.4213 9.77055 56.8299 9.81252 57.2486 9.95939C57.6671 10.1063 58.0119 10.3277 58.283 10.6238C58.5539 10.9222 58.7301 11.2626 58.8115 11.6449C58.8926 12.0296 58.8642 12.4189 58.7259 12.8152C58.5877 13.2116 58.3672 13.5333 58.0646 13.7827C57.7615 14.0322 57.4116 14.1884 57.0148 14.2536C56.6173 14.3166 56.2093 14.277 55.7909 14.1301C55.3722 13.9832 55.0265 13.7617 54.7537 13.4633Z" fill="white"/>
<path d="M60.6617 15.3797C60.8855 15.4962 61.08 15.5405 61.245 15.5149C61.4101 15.4869 61.5366 15.389 61.625 15.2211C61.7977 14.8878 61.6532 14.6033 61.1912 14.3609L60.3141 13.9063L59.7847 14.9227L60.6617 15.3797ZM60.5468 11.3302L63.6052 12.9225L63.242 13.6195L61.055 12.4818L60.6494 13.2605L61.6996 13.8084C62.1579 14.0462 62.4572 14.3236 62.5978 14.6406C62.7379 14.9554 62.7144 15.2934 62.5267 15.6548C62.3297 16.0348 62.043 16.2586 61.6672 16.3285C61.2909 16.3984 60.8596 16.3075 60.3724 16.0534L58.5753 15.1186L60.5468 11.3302Z" fill="white"/>
<path d="M64.4918 13.4982L65.0185 13.8316L64.0515 15.1115L63.6281 14.8457L64.4918 13.4982Z" fill="white"/>
<path d="M64.1111 18.1073C63.9561 17.7553 63.9029 17.3869 63.9514 17.0046C63.9999 16.6199 64.1512 16.2609 64.4053 15.9229C64.6592 15.5825 64.9632 15.3377 65.3175 15.1839C65.6721 15.03 66.0402 14.9787 66.4223 15.0277C66.8042 15.0789 67.1644 15.2305 67.5029 15.4846C67.8052 15.7107 68.0386 15.9672 68.2029 16.2539C68.3671 16.5407 68.4561 16.8438 68.4699 17.1631L67.6157 17.2564C67.5774 16.8041 67.3844 16.4497 67.0364 16.1886C66.7858 15.9998 66.5186 15.9136 66.2347 15.9299C65.9505 15.9439 65.6896 16.0558 65.4521 16.2656L66.8382 17.3053L66.3841 17.9115L65.0079 16.8764C64.8874 17.1538 64.8606 17.4266 64.9282 17.6947C64.9956 17.9651 65.1513 18.1912 65.3954 18.3731C65.7435 18.6342 66.1393 18.7205 66.5827 18.6319L66.7338 19.4781C66.4221 19.5551 66.1062 19.5527 65.7854 19.4758C65.4649 19.3965 65.1534 19.245 64.8508 19.0188C64.5123 18.7647 64.2657 18.4617 64.1111 18.1073Z" fill="white"/>
<path d="M68.5997 20.0446C68.3121 20.2428 68.0633 20.3547 67.8533 20.3757L69.2129 21.7162L71.0814 19.8232L70.0388 18.7927L69.5889 19.224C69.2168 19.5714 68.8874 19.8441 68.5997 20.0446ZM70.3337 22.8212L69.1469 24.0265L68.4951 23.3831L69.1163 22.7536L66.9704 20.6344L66.3492 21.2662L65.6976 20.6228L66.8888 19.4245L67.0105 19.5434C67.1989 19.7183 67.4588 19.7113 67.7915 19.5248C68.1237 19.3383 68.5373 19.0119 69.0317 18.5456L70.005 17.6294L72.3421 19.9351L69.908 22.4016L70.3337 22.8212Z" fill="white"/>
<path d="M75.8516 24.3808L72.4331 26.9405L71.8405 26.1502L73.242 25.1011L72.0785 23.5485L70.677 24.5976L70.0844 23.8073L73.5029 21.2452L74.0955 22.0355L72.7476 23.0473L73.9111 24.5999L75.259 23.5904L75.8516 24.3808Z" fill="white"/>
<path d="M75.6232 29.202L76.7389 27.8265L74.9783 28.0107L75.6232 29.202ZM75.1112 29.8314L74.1673 28.0876L73.1821 28.1902L72.7 27.2996L77.3627 26.9406L77.8274 27.8008L74.98 31.5123L74.4862 30.6007L75.1112 29.8314Z" fill="white"/>
<path d="M80.4805 34.1303L76.468 35.5944L76.129 34.6665L77.7742 34.065L77.1091 32.2443L75.4639 32.8434L75.1252 31.9156L79.138 30.4515L79.4765 31.3794L77.8945 31.9575L78.5596 33.7783L80.1418 33.2025L80.4805 34.1303Z" fill="white"/>
<path d="M81.693 39.455L77.5094 40.3175L77.3101 39.35L79.0254 38.9957L78.634 37.0957L76.9186 37.4477L76.7195 36.4802L80.9032 35.62L81.1023 36.5874L79.4529 36.9255L79.8441 38.8278L81.4937 38.4875L81.693 39.455Z" fill="white"/>
<path d="M80.941 41.9821C80.8018 41.8423 80.6041 41.7816 80.3484 41.798C80.1008 41.8143 79.9145 41.8959 79.7894 42.0474C79.6646 42.1989 79.611 42.4111 79.6287 42.6885L79.684 43.5511L81.2308 43.4532L81.1771 42.6139C81.159 42.3342 81.0806 42.122 80.941 41.9821ZM82.0971 44.3764L77.8344 44.6492L77.7719 43.6747L78.9046 43.6024L78.8468 42.7002L77.666 42.0194L77.5994 40.9774L78.9412 41.784C79.0405 41.4879 79.204 41.2548 79.4315 41.0869C79.6593 40.9167 79.9395 40.8211 80.2724 40.8002C80.6013 40.7792 80.889 40.8351 81.1361 40.9703C81.3832 41.1056 81.5798 41.3084 81.7252 41.5765C81.8707 41.8423 81.9553 42.164 81.9793 42.537L82.0971 44.3764Z" fill="white"/>
<path d="M10.7102 54.8696L11.6208 54.6225C11.2247 53.1654 11.0888 52.6036 10.8169 51.1302L9.8891 51.3027C10.167 52.8064 10.3062 53.3822 10.7102 54.8696Z" fill="white"/>
<path d="M80.0421 55.1027L79.1315 54.8556C79.5278 53.3985 79.6637 52.8367 79.9353 51.3633L80.8634 51.5358C80.5852 53.0395 80.4461 53.6153 80.0421 55.1027Z" fill="white"/>
</svg>
