<svg class="img-resp img-width" width="140" height="70" viewBox="0 0 140 70" fill="none" xmlns="http://www.w3.org/2000/svg">
	<path fill-rule="evenodd" clip-rule="evenodd" d="M131.691 38.7956C130.125 37.9785 129.07 36.1403 129.07 34.234V33.5191C129.07 28.8213 125.325 25.0427 120.594 25.0427C115.896 25.0427 112.083 28.8213 112.083 33.5191C112.083 38.2509 115.896 42.0635 120.594 42.0635C123.351 42.0635 125.802 40.804 127.368 38.7274C128.389 40.2253 129.819 41.6891 131.691 41.9955V38.7956ZM125.87 33.5191C125.87 36.4807 123.555 38.8637 120.594 38.8637C117.632 38.8637 115.283 36.4807 115.283 33.5191C115.283 30.5915 117.632 28.2767 120.594 28.2767C123.555 28.2767 125.87 30.5915 125.87 33.5191Z" fill="black"></path>
	<path fill-rule="evenodd" clip-rule="evenodd" d="M29.3085 38.7956C27.7426 37.9785 26.6873 36.1403 26.6873 34.234V33.5191C26.6873 28.8213 22.9427 25.0427 18.211 25.0427C13.5133 25.0427 9.70052 28.8213 9.70052 33.5191C9.70052 38.2509 13.5133 42.0635 18.211 42.0635C20.9683 42.0635 23.4193 40.804 24.9852 38.7274C26.0065 40.2253 27.4363 41.6891 29.3085 41.9955V38.7956ZM23.4874 33.5191C23.4874 36.4807 21.1726 38.8637 18.211 38.8637C15.2494 38.8637 12.9006 36.4807 12.9006 33.5191C12.9006 30.5915 15.2494 28.2767 18.211 28.2767C21.1726 28.2767 23.4874 30.5915 23.4874 33.5191Z" fill="black"></path>
	<path fill-rule="evenodd" clip-rule="evenodd" d="M31.0307 50.2334H34.2306V40.2252C35.6602 41.3827 37.4985 42.0635 39.507 42.0635C44.2047 42.0635 48.0174 38.2849 48.0174 33.5871C48.0174 28.8894 44.2047 25.0768 39.507 25.0768C34.8433 25.0768 31.0307 28.8894 31.0307 33.5871V50.2334ZM39.507 38.8976C36.6134 38.8976 34.2646 36.5147 34.2306 33.6212V33.5871C34.2306 30.6256 36.5794 28.2767 39.507 28.2767C42.4346 28.2767 44.8174 30.6595 44.8174 33.5871C44.8174 36.5147 42.4346 38.8976 39.507 38.8976Z" fill="black"></path>
	<path fill-rule="evenodd" clip-rule="evenodd" d="M50.162 50.2334H53.3619V40.2252C54.7916 41.3827 56.6298 42.0635 58.6382 42.0635C63.3359 42.0635 67.1487 38.2849 67.1487 33.5871C67.1487 28.8894 63.3359 25.0768 58.6382 25.0768C53.9747 25.0768 50.162 28.8894 50.162 33.5871V50.2334ZM58.6382 38.8976C55.7448 38.8976 53.396 36.5147 53.3619 33.6212V33.5871C53.3619 30.6256 55.7107 28.2767 58.6382 28.2767C61.5658 28.2767 63.9487 30.6595 63.9487 33.5871C63.9487 36.5147 61.5658 38.8976 58.6382 38.8976Z" fill="black"></path>
	<path fill-rule="evenodd" clip-rule="evenodd" d="M72.8675 33.5191V28.481H78.178V25.247H72.8675V22.0131H69.6677V33.5191C69.6677 38.2509 73.4463 42.0294 78.178 42.0294V38.8637C75.2505 38.8295 72.8675 36.4467 72.8675 33.5191Z" fill="black"></path>
	<path fill-rule="evenodd" clip-rule="evenodd" d="M93.2245 33.5872C93.2245 36.4807 90.8756 38.8295 87.88 38.8295C86.9949 38.8295 86.1779 38.5913 85.429 38.2168L94.9265 28.6852C93.4287 26.5066 90.8756 25.0427 87.88 25.0427C83.2163 25.0427 79.4377 28.8213 79.4377 33.5872C79.4377 38.2168 83.2163 42.0294 87.88 42.0294C92.6457 42.0294 96.4243 38.2168 96.4243 33.5872H93.2245ZM82.6375 33.5872C82.6375 30.5575 84.9524 28.2086 87.88 28.2086C88.799 28.2086 89.6501 28.4469 90.3309 28.7874L83.1822 35.9361C82.8418 35.2212 82.6375 34.4042 82.6375 33.5872Z" fill="black"></path>
	<path fill-rule="evenodd" clip-rule="evenodd" d="M110.517 25.179H107.318C107.318 28.1405 104.935 30.4214 102.075 30.4214V16.6004H98.8413V42.0635H102.075V36.753C104.935 36.753 107.318 39.204 107.318 42.0635H110.517C110.517 37.536 106.841 33.8254 102.416 33.6212C106.841 33.451 110.517 29.7745 110.517 25.179Z" fill="black"></path>
</svg>