<svg width="160" height="40" viewBox="0 0 160 40" fill="none" xmlns="http://www.w3.org/2000/svg">
<path fill-rule="evenodd" clip-rule="evenodd" d="M15.2761 2.96503L3.4931 14.7986L0.574782 11.8678L12.3578 0.0341797L15.2761 2.96503ZM22.4609 4.11952L2.91832 23.746L0 20.8152L19.5426 1.18868L22.4609 4.11952Z" fill="#7C6AFA"/>
<path fill-rule="evenodd" clip-rule="evenodd" d="M8.04688 21.1034L13.2199 15.9082L16.1382 18.839L10.9652 24.0343L8.04688 21.1034Z" fill="#7C6AFA"/>
<path d="M41.8496 22.2238H38.2178V16.4211C38.2178 15.9789 38.0985 15.6197 37.8601 15.3434C37.64 15.0671 37.2639 14.9289 36.732 14.9289H32.5498V22.2238H28.918V2.88124H36.2918C37.2823 2.88124 38.1536 3.0194 38.9056 3.29572C39.6577 3.57204 40.2813 3.9589 40.7766 4.45628C41.2902 4.93524 41.6754 5.49709 41.9322 6.14185C42.2073 6.7866 42.3449 7.47741 42.3449 8.21427V8.87744C42.3449 9.66957 42.1339 10.4156 41.7121 11.1157C41.2902 11.7973 40.639 12.3223 39.7586 12.6907V13.1881C40.4005 13.2618 40.905 13.5105 41.2718 13.9341C41.657 14.3578 41.8496 14.8921 41.8496 15.5368V22.2238ZM32.5498 11.4472H36.0166C36.8971 11.4472 37.5666 11.2446 38.0252 10.8393C38.4837 10.4156 38.713 9.82615 38.713 9.07087V8.73928C38.713 8.09453 38.4837 7.54188 38.0252 7.08134C37.5666 6.60238 36.8971 6.3629 36.0166 6.3629H32.5498V11.4472Z" fill="#312F3A"/>
<path d="M46.0126 2.88124H58.1739V6.3629H49.6445V10.7841H57.8437V14.2657H49.6445V18.7422H58.5041V22.2238H46.0126V2.88124Z" fill="#312F3A"/>
<path d="M62.5846 2.88124H75.4612V6.3629H70.8388V18.7422H75.4612V22.2238H62.5846V18.7422H67.2069V6.3629H62.5846V2.88124Z" fill="#312F3A"/>
<path d="M88.4838 20.4001H88.979V2.88124H92.6109V22.2238H85.5122L83.2561 4.70497H82.7608V22.2238H79.129V2.88124H86.2276L88.4838 20.4001Z" fill="#312F3A"/>
<path d="M95.7834 2.88124H109.651V6.3629H104.533V22.2238H100.901V6.3629H95.7834V2.88124Z" fill="#312F3A"/>
<path d="M113.401 2.88124H125.562V6.3629H117.033V10.7841H125.232V14.2657H117.033V18.7422H125.892V22.2238H113.401V2.88124Z" fill="#312F3A"/>
<path d="M136.466 19.2948C137.163 19.2948 137.732 19.1935 138.172 18.9909C138.631 18.7698 138.979 18.4843 139.218 18.1343C139.474 17.7658 139.649 17.3513 139.74 16.8908C139.832 16.4118 139.878 15.9237 139.878 15.4263V14.9289H143.51V15.4263C143.51 17.729 142.904 19.5067 141.694 20.7593C140.502 21.9936 138.759 22.6107 136.466 22.6107C134.265 22.6107 132.522 21.9383 131.238 20.5935C129.954 19.2488 129.312 17.2869 129.312 14.7079V10.3972C129.312 9.16297 129.478 8.05768 129.808 7.08134C130.138 6.08658 130.615 5.25761 131.238 4.59444C131.862 3.91284 132.614 3.39704 133.495 3.04703C134.375 2.6786 135.366 2.49438 136.466 2.49438C137.603 2.49438 138.612 2.66018 139.493 2.99177C140.373 3.32335 141.107 3.80231 141.694 4.42864C142.299 5.05498 142.749 5.81026 143.042 6.69449C143.354 7.57872 143.51 8.57349 143.51 9.67878V10.1762H139.878V9.67878C139.878 9.21824 139.823 8.7577 139.713 8.29716C139.603 7.83663 139.419 7.42214 139.163 7.05371C138.906 6.68528 138.557 6.39054 138.117 6.16948C137.677 5.93 137.126 5.81026 136.466 5.81026C135.861 5.81026 135.338 5.93 134.898 6.16948C134.458 6.39054 134.091 6.7037 133.797 7.10897C133.504 7.49583 133.284 7.95637 133.137 8.49059C133.008 9.00639 132.944 9.54983 132.944 10.1209V14.9842C132.944 15.6105 133.008 16.1908 133.137 16.725C133.265 17.2408 133.467 17.6921 133.742 18.079C134.017 18.4658 134.375 18.7698 134.815 18.9909C135.274 19.1935 135.824 19.2948 136.466 19.2948Z" fill="#312F3A"/>
<path d="M146.517 2.88124H150.149V10.7841H156.367V2.88124H159.999V22.2238H156.367V14.2657H150.149V22.2238H146.517V2.88124Z" fill="#312F3A"/>
<path opacity="0.3" d="M35.0742 36.0674C34.8333 36.4124 34.4964 36.6712 34.0635 36.8438C33.6338 37.013 33.1325 37.0977 32.5596 37.0977C31.9801 37.0977 31.4658 36.9626 31.0166 36.6924C30.5674 36.4189 30.2191 36.0316 29.9717 35.5303C29.7275 35.029 29.6022 34.4479 29.5957 33.7871V33.167C29.5957 32.096 29.8447 31.266 30.3428 30.6768C30.8441 30.0876 31.5472 29.793 32.4521 29.793C33.1943 29.793 33.7917 29.9834 34.2441 30.3643C34.6966 30.7419 34.9733 31.279 35.0742 31.9756H34.1367C33.9609 31.0348 33.401 30.5645 32.457 30.5645C31.8288 30.5645 31.3519 30.7858 31.0264 31.2285C30.7041 31.668 30.5413 32.306 30.5381 33.1426V33.7236C30.5381 34.5212 30.7204 35.1559 31.085 35.6279C31.4495 36.0967 31.9427 36.3311 32.5645 36.3311C32.916 36.3311 33.2236 36.292 33.4873 36.2139C33.751 36.1357 33.9691 36.0039 34.1416 35.8184V34.2217H32.4961V33.46H35.0742V36.0674ZM38.6924 37.0977C37.9762 37.0977 37.3936 36.8633 36.9443 36.3945C36.4951 35.9225 36.2705 35.2926 36.2705 34.5049V34.3389C36.2705 33.8148 36.3698 33.3477 36.5684 32.9375C36.7702 32.5241 37.0501 32.2018 37.4082 31.9707C37.7695 31.7363 38.1602 31.6191 38.5801 31.6191C39.2669 31.6191 39.8008 31.8454 40.1816 32.2979C40.5625 32.7503 40.7529 33.3981 40.7529 34.2412V34.6172H37.1738C37.1868 35.138 37.3382 35.5596 37.6279 35.8818C37.9209 36.2008 38.292 36.3604 38.7412 36.3604C39.0602 36.3604 39.3304 36.2952 39.5518 36.165C39.7731 36.0348 39.9668 35.8623 40.1328 35.6475L40.6846 36.0771C40.2419 36.7575 39.5778 37.0977 38.6924 37.0977ZM38.5801 32.3613C38.2155 32.3613 37.9095 32.4948 37.6621 32.7617C37.4147 33.0254 37.2617 33.3965 37.2031 33.875H39.8496V33.8066C39.8236 33.3477 39.6999 32.9928 39.4785 32.7422C39.2572 32.4883 38.9577 32.3613 38.5801 32.3613ZM44.3564 32.5273C44.2197 32.5046 44.0716 32.4932 43.9121 32.4932C43.3197 32.4932 42.9176 32.7454 42.7061 33.25V37H41.8027V31.7168H42.6816L42.6963 32.3271C42.9925 31.8551 43.4124 31.6191 43.9561 31.6191C44.1318 31.6191 44.2653 31.6419 44.3564 31.6875V32.5273ZM46.041 31.7168L46.0654 32.3027C46.4528 31.847 46.9753 31.6191 47.6328 31.6191C48.3717 31.6191 48.8747 31.9023 49.1416 32.4688C49.3174 32.2148 49.5452 32.0098 49.8252 31.8535C50.1084 31.6973 50.4421 31.6191 50.8262 31.6191C51.985 31.6191 52.5742 32.2327 52.5938 33.46V37H51.6904V33.5137C51.6904 33.1361 51.6042 32.8545 51.4316 32.6689C51.2591 32.4801 50.9694 32.3857 50.5625 32.3857C50.2272 32.3857 49.9489 32.4867 49.7275 32.6885C49.5062 32.887 49.3776 33.1556 49.3418 33.4941V37H48.4336V33.5381C48.4336 32.7699 48.0576 32.3857 47.3057 32.3857C46.7132 32.3857 46.3079 32.638 46.0898 33.1426V37H45.1865V31.7168H46.041ZM57.2227 37C57.1706 36.8958 57.1283 36.7103 57.0957 36.4434C56.6758 36.8796 56.1745 37.0977 55.5918 37.0977C55.071 37.0977 54.6429 36.9512 54.3076 36.6582C53.9756 36.362 53.8096 35.9876 53.8096 35.5352C53.8096 34.985 54.0179 34.5586 54.4346 34.2559C54.8545 33.9499 55.4437 33.7969 56.2021 33.7969H57.0811V33.3818C57.0811 33.0661 56.9867 32.8154 56.7979 32.6299C56.609 32.4411 56.3307 32.3467 55.9629 32.3467C55.6406 32.3467 55.3704 32.4281 55.1523 32.5908C54.9342 32.7536 54.8252 32.9505 54.8252 33.1816H53.917C53.917 32.918 54.0098 32.6641 54.1953 32.4199C54.3841 32.1725 54.638 31.9772 54.957 31.834C55.2793 31.6908 55.6325 31.6191 56.0166 31.6191C56.6253 31.6191 57.1022 31.7721 57.4473 32.0781C57.7923 32.3809 57.9714 32.7992 57.9844 33.333V35.7646C57.9844 36.2497 58.0462 36.6354 58.1699 36.9219V37H57.2227ZM55.7236 36.3115C56.0068 36.3115 56.2754 36.2383 56.5293 36.0918C56.7832 35.9453 56.9671 35.7549 57.0811 35.5205V34.4365H56.373C55.2663 34.4365 54.7129 34.7604 54.7129 35.4082C54.7129 35.6914 54.8073 35.9128 54.9961 36.0723C55.1849 36.2318 55.4274 36.3115 55.7236 36.3115ZM60.2549 31.7168L60.2842 32.3809C60.6878 31.873 61.2152 31.6191 61.8662 31.6191C62.9827 31.6191 63.5459 32.249 63.5557 33.5088V37H62.6523V33.5039C62.6491 33.123 62.5612 32.8415 62.3887 32.6592C62.2194 32.4769 61.9541 32.3857 61.5928 32.3857C61.2998 32.3857 61.0426 32.4639 60.8213 32.6201C60.5999 32.7764 60.4274 32.9814 60.3037 33.2354V37H59.4004V31.7168H60.2549ZM66.6465 35.6768L67.877 31.7168H68.8438L66.7197 37.8154C66.391 38.6943 65.8685 39.1338 65.1523 39.1338L64.9814 39.1191L64.6445 39.0557V38.3232L64.8887 38.3428C65.1947 38.3428 65.4323 38.2809 65.6016 38.1572C65.7741 38.0335 65.9157 37.8073 66.0264 37.4785L66.2266 36.9414L64.3418 31.7168H65.3281L66.6465 35.6768ZM73.0332 38.3184H72.3057V29.8906H73.0332V38.3184ZM82.2031 29.8906V34.7246C82.1999 35.3952 81.9883 35.9437 81.5684 36.3701C81.1517 36.7965 80.5853 37.0358 79.8691 37.0879L79.6201 37.0977C78.8421 37.0977 78.222 36.8877 77.7598 36.4678C77.2975 36.0479 77.0632 35.4701 77.0566 34.7344V29.8906H77.9844V34.7051C77.9844 35.2194 78.126 35.6198 78.4092 35.9062C78.6924 36.1895 79.096 36.3311 79.6201 36.3311C80.1507 36.3311 80.556 36.1895 80.8359 35.9062C81.1191 35.623 81.2607 35.2243 81.2607 34.71V29.8906H82.2031ZM85.0156 34.5537L84.4492 35.1445V37H83.5459V29.5H84.4492V34.0361L84.9326 33.4551L86.5781 31.7168H87.6768L85.6211 33.9238L87.916 37H86.8564L85.0156 34.5537ZM91.1631 32.5273C91.0264 32.5046 90.8783 32.4932 90.7188 32.4932C90.1263 32.4932 89.7243 32.7454 89.5127 33.25V37H88.6094V31.7168H89.4883L89.5029 32.3271C89.7992 31.8551 90.2191 31.6191 90.7627 31.6191C90.9385 31.6191 91.0719 31.6419 91.1631 31.6875V32.5273ZM95.0645 37C95.0124 36.8958 94.9701 36.7103 94.9375 36.4434C94.5176 36.8796 94.0163 37.0977 93.4336 37.0977C92.9128 37.0977 92.4847 36.9512 92.1494 36.6582C91.8174 36.362 91.6514 35.9876 91.6514 35.5352C91.6514 34.985 91.8597 34.5586 92.2764 34.2559C92.6963 33.9499 93.2855 33.7969 94.0439 33.7969H94.9229V33.3818C94.9229 33.0661 94.8285 32.8154 94.6396 32.6299C94.4508 32.4411 94.1725 32.3467 93.8047 32.3467C93.4824 32.3467 93.2122 32.4281 92.9941 32.5908C92.776 32.7536 92.667 32.9505 92.667 33.1816H91.7588C91.7588 32.918 91.8516 32.6641 92.0371 32.4199C92.2259 32.1725 92.4798 31.9772 92.7988 31.834C93.1211 31.6908 93.4743 31.6191 93.8584 31.6191C94.4671 31.6191 94.944 31.7721 95.2891 32.0781C95.6341 32.3809 95.8132 32.7992 95.8262 33.333V35.7646C95.8262 36.2497 95.888 36.6354 96.0117 36.9219V37H95.0645ZM93.5654 36.3115C93.8486 36.3115 94.1172 36.2383 94.3711 36.0918C94.625 35.9453 94.8089 35.7549 94.9229 35.5205V34.4365H94.2148C93.1081 34.4365 92.5547 34.7604 92.5547 35.4082C92.5547 35.6914 92.6491 35.9128 92.8379 36.0723C93.0267 36.2318 93.2692 36.3115 93.5654 36.3115ZM98.2236 37H97.3203V31.7168H98.2236V37ZM97.2471 30.3154C97.2471 30.1689 97.291 30.0452 97.3789 29.9443C97.4701 29.8434 97.6035 29.793 97.7793 29.793C97.9551 29.793 98.0885 29.8434 98.1797 29.9443C98.2708 30.0452 98.3164 30.1689 98.3164 30.3154C98.3164 30.4619 98.2708 30.584 98.1797 30.6816C98.0885 30.7793 97.9551 30.8281 97.7793 30.8281C97.6035 30.8281 97.4701 30.7793 97.3789 30.6816C97.291 30.584 97.2471 30.4619 97.2471 30.3154ZM100.528 31.7168L100.558 32.3809C100.961 31.873 101.489 31.6191 102.14 31.6191C103.256 31.6191 103.819 32.249 103.829 33.5088V37H102.926V33.5039C102.923 33.123 102.835 32.8415 102.662 32.6592C102.493 32.4769 102.228 32.3857 101.866 32.3857C101.573 32.3857 101.316 32.4639 101.095 32.6201C100.873 32.7764 100.701 32.9814 100.577 33.2354V37H99.6738V31.7168H100.528ZM107.384 37.0977C106.668 37.0977 106.085 36.8633 105.636 36.3945C105.187 35.9225 104.962 35.2926 104.962 34.5049V34.3389C104.962 33.8148 105.061 33.3477 105.26 32.9375C105.462 32.5241 105.742 32.2018 106.1 31.9707C106.461 31.7363 106.852 31.6191 107.271 31.6191C107.958 31.6191 108.492 31.8454 108.873 32.2979C109.254 32.7503 109.444 33.3981 109.444 34.2412V34.6172H105.865C105.878 35.138 106.03 35.5596 106.319 35.8818C106.612 36.2008 106.983 36.3604 107.433 36.3604C107.752 36.3604 108.022 36.2952 108.243 36.165C108.465 36.0348 108.658 35.8623 108.824 35.6475L109.376 36.0771C108.933 36.7575 108.269 37.0977 107.384 37.0977ZM107.271 32.3613C106.907 32.3613 106.601 32.4948 106.354 32.7617C106.106 33.0254 105.953 33.3965 105.895 33.875H108.541V33.8066C108.515 33.3477 108.391 32.9928 108.17 32.7422C107.949 32.4883 107.649 32.3613 107.271 32.3613Z" fill="black"/>
</svg>
