<svg xmlns="http://www.w3.org/2000/svg" viewBox="0 0 1000 990"><g><path d="M501.71,209.52c-166.14,0-300.83,134.68-300.83,300.83V673.78c9.48,10.52,25.37,19.57,46,27.19L260.2,661.2l14.46,48.46c152.76,40.64,466.71,25.28,527.88-35.88V510.35C802.54,344.2,667.85,209.52,501.71,209.52Z" fill="#FEDC58"></path><path d="M242.87,699.45c1.32.51,2.65,1,4,1.52L260.2,661.2l14.46,48.46c45.22,12,104.55,19.15,167.28,21.63l27.28-26.22L235.81,529.43S229.67,630.88,242.87,699.45Z" fill="#EDBF2E"></path><path d="M617.2,552.78l25.31,170.76c34.8-4.34,66.62-10.27,93.11-17.73h0s33.09-36.89,29.52-176.38S617.2,552.78,617.2,552.78Z" fill="#EDBF2E"></path><path d="M501.71,209.52c-166.14,0-300.83,134.68-300.83,300.83V673.78c9.48,10.52,25.37,19.57,46,27.19L260.2,661.2l14.46,48.46c152.76,40.64,466.71,25.28,527.88-35.88V510.35C802.54,344.2,667.85,209.52,501.71,209.52Z" fill="none" stroke="#592d3d" stroke-miterlimit="10" stroke-width="12px"></path><path d="M610,758.72c90.76,0,72,114.24,72.87,241.28H610Z" fill="#D8985D"></path><path d="M632.74,831.87,610,870l11.38,130h31.76C653.91,819.73,632.74,831.87,632.74,831.87Z" fill="#C6854E"></path><path d="M233.25,500c0-147.32,119.43-266.75,266.75-266.75S766.75,352.68,766.75,500A266.22,266.22,0,0,1,668.1,707.12q-8.21,6.68-16.94,12.69C591,758,515,758,446.39,751.89c-6.66-1-13.3-2.26-19.89-3.71-26.33-5.8-51.82-14.75-75.37-27.8Q342.4,715,334.2,708.76a199.59,199.59,0,0,1-15.8-13.38q-7.14-6.63-13.79-13.78A265.86,265.86,0,0,1,233.25,500Z" fill="#D8985D"></path><path d="M269.61,634.48c.7,1.2,1.39,2.4,2.11,3.58.43.72.88,1.42,1.33,2.14.66,1.07,1.32,2.14,2,3.19.48.76,1,1.5,1.46,2.24.66,1,1.32,2,2,3,.51.76,1,1.52,1.56,2.28.66,1,1.32,1.92,2,2.88.54.77,1.1,1.53,1.65,2.3s1.34,1.85,2,2.77,1.15,1.53,1.73,2.29,1.37,1.8,2.07,2.7,1.19,1.51,1.79,2.26,1.41,1.76,2.12,2.63,1.23,1.49,1.85,2.23,1.44,1.72,2.17,2.57,1.27,1.47,1.91,2.2l2.22,2.5c.65.73,1.31,1.44,2,2.16.86.94,1.73,1.87,2.6,2.79l1.21,1.28c1.29,1.34,2.59,2.68,3.91,4l.26.27c1.29,1.28,2.6,2.55,3.91,3.81l1.58,1.5c.95.89,1.9,1.78,2.86,2.66l1.16,1.06c1,.94,2.09,1.86,3.14,2.78q4.9,4.27,10,8.19,8.19,6.24,16.93,11.62c23.55,13,49,22,75.37,27.8,6.59,1.45,13.23,2.7,19.89,3.71,42.1,3.75,87,5.18,129.28-3.08C508.45,729,185.59,612.74,388.8,257.48h0c-2.72,1.25-5.4,2.54-8.06,3.88l-.59.29c-1.22.61-2.44,1.24-3.65,1.88l-1,.53c-3.76,2-7.48,4.07-11.13,6.23l-.9.53c-1.16.69-2.31,1.39-3.46,2.1l-.87.54q-5.36,3.35-10.55,6.93l-1.08.75c-1.09.76-2.16,1.52-3.23,2.29l-.66.47q-3.27,2.39-6.46,4.84l-.62.48c-1,.78-2,1.58-3,2.39l-1.17.94c-1,.81-2,1.62-3,2.45l0,0c-2.11,1.75-4.19,3.55-6.24,5.37l-1.14,1-2.69,2.45L318,305q-4.28,4-8.37,8.17l-1.38,1.41c-.79.82-1.58,1.64-2.36,2.47-.46.49-.92,1-1.37,1.48q-2.06,2.2-4.06,4.46c-.45.51-.91,1-1.36,1.54-.71.81-1.41,1.63-2.11,2.45l-1.51,1.79c-.68.81-1.36,1.62-2,2.44-.54.66-1.08,1.33-1.61,2-1.07,1.33-2.12,2.66-3.16,4-.54.7-1.08,1.4-1.61,2.11s-1.2,1.59-1.79,2.4-1.07,1.45-1.59,2.18-1.13,1.55-1.68,2.33q-1.42,2-2.8,4.05c-.5.73-1,1.48-1.49,2.22s-1.1,1.66-1.64,2.5l-1.49,2.31-1.68,2.71c-.43.69-.86,1.38-1.28,2.07-.89,1.46-1.75,2.93-2.61,4.4l-1.22,2.16c-.54.95-1.08,1.91-1.61,2.87-.4.73-.8,1.46-1.19,2.19-.64,1.19-1.27,2.39-1.9,3.59l-1.2,2.34c-.64,1.28-1.28,2.55-1.91,3.84-.33.69-.67,1.39-1,2.09-.52,1.09-1,2.19-1.53,3.29-.31.66-.61,1.32-.91,2q-1.11,2.47-2.17,5c-.22.52-.43,1.05-.65,1.57-.53,1.27-1.05,2.54-1.56,3.82-.27.67-.53,1.34-.79,2-.5,1.26-1,2.53-1.45,3.8-.21.55-.42,1.1-.62,1.65q-.94,2.63-1.85,5.26l-.56,1.7q-.66,2-1.29,4l-.6,1.91c-.47,1.54-.93,3.08-1.37,4.63-.1.33-.2.66-.29,1q-.78,2.76-1.5,5.54c-.16.59-.3,1.19-.45,1.78-.35,1.39-.69,2.78-1,4.18l-.42,1.75c-.43,1.9-.85,3.8-1.24,5.71l-.15.77q-.51,2.55-1,5.1c-.11.61-.21,1.21-.32,1.82-.26,1.49-.51,3-.74,4.5-.08.51-.17,1-.24,1.52-.3,1.95-.57,3.91-.83,5.88l-.15,1.3c-.2,1.59-.38,3.19-.55,4.79-.06.6-.13,1.2-.19,1.81-.16,1.68-.31,3.37-.45,5.06,0,.35-.06.69-.08,1q-.22,3-.39,6.05c0,.53,0,1.07-.07,1.6q-.1,2.36-.18,4.71c0,.59,0,1.18,0,1.77,0,2.05-.08,4.11-.08,6.17,0,0,0,.07,0,.1,0,2.22,0,4.42.08,6.62,0,.76.06,1.52.08,2.28.05,1.47.1,2.94.17,4.41,0,.89.11,1.77.16,2.66.08,1.33.15,2.66.25,4,.07,1,.16,1.89.24,2.83.11,1.26.21,2.52.34,3.77.09,1,.21,1.94.31,2.91.14,1.21.27,2.43.42,3.64.12,1,.26,2,.39,2.95.16,1.18.32,2.37.5,3.55.15,1,.31,2,.47,3,.18,1.16.37,2.33.57,3.49.18,1,.36,2,.55,3,.21,1.15.43,2.3.65,3.44s.41,2,.62,3c.24,1.14.48,2.27.74,3.4s.44,2,.68,2.93c.26,1.13.54,2.25.82,3.36s.49,1.95.74,2.91c.3,1.12.6,2.23.91,3.34.26,1,.53,1.92.81,2.87.32,1.11.65,2.21,1,3.31s.58,1.89.88,2.84.7,2.19,1.06,3.28.62,1.87.94,2.8c.38,1.09.76,2.18,1.15,3.27.33.91.65,1.83,1,2.74l1.24,3.27c.35.89.69,1.79,1,2.68.44,1.09.89,2.19,1.34,3.28.36.86.71,1.73,1.08,2.59.47,1.12,1,2.22,1.45,3.33.37.82.73,1.65,1.1,2.47.52,1.16,1.07,2.3,1.6,3.44l1.08,2.3c.61,1.26,1.24,2.5,1.87,3.75.32.63.62,1.27.95,1.9q2.88,5.61,6,11.07C268.88,633.26,269.25,633.87,269.61,634.48Z" fill="#C6854E"></path><path d="M233.25,500c0-147.32,119.43-266.75,266.75-266.75S766.75,352.68,766.75,500A266.22,266.22,0,0,1,668.1,707.12q-8.21,6.68-16.94,12.69C591,758,515,758,446.39,751.89c-6.66-1-13.3-2.26-19.89-3.71-26.33-5.8-51.82-14.75-75.37-27.8Q342.4,715,334.2,708.76a199.59,199.59,0,0,1-15.8-13.38q-7.14-6.63-13.79-13.78A265.86,265.86,0,0,1,233.25,500Z" fill="none" stroke="#592d3d" stroke-miterlimit="10" stroke-width="12px"></path><path d="M386.12,758.72c-90.77,0-72,114.24-72.87,241.28h72.87Z" fill="#D8985D"></path><path d="M367.23,831.87,390,870l-11.39,130H346.88C346.07,819.73,367.23,831.87,367.23,831.87Z" fill="#C6854E"></path><path d="M619.47,1070H380.53a13.28,13.28,0,0,1-13.27-13.28V772a13.28,13.28,0,0,1,13.27-13.28H613.76c13.09,0,19,7.66,19,19.88v278.08A13.28,13.28,0,0,1,619.47,1070Z" fill="#D8985D"></path><path d="M629.05,766.62a19.33,19.33,0,0,1-2.51-4,17.25,17.25,0,0,0-8.28-3.51,28.88,28.88,0,0,0-4.5-.34H380.53A13.28,13.28,0,0,0,367.26,772c29,10.42,83.29,16.24,132.74,16.24C563.06,788.24,604.38,778.89,629.05,766.62Z" fill="#C6854E"></path><path d="M610,758.72c90.76,0,72,114.24,72.87,241.28H632.74" fill="none" stroke="#592d3d" stroke-linecap="square" stroke-miterlimit="10" stroke-width="12px"></path><path d="M386.12,758.72c-90.77,0-72,114.24-72.87,241.28h50.07" fill="none" stroke="#592d3d" stroke-linecap="square" stroke-miterlimit="10" stroke-width="12px"></path><path d="M380.53,758.82l233.23-.1" fill="none" stroke="#592d3d" stroke-miterlimit="10" stroke-width="12px"></path><path d="M380.53,1070H497.15C388,1070,396.24,838.82,367.26,838.82v217.86A13.28,13.28,0,0,0,380.53,1070Z" fill="#C6854E"></path><path d="M361.26,860.85c-.19-3.67-.11-7.34.05-11s.47-7.35.86-11c.2-1.84.4-3.67.65-5.51s.49-3.67.85-5.51a44.18,44.18,0,0,1,3.59-11,44.18,44.18,0,0,1,3.59,11c.36,1.84.62,3.67.85,5.51s.45,3.67.65,5.51c.38,3.67.68,7.34.85,11s.25,7.34.06,11Z" fill="#592d3d"></path><path d="M632.74,870v8c.26,34,.26,69,0,102.75,0,2.87,0,5.72,0,8.53v67.41A13.28,13.28,0,0,1,619.47,1070H380.53a13.28,13.28,0,0,1-13.27-13.28V998.52c0-2.51,0-5.07,0-7.65-.25-34.87-.25-69.87,0-105.3V860.85" fill="none" stroke="#592d3d" stroke-miterlimit="10" stroke-width="12px"></path><path d="M626.74,870c-.19-4.17-.1-8.35.06-12.53s.47-8.35.85-12.53c.2-2.09.41-4.18.65-6.27s.49-4.17.85-6.26a55.09,55.09,0,0,1,3.59-12.53,55.09,55.09,0,0,1,3.59,12.53c.36,2.09.62,4.18.85,6.26s.45,4.18.65,6.27c.38,4.18.69,8.35.85,12.53s.25,8.36.06,12.53Z" fill="#592d3d"></path><path d="M570.68,842.45C570.9,833,582.9,829,588.9,835a10.61,10.61,0,1,1-15.16,14.85A10.4,10.4,0,0,1,570.68,842.45Z" fill="#592d3d"></path><path d="M408.11,842.15C407.9,834,416.9,830,422.9,833c8,3,8,14,0,19-4,2-8,0-11.75-2.48A10.39,10.39,0,0,1,408.11,842.15Z" fill="#592d3d"></path><path d="M500,831.77a27.13,27.13,0,0,1,1.5,5.84,42.47,42.47,0,0,1,.49,5.84l.3,11.69c.09,3.89.21,7.79.25,11.69l.17,11.67c.23,15.57.22,31.16.28,46.74s.18,31.16,0,46.74c-.09,7.79-.3,15.58-.53,23.37-.1,3.89-.29,7.79-.67,11.68a92.5,92.5,0,0,1-1.77,11.69,92.5,92.5,0,0,1-1.77-11.69c-.38-3.89-.57-7.79-.67-11.68-.23-7.79-.44-15.58-.53-23.37-.2-15.58,0-31.16,0-46.74s0-31.15.18-46.73l.17-11.7.33-11.68.33-11.68a44.11,44.11,0,0,1,.5-5.84A27.13,27.13,0,0,1,500,831.77Z" fill="#C6854E"></path><path d="M425.22,883a18.51,18.51,0,0,1,4.67-1.5,29.75,29.75,0,0,1,4.68-.5l9.35-.33,18.7-.41c12.46-.19,24.91-.24,37.38-.27s24.93-.16,37.39,0c6.23.09,12.46.3,18.7.53,3.11.11,6.23.3,9.34.67a61.34,61.34,0,0,1,9.35,1.78,59.17,59.17,0,0,1-9.35,1.77c-3.11.38-6.23.57-9.34.67-6.24.23-12.47.43-18.7.52-12.46.19-24.92,0-37.39,0s-24.93,0-37.4-.15c-6.23-.06-12.46-.26-18.68-.5l-9.35-.34a29.5,29.5,0,0,1-4.67-.5A18.45,18.45,0,0,1,425.22,883Z" fill="#C6854E"></path><path d="M442.41,914.38a12.51,12.51,0,0,1,3.74-1.11,18.35,18.35,0,0,1,3.62-.15c2.39.1,4.78.16,7.17.21,4.78.11,9.56.15,14.34.17,9.63,0,19.09.08,28.76-.21s19.26-.43,28.88-.39c4.81,0,9.62.13,14.42.24a70.37,70.37,0,0,1,7.23.47,38.17,38.17,0,0,1,7.27,1.53,36.56,36.56,0,0,1-7.16,2,61.08,61.08,0,0,1-7.21.86c-4.82.35-9.64.65-14.45.82-9.64.36-19.27.32-28.88.45-4.81,0-9.61.22-14.48.1s-9.69-.13-14.52-.31-9.68-.58-14.5-1.08c-2.42-.27-4.82-.57-7.23-.9a16.82,16.82,0,0,1-3.57-.84A11.51,11.51,0,0,1,442.41,914.38Z" fill="#C6854E"></path><path d="M438.93,949.87a13.07,13.07,0,0,1,3.82-1.5,19.13,19.13,0,0,1,3.82-.49l7.63-.32c5.09-.18,10.19-.33,15.28-.41C479.66,947,489.84,947,500,947s20.36-.17,30.54,0c5.09.09,10.18.3,15.27.53a72.73,72.73,0,0,1,7.63.66A41.2,41.2,0,0,1,561.1,950a41.25,41.25,0,0,1-7.63,1.77,70.34,70.34,0,0,1-7.64.67c-5.09.23-10.18.44-15.27.53-10.18.2-20.37.06-30.55,0s-20.36-.06-30.54-.25c-5.09-.1-10.19-.28-15.28-.49l-7.63-.37a19.33,19.33,0,0,1-3.82-.5A12.85,12.85,0,0,1,438.93,949.87Z" fill="#C6854E"></path><path d="M680.7,905.78c.2-37.1-1.21-70.07-7.74-95.39-10.08-25.35-28.18-40.47-60.12-40.47l22.85,134.47S658.2,914.68,680.7,905.78Z" fill="#C6854E"></path><path d="M689.3,895.23a20.28,20.28,0,0,1-3.69,2.42" fill="none" stroke="#592d3d" stroke-linecap="square" stroke-miterlimit="10" stroke-width="12px"></path><path d="M329,809.32c-6.82,25.57-8,59.13-7.74,97,19.9,8.55,50.43-2.15,50.43-2.15L389,771.89C358.14,771.89,339.74,785.79,329,809.32Z" fill="#C6854E"></path><path d="M616.66,758.16l-38.44.1c0,53.72-75.33,111.14-75.33,111.14s-80.8-60.58-80.8-111.14l-38.66-.1a13.28,13.28,0,0,0-13.28,13.27v284.69a13.28,13.28,0,0,0,13.28,13.27H622.36a13.27,13.27,0,0,0,13.27-13.27V778C635.63,765.82,629.75,758.16,616.66,758.16Z" fill="#89D86F"></path><path d="M612.84,758.16c63.54,0,73.4,56,73.9,133.16-18.59,11.62-48.91,1.32-48.91,1.32Z" fill="#89D86F"></path><path d="M635.63,831.31,612.84,869.4l11.39,130h11.6V893.78l17.28,2.89C647.49,824.5,635.63,831.31,635.63,831.31Z" fill="#7DC462"></path><path d="M389,758.16c-61.78,0-75.82,53.79-76.85,127.66,19,19.85,57.95,4.58,57.95,4.58Z" fill="#89D86F"></path><path d="M370.12,831.31V890.4l-17.31,4.3C358.48,824.63,370.12,831.31,370.12,831.31Z" fill="#7DC462"></path><path d="M612.84,758.16c67.42,0,78.45,56.28,78.9,133.78-26.2,12.42-53.91.7-53.91.7" fill="none" stroke="#592d3d" stroke-linecap="square" stroke-miterlimit="10" stroke-width="12px"></path><path d="M389,758.16c-66.79,0-80.08,54.69-80.75,130.71,20.59,14.79,61.85,1.53,61.85,1.53" fill="none" stroke="#592d3d" stroke-linecap="square" stroke-miterlimit="10" stroke-width="12px"></path><path d="M383.43,1069.39H500c-109.19,0-100.91-231.14-129.89-231.14v217.87A13.28,13.28,0,0,0,383.43,1069.39Z" fill="#7DC462"></path><path d="M364.15,860.29c-.19-3.67-.11-7.35.06-11s.47-7.34.85-11c.2-1.83.41-3.67.65-5.51s.49-3.67.85-5.5a44.05,44.05,0,0,1,3.59-11,44.05,44.05,0,0,1,3.59,11c.36,1.83.62,3.67.85,5.5s.45,3.68.65,5.51q.58,5.52.86,11c.16,3.67.24,7.35,0,11Z" fill="#592d3d"></path><path d="M635.63,869.4v8c.26,34,.26,69,0,102.76,0,2.87,0,5.72,0,8.53v67.41a13.27,13.27,0,0,1-13.27,13.27H383.43a13.28,13.28,0,0,1-13.28-13.27V990.3c-.26-34.86-.26-69.86,0-105.3V860.29" fill="none" stroke="#592d3d" stroke-miterlimit="10" stroke-width="12px"></path><path d="M629.63,869.4c-.19-4.18-.1-8.36.06-12.53s.47-8.36.86-12.53c.2-2.09.4-4.18.64-6.27s.49-4.18.86-6.27a54.83,54.83,0,0,1,3.58-12.53,54.37,54.37,0,0,1,3.59,12.53c.36,2.09.63,4.18.85,6.27s.45,4.18.65,6.27c.39,4.17.69,8.35.85,12.53s.26,8.35.06,12.53Z" fill="#592d3d"></path><path d="M383.43,758.26l233.23-.1" fill="none" stroke="#592d3d" stroke-miterlimit="10" stroke-width="12px"></path><path d="M310.72,891.94a24.84,24.84,0,0,0,3.68,2.76" fill="none" stroke="#592d3d" stroke-linecap="square" stroke-miterlimit="10" stroke-width="12px"></path><path d="M677.59,882.13a20.25,20.25,0,0,1-6.75,2.52,34.91,34.91,0,0,1-7.21.64,39.94,39.94,0,0,1-7.17-.78c-1.18-.22-2.34-.57-3.49-.87s-2.28-.78-3.38-1.24c1.21,0,2.39.17,3.56.27l3.52.29c1.17,0,2.33.2,3.5.21s2.33.11,3.49.12c2.32.05,4.64,0,7-.18A50.81,50.81,0,0,0,677.59,882.13Z" fill="#592d3d"></path><path d="M578.22,758.26c0,53.72-75.33,111.14-75.33,111.14s-80.8-60.58-80.8-111.14" fill="none" stroke="#592d3d" stroke-miterlimit="10" stroke-width="12px"></path><g transform="translate(0 30)"></g><path d="M296.49,572.61V559.68a49.6,49.6,0,0,1,1.94-25.32,46,46,0,0,1,3.51-7.65C305.29,518,314.29,511,323.29,508c14-4,31-2,42,9,14,15,12,37,12.45,55.62" fill="none" stroke="#592d3d" stroke-linecap="round" stroke-miterlimit="10" stroke-width="12px"></path><path d="M623.31,573c-2.34-26.62,1.66-63.62,36.13-67.17a45,45,0,0,1,8.12,0A43.68,43.68,0,0,1,690,514.41c18,15,14,39,13.95,58.63" fill="none" stroke="#592d3d" stroke-linecap="round" stroke-miterlimit="10" stroke-width="12px"></path><path d="M443.14,621.86c0-18.9,113.72-16.06,113.72,0a56.86,56.86,0,0,1-113.72,0Z" fill="#592d3d"></path><path d="M495,643c-16.95-1-31.73,6.75-36.65,18.22a56.86,56.86,0,0,0,65.14,12.53A55.39,55.39,0,0,0,530,670.2C529.08,656.09,514.06,644.18,495,643Z" fill="#f28195"></path><path d="M443.14,621.86c0-18.9,113.72-16.06,113.72,0a56.86,56.86,0,0,1-113.72,0Z" fill="none" stroke="#592d3d" stroke-miterlimit="10" stroke-width="6px"></path><path d="M478.12,632.46c.45-.11.63-.16.92-.21l.75-.14c.49-.09,1-.14,1.46-.18a21.54,21.54,0,0,1,2.89-.1,25,25,0,0,1,5.79.81,21.4,21.4,0,0,1,10.35,6.1,20.18,20.18,0,0,1,5.08,10.16A17.27,17.27,0,0,1,504,659.25c-2.07-2.93-3.66-5.56-5.32-7.76a28.41,28.41,0,0,0-2.45-3,14.06,14.06,0,0,0-2.7-2.16,15.48,15.48,0,0,0-6.11-2.09A29.5,29.5,0,0,0,484,644c-.59,0-1.18,0-1.76.05l-.85.06-.39,0c-.1,0-.3,0-.23,0Z" fill="#592d3d"></path><rect x="290.23" y="414.02" width="439.24" height="64.15" fill="#C6854E"></rect><path d="M710,667.66q-4.71,5.82-9.71,11.37C697.79,681.8,702.87,677.91,710,667.66Zm15-316.55C694.5,296.7,641.5,259.24,580.22,242l-6.35-1.71c-22.7-6.28-46.62-7-71.32-7-26.69,0-52.46,2.74-76.77,10l-4.26,1.27A283.11,283.11,0,0,0,332.67,294q-4.37,3.58-8.57,7.32c-28.34,23.69-50.34,53.69-65.47,87.9q-2.2,4.92-4.16,9.93a212.31,212.31,0,0,0-9.41,30.61C213,556.34,262.89,634,307.17,681.6c4.37,4.7-57.93-101.85-17.42-216,7.73-.29,20.24-.51,36.19-.67l15.5-50.61,17.44,50.38c27.4-.13,59.88-.15,93.88-.12l12.32-52.36L479,464.6c74.37.14,151.44.52,195.28.77l13.2-52.17,15,52.33,8.21.05C760.78,572,728.5,641.13,710,667.66A265.62,265.62,0,0,0,769.3,500C769.3,413.58,725,351.11,725,351.11Z" fill="#FEDC58"></path><path d="M710,667.66q-4.71,5.82-9.71,11.37C697.79,681.8,702.87,677.91,710,667.66Zm15-316.55C694.5,296.7,641.5,259.24,580.22,242l-6.35-1.71c-22.7-6.28-46.62-7-71.32-7-26.69,0-52.46,2.74-76.77,10l-4.26,1.27A283.11,283.11,0,0,0,332.67,294q-4.37,3.58-8.57,7.32c-28.34,23.69-50.34,53.69-65.47,87.9q-2.2,4.92-4.16,9.93a212.31,212.31,0,0,0-9.41,30.61C213,556.34,262.89,634,307.17,681.6c4.37,4.7-57.93-101.85-17.42-216,7.73-.29,20.24-.51,36.19-.67l15.5-50.61,17.44,50.38c27.4-.13,59.88-.15,93.88-.12l12.32-52.36L479,464.6c74.37.14,151.44.52,195.28.77l13.2-52.17,15,52.33,8.21.05C760.78,572,728.5,641.13,710,667.66A265.62,265.62,0,0,0,769.3,500C769.3,413.58,725,351.11,725,351.11Z" fill="none" stroke="#592d3d" stroke-miterlimit="10" stroke-width="12px"></path><path d="M584.15,228l-6.47-1.74c-25.21-7-50.93-7.55-75.13-7.55-30.59,0-57.07,3.49-80.91,10.64l-4.26,1.27-.49.15a299.89,299.89,0,0,0-93.42,52c-3,2.46-6,5-8.84,7.55-29.63,24.82-52.93,56.11-69.24,93-1.56,3.49-3,7.05-4.42,10.57-4.18,10.69-21.29,59.77-23.75,70.65l72.53,1c7.73-.29,20.24-.51,36.19-.67l15.5-50.61,17.44,50.38c27.4-.13,59.88-.15,93.88-.12l12.32-52.36L479,464.6c74.37.14,151.44.52,195.28.77l13.2-52.17,15,52.33,8.21.05L783.8,500c0-86.19-41.3-149-46.48-156.6C706,288,651.63,247,584.15,228ZM750.31,547.25c-3.17-25.92-11.17-55.26-26.51-87.84l-3.89-8.27-6.49,0-26.78-93.63L663,450.81c-40.43-.22-107.06-.54-172.86-.69l-25.95-97.57-22.94,97.5c-27.4,0-51.55,0-72.09.09L340.6,367.53l-25.42,83c-11.45.15-20.16.34-26,.56l-9.83.38-3.29,9.26C261.72,501.22,257.92,545,264.76,591c-15.9-40-22.46-91.39-5.65-157.63l.09-.38A197.7,197.7,0,0,1,268,404.47c1.2-3.09,2.51-6.22,3.91-9.35,14.54-32.86,35.24-60.67,61.51-82.63l.33-.29c2.65-2.35,5.39-4.69,8.14-6.95a270.41,270.41,0,0,1,84-46.87l4.05-1.2c21.12-6.34,44.87-9.43,72.6-9.43,22.22,0,45.73.51,67.45,6.52l6.38,1.71c60.24,17,108.53,53.27,136,102.23l.37.66.44.63c.42.59,41.61,59.63,41.61,140.5A252.08,252.08,0,0,1,750.31,547.25Z" fill="#FEDC58"></path><path d="M710,667.66q-4.71,5.82-9.71,11.37C697.79,681.8,702.87,677.91,710,667.66ZM307.17,681.6c4.37,4.7-57.93-101.85-17.42-216,7.73-.29,20.24-.51,36.19-.67l15.5-50.61,17.44,50.38c27.4-.13,59.88-.15,93.88-.12l12.32-52.36L479,464.6c74.37.14,151.44.52,195.28.77l13.2-52.17,15,52.33,8.21.05C760.78,572,728.5,641.13,710,667.66" fill="none" stroke="#592d3d" stroke-miterlimit="10" stroke-width="12px"></path><path d="M284.48,462.85c.18-.75.33-1.32.53-1.94s.4-1.2.62-1.78c.46-1.17,1-2.31,1.51-3.42a48.48,48.48,0,0,1,3.85-6.42,37.51,37.51,0,0,1,4.88-5.75,17,17,0,0,1,7-4,31,31,0,0,1-.87,7.68c-.28,1.14-.59,2.25-.93,3.32l-1,3.25q-1,3.23-2,6.39c-.33,1.06-.68,2.09-1,3.13-.17.51-.37,1-.56,1.53s-.39,1-.56,1.4Z" fill="#592d3d"></path><path d="M710.68,459.58a35,35,0,0,1,6.23.06,60.73,60.73,0,0,1,6.24.86c1,.2,2.08.4,3.12.64a25.74,25.74,0,0,1,3.11.86,18.53,18.53,0,0,1,6.24,3.58,18.74,18.74,0,0,1-6.24,3.59,25.68,25.68,0,0,1-3.11.85c-1,.25-2.08.45-3.12.65q-3.12.58-6.24.86a35,35,0,0,1-6.23.05Z" fill="#592d3d"></path><path d="M444.84,452.07a134.88,134.88,0,0,1,1.49-14.25c.72-4.7,1.6-9.37,2.61-14s2.15-9.25,3.44-13.83A132.09,132.09,0,0,1,457,396.4a131.77,131.77,0,0,1-1.5,14.25q-1.08,7.05-2.61,14t-3.44,13.83A137,137,0,0,1,444.84,452.07Z" fill="#ffffff"></path><path d="M668,452.07a134.88,134.88,0,0,1,1.49-14.25q1.09-7.05,2.61-14T675.49,410a132.09,132.09,0,0,1,4.57-13.58,131.76,131.76,0,0,1-1.49,14.25q-1.1,7.05-2.61,14c-1,4.64-2.16,9.25-3.45,13.83A134.48,134.48,0,0,1,668,452.07Z" fill="#ffffff"></path><path d="M237.55,468.26a143,143,0,0,1,11.42-38" fill="#FEDC58"></path><path d="M231.6,467.51c.09-1,.18-1.85.32-2.73s.29-1.72.46-2.58c.35-1.7.75-3.38,1.23-5a78.48,78.48,0,0,1,3.47-9.75,66.09,66.09,0,0,1,4.7-9.22,29.18,29.18,0,0,1,7.19-7.91,50.46,50.46,0,0,1-.48,10.43c-.25,1.63-.51,3.25-.83,4.84s-.58,3.19-.83,4.78l-1.63,9.49-.83,4.68c-.12.78-.28,1.56-.42,2.32s-.3,1.57-.44,2.19Z" fill="#592d3d"></path><path d="M769.33,496s-.46-20.78-8.37-47.63" fill="#FEDC58"></path><path d="M763.33,496.12l-.24-2.76c-.08-1-.16-1.93-.22-2.89l-.45-5.84-.91-11.8c-.3-3.95-.71-7.91-1-11.93-.08-2-.16-4.06-.1-6.14a47.58,47.58,0,0,1,.5-6.4,42.78,42.78,0,0,1,6.58,10.89,62.13,62.13,0,0,1,2.17,5.84c.67,2,1.24,4,1.81,6a111.89,111.89,0,0,1,2.69,12.17c.33,2.05.63,4.12.81,6.21q.16,1.56.24,3.15c.06,1.07.08,2.07.07,3.28Z" fill="#592d3d"></path><path d="M506.7,235.5a369.62,369.62,0,0,0-42.48,4.93c-3.48.68-7,1.42-10.44,2.06s-6.9,1.61-10.35,2.41l-10.26,2.72c-3.4,1-6.77,2.08-10.15,3.12a314.87,314.87,0,0,0-39.44,15.73,348.17,348.17,0,0,0-37.24,21,183.41,183.41,0,0,1,35.08-25.14A219.23,219.23,0,0,1,421.18,245c3.48-1,6.94-2.09,10.42-3.05s7-1.82,10.55-2.6,7.1-1.4,10.65-2,7.16-1.07,10.74-1.52A190,190,0,0,1,506.7,235.5Z" fill="#ffffff"></path><path d="M600.89,460.57a318.14,318.14,0,0,1,33.51-6.65l-2.66.35c13.18-1.74,26.54-2.25,39.75-.48l-2.66-.36c3.27.46,6.54,1,9.82,1.42l-2.66-.36a221,221,0,0,1,29.48,6.11c5,1.39,11.1-1.73,12.3-7a10.19,10.19,0,0,0-7-12.3,239.21,239.21,0,0,0-34.59-6.78l2.66.36a143,143,0,0,0-33.44-1.95,235.08,235.08,0,0,0-33.09,4.55c-5.62,1.13-11.2,2.43-16.76,3.8-5.08,1.25-8.62,7.26-7,12.3a10.19,10.19,0,0,0,12.3,7Z" fill="#592d3d"></path><path d="M286.14,460.6a202.56,202.56,0,0,1,29.25-6.19l-2.66.36a195.53,195.53,0,0,1,51.38.08l-2.66-.35a218.94,218.94,0,0,1,29.45,6.1c5,1.4,11.1-1.73,12.3-7a10.19,10.19,0,0,0-7-12.3A227.26,227.26,0,0,0,352,433.6a208.27,208.27,0,0,0-71.22,7.71,10.39,10.39,0,0,0-6,4.6,10.2,10.2,0,0,0-1,7.7c1.65,5.11,6.91,8.54,12.3,7Z" fill="#592d3d"></path><path d="M725,631.82a265.34,265.34,0,0,0,26.3-59.43c-17.24,35.74-49.84,65.46-92.11,65.46A106.75,106.75,0,0,1,552.58,531.22,105.67,105.67,0,0,1,560.41,491H758a105.33,105.33,0,0,1,7.62,33.39c.73-8,1.12-16.19,1.12-24.42a269.16,269.16,0,0,0-1.58-29H575v0H423.14v0H234.83a269.16,269.16,0,0,0-1.58,29c0,4.73.14,9.42.38,14.09A104.92,104.92,0,0,1,240.1,491H437.7a106.7,106.7,0,0,1-98.8,146.82c-38.8,0-68.82-25.83-87.48-56.89a266.14,266.14,0,0,0,24.76,52.84c19.39,12.07,38.25,24.05,62.72,24.05A126.78,126.78,0,0,0,465.53,531.22c0-1.81,0-3.61-.12-5.4,23.38-8.23,45.52-8.35,67.31-.36-.08,1.91-.14,3.83-.14,5.76A126.78,126.78,0,0,0,659.21,657.85C685,657.85,705,645.1,725,631.82ZM535.26,505.18c-23.4-7.55-47.64-7.42-72.33.39A124.62,124.62,0,0,0,459,491h80.1A122.6,122.6,0,0,0,535.26,505.18Z" opacity="0.15"></path><path d="M233.59,469.82s.41,32.23.41,50.2c0,64.41,40.48,116.63,104.9,116.63A116.68,116.68,0,0,0,444.2,469.82Z" fill="#592d3d" opacity="0.95"></path><path d="M553.91,469.82a116.68,116.68,0,0,0,105.3,166.83c64.42,0,107.54-52.22,107.54-116.63,0-18-2.23-50.2-2.23-50.2Z" fill="#592d3d" opacity="0.95"></path><path d="M320,626.86,443.07,503.78a93.05,93.05,0,0,0-10-17.27L302.72,616.88A93.62,93.62,0,0,0,320,626.86Z" fill="#ffffff" opacity="0.25"></path><path d="M455.86,507.53c29.52-12,58.53-12.42,87,0" fill="none" stroke="#592d3d" stroke-miterlimit="10" stroke-width="20px"></path><path d="M274.28,504.75c2.06,6.51-5.94,11.51-11.94,12.51-6,0-10-4-12-9-1-5,0-10,4-13,5-2,12-4,16.44,1.12A11.7,11.7,0,0,1,274.28,504.75Z" fill="#ffffff"></path><path d="M285,500.93c-.61,4.33-6.61,4.33-7.61.33,0-3,1-4,3.84-4.1A3.77,3.77,0,0,1,285,500.93Z" fill="#ffffff"></path><path d="M645.19,618.92,751.47,512.64a93.89,93.89,0,0,0-2.41-11.22L634,616.51A94.31,94.31,0,0,0,645.19,618.92Z" fill="#ffffff" opacity="0.25"></path><path d="M590.68,505.73c2.06,6.51-5.94,11.51-11.94,12.51-6,0-10-4-12-9-1-5,0-10,4-13,5-2,12-4,16.45,1.12A11.69,11.69,0,0,1,590.68,505.73Z" fill="#ffffff"></path><path d="M601.35,501.91c-.61,4.33-6.61,4.33-7.61.33,0-3,1-4,3.85-4.1A3.76,3.76,0,0,1,601.35,501.91Z" fill="#ffffff"></path><path d="M233.59,469.82s-.34,31.69.41,50.2c2.6,64.36,40.48,116.63,104.9,116.63A116.68,116.68,0,0,0,444.2,469.82Z" fill="none" stroke="#592d3d" stroke-miterlimit="10" stroke-width="20px"></path><path d="M553.91,469.82a116.68,116.68,0,0,0,105.3,166.83c64.42,0,107.54-51.53,107.54-115.94,0-18-2.23-50.89-2.23-50.89Z" fill="none" stroke="#592d3d" stroke-miterlimit="10" stroke-width="20px"></path><line x1="423.14" y1="469.81" x2="574.97" y2="469.81" fill="none" stroke="#592d3d" stroke-miterlimit="10" stroke-width="20px"></line></g></svg>