<svg xmlns="http://www.w3.org/2000/svg" viewBox="0 0 1000 990"><g><g transform="scale(0)" style="transform-origin: center center;"><path d="M225.35,498c183.42,77.95,371.14,79.06,555.94,0,17.53-7.5,17.43-139.87,0-133.81-180.47,62.83-371.33,63.5-555.94,0C203.39,356.6,205.53,489.53,225.35,498Z" fill="#592d3d" stroke="#592d3d" stroke-miterlimit="10" stroke-width="12px"></path></g><path d="M610,758.72c90.76,0,72,114.24,72.87,241.28H610Z" fill="#FBE8B3"></path><path d="M632.74,831.87,610,870l11.38,130h31.76C653.91,819.73,632.74,831.87,632.74,831.87Z" fill="#EDD494"></path><path d="M233.25,500c0-147.32,119.43-266.75,266.75-266.75S766.75,352.68,766.75,500A266.22,266.22,0,0,1,668.1,707.12q-8.21,6.68-16.94,12.69C591,758,515,758,446.39,751.89c-6.66-1-13.3-2.26-19.89-3.71-26.33-5.8-51.82-14.75-75.37-27.8Q342.4,715,334.2,708.76a199.59,199.59,0,0,1-15.8-13.38q-7.14-6.63-13.79-13.78A265.86,265.86,0,0,1,233.25,500Z" fill="#FBE8B3"></path><path d="M269.61,634.48c.7,1.2,1.39,2.4,2.11,3.58.43.72.88,1.42,1.33,2.14.66,1.07,1.32,2.14,2,3.19.48.76,1,1.5,1.46,2.24.66,1,1.32,2,2,3,.51.76,1,1.52,1.56,2.28.66,1,1.32,1.92,2,2.88.54.77,1.1,1.53,1.65,2.3s1.34,1.85,2,2.77,1.15,1.53,1.73,2.29,1.37,1.8,2.07,2.7,1.19,1.51,1.79,2.26,1.41,1.76,2.12,2.63,1.23,1.49,1.85,2.23,1.44,1.72,2.17,2.57,1.27,1.47,1.91,2.2l2.22,2.5c.65.73,1.31,1.44,2,2.16.86.94,1.73,1.87,2.6,2.79l1.21,1.28c1.29,1.34,2.59,2.68,3.91,4l.26.27c1.29,1.28,2.6,2.55,3.91,3.81l1.58,1.5c.95.89,1.9,1.78,2.86,2.66l1.16,1.06c1,.94,2.09,1.86,3.14,2.78q4.9,4.27,10,8.19,8.19,6.24,16.93,11.62c23.55,13,49,22,75.37,27.8,6.59,1.45,13.23,2.7,19.89,3.71,42.1,3.75,87,5.18,129.28-3.08C508.45,729,185.59,612.74,388.8,257.48h0c-2.72,1.25-5.4,2.54-8.06,3.88l-.59.29c-1.22.61-2.44,1.24-3.65,1.88l-1,.53c-3.76,2-7.48,4.07-11.13,6.23l-.9.53c-1.16.69-2.31,1.39-3.46,2.1l-.87.54q-5.36,3.35-10.55,6.93l-1.08.75c-1.09.76-2.16,1.52-3.23,2.29l-.66.47q-3.27,2.39-6.46,4.84l-.62.48c-1,.78-2,1.58-3,2.39l-1.17.94c-1,.81-2,1.62-3,2.45l0,0c-2.11,1.75-4.19,3.55-6.24,5.37l-1.14,1-2.69,2.45L318,305q-4.28,4-8.37,8.17l-1.38,1.41c-.79.82-1.58,1.64-2.36,2.47-.46.49-.92,1-1.37,1.48q-2.06,2.2-4.06,4.46c-.45.51-.91,1-1.36,1.54-.71.81-1.41,1.63-2.11,2.45l-1.51,1.79c-.68.81-1.36,1.62-2,2.44-.54.66-1.08,1.33-1.61,2-1.07,1.33-2.12,2.66-3.16,4-.54.7-1.08,1.4-1.61,2.11s-1.2,1.59-1.79,2.4-1.07,1.45-1.59,2.18-1.13,1.55-1.68,2.33q-1.42,2-2.8,4.05c-.5.73-1,1.48-1.49,2.22s-1.1,1.66-1.64,2.5l-1.49,2.31-1.68,2.71c-.43.69-.86,1.38-1.28,2.07-.89,1.46-1.75,2.93-2.61,4.4l-1.22,2.16c-.54.95-1.08,1.91-1.61,2.87-.4.73-.8,1.46-1.19,2.19-.64,1.19-1.27,2.39-1.9,3.59l-1.2,2.34c-.64,1.28-1.28,2.55-1.91,3.84-.33.69-.67,1.39-1,2.09-.52,1.09-1,2.19-1.53,3.29-.31.66-.61,1.32-.91,2q-1.11,2.47-2.17,5c-.22.52-.43,1.05-.65,1.57-.53,1.27-1.05,2.54-1.56,3.82-.27.67-.53,1.34-.79,2-.5,1.26-1,2.53-1.45,3.8-.21.55-.42,1.1-.62,1.65q-.94,2.63-1.85,5.26l-.56,1.7q-.66,2-1.29,4l-.6,1.91c-.47,1.54-.93,3.08-1.37,4.63-.1.33-.2.66-.29,1q-.78,2.76-1.5,5.54c-.16.59-.3,1.19-.45,1.78-.35,1.39-.69,2.78-1,4.18l-.42,1.75c-.43,1.9-.85,3.8-1.24,5.71l-.15.77q-.51,2.55-1,5.1c-.11.61-.21,1.21-.32,1.82-.26,1.49-.51,3-.74,4.5-.08.51-.17,1-.24,1.52-.3,1.95-.57,3.91-.83,5.88l-.15,1.3c-.2,1.59-.38,3.19-.55,4.79-.06.6-.13,1.2-.19,1.81-.16,1.68-.31,3.37-.45,5.06,0,.35-.06.69-.08,1q-.22,3-.39,6.05c0,.53,0,1.07-.07,1.6q-.1,2.36-.18,4.71c0,.59,0,1.18,0,1.77,0,2.05-.08,4.11-.08,6.17,0,0,0,.07,0,.1,0,2.22,0,4.42.08,6.62,0,.76.06,1.52.08,2.28.05,1.47.1,2.94.17,4.41,0,.89.11,1.77.16,2.66.08,1.33.15,2.66.25,4,.07,1,.16,1.89.24,2.83.11,1.26.21,2.52.34,3.77.09,1,.21,1.94.31,2.91.14,1.21.27,2.43.42,3.64.12,1,.26,2,.39,2.95.16,1.18.32,2.37.5,3.55.15,1,.31,2,.47,3,.18,1.16.37,2.33.57,3.49.18,1,.36,2,.55,3,.21,1.15.43,2.3.65,3.44s.41,2,.62,3c.24,1.14.48,2.27.74,3.4s.44,2,.68,2.93c.26,1.13.54,2.25.82,3.36s.49,1.95.74,2.91c.3,1.12.6,2.23.91,3.34.26,1,.53,1.92.81,2.87.32,1.11.65,2.21,1,3.31s.58,1.89.88,2.84.7,2.19,1.06,3.28.62,1.87.94,2.8c.38,1.09.76,2.18,1.15,3.27.33.91.65,1.83,1,2.74l1.24,3.27c.35.89.69,1.79,1,2.68.44,1.09.89,2.19,1.34,3.28.36.86.71,1.73,1.08,2.59.47,1.12,1,2.22,1.45,3.33.37.82.73,1.65,1.1,2.47.52,1.16,1.07,2.3,1.6,3.44l1.08,2.3c.61,1.26,1.24,2.5,1.87,3.75.32.63.62,1.27.95,1.9q2.88,5.61,6,11.07C268.88,633.26,269.25,633.87,269.61,634.48Z" fill="#EDD494"></path><path d="M233.25,500c0-147.32,119.43-266.75,266.75-266.75S766.75,352.68,766.75,500A266.22,266.22,0,0,1,668.1,707.12q-8.21,6.68-16.94,12.69C591,758,515,758,446.39,751.89c-6.66-1-13.3-2.26-19.89-3.71-26.33-5.8-51.82-14.75-75.37-27.8Q342.4,715,334.2,708.76a199.59,199.59,0,0,1-15.8-13.38q-7.14-6.63-13.79-13.78A265.86,265.86,0,0,1,233.25,500Z" fill="none" stroke="#592d3d" stroke-miterlimit="10" stroke-width="12px"></path><path d="M386.12,758.72c-90.77,0-72,114.24-72.87,241.28h72.87Z" fill="#FBE8B3"></path><path d="M367.23,831.87,390,870l-11.39,130H346.88C346.07,819.73,367.23,831.87,367.23,831.87Z" fill="#EDD494"></path><path d="M619.47,1070H380.53a13.28,13.28,0,0,1-13.27-13.28V772a13.28,13.28,0,0,1,13.27-13.28H613.76c13.09,0,19,7.66,19,19.88v278.08A13.28,13.28,0,0,1,619.47,1070Z" fill="#FBE8B3"></path><path d="M629.05,766.62a19.33,19.33,0,0,1-2.51-4,17.25,17.25,0,0,0-8.28-3.51,28.88,28.88,0,0,0-4.5-.34H380.53A13.28,13.28,0,0,0,367.26,772c29,10.42,83.29,16.24,132.74,16.24C563.06,788.24,604.38,778.89,629.05,766.62Z" fill="#EDD494"></path><path d="M610,758.72c90.76,0,72,114.24,72.87,241.28H632.74" fill="none" stroke="#592d3d" stroke-linecap="square" stroke-miterlimit="10" stroke-width="12px"></path><path d="M386.12,758.72c-90.77,0-72,114.24-72.87,241.28h50.07" fill="none" stroke="#592d3d" stroke-linecap="square" stroke-miterlimit="10" stroke-width="12px"></path><path d="M380.53,758.82l233.23-.1" fill="none" stroke="#592d3d" stroke-miterlimit="10" stroke-width="12px"></path><path d="M380.53,1070H497.15C388,1070,396.24,838.82,367.26,838.82v217.86A13.28,13.28,0,0,0,380.53,1070Z" fill="#EDD494"></path><path d="M361.26,860.85c-.19-3.67-.11-7.34.05-11s.47-7.35.86-11c.2-1.84.4-3.67.65-5.51s.49-3.67.85-5.51a44.18,44.18,0,0,1,3.59-11,44.18,44.18,0,0,1,3.59,11c.36,1.84.62,3.67.85,5.51s.45,3.67.65,5.51c.38,3.67.68,7.34.85,11s.25,7.34.06,11Z" fill="#592d3d"></path><path d="M632.74,870v8c.26,34,.26,69,0,102.75,0,2.87,0,5.72,0,8.53v67.41A13.28,13.28,0,0,1,619.47,1070H380.53a13.28,13.28,0,0,1-13.27-13.28V998.52c0-2.51,0-5.07,0-7.65-.25-34.87-.25-69.87,0-105.3V860.85" fill="none" stroke="#592d3d" stroke-miterlimit="10" stroke-width="12px"></path><path d="M626.74,870c-.19-4.17-.1-8.35.06-12.53s.47-8.35.85-12.53c.2-2.09.41-4.18.65-6.27s.49-4.17.85-6.26a55.09,55.09,0,0,1,3.59-12.53,55.09,55.09,0,0,1,3.59,12.53c.36,2.09.62,4.18.85,6.26s.45,4.18.65,6.27c.38,4.18.69,8.35.85,12.53s.25,8.36.06,12.53Z" fill="#592d3d"></path><path d="M570.68,842.45C570.9,833,582.9,829,588.9,835a10.61,10.61,0,1,1-15.16,14.85A10.4,10.4,0,0,1,570.68,842.45Z" fill="#592d3d"></path><path d="M408.11,842.15C407.9,834,416.9,830,422.9,833c8,3,8,14,0,19-4,2-8,0-11.75-2.48A10.39,10.39,0,0,1,408.11,842.15Z" fill="#592d3d"></path><path d="M500,831.77a27.13,27.13,0,0,1,1.5,5.84,42.47,42.47,0,0,1,.49,5.84l.3,11.69c.09,3.89.21,7.79.25,11.69l.17,11.67c.23,15.57.22,31.16.28,46.74s.18,31.16,0,46.74c-.09,7.79-.3,15.58-.53,23.37-.1,3.89-.29,7.79-.67,11.68a92.5,92.5,0,0,1-1.77,11.69,92.5,92.5,0,0,1-1.77-11.69c-.38-3.89-.57-7.79-.67-11.68-.23-7.79-.44-15.58-.53-23.37-.2-15.58,0-31.16,0-46.74s0-31.15.18-46.73l.17-11.7.33-11.68.33-11.68a44.11,44.11,0,0,1,.5-5.84A27.13,27.13,0,0,1,500,831.77Z" fill="#EDD494"></path><path d="M425.22,883a18.51,18.51,0,0,1,4.67-1.5,29.75,29.75,0,0,1,4.68-.5l9.35-.33,18.7-.41c12.46-.19,24.91-.24,37.38-.27s24.93-.16,37.39,0c6.23.09,12.46.3,18.7.53,3.11.11,6.23.3,9.34.67a61.34,61.34,0,0,1,9.35,1.78,59.17,59.17,0,0,1-9.35,1.77c-3.11.38-6.23.57-9.34.67-6.24.23-12.47.43-18.7.52-12.46.19-24.92,0-37.39,0s-24.93,0-37.4-.15c-6.23-.06-12.46-.26-18.68-.5l-9.35-.34a29.5,29.5,0,0,1-4.67-.5A18.45,18.45,0,0,1,425.22,883Z" fill="#EDD494"></path><path d="M442.41,914.38a12.51,12.51,0,0,1,3.74-1.11,18.35,18.35,0,0,1,3.62-.15c2.39.1,4.78.16,7.17.21,4.78.11,9.56.15,14.34.17,9.63,0,19.09.08,28.76-.21s19.26-.43,28.88-.39c4.81,0,9.62.13,14.42.24a70.37,70.37,0,0,1,7.23.47,38.17,38.17,0,0,1,7.27,1.53,36.56,36.56,0,0,1-7.16,2,61.08,61.08,0,0,1-7.21.86c-4.82.35-9.64.65-14.45.82-9.64.36-19.27.32-28.88.45-4.81,0-9.61.22-14.48.1s-9.69-.13-14.52-.31-9.68-.58-14.5-1.08c-2.42-.27-4.82-.57-7.23-.9a16.82,16.82,0,0,1-3.57-.84A11.51,11.51,0,0,1,442.41,914.38Z" fill="#EDD494"></path><path d="M438.93,949.87a13.07,13.07,0,0,1,3.82-1.5,19.13,19.13,0,0,1,3.82-.49l7.63-.32c5.09-.18,10.19-.33,15.28-.41C479.66,947,489.84,947,500,947s20.36-.17,30.54,0c5.09.09,10.18.3,15.27.53a72.73,72.73,0,0,1,7.63.66A41.2,41.2,0,0,1,561.1,950a41.25,41.25,0,0,1-7.63,1.77,70.34,70.34,0,0,1-7.64.67c-5.09.23-10.18.44-15.27.53-10.18.2-20.37.06-30.55,0s-20.36-.06-30.54-.25c-5.09-.1-10.19-.28-15.28-.49l-7.63-.37a19.33,19.33,0,0,1-3.82-.5A12.85,12.85,0,0,1,438.93,949.87Z" fill="#EDD494"></path><path d="M613.76,758.16H559.55v.1H589a175.21,175.21,0,0,1-2.12,27.22q-1,6.57-2.57,12.88a116.51,116.51,0,0,1-14.71,34.22,92,92,0,0,1-6.61,9c-37.06,37-95.95,39-131.74-1.19A98.26,98.26,0,0,1,420.8,825a124.07,124.07,0,0,1-13.4-39.48q-1-6.57-1.58-13.39c-.35-4.54-.54-9.15-.54-13.82h29.47v-.1H380.53c.82,22.29-1.59,75.64-9.11,84.48l-4.16,213.48a13.27,13.27,0,0,0,13.27,13.27H619.47a13.27,13.27,0,0,0,13.27-13.27l-2.38-215.36C620.61,840.76,613.42,783.07,613.76,758.16Z" fill="#FFFFFF"></path><polygon points="632.74 831.31 609.95 869.4 621.34 999.43 632.94 999.43 632.94 893.78 632.74 831.31" fill="#E2E2E2"></polygon><path d="M380.53,1069.39H497.15c-109.2,0-100.91-231.14-129.89-231.14v217.87A13.27,13.27,0,0,0,380.53,1069.39Z" fill="#E2E2E2"></path><path d="M361.26,860.4a63.71,63.71,0,0,1-.1-8.29q.19-4.15.71-8.31c.18-1.39.35-2.77.57-4.16s.44-2.77.78-4.16a27.84,27.84,0,0,1,3.44-8.35,27.54,27.54,0,0,1,3.73,8.22c.39,1.38.68,2.76.93,4.13s.5,2.76.72,4.14c.44,2.75.79,5.51,1,8.27a62,62,0,0,1,.21,8.29Z" fill="#592d3d"></path><path d="M632.74,869.4v8c.26,34,.26,69,0,102.76,0,2.87,0,5.72,0,8.53v67.41a13.27,13.27,0,0,1-13.27,13.27H380.53a13.27,13.27,0,0,1-13.27-13.27V998q0-3.76,0-7.65c-.25-34.86-.25-69.86,0-105.3V860.29" fill="none" stroke="#592d3d" stroke-miterlimit="10" stroke-width="12px"></path><path d="M626.76,869.38a65.79,65.79,0,0,1,.65-8.53q.57-4.25,1.46-8.47c.3-1.41.6-2.82.94-4.22s.69-2.81,1.15-4.21a29.21,29.21,0,0,1,4.18-8.28,28.9,28.9,0,0,1,3,8.78c.26,1.45.42,2.89.55,4.33s.25,2.88.35,4.31c.18,2.87.28,5.74.25,8.59a67.65,67.65,0,0,1-.54,8.54Z" fill="#592d3d"></path><path d="M368.1,833c21.58-5.27,12.43-74.73,12.43-74.73l233.23-.1s3.93,76.62,19.18,82.92" fill="none" stroke="#592d3d" stroke-miterlimit="10" stroke-width="12px"></path><path d="M589,758.26a175.22,175.22,0,0,1-2.11,27.22q-1,6.57-2.57,12.88a116.51,116.51,0,0,1-14.71,34.22,92,92,0,0,1-6.61,9c-37.06,37-95.95,39-131.74-1.19A98.26,98.26,0,0,1,420.8,825a124.07,124.07,0,0,1-13.4-39.48q-1-6.57-1.58-13.39c-.35-4.54-.54-9.15-.54-13.82" fill="none" stroke="#592d3d" stroke-miterlimit="10" stroke-width="12px"></path><g transform="translate(0 30)"><path d="M551.55,939.73a11.33,11.33,0,0,0-3-1.2V907.92a11.25,11.25,0,0,0,3.06-1.22,11.49,11.49,0,1,0-14.08-17.84L511,873.57a11.48,11.48,0,1,0-22.48-3.28,11.68,11.68,0,0,0,.47,3.26l-26.5,15.3a11.65,11.65,0,0,0-2.59-2.05,11.49,11.49,0,1,0-11.48,19.9,11.25,11.25,0,0,0,3.06,1.22v30.6a11.71,11.71,0,0,0-3,1.21,11.49,11.49,0,1,0,11.48,19.9,11.65,11.65,0,0,0,2.57-2L489,972.9a11.25,11.25,0,0,0-.47,3.25,11.48,11.48,0,1,0,23,0,11.68,11.68,0,0,0-.58-3.62l26.33-15.2a11.24,11.24,0,0,0,2.84,2.3,11.49,11.49,0,0,0,11.48-19.9ZM465.35,947a11.36,11.36,0,0,0-1.21-3,11.59,11.59,0,0,0-2-2.56l34.68-60.06a11.67,11.67,0,0,0,3.2.45,11.37,11.37,0,0,0,3.21-.46l34.67,60.06a11.45,11.45,0,0,0-3.23,5.6Zm69.45-53.36a11.46,11.46,0,0,0,8.26,14.28v30.65l-.44.11-34.68-60.07.3-.3Zm-43.06-15.34.33.32-34.68,60.07-.45-.12V907.89a11.45,11.45,0,0,0,8.25-14.29Zm16.75,90.14a11.5,11.5,0,0,0-16.76-.23l-26.51-15.31.12-.44h69.32c.06.25.13.51.21.75Z" stroke="#ffffff" stroke-width="16px"></path><path d="M551.55,939.73a11.33,11.33,0,0,0-3-1.2V907.92a11.25,11.25,0,0,0,3.06-1.22,11.49,11.49,0,1,0-14.08-17.84L511,873.57a11.48,11.48,0,1,0-22.48-3.28,11.68,11.68,0,0,0,.47,3.26l-26.5,15.3a11.65,11.65,0,0,0-2.59-2.05,11.49,11.49,0,1,0-11.48,19.9,11.25,11.25,0,0,0,3.06,1.22v30.6a11.71,11.71,0,0,0-3,1.21,11.49,11.49,0,1,0,11.48,19.9,11.65,11.65,0,0,0,2.57-2L489,972.9a11.25,11.25,0,0,0-.47,3.25,11.48,11.48,0,1,0,23,0,11.68,11.68,0,0,0-.58-3.62l26.33-15.2a11.24,11.24,0,0,0,2.84,2.3,11.49,11.49,0,0,0,11.48-19.9ZM465.35,947a11.36,11.36,0,0,0-1.21-3,11.59,11.59,0,0,0-2-2.56l34.68-60.06a11.67,11.67,0,0,0,3.2.45,11.37,11.37,0,0,0,3.21-.46l34.67,60.06a11.45,11.45,0,0,0-3.23,5.6Zm69.45-53.36a11.46,11.46,0,0,0,8.26,14.28v30.65l-.44.11-34.68-60.07.3-.3Zm-43.06-15.34.33.32-34.68,60.07-.45-.12V907.89a11.45,11.45,0,0,0,8.25-14.29Zm16.75,90.14a11.5,11.5,0,0,0-16.76-.23l-26.51-15.31.12-.44h69.32c.06.25.13.51.21.75Z" fill="#e535ab"></path></g><path d="M670.06,788.32q3.3-3.32,6.5-6.71c45.16-54.71,48.7-112.39,57.87-148.37V619l-2.44.84c.83-1.52,1.65-3,2.44-4.56-.06-.1-3.49,3.38-3.55,3.28A33.65,33.65,0,0,1,725.8,622l-32.55,11.28a220.36,220.36,0,0,1-43.89,3.82c-63-.26-63.24-14.87-113.2-20l-96.49,1.58c-25.69,3.84-37.06,11.81-88,12.85-44.15.9-83.62-10-83.62-10v12.68c14,36.84,4.58,64.43,29,110.49,0-.65,0-1.31-.05-2-4.39-21.71,0-41.57,2.12-49.19.21-1.88.36-2.92.36-2.92v-.07c0-.12,0-.2,0-.2l0,.1c0,.14.11.45.22.9.23-.72.36-1.11.36-1.11s.89,4.91,2.54,12.74c3.93,15.48,11.16,43,19.45,70.08.92,2.43,1.87,4.81,2.84,7.11.07.21.15.44.23.65,27.94,29.88,62.13,55.36,93.14,74.5,3.34,2,6.51,3.87,9.48,5.61a86.4,86.4,0,0,1,2.41-43.06s.07.38.21,1.08c.24-.77.4-1.19.4-1.19s11.43,47.45,34.52,62.83c.57.24,1.15.47,1.73.66l-.44.16.1.06c.58.33,1.18.65,1.77,1a208.45,208.45,0,0,0,21.34,8.53c5.41,1.57,9.84,2.39,12,2.39,4.75,0,32-10.61,48.69-49.07,1.1-3.27,1.63-5.32,1.63-5.32l.28.69c.11-.27.22-.53.32-.8A56,56,0,0,1,560.7,869a526,526,0,0,0,72.06-47.55l0-.11c.27-.64.53-1.29.8-1.94l.06-.13.81-2v0l.84-2.08v0c14.48-35.83,23.58-89,23.58-89,.06-.18.28.09.6.74,0-.55,0-.85,0-.85S675.72,748.49,670.06,788.32Z" fill="#D69AC7"></path><path d="M670.06,788.32q3.3-3.32,6.5-6.71c45.16-54.71,48.7-112.39,57.87-148.37V619l-2.44.84c.83-1.52,1.65-3,2.44-4.56-.06-.1-3.49,3.38-3.55,3.28A33.65,33.65,0,0,1,725.8,622l-32.55,11.28a220.36,220.36,0,0,1-43.89,3.82c-63-.26-63.24-14.87-113.2-20l-96.49,1.58c-25.69,3.84-37.06,11.81-88,12.85-44.15.9-83.62-10-83.62-10v12.68c14,36.84,4.58,64.43,29,110.49,0-.65,0-1.31-.05-2-4.39-21.71,0-41.57,2.12-49.19.21-1.88.36-2.92.36-2.92v-.07c0-.12,0-.2,0-.2l0,.1c0,.14.11.45.22.9.23-.72.36-1.11.36-1.11s.89,4.91,2.54,12.74c3.93,15.48,11.16,43,19.45,70.08.92,2.43,1.87,4.81,2.84,7.11.07.21.15.44.23.65,27.94,29.88,62.13,55.36,93.14,74.5,3.34,2,6.51,3.87,9.48,5.61a86.4,86.4,0,0,1,2.41-43.06s.07.38.21,1.08c.24-.77.4-1.19.4-1.19s11.43,47.45,34.52,62.83c.57.24,1.15.47,1.73.66l-.44.16.1.06c.58.33,1.18.65,1.77,1a208.45,208.45,0,0,0,21.34,8.53c5.41,1.57,9.84,2.39,12,2.39,4.75,0,32-10.61,48.69-49.07,1.1-3.27,1.63-5.32,1.63-5.32l.28.69c.11-.27.22-.53.32-.8A56,56,0,0,1,560.7,869a526,526,0,0,0,72.06-47.55l0-.11c.27-.64.53-1.29.8-1.94l.06-.13.81-2v0l.84-2.08v0c14.48-35.83,23.58-89,23.58-89,.06-.18.28.09.6.74,0-.55,0-.85,0-.85S675.72,748.49,670.06,788.32Z" fill="#D69AC7"></path><path d="M670.06,788.32q3.3-3.32,6.5-6.71c45.16-54.71,48.7-112.39,57.87-148.37V619l-2.44.84c.83-1.52,1.65-3,2.44-4.56-.06-.1-3.49,3.38-3.55,3.28A33.65,33.65,0,0,1,725.8,622l-32.55,11.28a220.36,220.36,0,0,1-43.89,3.82c-63-.26-78.3-19.69-113.2-20s-76.95-1.23-96.49,1.58-37.06,11.81-88,12.85c-44.15.9-83.62-10-83.62-10v12.68c14,36.84,4.58,64.43,29,110.49,0-.65,0-1.31-.05-2-4.39-21.71,0-41.57,2.12-49.19.21-1.88.36-2.92.36-2.92v-.07c0-.12,0-.2,0-.2l0,.1c0,.14.11.45.22.9.23-.72.36-1.11.36-1.11s.89,4.91,2.54,12.74c3.93,15.48,11.16,43,19.45,70.08.92,2.43,1.87,4.81,2.84,7.11.07.21.15.44.23.65,27.94,29.88,62.13,55.36,93.14,74.5,3.34,2,6.51,3.87,9.48,5.61a86.4,86.4,0,0,1,2.41-43.06s.07.38.21,1.08c.24-.77.4-1.19.4-1.19s11.43,47.45,34.52,62.83c.57.24,1.15.47,1.73.66l-.44.16.1.06c.58.33,1.18.65,1.77,1a208.45,208.45,0,0,0,21.34,8.53c5.41,1.57,9.84,2.39,12,2.39,4.75,0,32-10.61,48.69-49.07,1.1-3.27,1.63-5.32,1.63-5.32l.28.69c.11-.27.22-.53.32-.8A56,56,0,0,1,560.7,869a526,526,0,0,0,72.06-47.55l0-.11c.27-.64.53-1.29.8-1.94l.06-.13.81-2v0l.84-2.08v0c14.48-35.83,23.58-89,23.58-89,.06-.18.28.09.6.74,0-.55,0-.85,0-.85S675.72,748.49,670.06,788.32Z" fill="#D69AC7"></path><path d="M343.5,706.91a23.12,23.12,0,0,0,13.79,5.8C343,701.34,337.78,690.32,336,685.36A271.66,271.66,0,0,1,326,630.81a329.37,329.37,0,0,1-57.87-9.33v12.68c14,36.84,4.58,64.43,29,110.49,0-.65,0-1.31-.05-2-4.39-21.71,0-41.57,2.12-49.19.21-1.88.36-2.92.36-2.92v-.07c0-.12,0-.2,0-.2l0,.1c0,.14.11.45.22.9.23-.72.36-1.11.36-1.11s.89,4.91,2.54,12.74c3.93,15.48,11.16,43,19.45,70.08.92,2.43,1.87,4.81,2.84,7.11.07.21.15.44.23.65,27.94,29.88,62.13,55.36,93.14,74.5,3.34,2,6.51,3.87,9.48,5.61a86.4,86.4,0,0,1,2.41-43.06s.07.38.21,1.08c.24-.77.4-1.19.4-1.19s11.43,47.45,34.52,62.83c.57.24,1.15.47,1.73.66l-.44.16.1.06c.58.33,1.18.65,1.77,1a208.45,208.45,0,0,0,21.34,8.53c5.41,1.57,9.84,2.39,12,2.39,3.53,0,19.51-5.88,34.33-24.72C466.94,846.06,380.78,800,343.5,706.91Z" fill="#C683B4"></path><path d="M433.87,816.78s9.49,9,29.29,4.09c-1.47,3.55-5.93,5.4-5.93,5.4s6.17,8.13,19.06,7.75c0,0-7.73,4.8-15.53,1.65A169.67,169.67,0,0,0,442.41,834l-13.51-9.38Z" fill="#C683B4"></path><path d="M351.7,631.52q-2.64.48-5.28.84c-.89.11-1.77.25-2.65.35l-2.66.24-5.32.38c-1.78.08-3.56.09-5.33.14-3.56.07-7.11-.07-10.67-.2s-7.1-.37-10.64-.71-7.07-.7-10.61-1.1-7.05-1-10.56-1.56a196.89,196.89,0,0,1-21-4.57l-3.85-1.08,2.1-7.57,3.88.94c6.61,1.61,13.47,3.13,20.27,4.49s13.68,2.64,20.57,3.72c3.44.59,6.89,1,10.35,1.56s6.92,1,10.39,1.31C337.67,629.65,344.64,630.36,351.7,631.52Z" fill="#592d3d"></path><path d="M669.31,789.07c10.26-10.26,9.29-9.63,17.79-20.94-1.5-34.48-30-53.71-30-53.71L659,726.08c.84.16,7.91,18.47,7.56,46.08Z" fill="#C683B4"></path><path d="M575.36,859.87c-5.72-24.9-22.42-29.15-22.42-29.15l3.21,19.45a96.48,96.48,0,0,1,3.9,19.14c5-2.72,10.16-5.66,15.45-8.78Z" fill="#C683B4"></path><path d="M340.09,735.62a90.52,90.52,0,0,0,6.59,20.14A121.79,121.79,0,0,0,357,773.89l3.09,4.18c.53.68,1,1.42,1.56,2.07l1.66,2c1.13,1.31,2.19,2.68,3.35,4l3.56,3.78c.6.62,1.16,1.28,1.77,1.89l1.9,1.78,3.77,3.58c2.58,2.32,5.33,4.45,7.94,6.75l-6.28,3.32-.06-4c.05-1.32.07-2.64.2-4s.23-2.65.46-4c.11-.66.18-1.32.32-2l.43-2a43.84,43.84,0,0,1,2.52-7.67A35,35,0,0,1,385,780c.34-.6.73-1.18,1.13-1.77.21-.29.4-.57.64-.87s.42-.54.78-.95l4.46-5.06.56,6.55c.1,1.09.3,2.4.53,3.61s.51,2.46.84,3.68a48,48,0,0,0,2.51,7.14,36.29,36.29,0,0,0,3.9,6.55,29,29,0,0,0,5.62,5.42,23.79,23.79,0,0,1-7-4.07,31.32,31.32,0,0,1-5.54-6.17,43.85,43.85,0,0,1-4-7.32c-.54-1.28-1-2.58-1.46-3.91a34,34,0,0,1-1.11-4.16l5,1.49c0,.08-.22.35-.34.55s-.26.46-.39.69c-.25.48-.5,1-.73,1.48a33.23,33.23,0,0,0-1.24,3.15,44.39,44.39,0,0,0-1.62,6.69,55.25,55.25,0,0,0-.65,6.94c-.06,1.16,0,2.34,0,3.51l.16,3.53.4,8.64-6.68-5.32c-1.44-1.15-2.87-2.29-4.29-3.46l-2.14-1.75c-.7-.59-1.44-1.14-2.09-1.79l-4-3.83-2-1.91c-.64-.67-1.25-1.36-1.86-2.05l-3.67-4.15c-1.21-1.39-2.26-2.92-3.38-4.39a105.25,105.25,0,0,1-6.17-9.19,91.82,91.82,0,0,1-8.63-20.3C340.61,750.19,339.43,742.84,340.09,735.62Z" fill="#592d3d"></path><path d="M638.78,724.34A5.35,5.35,0,0,1,640,726a16.7,16.7,0,0,1,.84,1.94A33.87,33.87,0,0,1,642,732a58.47,58.47,0,0,1,1.08,8.32,94.26,94.26,0,0,1-.54,16.71,109.35,109.35,0,0,1-9,32.28A90.58,90.58,0,0,1,614.3,817a70.11,70.11,0,0,1-28.51,17,111.55,111.55,0,0,0,23.91-21.31A118.63,118.63,0,0,0,626.25,786a157.47,157.47,0,0,0,10.09-30,151.49,151.49,0,0,0,2.81-15.76c.32-2.65.54-5.32.63-8a33.51,33.51,0,0,0-.08-4,14.64,14.64,0,0,0-.26-2A5.74,5.74,0,0,0,638.78,724.34Z" fill="#ffffff"></path><path d="M262.51,621.57c22.24,43.9,7.22,72.38,35.18,124.3-7-29,2.43-55.68,2.43-55.68S310,744.78,325,780.12c7.28,23.46,69.85,61.4,103.55,81.17a86.33,86.33,0,0,1,2.32-43.58s11.89,49.36,35.91,63.71c13.43,7.58,30.15,11.89,35.13,11.89s34.53-11.58,50.92-54.5a56,56,0,0,1,7.9,30.68c22.18-12,53.39-25.68,72.45-47.65C659.52,787.15,659.52,726,659.52,726S676,748.85,669.93,789.3c61.76-68.3,54.34-143.14,71.42-175.57" fill="none" stroke="#592d3d" stroke-miterlimit="10" stroke-width="12px"></path><path d="M734.38,616.77a3.8,3.8,0,0,0,1.16,1.29,4,4,0,0,0,2.15.7,3.81,3.81,0,0,0,1.68-.34h0l-.09,0-.2.11-.48.24-1,.51-2,1q-2,1-4,2c-2.69,1.32-5.41,2.57-8.13,3.81s-5.5,2.41-8.27,3.57-5.6,2.23-8.47,3.26c-1.44.51-2.89,1-4.39,1.43a39.36,39.36,0,0,1-4.75,1.15c-.47.08-.81.11-1.18.16l-1.12.13c-.74.09-1.48.16-2.23.23-1.49.14-3,.3-4.49.4a85.55,85.55,0,0,1-18.09-.43c5.86-1.58,11.62-2.89,17.37-4.29l8.59-2a35.39,35.39,0,0,0,3.81-1.36c1.31-.52,2.63-1.14,4-1.72,2.65-1.19,5.29-2.47,7.93-3.77s5.29-2.61,7.93-3.93l7.94-4,4-2,2-1,1-.48.53-.25.3-.13.16-.08.05,0a4.11,4.11,0,0,1,5.19,1.57l2.13,3.38-7.06,4.19Z" fill="#592d3d"></path><path d="M271.4,568.53c-1-28.36,18-52.36,43.28-63.56a62.37,62.37,0,0,1,8.16-2.7A70,70,0,0,1,365.05,505a71.67,71.67,0,0,1,8.93,4.16c29.53,15.89,42.79,53.25,31.36,83.46a61.68,61.68,0,0,1-4.18,8.82,54.68,54.68,0,0,1-17.51,20.83,69.25,69.25,0,0,1-7.85,5c-27.38,13-64.38,9-86.45-11.4a68.39,68.39,0,0,1-6.11-7.47,64.89,64.89,0,0,1-5.57-9.5A55.78,55.78,0,0,1,272,577.1,75.67,75.67,0,0,1,271.4,568.53Z" fill="#EDD494"></path><path d="M269.77,550.18c-1-28.36,18-52.36,43.28-63.56a62.23,62.23,0,0,1,8.15-2.7,70,70,0,0,1,42.22,2.68,71.54,71.54,0,0,1,8.92,4.16c29.53,15.89,42.79,53.26,31.36,83.46a59.6,59.6,0,0,1-4.18,8.82,63.85,63.85,0,0,1-4.71,7.8,64.78,64.78,0,0,1-5.68,7,63.08,63.08,0,0,1-7.12,6.07,68.37,68.37,0,0,1-7.85,5c-27.38,13-64.38,9-86.44-11.39a68.28,68.28,0,0,1-6.11-7.48,65,65,0,0,1-5.58-9.5,55.59,55.59,0,0,1-5.71-21.73A71.3,71.3,0,0,1,269.77,550.18Z" fill="#ffffff"></path><circle cx="338.51" cy="541.79" r="12.24" fill="#592d3d"></circle><path d="M399.52,583a59.6,59.6,0,0,0,4.18-8.82,62.5,62.5,0,0,0,2.57-8.64c-68.32-7.75-127,20.81-127,20.81l1.1,1.75c.41.62.82,1.24,1.25,1.84a68.28,68.28,0,0,0,6.11,7.48c22.06,20.36,59.06,24.36,86.44,11.39a68.37,68.37,0,0,0,7.85-5,63.08,63.08,0,0,0,7.12-6.07,64.78,64.78,0,0,0,5.68-7A63.85,63.85,0,0,0,399.52,583Z" fill="#FBE8B3" stroke="#592d3d" stroke-miterlimit="10" stroke-width="6px"></path><path d="M269.77,550.18c-1-28.36,18-52.36,43.28-63.56a62.23,62.23,0,0,1,8.15-2.7,70,70,0,0,1,42.22,2.68,71.54,71.54,0,0,1,8.92,4.16c29.53,15.89,42.79,53.26,31.36,83.46a59.6,59.6,0,0,1-4.18,8.82,63.85,63.85,0,0,1-4.71,7.8,64.78,64.78,0,0,1-5.68,7,63.08,63.08,0,0,1-7.12,6.07,68.37,68.37,0,0,1-7.85,5c-27.38,13-64.38,9-86.44-11.39a68.28,68.28,0,0,1-6.11-7.48,65,65,0,0,1-5.58-9.5,55.59,55.59,0,0,1-5.71-21.73A71.3,71.3,0,0,1,269.77,550.18Z" stroke="#592d3d" stroke-miterlimit="10" fill="none" stroke-width="12px"></path><path d="M583.89,560.47c.43-15.13,6.67-30.09,15.1-41.33a72.82,72.82,0,0,1,7.12-8.53,69.73,69.73,0,0,1,90.17-8.95,73.27,73.27,0,0,1,6.53,5.13c27,21.45,30.12,63.14,15.32,93.23a62.31,62.31,0,0,1-4.78,6.86,72.09,72.09,0,0,1-7.58,8.13c-20.27,17.83-51.81,22.13-77.41,12.42a71.34,71.34,0,0,1-10.55-5c-17.9-10.78-30.37-31.09-33.43-52.23A62.93,62.93,0,0,1,583.89,560.47Z" fill="#FBE8B3"></path><path d="M589.38,549c.42-14.15,6.42-28.15,14.52-38.66a70.56,70.56,0,0,1,6.86-8A68.55,68.55,0,0,1,697.53,494a69.81,69.81,0,0,1,6.28,4.79c26,20.07,29,59.07,14.74,87.22a56.5,56.5,0,0,1-4.6,6.42,68.91,68.91,0,0,1-7.29,7.6c-19.51,16.68-49.86,20.71-74.49,11.62A68.79,68.79,0,0,1,622,606.9c-17.22-10.08-29.22-29.08-32.17-48.85A56.34,56.34,0,0,1,589.38,549Z" stroke="#592d3d" fill="#ffffff" stroke-miterlimit="10" stroke-width="12px"></path><circle cx="659.21" cy="550.79" r="12.24" fill="#592d3d"></circle><path d="M718.86,618.11c-10.23,5-20.32,9.55-31.34,12.69a97.34,97.34,0,0,1-16.46,3.3,141.1,141.1,0,0,1-17.69.3A144.2,144.2,0,0,1,633,632.48c-1.93-.31-4.13.51-4.62,2.62-.41,1.81.55,4.28,2.62,4.62a164.26,164.26,0,0,0,19.66,2.1c3.19.13,6.37.06,9.56.16a78.25,78.25,0,0,0,9.06-.21c12-1,23.62-4.28,34.76-8.76,6.32-2.55,12.52-5.4,18.63-8.42a3.77,3.77,0,0,0,1.34-5.13,3.83,3.83,0,0,0-5.13-1.35Z" fill="#592d3d"></path><path d="M365.31,627.42c-11.37,2.16-22.4,3.8-34.06,3.83a95.68,95.68,0,0,1-17-1.36,171.78,171.78,0,0,1-35.56-11.64,3.85,3.85,0,0,0-5.13,1.35c-.95,1.62-.5,4.27,1.34,5.13a164.42,164.42,0,0,0,17.87,7.1c2.91,1,5.87,1.7,8.78,2.6a91.22,91.22,0,0,0,8.91,2.35c11.95,2.42,24.22,2.37,36.31,1,6.88-.76,13.71-1.88,20.51-3.17,2-.37,3.12-2.77,2.62-4.61a3.83,3.83,0,0,0-4.62-2.62Z" fill="#592d3d"></path><g transform="translate(0 -5)"><path d="M243.89,489.13c5.64,15.83,20.9,24.06,33.4,26.94,13.06-20.24,56.65-28.92,89.37-17.44,27.8,5-10.81-25.57-72.47-9-2.31.85-14.56,2.95-30.28-9.19-2.19-1.69,4.68,13.71,12.5,20C265.06,500.21,263.2,500.22,243.89,489.13Z" fill="#592d3d" fill-rule="evenodd"></path><path d="M721.21,500.43c7.82-6.25,14.69-21.65,12.5-20-15.72,12.14-28,10-30.28,9.19-61.66-16.6-100.28,14-72.48,9,32.73-11.48,76.32-2.8,89.38,17.44,12.5-2.88,27.76-11.11,33.4-26.94C734.42,500.22,732.56,500.21,721.21,500.43Z" fill="#592d3d" fill-rule="evenodd"></path></g><path d="M443.14,621.86c0-18.9,113.72-16.06,113.72,0a56.86,56.86,0,0,1-113.72,0Z" fill="#592d3d"></path><path d="M495,643c-16.95-1-31.73,6.75-36.65,18.22a56.86,56.86,0,0,0,65.14,12.53A55.39,55.39,0,0,0,530,670.2C529.08,656.09,514.06,644.18,495,643Z" fill="#f28195"></path><path d="M443.14,621.86c0-18.9,113.72-16.06,113.72,0a56.86,56.86,0,0,1-113.72,0Z" fill="none" stroke="#592d3d" stroke-miterlimit="10" stroke-width="6px"></path><path d="M478.12,632.46c.45-.11.63-.16.92-.21l.75-.14c.49-.09,1-.14,1.46-.18a21.54,21.54,0,0,1,2.89-.1,25,25,0,0,1,5.79.81,21.4,21.4,0,0,1,10.35,6.1,20.18,20.18,0,0,1,5.08,10.16A17.27,17.27,0,0,1,504,659.25c-2.07-2.93-3.66-5.56-5.32-7.76a28.41,28.41,0,0,0-2.45-3,14.06,14.06,0,0,0-2.7-2.16,15.48,15.48,0,0,0-6.11-2.09A29.5,29.5,0,0,0,484,644c-.59,0-1.18,0-1.76.05l-.85.06-.39,0c-.1,0-.3,0-.23,0Z" fill="#592d3d"></path><path d="M425.22,300.35a148.61,148.61,0,0,1,35.91-15A151.13,151.13,0,0,1,500,280,145.16,145.16,0,0,1,539,285.08a138.61,138.61,0,0,1,35.82,15.27,315.9,315.9,0,0,0-37.19-9.13A210.64,210.64,0,0,0,500.05,288a222,222,0,0,0-37.55,3.48A366.93,366.93,0,0,0,425.22,300.35Z" fill="#592d3d"></path><path d="M425.22,328.3a148.61,148.61,0,0,1,35.91-15A151.56,151.56,0,0,1,500,308,145.15,145.15,0,0,1,539,313a138.61,138.61,0,0,1,35.82,15.27,317.89,317.89,0,0,0-37.19-9.13,210.64,210.64,0,0,0-37.54-3.23,222,222,0,0,0-37.55,3.48A369.62,369.62,0,0,0,425.22,328.3Z" fill="#592d3d"></path><path d="M574.78,328.43a310.55,310.55,0,0,1-37.2,5.68Q518.85,335.91,500,336c-12.55,0-25.1-.47-37.6-1.64a271,271,0,0,1-37.19-5.91c12.59-.39,25-.34,37.49-.37L500,328l37.29-.13C549.73,327.87,562.2,327.86,574.78,328.43Z" fill="#EDD494"></path><path d="M574.78,300.47a330.88,330.88,0,0,1-37.24,5.22q-18.72,1.63-37.53,1.71c-12.53.05-25.06-.42-37.56-1.48a288,288,0,0,1-37.23-5.45c12.57-.59,25-.7,37.47-.84L500,299.4c12.42,0,24.85-.06,37.31,0S562.22,299.7,574.78,300.47Z" fill="#EDD494"></path><path d="M871.11,500c-94.26-5.93-88.36-172.82-144.1-140.14h0l.42.69c-1.08,8.7-11.09,100.12,26.09,224.1.41-1.25.81-2.51,1.21-3.77,2,5.4,17,39.1,75.81,23.16-40.58-34.22-31.47-75.27-31.47-75.27S843.62,530.09,871.11,500Z" fill="#D69AC7"></path><path d="M871.11,500c-94.26-5.93-88.36-172.82-144.1-140.14h0l.42.69c-1.08,8.7-11.09,100.12,26.09,224.1.41-1.25.81-2.51,1.21-3.77,2,5.4,17,39.1,75.81,23.16-40.58-34.22-31.47-75.27-31.47-75.27S843.62,530.09,871.11,500Z" fill="none" stroke="#592d3d" stroke-miterlimit="10" stroke-width="12px"></path><path d="M766.75,500a121.9,121.9,0,0,1,1.52,21.66,210.12,210.12,0,0,1-1.6,21.69q-.7,5.4-1.62,10.78c-.65,3.57-1.35,7.14-2.16,10.69a190.76,190.76,0,0,1-6,21l-7.59-2.54c2.11-6.73,4.13-13.49,5.92-20.32l1.32-5.13,1.22-5.16,1.17-5.17,1.07-5.2c1.41-6.94,2.5-13.94,3.53-21S765.53,507.16,766.75,500Z" fill="#592d3d"></path><path d="M730.85,358.46A199.08,199.08,0,0,1,742,378.52c.83,1.72,1.62,3.46,2.42,5.2l2.3,5.25,2.15,5.32,2,5.36a210.27,210.27,0,0,1,6.64,21.88,127.56,127.56,0,0,1,3.37,22.58c-2.76-7.11-5.29-14.18-7.94-21.19s-5.32-13.95-8.36-20.76l-2.29-5.09-2.39-5-2.45-5-2.55-4.95c-3.43-6.59-7.09-13-10.87-19.43Z" fill="#592d3d"></path><path d="M128.89,500c94.26-5.93,88.36-172.82,144.1-140.14h0l-.42.69c1.08,8.7,11.09,100.12-26.09,224.1-.41-1.25-.81-2.51-1.21-3.77-2,5.4-17,39.1-75.81,23.16,40.58-34.22,31.47-75.27,31.47-75.27S156.38,530.09,128.89,500Z" fill="#D69AC7"></path><path d="M128.89,500c94.26-5.93,88.36-172.82,144.1-140.14h0l-.42.69c1.08,8.7,11.09,100.12-26.09,224.1-.41-1.25-.81-2.51-1.21-3.77-2,5.4-17,39.1-75.81,23.16,40.58-34.22,31.47-75.27,31.47-75.27S156.38,530.09,128.89,500Z" fill="none" stroke="#592d3d" stroke-miterlimit="10" stroke-width="12px"></path><path d="M233.25,500c1.22,7.16,2.18,14.24,3.24,21.28s2.12,14.05,3.53,21l1.07,5.2,1.17,5.17,1.22,5.16,1.32,5.13c1.79,6.83,3.8,13.59,5.92,20.32l-7.59,2.54a190.76,190.76,0,0,1-6-21c-.81-3.55-1.51-7.12-2.16-10.69s-1.15-7.18-1.62-10.78a210.12,210.12,0,0,1-1.6-21.69A121.9,121.9,0,0,1,233.25,500Z" fill="#592d3d"></path><path d="M276,362.65c-3.78,6.39-7.44,12.84-10.87,19.43L262.55,387l-2.45,5-2.39,5-2.29,5.09c-3,6.81-5.74,13.76-8.36,20.76s-5.18,14.08-7.94,21.19a127.56,127.56,0,0,1,3.37-22.58,210.27,210.27,0,0,1,6.64-21.88l2-5.36L253.3,389l2.3-5.25c.8-1.74,1.59-3.48,2.42-5.2a199.08,199.08,0,0,1,11.13-20.06Z" fill="#592d3d"></path><path d="M198.29,528.85l-1.6-15.59c-.26-2.66-.59-5.32-.79-8-.07-1.36-.15-2.72-.11-4.13a28.85,28.85,0,0,1,.3-4.29,30.11,30.11,0,0,1,4.45,7.27c.57,1.27,1.06,2.57,1.51,3.88s.88,2.63,1.29,4,.76,2.67,1.1,4,.63,2.72.89,4.09.49,2.75.65,4.15a36.91,36.91,0,0,1,.31,4.34Z" fill="#592d3d"></path><path d="M793.65,527.37a36.62,36.62,0,0,1,.88-6.66c.24-1.07.53-2.14.82-3.2s.66-2.11,1-3.15a39.45,39.45,0,0,1,2.68-6.07,17.68,17.68,0,0,1,4.45-5.25,33.5,33.5,0,0,1,.11,6.68c-.09,1-.18,2.09-.31,3.1L803,515.9l-.63,6.1c-.22,2-.43,4.09-.72,5.93Z" fill="#592d3d"></path><path d="M255.06,519.62l13-4.4,31.2-10.54,37.6-12.7,32.49-11c5.27-1.78,10.55-3.51,15.8-5.34l.23-.07a10.6,10.6,0,0,0,6-4.6,10,10,0,0,0-3.58-13.68,10,10,0,0,0-7.71-1l-13,4.39-31.2,10.54-37.6,12.71-32.49,11c-5.27,1.78-10.55,3.52-15.8,5.34l-.23.08a10.6,10.6,0,0,0-6,4.6,10,10,0,0,0,3.58,13.68,10,10,0,0,0,7.71,1Z" fill="#592d3d"></path><path d="M617.56,475l12.73,5.13,30.54,12.31,36.81,14.84,31.81,12.83c5.15,2.07,10.26,4.3,15.47,6.24l.22.08c2.25.91,5.71.16,7.71-1a10,10,0,0,0,3.58-13.69l-1.56-2a10,10,0,0,0-4.41-2.57L737.73,502l-30.54-12.32-36.81-14.84L638.57,462c-5.15-2.08-10.26-4.31-15.47-6.24l-.22-.09c-2.25-.91-5.71-.16-7.71,1a10,10,0,0,0-3.58,13.68l1.56,2a10.07,10.07,0,0,0,4.41,2.58Z" fill="#592d3d"></path><g transform="scale(0)" style="transform-origin: center center;"><circle cx="491.44" cy="157.14" r="47.48" fill="#FFFFFF"></circle><path d="M491.44,204.62a47.47,47.47,0,0,0,46.46-57.31c-30.78-4.77-62.7-2-93.77,6-.1,1.26-.17,2.53-.17,3.82A47.48,47.48,0,0,0,491.44,204.62Z" fill="#E2E2E2"></path><circle cx="491.44" cy="157.14" r="47.48" fill="none" stroke="#592d3d" stroke-miterlimit="10" stroke-width="12px"></circle><path d="M240.26,423.13a254.67,254.67,0,0,1,6.54-57.5q1.29-5.55,2.81-11c2.9-32.3,20-58.94,42.86-82.73,4.76-3.81,5.71-12.37,10.47-17.13,16.18-14.27,30.45-28.55,48.53-40,74.22-47.58,172.23-73.27,251.21-29.5,16.17,8.56,34.25,13.32,47.57,24.74,25.7,21.88,43.77,47.58,69.47,68.51,22.83,19,26.64,49.48,34.74,76.07q1.53,5.44,2.81,11a254.67,254.67,0,0,1,6.54,57.5Z" fill="#FFFFFF"></path><path d="M246.8,365.63a254.67,254.67,0,0,0-6.54,57.5h83C321.7,342.47,301,275.11,406,193,330.68,221.59,262.05,284.38,246.8,365.63Z" fill="#E2E2E2"></path><path d="M258.18,321.12a109.41,109.41,0,0,0-8.57,33.51q-1.52,5.44-2.81,11a254.67,254.67,0,0,0-6.54,57.5H440.31a827.17,827.17,0,0,1,127.59,0H763.81a254.67,254.67,0,0,0-6.54-57.5q-1.29-5.55-2.81-11c-3.46-11.37-6.15-23.44-9.86-35C582.71,259.73,419,261,258.18,321.12Z" fill="#E2E2E2"></path><path d="M240.26,423.13a254.67,254.67,0,0,1,6.54-57.5q1.29-5.55,2.81-11c2.9-32.3,20-58.94,42.86-82.73,4.76-3.81,5.71-12.37,10.47-17.13,16.18-14.27,30.45-28.55,48.53-40,74.22-47.58,172.23-73.27,251.21-29.5,16.17,8.56,34.25,13.32,47.57,24.74,25.7,21.88,43.77,47.58,69.47,68.51,22.83,19,26.64,49.48,34.74,76.07q1.53,5.44,2.81,11a254.67,254.67,0,0,1,6.54,57.5Z" fill="none" stroke="#592d3d" stroke-miterlimit="10" stroke-width="12px"></path><path d="M225.35,356.43c183.42-78,371.14-79.06,555.94,0,17.53,7.5,17.43,139.87,0,133.81-180.47-62.83-371.33-63.5-555.94,0C203.39,497.79,205.53,364.86,225.35,356.43Z" fill="#FFFFFF"></path><path d="M751.33,443.71a43.58,43.58,0,0,1,1.35,9.9c.09,3.27-.11,6.52-.26,9.78l-.36,4.87c-.16,1.62-.32,3.24-.52,4.85-.4,3.23-.89,6.44-1.59,9.61l-7.87-1.41c.44-3.17,1-6.31,1.64-9.45l1-4.71,1-4.7c.74-3.13,1.37-6.27,2.22-9.4A53.94,53.94,0,0,1,751.33,443.71Z" fill="#592d3d"></path><path d="M749.91,342.47a175.32,175.32,0,0,1,3.63,19c.43,3.19.78,6.39,1.09,9.59s.49,6.42.66,9.63c.26,6.42.37,12.84.06,19.25a114.35,114.35,0,0,1-2.45,19.11c-1-6.39-1.67-12.7-2.32-19s-1.21-12.55-2.05-18.78c-.39-3.12-.83-6.22-1.3-9.32s-1-6.19-1.52-9.27c-1.07-6.17-2.3-12.29-3.59-18.41Z" fill="#592d3d"></path><path d="M668.78,322c7.56,42.87,6.71,89.49,0,138.73" fill="none" stroke="#592d3d" stroke-miterlimit="10" stroke-width="8px"></path><path d="M598.19,307.61c5.15,42.9,4.57,89.55,0,138.83" fill="none" stroke="#592d3d" stroke-miterlimit="10" stroke-width="8px"></path><path d="M533.85,356.47a172.75,172.75,0,0,1,2.37,20.68c.4,6.9.52,13.8.65,20.71l0,10.36c0,3.45,0,6.9-.12,10.35-.15,6.9-.4,13.8-.87,20.69l-8-.4c.22-6.87.57-13.73.94-20.59l1.21-20.57c.46-6.86.82-13.73,1.35-20.6S532.69,363.36,533.85,356.47Z" fill="#592d3d"></path><path d="M535.93,299.88a58.54,58.54,0,0,1,.28,6.35c0,1.06-.05,2.12-.08,3.18L536,312.6c-.17,2.12-.32,4.25-.68,6.38a22.42,22.42,0,0,1-2.08,6.41,23.29,23.29,0,0,1-2.7-6.21c-.57-2.08-.93-4.16-1.31-6.25l-.49-3.12c-.13-1.05-.28-2.09-.39-3.13a55,55,0,0,1-.35-6.29Z" fill="#592d3d"></path><path d="M467.76,299.65c.35,43,.31,89.67,0,139" fill="none" stroke="#592d3d" stroke-miterlimit="10" stroke-width="8px"></path><path d="M403.38,306.18c-2.06,43-1.83,89.73,0,139.11" fill="none" stroke="#592d3d" stroke-miterlimit="10" stroke-width="8px"></path><path d="M333.37,391.65a161.31,161.31,0,0,1,2.71,16.78c.63,5.59,1.09,11.17,1.65,16.75l1.51,16.73c.47,5.57.93,11.15,1.25,16.74l-8,.64c-.58-5.61-.93-11.24-1.18-16.87-.13-2.82-.2-5.64-.28-8.46l-.1-8.46c0-5.64.05-11.29.35-16.93A117.52,117.52,0,0,1,333.37,391.65Z" fill="#592d3d"></path><path d="M340.48,320.18c-.25,3.65-.64,7.28-1.05,10.91l-.66,5.45-.72,5.45c-.54,3.64-.95,7.28-1.6,10.93a67.39,67.39,0,0,1-2.8,10.92,55.71,55.71,0,0,1-2-11.14c-.3-3.72-.32-7.42-.38-11.14l0-5.56c.06-1.86.11-3.71.2-5.56.2-3.71.49-7.41,1-11.09Z" fill="#592d3d"></path><path d="M264.86,340.45c-6.86,43-6.09,89.85,0,139.3" fill="none" stroke="#592d3d" stroke-miterlimit="10" stroke-width="8px"></path><path d="M753.07,434.58a3.75,3.75,0,1,0-3.75-3.75,3.8,3.8,0,0,0,3.75,3.75Z" fill="#592d3d"></path><path d="M758.28,341.38c10,42.84,8.85,89.43,0,138.64" fill="none" stroke="#E2E2E2" stroke-miterlimit="10" stroke-width="8px"></path><path d="M681,320c7.56,42.87,6.71,89.49,0,138.74" fill="none" stroke="#E2E2E2" stroke-miterlimit="10" stroke-width="8px"></path><path d="M610.38,305.45c5.15,42.9,4.57,89.55,0,138.83" fill="none" stroke="#E2E2E2" stroke-miterlimit="10" stroke-width="8px"></path><path d="M544.06,297.82c2.74,42.92,2.44,89.61,0,138.92" fill="none" stroke="#E2E2E2" stroke-miterlimit="10" stroke-width="8px"></path><path d="M479.8,297.16c.34,42.95.31,89.67,0,139" fill="none" stroke="#E2E2E2" stroke-miterlimit="10" stroke-width="8px"></path><path d="M415.34,303.53c-2.06,43-1.83,89.73,0,139.11" fill="none" stroke="#E2E2E2" stroke-miterlimit="10" stroke-width="8px"></path><path d="M348.41,317c-4.46,43-4,89.79,0,139.21" fill="none" stroke="#E2E2E2" stroke-miterlimit="10" stroke-width="8px"></path><path d="M276.74,337.64c-6.86,43-6.09,89.85,0,139.3" fill="none" stroke="#E2E2E2" stroke-miterlimit="10" stroke-width="8px"></path><path d="M225.35,356.43c183.42-78,371.14-79.06,555.94,0,17.53,7.5,17.43,139.87,0,133.81-180.47-62.83-371.33-63.5-555.94,0C203.39,497.79,205.53,364.86,225.35,356.43Z" fill="none" stroke="#592d3d" stroke-miterlimit="10" stroke-width="12px"></path><path d="M426.76,283.72A328.8,328.8,0,0,1,465.37,278c3.25-.28,6.49-.56,9.74-.78l9.75-.56c3.26-.14,6.51-.2,9.77-.3l9.77-.13c13,0,26.05.63,39,1.84a324.4,324.4,0,0,1,38.6,5.8c-13-.29-26-.79-38.88-1.13s-25.84-.49-38.75-.52h-9.68c-3.23,0-6.46.12-9.69.11l-9.68.14c-3.23.11-6.46.16-9.7.2C452.72,283,439.78,283.46,426.76,283.72Z" fill="#592d3d"></path><path d="M347.31,233.83a183.71,183.71,0,0,1,22.38-15.33c7.78-4.62,15.81-8.84,24-12.66,2-1,4.13-1.86,6.2-2.78s4.13-1.86,6.24-2.67c4.22-1.65,8.4-3.38,12.7-4.8a217,217,0,0,1,26.06-7.5c-2.07.91-4.16,1.78-6.25,2.63s-4.19,1.64-6.25,2.56c-4.15,1.74-8.31,3.42-12.43,5.22l-3.09,1.33c-1,.43-2.08.85-3.1,1.32l-6.15,2.73c-2.06.88-4.09,1.83-6.14,2.75s-4.09,1.84-6.1,2.83l-6.1,2.83c-2,1-4,2-6.05,3-4,1.94-8,4-12.05,6C363.19,225.31,355.23,229.48,347.31,233.83Z" fill="#ffffff"></path></g><path d="M725,631.82a265.34,265.34,0,0,0,26.3-59.43c-17.24,35.74-49.84,65.46-92.11,65.46A106.75,106.75,0,0,1,552.58,531.22,105.67,105.67,0,0,1,560.41,491H758a105.33,105.33,0,0,1,7.62,33.39c.73-8,1.12-16.19,1.12-24.42a269.16,269.16,0,0,0-1.58-29H575v0H423.14v0H234.83a269.16,269.16,0,0,0-1.58,29c0,4.73.14,9.42.38,14.09A104.92,104.92,0,0,1,240.1,491H437.7a106.7,106.7,0,0,1-98.8,146.82c-38.8,0-68.82-25.83-87.48-56.89a266.14,266.14,0,0,0,24.76,52.84c19.39,12.07,38.25,24.05,62.72,24.05A126.78,126.78,0,0,0,465.53,531.22c0-1.81,0-3.61-.12-5.4,23.38-8.23,45.52-8.35,67.31-.36-.08,1.91-.14,3.83-.14,5.76A126.78,126.78,0,0,0,659.21,657.85C685,657.85,705,645.1,725,631.82ZM535.26,505.18c-23.4-7.55-47.64-7.42-72.33.39A124.62,124.62,0,0,0,459,491h80.1A122.6,122.6,0,0,0,535.26,505.18Z" opacity="0.15"></path><path d="M233.59,469.82s.41,32.23.41,50.2c0,64.41,40.48,116.63,104.9,116.63A116.68,116.68,0,0,0,444.2,469.82Z" fill="#592d3d" opacity="0.95"></path><path d="M553.91,469.82a116.68,116.68,0,0,0,105.3,166.83c64.42,0,107.54-52.22,107.54-116.63,0-18-2.23-50.2-2.23-50.2Z" fill="#592d3d" opacity="0.95"></path><path d="M320,626.86,443.07,503.78a93.05,93.05,0,0,0-10-17.27L302.72,616.88A93.62,93.62,0,0,0,320,626.86Z" fill="#ffffff" opacity="0.25"></path><path d="M455.86,507.53c29.52-12,58.53-12.42,87,0" fill="none" stroke="#592d3d" stroke-miterlimit="10" stroke-width="20px"></path><path d="M274.28,504.75c2.06,6.51-5.94,11.51-11.94,12.51-6,0-10-4-12-9-1-5,0-10,4-13,5-2,12-4,16.44,1.12A11.7,11.7,0,0,1,274.28,504.75Z" fill="#ffffff"></path><path d="M285,500.93c-.61,4.33-6.61,4.33-7.61.33,0-3,1-4,3.84-4.1A3.77,3.77,0,0,1,285,500.93Z" fill="#ffffff"></path><path d="M645.19,618.92,751.47,512.64a93.89,93.89,0,0,0-2.41-11.22L634,616.51A94.31,94.31,0,0,0,645.19,618.92Z" fill="#ffffff" opacity="0.25"></path><path d="M590.68,505.73c2.06,6.51-5.94,11.51-11.94,12.51-6,0-10-4-12-9-1-5,0-10,4-13,5-2,12-4,16.45,1.12A11.69,11.69,0,0,1,590.68,505.73Z" fill="#ffffff"></path><path d="M601.35,501.91c-.61,4.33-6.61,4.33-7.61.33,0-3,1-4,3.85-4.1A3.76,3.76,0,0,1,601.35,501.91Z" fill="#ffffff"></path><path d="M233.59,469.82s-.34,31.69.41,50.2c2.6,64.36,40.48,116.63,104.9,116.63A116.68,116.68,0,0,0,444.2,469.82Z" fill="none" stroke="#592d3d" stroke-miterlimit="10" stroke-width="20px"></path><path d="M553.91,469.82a116.68,116.68,0,0,0,105.3,166.83c64.42,0,107.54-51.53,107.54-115.94,0-18-2.23-50.89-2.23-50.89Z" fill="none" stroke="#592d3d" stroke-miterlimit="10" stroke-width="20px"></path><line x1="423.14" y1="469.81" x2="574.97" y2="469.81" fill="none" stroke="#592d3d" stroke-miterlimit="10" stroke-width="20px"></line></g></svg>