<?xml version="1.0" encoding="utf-8"?>
<!-- Generator: Adobe Illustrator 24.0.0, SVG Export Plug-In . SVG Version: 6.00 Build 0)  -->
<svg version="1.1" id="Layer_1" xmlns="http://www.w3.org/2000/svg" xmlns:xlink="http://www.w3.org/1999/xlink" x="0px" y="0px"
	 viewBox="0 0 96 51.1" style="enable-background:new 0 0 96 51.1;" xml:space="preserve">
<style type="text/css">
	.st0{fill:#BA8A10;fill-opacity:0.8;}
	.st1{fill:#BA8A10;}
</style>
<path class="st0" d="M7,41v7H5.8v-6H2.2v6H1.1v-7H7z M10.4,48H9.2v-7h1.1V48z M19.4,50.4h-1.1V48h-5.8v-7h1.1v6h3.6v-6h1.1v6h1V50.4
	z M23.4,40.9c0.8,0,1.5,0.2,1.9,0.6c0.4,0.4,0.6,1,0.6,1.8V48h-0.8l-0.2-1h-0.1c-0.3,0.4-0.6,0.7-1,0.8c-0.3,0.2-0.8,0.3-1.4,0.3
	c-0.6,0-1.2-0.2-1.6-0.5c-0.4-0.3-0.6-0.9-0.6-1.6c0-0.7,0.3-1.2,0.8-1.6c0.5-0.4,1.4-0.6,2.5-0.6l1.2,0v-0.4c0-0.6-0.1-1-0.4-1.2
	c-0.3-0.2-0.6-0.3-1.1-0.3c-0.4,0-0.7,0.1-1,0.2c-0.3,0.1-0.6,0.2-0.9,0.4L21,41.5c0.3-0.2,0.7-0.3,1.1-0.4
	C22.5,41,23,40.9,23.4,40.9z M24.8,44.6l-1,0c-0.9,0-1.5,0.2-1.8,0.4c-0.3,0.2-0.5,0.6-0.5,1c0,0.4,0.1,0.7,0.4,0.9
	c0.2,0.2,0.6,0.3,0.9,0.3c0.6,0,1.1-0.2,1.5-0.5c0.4-0.3,0.6-0.8,0.6-1.5V44.6z M32.6,41v2.9h3.8V41h1.1v7h-1.1v-3.1h-3.8V48h-1.1
	v-7H32.6z M42.4,40.9c0.8,0,1.5,0.2,1.9,0.6c0.4,0.4,0.6,1,0.6,1.8V48H44l-0.2-1h-0.1c-0.3,0.4-0.6,0.7-1,0.8
	c-0.3,0.2-0.8,0.3-1.4,0.3c-0.6,0-1.2-0.2-1.6-0.5c-0.4-0.3-0.6-0.9-0.6-1.6c0-0.7,0.3-1.2,0.8-1.6c0.5-0.4,1.4-0.6,2.5-0.6l1.2,0
	v-0.4c0-0.6-0.1-1-0.4-1.2c-0.3-0.2-0.6-0.3-1.1-0.3c-0.4,0-0.7,0.1-1,0.2c-0.3,0.1-0.6,0.2-0.9,0.4L40,41.5
	c0.3-0.2,0.7-0.3,1.1-0.4C41.5,41,41.9,40.9,42.4,40.9z M43.7,44.6l-1,0c-0.9,0-1.5,0.2-1.8,0.4c-0.3,0.2-0.5,0.6-0.5,1
	c0,0.4,0.1,0.7,0.4,0.9c0.2,0.2,0.6,0.3,0.9,0.3c0.6,0,1.1-0.2,1.5-0.5c0.4-0.3,0.6-0.8,0.6-1.5V44.6z M55.6,41v6h1v3.4h-1.1V48
	h-4.8v2.4h-1.1V47h0.6c0.6-0.8,1-1.8,1.3-2.8c0.3-1.1,0.5-2.1,0.5-3.2H55.6z M54.5,41.9h-1.5c0,0.6-0.1,1.2-0.3,1.8
	c-0.1,0.6-0.3,1.2-0.6,1.8c-0.2,0.6-0.5,1.1-0.8,1.5h3.2V41.9z M61.3,40.9c0.9,0,1.5,0.3,2.1,0.9c0.5,0.6,0.8,1.5,0.8,2.7
	c0,1.2-0.3,2.1-0.8,2.7c-0.5,0.6-1.2,0.9-2.1,0.9c-0.5,0-1-0.1-1.3-0.3c-0.3-0.2-0.6-0.4-0.8-0.7H59c0,0.1,0,0.3,0.1,0.6
	c0,0.2,0,0.4,0,0.6v2.9h-1.1V41h0.9L59,42h0.1c0.2-0.3,0.5-0.6,0.8-0.8S60.7,40.9,61.3,40.9z M61,41.9c-0.7,0-1.2,0.2-1.5,0.6
	c-0.3,0.4-0.4,1-0.5,1.8v0.2c0,0.9,0.1,1.5,0.4,2c0.3,0.5,0.8,0.7,1.6,0.7c0.4,0,0.8-0.1,1-0.4c0.3-0.2,0.5-0.6,0.6-0.9
	c0.1-0.4,0.2-0.9,0.2-1.4c0-0.8-0.2-1.4-0.5-1.9C62.2,42.1,61.7,41.9,61,41.9z M72,44.5c0,1.2-0.3,2-0.9,2.7
	c-0.6,0.6-1.4,0.9-2.4,0.9c-0.6,0-1.2-0.1-1.7-0.4c-0.5-0.3-0.9-0.7-1.1-1.2c-0.3-0.5-0.4-1.2-0.4-2c0-1.2,0.3-2,0.9-2.7
	c0.6-0.6,1.4-0.9,2.4-0.9c0.6,0,1.2,0.1,1.7,0.4c0.5,0.3,0.9,0.7,1.1,1.2C71.9,43.1,72,43.7,72,44.5z M66.7,44.5
	c0,0.8,0.2,1.5,0.5,2c0.3,0.5,0.8,0.7,1.6,0.7c0.7,0,1.2-0.2,1.5-0.7c0.3-0.5,0.5-1.1,0.5-2c0-0.8-0.2-1.5-0.5-1.9
	c-0.3-0.5-0.8-0.7-1.6-0.7c-0.7,0-1.2,0.2-1.5,0.7C66.9,43,66.7,43.7,66.7,44.5z M79.4,42.8c0,0.4-0.1,0.8-0.4,1
	c-0.3,0.2-0.6,0.4-1,0.5v0.1c0.4,0.1,0.8,0.2,1.1,0.5c0.3,0.2,0.5,0.6,0.5,1.1c0,0.6-0.2,1.1-0.7,1.5c-0.4,0.4-1.2,0.6-2.2,0.6h-3
	v-7h3c0.5,0,0.9,0.1,1.3,0.2c0.4,0.1,0.7,0.3,0.9,0.5C79.3,42,79.4,42.3,79.4,42.8z M78.3,42.9c0-0.3-0.1-0.6-0.4-0.7
	c-0.2-0.2-0.6-0.2-1.2-0.2H75v1.9h1.6C77.7,43.9,78.3,43.6,78.3,42.9z M78.5,46c0-0.4-0.2-0.7-0.5-0.9c-0.3-0.2-0.7-0.3-1.3-0.3H75
	v2.2h1.7c0.6,0,1-0.1,1.3-0.2C78.3,46.7,78.5,46.4,78.5,46z M83.9,40.9c0.8,0,1.5,0.2,1.9,0.6c0.4,0.4,0.6,1,0.6,1.8V48h-0.8l-0.2-1
	h-0.1c-0.3,0.4-0.6,0.7-1,0.8C84,48,83.6,48.1,83,48.1c-0.6,0-1.2-0.2-1.6-0.5c-0.4-0.3-0.6-0.9-0.6-1.6c0-0.7,0.3-1.2,0.8-1.6
	c0.5-0.4,1.4-0.6,2.5-0.6l1.2,0v-0.4c0-0.6-0.1-1-0.4-1.2s-0.6-0.3-1.1-0.3c-0.4,0-0.7,0.1-1,0.2c-0.3,0.1-0.6,0.2-0.9,0.4l-0.4-0.9
	c0.3-0.2,0.7-0.3,1.1-0.4C83.1,41,83.5,40.9,83.9,40.9z M85.3,44.6l-1,0c-0.9,0-1.5,0.2-1.8,0.4c-0.3,0.2-0.5,0.6-0.5,1
	c0,0.4,0.1,0.7,0.4,0.9c0.2,0.2,0.6,0.3,0.9,0.3c0.6,0,1.1-0.2,1.5-0.5c0.4-0.3,0.6-0.8,0.6-1.5V44.6z M90.2,44.4L87.8,41h1.3
	l1.8,2.6l1.8-2.6H94l-2.4,3.4l2.5,3.6h-1.3l-1.9-2.8L89,48h-1.3L90.2,44.4z"/>
<path class="st1" d="M5.5,18.8H0.6c-0.3,0-0.6,0.3-0.6,0.6v15.8h4.8c0.3,0,0.6-0.3,0.6-0.6V18.8z"/>
<path class="st1" d="M6.9,21.4l3.3-3.2l6.2,7.7l5.4-7.1H25v15.4c0,0.6-0.5,1-1.1,1H20v-9.6l-4.5,5.9c-0.2,0.3-0.6,0.3-0.9,0L10,25.7
	l0.1,8.6L9,35c-0.5,0.3-1,0.5-1.6,0.5H7.2V22.7l-0.4-0.4C6.6,22,6.6,21.7,6.9,21.4z"/>
<path class="st1" d="M53.3,18.8H42.1c-0.3,0-0.6,0.3-0.6,0.6v15.2c0,0.3,0.3,0.6,0.6,0.6h11.2c0.2,0,0.4-0.2,0.4-0.4
	c0-0.2-0.1-0.4-0.2-0.6l-1-1.5c-0.1-0.1-0.2-0.2-0.4-0.2H47c-0.2,0-0.4-0.2-0.4-0.4v-11c0-0.2,0.2-0.4,0.4-0.4h5L53.3,18.8z"/>
<path class="st1" d="M49.8,23.5l-3.1,2.7l2.7,3.4l3.6-2.7c0.1,0,0.1-0.1,0-0.2L49.8,23.5z"/>
<path class="st1" d="M65.9,27.4h0.3c0.9-0.5,1.5-1.2,1.9-1.9c0.7-1.2,0.8-2.6,0.2-3.9c-0.4-0.9-1.1-1.6-1.8-2
	c-1-0.6-2.1-0.9-3.2-0.9h-7.6c-0.6,0-1.1,0.5-1.2,1.1l-0.2,15.2c0,0.1,0.1,0.1,0.1,0.1h5.4c0.1,0,0.1-0.1,0.1-0.1V29
	c0-0.1,0.1-0.1,0.1-0.1l0.8,0.2c0,0,0.1,0,0.1,0l5.3,6.9c0,0.1,0.1,0.1,0.2,0l4-3.6c0,0,0.1-0.1,0-0.2L65.9,27.4z M59.9,27.3v-6.6
	c0-0.1,0.1-0.1,0.1-0.1c1.6,0.2,3.8,0.9,3.8,3.5c0,2.5-3,3.3-3.7,3.4C59.9,27.4,59.9,27.3,59.9,27.3z"/>
<path class="st1" d="M76.3,18.8h-4.8c-0.4,0-0.8,0.3-0.8,0.8v15.6h4.8c0.4,0,0.8-0.3,0.8-0.8V18.8z"/>
<path class="st1" d="M86.5,18.1L82.1,21l1.4,2.2L77,32.5v1.7l1.3,1.8l6.9-10l6.1,10l4.6-3.5L86.5,18.1z"/>
<path class="st1" d="M84.8,28.6l-3.2,3.3l3.2,3.5l3.6-3.4L84.8,28.6z"/>
<path class="st1" d="M38.4,19.7c-0.9-0.6-2-0.9-3.1-0.9h-7.9c-0.5,0-0.9,0.4-0.9,0.8v14.1c0,0.4,0.2,0.8,0.4,1l0.1,0.1
	c0.3,0.3,0.6,0.4,1.1,0.4h4.4c0.1,0,0.1-0.1,0.1-0.1v-0.8h-0.4v-4.9c0,0,8.1,0.2,8.3-4.9C40.6,21.9,39.5,20.5,38.4,19.7z M32.2,27.8
	v-7.1c2.6,0.3,3.8,1.7,3.8,3.6C35.9,27.4,32.2,27.8,32.2,27.8z"/>
<path class="st1" d="M55.7,14.3h-23l-3.9-7.6L39,7.6L43.5,0l4.9,7.8l9.1-1.5L55.7,14.3z"/>
</svg>
