<svg width="289" height="59" viewBox="0 0 289 59" fill="none" xmlns="http://www.w3.org/2000/svg">
<path d="M29.9135 33.029H35.732V1.53583H28.2712L17.8386 25.246L7.41386 1.53583H0V33.029H5.77155V11.7982L15.0858 33.029H20.5602L29.9135 11.6217V33.029Z" fill="#231F20"/>
<path d="M71.4096 27.1476H53.0001V20.1108H68.6959V14.2775H53.0001V7.46537H71.4096V1.53583H47.2207V33.029H71.4096V27.1476Z" fill="#231F20"/>
<path d="M109.996 17.3266C110.001 15.2572 109.609 13.2071 108.841 11.2935C108.073 9.37997 106.945 7.6405 105.521 6.17463C104.098 4.70875 102.406 3.54524 100.544 2.75065C98.6815 1.95606 96.6848 1.54599 94.6678 1.54388H81.9985V33.029H94.6678C98.7284 33.0269 102.622 31.3726 105.496 28.429C108.369 25.4854 109.988 21.4927 109.996 17.3266ZM87.7701 7.4975H94.8086C97.3051 7.57064 99.6754 8.63954 101.416 10.4771C103.157 12.3147 104.13 14.7762 104.13 17.3386C104.13 19.901 103.157 22.3625 101.416 24.2001C99.6754 26.0377 97.3051 27.1066 94.8086 27.1797H87.7701V7.4975Z" fill="#231F20"/>
<path d="M161.283 25.7756H169.174C175.978 25.7756 181.687 20.4237 181.687 13.6597C181.687 6.89571 175.915 1.54388 169.174 1.54388H155.503V33.029H161.283V25.7756ZM161.283 7.37714H169.002C172.787 7.37714 175.899 10.2496 175.899 13.6597C175.899 17.0698 172.92 19.9824 169.127 19.9824H161.306L161.283 7.37714Z" fill="#231F20"/>
<path d="M194.075 29.0492H210.412L212.132 33.0611H218.467L205.023 1.54388H199.463L186.098 33.029H192.432L194.075 29.0492ZM202.278 9.15038L208.097 23.3043H196.444L202.278 9.15038Z" fill="#231F20"/>
<path d="M240.74 6.44635C242.678 6.43095 244.582 6.96914 246.24 8.00073C247.897 9.03232 249.242 10.5166 250.124 12.2876L255.301 9.59165C253.616 6.25117 250.887 3.5881 247.55 2.02959C244.214 0.471084 240.464 0.107468 236.902 0.997068C233.34 1.88667 230.172 3.97793 227.907 6.9354C225.642 9.89288 224.411 13.5452 224.411 17.3065C224.411 21.0678 225.642 24.7201 227.907 27.6775C230.172 30.635 233.34 32.7263 236.902 33.6159C240.464 34.5055 244.214 34.1419 247.55 32.5834C250.887 31.0249 253.616 28.3618 255.301 25.0213L250.124 22.2371C249.248 24.0189 247.906 25.5161 246.249 26.5616C244.592 27.6072 242.685 28.16 240.74 28.1586C237.933 28.1586 235.242 27.0148 233.258 24.9789C231.273 22.943 230.158 20.1817 230.158 17.3025C230.158 14.4232 231.273 11.6619 233.258 9.62603C235.242 7.59012 237.933 6.44635 240.74 6.44635Z" fill="#231F20"/>
<path d="M289 7.46537V1.53583H264.827V33.029H289V27.1476H270.598V20.1108H286.067V14.2775H270.598V7.46537H289Z" fill="#231F20"/>
<path d="M144.226 5.17067C140.934 2.88818 137.199 1.36606 133.277 0.709473L130.759 6.45447C133.606 6.5668 137.11 7.69815 140.989 10.2096L144.226 5.17067Z" fill="#231F20"/>
<path d="M145.344 24.6282C145.344 16.0187 134.013 14.6948 128.038 12.6648L125.637 18.145C131.705 20.5521 139.495 21.0977 139.495 24.7164C139.495 26.3212 137.078 28.1185 133.066 28.1185C130.22 28.1185 126.81 26.947 122.9 24.3795L120.397 30.0843C124.909 32.8365 129.101 34.0962 132.855 34.0962C140.433 34.0882 145.344 29.7072 145.344 24.6282Z" fill="#231F20"/>
<path d="M67.7963 49.5178H65.9585V57.1403H67.2645V51.4836L69.5325 57.1403H70.0877L72.3791 51.4836V57.1403H73.6773V49.5178H71.8395L69.814 54.5406L67.7963 49.5178Z" fill="#231F20"/>
<path d="M83.3202 55.9688H79.535V53.8506H83.242V52.6711H79.535V50.6972H83.3202V49.5178H78.229V57.1403H83.3202V55.9688Z" fill="#231F20"/>
<path d="M94.7847 58.5525V55.9688H94.0965V49.5499H89.0444L88.6143 53.4735C88.5614 54.04 88.4514 54.5993 88.2858 55.1424C88.2037 55.4312 88.0469 55.6918 87.8323 55.8966C87.6269 56.0341 87.389 56.1118 87.144 56.1213V58.5846H88.4423V57.1403H93.4865V58.5525H94.7847ZM92.7905 55.9688H88.9271C89.5193 55.3097 89.8655 54.4572 89.9047 53.5617L90.2175 50.7293H92.7905V55.9688Z" fill="#231F20"/>
<path d="M98.7422 49.5178V57.1403H100.001L103.88 51.7002V57.1403H105.186V49.5178H103.849L100.048 54.8134V49.5178H98.7422Z" fill="#231F20"/>
<path d="M109.519 49.5178V51.5397C109.481 52.2774 109.722 53.0015 110.192 53.5617C110.457 53.8208 110.772 54.0202 111.117 54.1473C111.461 54.2744 111.828 54.3264 112.194 54.2999C112.775 54.3168 113.355 54.2271 113.906 54.0351V57.1644H115.212V49.5418H113.906V52.8316C113.408 53.0306 112.877 53.1287 112.342 53.1204C112.133 53.1488 111.92 53.1263 111.721 53.0546C111.522 52.983 111.342 52.8642 111.195 52.708C111.049 52.5518 110.941 52.3624 110.879 52.1553C110.818 51.9481 110.804 51.729 110.841 51.5157V49.5178H109.519Z" fill="#231F20"/>
<path d="M121.031 53.8185H124.894V57.1403H126.2V49.5178H124.894V52.639H121.031V49.5178H119.725V57.1403H121.031V53.8185Z" fill="#231F20"/>
<path d="M137.188 57.1403V49.5178H135.85L132.05 54.8134V49.5178H130.744V57.1403H132.003L135.882 51.7002V57.1403H137.188Z" fill="#231F20"/>
<path d="M143.53 47.6642L142.991 48.1216C143.214 48.4402 143.509 48.6981 143.851 48.8729C144.193 49.0477 144.572 49.1341 144.954 49.1246C145.335 49.137 145.714 49.0518 146.055 48.8767C146.396 48.7016 146.69 48.4421 146.909 48.1216L146.369 47.6642C146.216 47.9035 146.005 48.0985 145.757 48.2305C145.509 48.3626 145.233 48.4273 144.954 48.4185C144.674 48.4249 144.397 48.3592 144.148 48.2274C143.9 48.0957 143.687 47.902 143.53 47.6642Z" fill="#231F20"/>
<path d="M143.037 54.8134V49.5178H141.739V57.1403H142.991L146.87 51.7002V57.1403H148.176V49.5178H146.838L143.037 54.8134Z" fill="#231F20"/>
<path d="M165.029 57.1403V49.5178H158.553V57.1403H159.851V50.6972H163.723V57.1403H165.029Z" fill="#231F20"/>
<path d="M174.617 50.1998C174.384 49.9657 174.105 49.7841 173.799 49.6666C173.494 49.5492 173.168 49.4985 172.842 49.5178H169.573V57.1403H170.879V54.2999H172.842C173.169 54.3171 173.496 54.2639 173.801 54.1437C174.107 54.0234 174.385 53.8389 174.617 53.6019C175.035 53.1391 175.267 52.5316 175.267 51.9008C175.267 51.2701 175.035 50.6626 174.617 50.1998ZM173.577 52.7834C173.325 53.0117 172.998 53.1323 172.662 53.1204H170.879V50.7133H172.662C172.997 50.6985 173.324 50.8162 173.577 51.0423C173.694 51.1546 173.786 51.2916 173.847 51.444C173.908 51.5964 173.936 51.7604 173.929 51.9249C173.933 52.0855 173.904 52.2453 173.844 52.3934C173.783 52.5415 173.692 52.6745 173.577 52.7834Z" fill="#231F20"/>
<path d="M186.575 53.3371C186.592 52.8158 186.507 52.2963 186.324 51.8096C186.142 51.3229 185.865 50.8791 185.511 50.5047C184.772 49.7863 183.792 49.3859 182.774 49.3859C181.756 49.3859 180.776 49.7863 180.037 50.5047C179.353 51.2795 178.974 52.2876 178.974 53.333C178.974 54.3785 179.353 55.3866 180.037 56.1614C180.776 56.8798 181.756 57.2802 182.774 57.2802C183.792 57.2802 184.772 56.8798 185.511 56.1614C185.865 55.7888 186.142 55.3464 186.325 54.861C186.508 54.3755 186.593 53.8571 186.575 53.3371ZM184.557 55.3109C184.326 55.5575 184.05 55.7537 183.743 55.8877C183.437 56.0217 183.107 56.0908 182.774 56.0908C182.441 56.0908 182.111 56.0217 181.805 55.8877C181.498 55.7537 181.221 55.5575 180.991 55.3109C180.529 54.7655 180.288 54.0591 180.318 53.3371C180.289 52.6128 180.53 51.9043 180.991 51.3552C181.221 51.1086 181.498 50.9124 181.805 50.7784C182.111 50.6444 182.441 50.5753 182.774 50.5753C183.107 50.5753 183.437 50.6444 183.743 50.7784C184.05 50.9124 184.326 51.1086 184.557 51.3552C184.997 51.9156 185.237 52.6135 185.237 53.333C185.237 54.0526 184.997 54.7505 184.557 55.3109Z" fill="#231F20"/>
<path d="M194.364 50.5769C194.747 50.5751 195.124 50.6835 195.451 50.8898C195.776 51.0809 196.046 51.3579 196.233 51.6922L197.343 51.1064C197.045 50.5684 196.609 50.1242 196.082 49.8216C195.556 49.5191 194.959 49.3696 194.356 49.3894C193.843 49.3743 193.333 49.4645 192.855 49.6546C192.377 49.8448 191.94 50.1311 191.572 50.4966C190.859 51.2612 190.46 52.2787 190.46 53.337C190.46 54.3954 190.859 55.4129 191.572 56.1774C191.944 56.5372 192.383 56.8169 192.863 57.0002C193.342 57.1834 193.852 57.2665 194.364 57.2446C194.965 57.2608 195.56 57.1107 196.086 56.81C196.611 56.5093 197.048 56.0691 197.351 55.5356L196.241 54.9498C196.051 55.2811 195.781 55.5572 195.459 55.7522C195.127 55.9536 194.749 56.059 194.364 56.0571C194.021 56.0643 193.68 55.9965 193.364 55.8582C193.049 55.7198 192.766 55.5141 192.534 55.2547C192.29 54.992 192.101 54.6821 191.976 54.3431C191.851 54.0042 191.793 53.643 191.806 53.2809C191.794 52.9176 191.852 52.5555 191.977 52.2153C192.102 51.8751 192.291 51.5637 192.534 51.299C192.774 51.0557 193.06 50.866 193.375 50.7418C193.69 50.6175 194.027 50.5614 194.364 50.5769Z" fill="#231F20"/>
<path d="M204.445 57.1403V50.6972H206.689V49.5178H200.886V50.6972H203.139V57.1403H204.445Z" fill="#231F20"/>
<path d="M212.069 49.5178H210.763V57.1483H212.069V49.5178Z" fill="#231F20"/>
<path d="M216.613 57.1403H217.919V54.2999H219.882C220.209 54.3171 220.536 54.2639 220.842 54.1437C221.148 54.0234 221.426 53.8389 221.658 53.6019C222.079 53.1409 222.313 52.5327 222.313 51.9008C222.313 51.269 222.079 50.6608 221.658 50.1998C221.424 49.9657 221.146 49.7841 220.84 49.6666C220.534 49.5492 220.208 49.4985 219.882 49.5178H216.621L216.613 57.1403ZM217.911 50.7213H219.695C220.03 50.7039 220.358 50.822 220.61 51.0503C220.729 51.1612 220.823 51.2978 220.886 51.4504C220.948 51.6029 220.976 51.7677 220.969 51.9329C220.976 52.0969 220.948 52.2605 220.885 52.4118C220.823 52.563 220.729 52.6982 220.61 52.8075C220.359 53.0379 220.031 53.1589 219.695 53.1445H217.919L217.911 50.7213Z" fill="#231F20"/>
</svg>
