<svg xmlns="http://www.w3.org/2000/svg" xmlns:xlink="http://www.w3.org/1999/xlink" version="1.1" id="ﾃ神xA1_ﾃ神xBB_ﾃ神xBE_ﾃ神xB9__1" x="0px" y="0px" style="enable-background:new 0 0 420 595;" xml:space="preserve" viewBox="60.5 269.26 288.41 91.64">
<style type="text/css">
	.st0{fill-rule:evenodd;clip-rule:evenodd;fill:#3B5159;}
	.st1{fill:#FFFFFF;}
	.st2{fill-rule:evenodd;clip-rule:evenodd;fill:#3B5159;stroke:#000000;stroke-width:0.216;stroke-miterlimit:22.9256;}
</style>
<g>
	<path class="st0" d="M285.2,270.8c-2.1,3.4,3.4,8.1,10,13c-4.9,2.7-9.8,5.4-14.7,8.2c0.7,0.7,1.4,1.4,2.1,2.1   c7.5-1.4,15.2-3.2,22.7-4.7c-2.9-1.5-6.1-3.2-8.3-5c9.1,4.4,18.2,7.9,26.7,10.3c-0.6,1.1-1.3,2.3-1.8,3.5c0.4,0.4,0.9,0.7,1.5,1   c5.1-2.4,10.4-4,15.4-5.7c-0.7-0.5-1.3-0.9-2-1.3c-1.8,0.1-3.6,0.3-5.4,0.4c0.3-1.9,0.7-3.7,1.2-5.7c-1.1-0.4-1.9-0.6-3-1   c-1.5,1.3-3.2,3-4.7,4.2c-1.9-1.2-3.3-1.9-5.2-3.1c2,1.6,3.4,2.4,5.2,3.8c1.6-1.7,3.1-2.7,4.7-4.4c0.6,0.2,1.1,0.3,1.8,0.7   c-0.6,1.5-1.7,4-2.3,5.5c-0.5,1.1-1.6,1-2.5,0.6c0.1,0.7,0.5,1.5-0.7,1.3c-4.5-2.5-8.1-5.2-10.5-8c10.1-4.2,20.6-8.2,30.7-12.4   c-0.1-1.1-1.3-2.1-3.7-2.9c-7.8,1.7-15.7,3.4-23.5,5.1c-0.3,0.7-0.2,1.5,0,2.3c-1.2-0.5-2.2-1.1-3-2c-4.2,1.2-8.5,2.7-12.7,3.9   c2.3,1.9,5.3,4.2,7.6,6.1c-7.9-3.2-16.1-7.7-23.1-14.4c0.4-0.4,1-0.5,1.9-0.3c3.2,2.7,6.6,5.2,10.6,7c-3.9-2.3-7.2-4.8-9.3-7.5   c3.8-1.9,9.8,1,16.4,5.3c-2-2.6-5.5-5-12.7-7.3c-1.4-0.1-2.7-0.3-4.5,0.1C287.8,269.1,286.3,269.7,285.2,270.8z"/>
	<path class="st0" d="M261.2,357.8c-2,0-3.5-1.6-3.5-3.5c0-2,1.6-3.5,3.5-3.5h4.6c2,0,3.5,1.6,3.5,3.5c0,2-1.6,3.5-3.5,3.5H261.2   L261.2,357.8z M312.6,307.3c-0.5,0-1,0-1.5,0c-0.2,0-0.4,0-0.6,0h-34.9c-2,0-3.5,1.6-3.5,3.5c0,2,1.6,3.5,3.5,3.5h8.7   c2,0.1,3.5,1.7,3.5,3.7c0,2-1.6,3.5-3.5,3.5c-7.6,0-15.1,0.1-22.9,0.1c-2,0-3.5,1.6-3.5,3.5c0,2,1.6,3.5,3.5,3.5   c5.6,0,11.7,0,17.1,0c2,0,3.5,1.7,3.5,3.7c0,2-1.6,3.5-3.5,3.5c-2.4,0-5.3,0-8,0c-2,0-3.5,1.7-3.5,3.7c0,2,1.6,3.5,3.5,3.5   c4.3,0,8.3,0,12.6,0c2,0,3.5,1.7,3.5,3.7c0,2-1.6,3.5-3.5,3.5H278c-1.9,0-3.4,1.8-3.4,3.7c0,2,1.6,3.5,3.5,3.5h34c0,0,0.1,0,0.1,0   c0.1,0,0.2,0,0.2,0c14,0,25.4-11.3,25.4-25.2C338,318.6,326.6,307.3,312.6,307.3L312.6,307.3z M258.3,314.4c-2,0-3.5-1.6-3.5-3.5   c0-2,1.6-3.5,3.5-3.5h5.2c2,0,3.5,1.6,3.5,3.5c0,2-1.6,3.5-3.5,3.5H258.3z"/>
	<path class="st1" d="M293.4,320.2c6-3.3,12-6.6,18-9.9l17.7,10.2l0.1,2.6l0.6,20.2l-0.7,0.4l-16.4,9.2l-1.4,0.7l-1.3-0.7l-18-9.9   l0-20.6l0-1.5L293.4,320.2L293.4,320.2z M296.1,321.8l15.1,8.7l14.9-8.6l-14.7-8.5L296.1,321.8L296.1,321.8z M326.6,324.7l-14,8.1   l0.1,17.2l14.4-8.1L326.6,324.7L326.6,324.7z M310,350l-0.1-17.2l-15.2-8.7l0,17.5L310,350z"/>
	<path class="st2" d="M338.6,295.8c6.3,6.6,10.2,15.5,10.2,25.3c0,19.2-14.9,34.9-33.9,36.5c14.7-2.2,26-14.9,26-30.2   c0-11.3-6.2-21.2-15.3-26.5L338.6,295.8z"/>
	<path class="st0" d="M79,322.6c0,3.3-1.3,5.1-5.4,5.1c-3.1,0-5.6-2.2-6-4.4l-7.1,2.3c1.1,4.1,5.5,8.4,13.3,8.4   c8.8,0,12.9-4,12.9-11.3v-15.3H79V322.6L79,322.6z M124,333.1v-6.5h-23.8v-4h22.5v-5.4h-22.5v-3.9h23.3v-5.9H92.6v25.7H124   L124,333.1z M146.4,333.1v-19.3h12.7v-6.5h-32.9v6.5h12.7v19.3H146.4L146.4,333.1z M196,333.1c10.8,0,14.5-4.1,14.5-12.8   c0-8.8-3.6-12.9-14.5-12.9h-20v25.7H196L196,333.1z M183.6,326.5v-13.3h12.5c4.3,0,6.5,1.3,6.5,6.8c0,5.1-2.2,6.5-6.5,6.5H183.6   L183.6,326.5z M236.7,326.9c7.8,0,11.6-4.4,11.6-10.1c0-5.7-3.8-9.4-11.3-9.4h-21.2v25.7h7.6v-6.2H236.7L236.7,326.9z M236.9,313.5   c1.8,0,3.2,0.8,3.2,3.3c0,3.6-1.4,3.8-3.2,3.8h-13.6v-7.1H236.9z"/>
	<path class="st0" d="M70.9,357.4h-3.5c-2.5,0-3.8-1.2-3.8-3.5v-1v-1c0-1.1,0.3-1.9,0.9-2.5c0.7-0.7,1.6-1,2.9-1h3.5   c0.8,0,1.5,0.2,2,0.5c0.2,0.1,0.4,0.3,0.6,0.5v-4.6h1.3v12.5h-1.3v-0.9c-0.3,0.2-0.5,0.4-0.7,0.4C72.2,357.3,71.6,357.4,70.9,357.4   L70.9,357.4z M73.5,353.9V352c0-0.7-0.2-1.3-0.7-1.7c-0.5-0.5-1.2-0.7-2.1-0.7h-2.9c-1,0-1.8,0.2-2.2,0.6c-0.5,0.4-0.7,1-0.7,1.8   v1.9c0,0.8,0.2,1.4,0.7,1.8c0.5,0.4,1.2,0.6,2.2,0.6h2.9c0.9,0,1.6-0.2,2.1-0.7C73.2,355.2,73.5,354.6,73.5,353.9L73.5,353.9z    M77.4,352c0-1.1,0.3-1.9,0.9-2.5c0.7-0.7,1.7-1,3-1h3.6c1.4,0,2.4,0.3,3,1c0.6,0.6,0.8,1.4,0.8,2.4v1.9c0,1-0.3,1.9-0.9,2.5   c-0.7,0.7-1.7,1.1-3,1.1h-3.6c-1.3,0-2.3-0.3-2.9-0.9c-0.6-0.6-1-1.5-1-2.6v-1V352L77.4,352z M78.7,353.9c0,1.6,0.9,2.4,2.7,2.4   h3.4c0.8,0,1.5-0.2,2-0.6c0.5-0.4,0.7-1,0.7-1.8V352c0-0.8-0.2-1.4-0.7-1.8c-0.5-0.4-1.1-0.6-2-0.6h-3.4c-0.9,0-1.6,0.2-2,0.6   c-0.4,0.4-0.7,1-0.7,1.8V353.9L78.7,353.9z M92.4,354.6v0.5c0,0.4,0.1,0.7,0.3,0.9c0.3,0.3,0.9,0.4,1.8,0.4h4.6c1.3,0,2-0.4,2-1.3   v-0.4c0-0.4-0.1-0.7-0.4-0.9c-0.3-0.2-0.7-0.3-1.3-0.3h-5.2c-1,0-1.8-0.2-2.3-0.5c-0.5-0.4-0.8-0.9-0.8-1.8v-0.4   c0-0.7,0.3-1.2,0.8-1.6c0.6-0.5,1.4-0.7,2.4-0.7h4.2c1.5,0,2.5,0.2,3.2,0.7c0.5,0.4,0.7,0.9,0.7,1.5v0.6h-1.3v-0.6   c0-0.3-0.1-0.5-0.4-0.7c-0.4-0.3-1.1-0.5-2.1-0.5h-4.5c-1.1,0-1.7,0.4-1.7,1.2v0.4c0,0.8,0.6,1.2,1.7,1.2h5.2c1,0,1.8,0.2,2.3,0.6   c0.5,0.4,0.8,1,0.8,1.8v0.4c0,0.7-0.3,1.2-0.8,1.6c-0.6,0.5-1.4,0.7-2.4,0.7h-4.9c-1.2,0-2-0.2-2.5-0.7c-0.4-0.4-0.6-0.9-0.6-1.5   v-0.6H92.4L92.4,354.6z M106.8,354.2v-4.7h6.7v-1.1h-6.7v-1.7h-1.3v1.7h-1.1v1.1h1.1v4.5c0,1.1,0.3,2,0.8,2.5   c0.6,0.6,1.3,0.8,2.4,0.8h1.9c1.5,0,2.6-0.4,3.2-1.3c0.4-0.5,0.6-1.2,0.6-2.1v-0.3h-1.3v0.1c0,0.7-0.1,1.3-0.4,1.6   c-0.4,0.5-1.1,0.8-2.2,0.8h-1.7c-0.6,0-1-0.2-1.3-0.5C107,355.4,106.8,354.9,106.8,354.2L106.8,354.2z M116.3,354.1   c0-0.6,0.2-1.1,0.7-1.5c0.5-0.4,1.2-0.6,2.1-0.6h5.2c0.6,0,1.1,0.1,1.4,0.3c0.1,0.1,0.2,0.2,0.3,0.4v-1.2c0-0.5-0.2-1-0.5-1.3   c-0.4-0.4-0.9-0.6-1.7-0.6h-3.5c-0.9,0-1.6,0.2-1.9,0.6c-0.1,0.1-0.2,0.3-0.3,0.6v0.3h-1.3v-0.3c-0.1-0.5,0.1-1,0.8-1.5   c0.6-0.5,1.4-0.7,2.4-0.7h3.9c1.2,0,2,0.3,2.6,0.8c0.5,0.5,0.8,1.3,0.8,2.3v5.7H126v-0.7c-0.1,0.2-0.3,0.3-0.4,0.4   c-0.3,0.2-0.8,0.4-1.2,0.4h-5c-1,0-1.7-0.2-2.2-0.5c-0.5-0.4-0.8-0.9-0.8-1.7V354.1L116.3,354.1z M119.6,353   c-0.8,0-1.3,0.1-1.6,0.3c-0.3,0.2-0.4,0.5-0.4,1v0.6c0,0.4,0.1,0.7,0.4,0.9c0.3,0.2,0.8,0.4,1.6,0.4h4.4c1.3,0,2-0.5,2-1.6   c0-0.6-0.2-1-0.5-1.2c-0.3-0.3-0.8-0.4-1.5-0.4H119.6L119.6,353z M130.1,348.5l3,7.5h0.3l2.9-7.5h1.6l2.9,7.5h0.3l3-7.5h1.4   l-3.6,8.9h-1.7l-3-7.8l-3,7.8h-1.7l-3.6-8.9H130.1L130.1,348.5z M147,354.1c0-0.6,0.2-1.1,0.7-1.5c0.5-0.4,1.2-0.6,2.1-0.6h5.2   c0.6,0,1.1,0.1,1.4,0.3c0.1,0.1,0.2,0.2,0.3,0.4v-1.2c0-0.5-0.2-1-0.5-1.3c-0.4-0.4-0.9-0.6-1.7-0.6H151c-0.9,0-1.6,0.2-1.9,0.6   c-0.1,0.1-0.2,0.3-0.3,0.6v0.3h-1.3v-0.3c-0.1-0.5,0.1-1,0.8-1.5c0.6-0.5,1.4-0.7,2.4-0.7h3.9c1.2,0,2,0.3,2.6,0.8   c0.5,0.5,0.8,1.3,0.8,2.3v5.7h-1.3v-0.7c-0.1,0.2-0.3,0.3-0.4,0.4c-0.3,0.2-0.8,0.4-1.2,0.4h-5c-1,0-1.7-0.2-2.2-0.5   c-0.5-0.4-0.8-0.9-0.8-1.7V354.1L147,354.1z M150.3,353c-0.8,0-1.3,0.1-1.6,0.3c-0.3,0.2-0.4,0.5-0.4,1v0.6c0,0.4,0.1,0.7,0.4,0.9   c0.3,0.2,0.8,0.4,1.6,0.4h4.4c1.3,0,2-0.5,2-1.6c0-0.6-0.2-1-0.5-1.2c-0.3-0.3-0.8-0.4-1.5-0.4H150.3L150.3,353z M176,348.5h3.5   c1.3,0,2.3,0.3,3,1c0.6,0.6,0.8,1.4,0.8,2.4v1.9c0,1.1-0.3,1.9-0.9,2.5c-0.6,0.6-1.6,1-2.9,1H176c-0.8,0-1.5-0.2-2-0.5   c-0.2-0.1-0.4-0.3-0.6-0.5v4.6h-1.3v-12.5h1.3v1c0.2-0.2,0.4-0.4,0.5-0.5c0.5-0.3,1.2-0.5,1.9-0.5H176L176,348.5z M173.4,352   l-0.1,1l0.1,1c0,0.7,0.2,1.3,0.6,1.7c0.5,0.5,1.2,0.7,2.1,0.7h2.9c1,0,1.7-0.2,2.2-0.6c0.5-0.4,0.7-1,0.7-1.8V352   c0-0.8-0.3-1.4-0.8-1.8c-0.5-0.4-1.2-0.6-2.2-0.6h-2.9c-0.9,0-1.6,0.2-2.1,0.7C173.6,350.7,173.4,351.3,173.4,352L173.4,352z    M185.7,354.1c0-0.6,0.2-1.1,0.7-1.5c0.5-0.4,1.2-0.6,2.1-0.6h5.2c0.6,0,1.1,0.1,1.4,0.3c0.1,0.1,0.2,0.2,0.3,0.4v-1.2   c0-0.5-0.2-1-0.5-1.3c-0.4-0.4-0.9-0.6-1.7-0.6h-3.5c-0.9,0-1.6,0.2-1.9,0.6c-0.1,0.1-0.2,0.3-0.3,0.6v0.3h-1.3v-0.3   c-0.1-0.5,0.1-1,0.8-1.5c0.6-0.5,1.4-0.7,2.4-0.7h3.9c1.2,0,2,0.3,2.6,0.8c0.5,0.5,0.8,1.3,0.8,2.3v5.7h-1.3v-0.7   c-0.1,0.2-0.3,0.3-0.4,0.4c-0.3,0.2-0.8,0.4-1.2,0.4h-5c-1,0-1.7-0.2-2.2-0.5c-0.5-0.4-0.8-0.9-0.8-1.7V354.1L185.7,354.1z    M188.9,353c-0.8,0-1.3,0.1-1.6,0.3c-0.3,0.2-0.4,0.5-0.4,1v0.6c0,0.4,0.1,0.7,0.4,0.9c0.3,0.2,0.8,0.4,1.6,0.4h4.4   c1.3,0,2-0.5,2-1.6c0-0.6-0.2-1-0.5-1.2c-0.3-0.3-0.8-0.4-1.5-0.4H188.9L188.9,353z M206.7,356.4c1,0,1.7-0.3,2.1-0.8   c0.3-0.3,0.4-0.7,0.4-1.1v-0.2h1.3v0.1c0,0.7-0.2,1.2-0.5,1.7c-0.6,0.9-1.7,1.3-3.2,1.3h-4c-1.2,0-2.1-0.3-2.7-0.9   c-0.6-0.6-0.9-1.4-0.9-2.4v-2.2c0-1,0.3-1.8,0.9-2.4c0.6-0.7,1.6-1,2.8-1h3.9h0c1.1,0,2,0.3,2.7,0.8c0.7,0.6,1,1.3,1,2.2v0.1h-1.3   v-0.1c0-0.6-0.2-1.1-0.6-1.4c-0.4-0.3-1-0.5-1.8-0.5h-3.9c-0.8,0-1.4,0.2-1.8,0.6c-0.4,0.4-0.6,1-0.6,1.7v2.2   c0,0.7,0.2,1.2,0.7,1.6c0.4,0.4,1,0.6,1.7,0.6H206.7L206.7,356.4z M212.9,348.5h9.4v1l-7.5,6.8h7.6v1.1h-9.6v-1l7.6-6.8h-7.5V348.5   L212.9,348.5z M235.1,352c0-0.7-0.2-1.3-0.6-1.8c-0.4-0.4-1-0.6-1.8-0.6h-4.1c-0.7,0-1.2,0.2-1.7,0.6c-0.4,0.4-0.6,1-0.6,1.8H235.1   L235.1,352z M233.2,357.4h-4.4c-2.5,0-3.8-1.1-3.8-3.3v-2.3c0-0.9,0.3-1.6,1-2.3c0.7-0.7,1.6-1,2.8-1h3.7c1.2,0,2.2,0.3,2.9,0.9   c0.6,0.6,1,1.3,1,2.2v1.4h-10v0.9c0,0.9,0.2,1.5,0.7,1.9c0.4,0.4,1,0.5,1.8,0.5h4.2c0.7,0,1.2-0.2,1.5-0.5c0.3-0.3,0.5-0.7,0.5-1.2   v-0.2h1.3v0.2c0,0.7-0.2,1.3-0.7,1.8C235.2,357.1,234.4,357.4,233.2,357.4L233.2,357.4z M239.1,357.4v-12.5h1.3v7h1.5l4.6-3.3h2.1   l-5.6,4l6.1,4.9h-1.9l-5.4-4.4h-1.4v4.4H239.1z"/>
</g>
</svg>