<svg width="180" height="49" viewBox="0 0 180 49" fill="none" xmlns="http://www.w3.org/2000/svg">
<path d="M1.9 28C1.75333 28 1.63333 27.9533 1.54 27.86C1.44667 27.7667 1.4 27.6467 1.4 27.5V14.5C1.4 14.3533 1.44667 14.2333 1.54 14.14C1.63333 14.0467 1.75333 14 1.9 14H4.54C4.67333 14 4.78667 14.0467 4.88 14.14C4.98667 14.2333 5.04 14.3533 5.04 14.5V24.98H11.08C11.2267 24.98 11.3467 25.0333 11.44 25.14C11.5467 25.2333 11.6 25.3533 11.6 25.5V27.5C11.6 27.6467 11.5467 27.7667 11.44 27.86C11.3467 27.9533 11.2267 28 11.08 28H1.9ZM15.173 28C14.973 28 14.8263 27.9533 14.733 27.86C14.6396 27.7533 14.5596 27.6333 14.493 27.5L10.713 18.22C10.6863 18.1667 10.673 18.1067 10.673 18.04C10.673 17.92 10.713 17.82 10.793 17.74C10.8863 17.6467 10.9996 17.6 11.133 17.6H13.393C13.5663 17.6 13.6996 17.6467 13.793 17.74C13.8863 17.8333 13.9463 17.9267 13.973 18.02L16.233 24.16L18.513 18.02C18.5396 17.9267 18.5996 17.8333 18.693 17.74C18.7863 17.6467 18.9196 17.6 19.093 17.6H21.353C21.473 17.6 21.5796 17.6467 21.673 17.74C21.7663 17.82 21.813 17.92 21.813 18.04C21.813 18.1067 21.7996 18.1667 21.773 18.22L17.993 27.5C17.9396 27.6333 17.8596 27.7533 17.753 27.86C17.6596 27.9533 17.5063 28 17.293 28H15.173ZM23.8675 28C23.7208 28 23.6008 27.9533 23.5075 27.86C23.4142 27.7667 23.3675 27.6467 23.3675 27.5V18.1C23.3675 17.9533 23.4142 17.8333 23.5075 17.74C23.6008 17.6467 23.7208 17.6 23.8675 17.6H26.2275C26.3608 17.6 26.4742 17.6467 26.5675 17.74C26.6742 17.8333 26.7275 17.9533 26.7275 18.1V27.5C26.7275 27.6467 26.6742 27.7667 26.5675 27.86C26.4742 27.9533 26.3608 28 26.2275 28H23.8675ZM23.8475 16.1C23.7008 16.1 23.5808 16.0533 23.4875 15.96C23.3942 15.8667 23.3475 15.7467 23.3475 15.6V13.82C23.3475 13.6733 23.3942 13.5533 23.4875 13.46C23.5808 13.3533 23.7008 13.3 23.8475 13.3H26.2275C26.3742 13.3 26.4942 13.3533 26.5875 13.46C26.6942 13.5533 26.7475 13.6733 26.7475 13.82V15.6C26.7475 15.7467 26.6942 15.8667 26.5875 15.96C26.4942 16.0533 26.3742 16.1 26.2275 16.1H23.8475ZM32.7706 28C32.5706 28 32.424 27.9533 32.3306 27.86C32.2373 27.7533 32.1573 27.6333 32.0906 27.5L28.3106 18.22C28.284 18.1667 28.2706 18.1067 28.2706 18.04C28.2706 17.92 28.3106 17.82 28.3906 17.74C28.484 17.6467 28.5973 17.6 28.7306 17.6H30.9906C31.164 17.6 31.2973 17.6467 31.3906 17.74C31.484 17.8333 31.544 17.9267 31.5706 18.02L33.8306 24.16L36.1106 18.02C36.1373 17.9267 36.1973 17.8333 36.2906 17.74C36.384 17.6467 36.5173 17.6 36.6906 17.6H38.9506C39.0706 17.6 39.1773 17.6467 39.2706 17.74C39.364 17.82 39.4106 17.92 39.4106 18.04C39.4106 18.1067 39.3973 18.1667 39.3706 18.22L35.5906 27.5C35.5373 27.6333 35.4573 27.7533 35.3506 27.86C35.2573 27.9533 35.104 28 34.8906 28H32.7706ZM43.6273 28C43.5207 28 43.4207 27.96 43.3273 27.88C43.2473 27.7867 43.2073 27.6867 43.2073 27.58C43.2073 27.5133 43.214 27.4533 43.2273 27.4L47.9273 14.56C47.9673 14.4133 48.0473 14.2867 48.1673 14.18C48.3007 14.06 48.4807 14 48.7073 14H51.6673C51.894 14 52.0673 14.06 52.1873 14.18C52.3207 14.2867 52.4073 14.4133 52.4473 14.56L57.1273 27.4C57.154 27.4533 57.1673 27.5133 57.1673 27.58C57.1673 27.6867 57.1207 27.7867 57.0273 27.88C56.9473 27.96 56.8473 28 56.7273 28H54.2673C54.0673 28 53.914 27.9533 53.8073 27.86C53.714 27.7533 53.654 27.66 53.6273 27.58L52.8473 25.54H47.5073L46.7473 27.58C46.7207 27.66 46.6607 27.7533 46.5673 27.86C46.474 27.9533 46.314 28 46.0873 28H43.6273ZM48.3273 22.66H52.0473L50.1673 17.38L48.3273 22.66ZM63.487 32.4C62.4604 32.4 61.607 32.2667 60.927 32C60.2604 31.7333 59.727 31.4133 59.327 31.04C58.9404 30.6667 58.6604 30.2933 58.487 29.92C58.3137 29.56 58.2204 29.2733 58.207 29.06C58.1937 28.9133 58.2404 28.7933 58.347 28.7C58.4537 28.6067 58.5804 28.56 58.727 28.56H61.267C61.387 28.56 61.487 28.5867 61.567 28.64C61.6604 28.7067 61.7337 28.8133 61.787 28.96C61.8537 29.1067 61.9404 29.26 62.047 29.42C62.167 29.58 62.327 29.7067 62.527 29.8C62.7404 29.9067 63.027 29.96 63.387 29.96C63.787 29.96 64.1204 29.8933 64.387 29.76C64.6537 29.64 64.8537 29.4333 64.987 29.14C65.1204 28.86 65.187 28.48 65.187 28V26.66C64.8804 26.9933 64.487 27.2667 64.007 27.48C63.527 27.68 62.947 27.78 62.267 27.78C61.587 27.78 60.987 27.68 60.467 27.48C59.947 27.28 59.5137 26.98 59.167 26.58C58.8204 26.18 58.547 25.6933 58.347 25.12C58.1604 24.5467 58.047 23.8867 58.007 23.14C57.9937 22.7933 57.9937 22.4467 58.007 22.1C58.047 21.38 58.1604 20.7333 58.347 20.16C58.5337 19.5867 58.8004 19.0933 59.147 18.68C59.507 18.2667 59.947 17.9533 60.467 17.74C60.987 17.5133 61.587 17.4 62.267 17.4C62.987 17.4 63.6004 17.54 64.107 17.82C64.627 18.0867 65.0537 18.4267 65.387 18.84V18.1C65.387 17.9667 65.4337 17.8533 65.527 17.76C65.6204 17.6533 65.7404 17.6 65.887 17.6H68.187C68.3337 17.6 68.4537 17.6533 68.547 17.76C68.6537 17.8533 68.707 17.9667 68.707 18.1V27.72C68.707 28.7333 68.5004 29.5867 68.087 30.28C67.6737 30.9733 67.0804 31.5 66.307 31.86C65.5337 32.22 64.5937 32.4 63.487 32.4ZM63.347 25.18C63.7737 25.18 64.1204 25.0867 64.387 24.9C64.6537 24.7133 64.847 24.4733 64.967 24.18C65.1004 23.8867 65.1737 23.5733 65.187 23.24C65.2004 23.0933 65.207 22.8867 65.207 22.62C65.207 22.3533 65.2004 22.1533 65.187 22.02C65.1737 21.6733 65.1004 21.3533 64.967 21.06C64.847 20.7667 64.6537 20.5333 64.387 20.36C64.1204 20.1733 63.7737 20.08 63.347 20.08C62.907 20.08 62.5537 20.1733 62.287 20.36C62.0337 20.5467 61.847 20.8 61.727 21.12C61.6204 21.44 61.5537 21.7933 61.527 22.18C61.5137 22.4733 61.5137 22.7733 61.527 23.08C61.5537 23.4667 61.6204 23.82 61.727 24.14C61.847 24.46 62.0337 24.7133 62.287 24.9C62.5537 25.0867 62.907 25.18 63.347 25.18ZM71.5628 28C71.4161 28 71.2961 27.9533 71.2028 27.86C71.1095 27.7667 71.0628 27.6467 71.0628 27.5V18.1C71.0628 17.9667 71.1095 17.8533 71.2028 17.76C71.2961 17.6533 71.4161 17.6 71.5628 17.6H73.8628C74.0095 17.6 74.1295 17.6533 74.2228 17.76C74.3161 17.8533 74.3628 17.9667 74.3628 18.1V18.9C74.7228 18.4867 75.1495 18.1667 75.6428 17.94C76.1495 17.7133 76.7161 17.6 77.3428 17.6H78.2228C78.3561 17.6 78.4695 17.6467 78.5628 17.74C78.6695 17.8333 78.7228 17.9533 78.7228 18.1V20.16C78.7228 20.2933 78.6695 20.4133 78.5628 20.52C78.4695 20.6133 78.3561 20.66 78.2228 20.66H76.2828C75.7361 20.66 75.3095 20.8133 75.0028 21.12C74.7095 21.4133 74.5628 21.8333 74.5628 22.38V27.5C74.5628 27.6467 74.5095 27.7667 74.4028 27.86C74.3095 27.9533 74.1895 28 74.0428 28H71.5628ZM80.2448 28C80.0982 28 79.9782 27.9533 79.8848 27.86C79.7915 27.7667 79.7448 27.6467 79.7448 27.5V18.1C79.7448 17.9533 79.7915 17.8333 79.8848 17.74C79.9782 17.6467 80.0982 17.6 80.2448 17.6H82.6048C82.7382 17.6 82.8515 17.6467 82.9448 17.74C83.0515 17.8333 83.1048 17.9533 83.1048 18.1V27.5C83.1048 27.6467 83.0515 27.7667 82.9448 27.86C82.8515 27.9533 82.7382 28 82.6048 28H80.2448ZM80.2248 16.1C80.0782 16.1 79.9582 16.0533 79.8648 15.96C79.7715 15.8667 79.7248 15.7467 79.7248 15.6V13.82C79.7248 13.6733 79.7715 13.5533 79.8648 13.46C79.9582 13.3533 80.0782 13.3 80.2248 13.3H82.6048C82.7515 13.3 82.8715 13.3533 82.9648 13.46C83.0715 13.5533 83.1248 13.6733 83.1248 13.82V15.6C83.1248 15.7467 83.0715 15.8667 82.9648 15.96C82.8715 16.0533 82.7515 16.1 82.6048 16.1H80.2248ZM90.0258 28C89.8791 28 89.7591 27.9533 89.6658 27.86C89.5724 27.7667 89.5258 27.6467 89.5258 27.5V14.5C89.5258 14.3533 89.5724 14.2333 89.6658 14.14C89.7591 14.0467 89.8791 14 90.0258 14H99.2058C99.3524 14 99.4724 14.0467 99.5658 14.14C99.6724 14.2333 99.7258 14.3533 99.7258 14.5V16.52C99.7258 16.6667 99.6724 16.7867 99.5658 16.88C99.4724 16.9733 99.3524 17.02 99.2058 17.02H93.0458V19.96H98.8058C98.9524 19.96 99.0724 20.0133 99.1658 20.12C99.2724 20.2133 99.3258 20.3333 99.3258 20.48V22.48C99.3258 22.6133 99.2724 22.7333 99.1658 22.84C99.0724 22.9333 98.9524 22.98 98.8058 22.98H93.0458V27.5C93.0458 27.6467 92.9991 27.7667 92.9058 27.86C92.8124 27.9533 92.6924 28 92.5458 28H90.0258ZM106.394 28.2C105.274 28.2 104.327 28.02 103.554 27.66C102.794 27.3 102.207 26.7867 101.794 26.12C101.394 25.44 101.167 24.6333 101.114 23.7C101.1 23.4333 101.094 23.1333 101.094 22.8C101.094 22.4533 101.1 22.1533 101.114 21.9C101.167 20.9533 101.407 20.1467 101.834 19.48C102.26 18.8133 102.854 18.3 103.614 17.94C104.387 17.58 105.314 17.4 106.394 17.4C107.487 17.4 108.414 17.58 109.174 17.94C109.947 18.3 110.547 18.8133 110.974 19.48C111.4 20.1467 111.64 20.9533 111.694 21.9C111.707 22.1533 111.714 22.4533 111.714 22.8C111.714 23.1333 111.707 23.4333 111.694 23.7C111.64 24.6333 111.407 25.44 110.994 26.12C110.594 26.7867 110.007 27.3 109.234 27.66C108.474 28.02 107.527 28.2 106.394 28.2ZM106.394 25.76C106.994 25.76 107.427 25.58 107.694 25.22C107.974 24.86 108.134 24.32 108.174 23.6C108.187 23.4 108.194 23.1333 108.194 22.8C108.194 22.4667 108.187 22.2 108.174 22C108.134 21.2933 107.974 20.76 107.694 20.4C107.427 20.0267 106.994 19.84 106.394 19.84C105.807 19.84 105.374 20.0267 105.094 20.4C104.814 20.76 104.66 21.2933 104.634 22C104.62 22.2 104.614 22.4667 104.614 22.8C104.614 23.1333 104.62 23.4 104.634 23.6C104.66 24.32 104.814 24.86 105.094 25.22C105.374 25.58 105.807 25.76 106.394 25.76ZM118.601 28.2C117.481 28.2 116.534 28.02 115.761 27.66C115.001 27.3 114.414 26.7867 114.001 26.12C113.601 25.44 113.374 24.6333 113.321 23.7C113.307 23.4333 113.301 23.1333 113.301 22.8C113.301 22.4533 113.307 22.1533 113.321 21.9C113.374 20.9533 113.614 20.1467 114.041 19.48C114.467 18.8133 115.061 18.3 115.821 17.94C116.594 17.58 117.521 17.4 118.601 17.4C119.694 17.4 120.621 17.58 121.381 17.94C122.154 18.3 122.754 18.8133 123.181 19.48C123.607 20.1467 123.847 20.9533 123.901 21.9C123.914 22.1533 123.921 22.4533 123.921 22.8C123.921 23.1333 123.914 23.4333 123.901 23.7C123.847 24.6333 123.614 25.44 123.201 26.12C122.801 26.7867 122.214 27.3 121.441 27.66C120.681 28.02 119.734 28.2 118.601 28.2ZM118.601 25.76C119.201 25.76 119.634 25.58 119.901 25.22C120.181 24.86 120.341 24.32 120.381 23.6C120.394 23.4 120.401 23.1333 120.401 22.8C120.401 22.4667 120.394 22.2 120.381 22C120.341 21.2933 120.181 20.76 119.901 20.4C119.634 20.0267 119.201 19.84 118.601 19.84C118.014 19.84 117.581 20.0267 117.301 20.4C117.021 20.76 116.867 21.2933 116.841 22C116.827 22.2 116.821 22.4667 116.821 22.8C116.821 23.1333 116.827 23.4 116.841 23.6C116.867 24.32 117.021 24.86 117.301 25.22C117.581 25.58 118.014 25.76 118.601 25.76ZM129.768 28.2C129.128 28.2 128.548 28.1 128.028 27.9C127.521 27.6867 127.081 27.38 126.708 26.98C126.348 26.5667 126.068 26.0733 125.868 25.5C125.668 24.9133 125.554 24.2467 125.528 23.5C125.514 23.2333 125.508 23 125.508 22.8C125.508 22.5867 125.514 22.3533 125.528 22.1C125.554 21.38 125.668 20.7333 125.868 20.16C126.068 19.5867 126.348 19.0933 126.708 18.68C127.068 18.2667 127.508 17.9533 128.028 17.74C128.548 17.5133 129.128 17.4 129.768 17.4C130.434 17.4 131.008 17.5133 131.488 17.74C131.968 17.9533 132.374 18.2333 132.708 18.58V14.3C132.708 14.1533 132.754 14.0333 132.848 13.94C132.941 13.8467 133.061 13.8 133.208 13.8H135.648C135.781 13.8 135.894 13.8467 135.988 13.94C136.094 14.0333 136.148 14.1533 136.148 14.3V27.5C136.148 27.6467 136.094 27.7667 135.988 27.86C135.894 27.9533 135.781 28 135.648 28H133.388C133.241 28 133.121 27.9533 133.028 27.86C132.934 27.7667 132.888 27.6467 132.888 27.5V26.86C132.568 27.2467 132.154 27.5667 131.648 27.82C131.141 28.0733 130.514 28.2 129.768 28.2ZM130.848 25.52C131.301 25.52 131.654 25.4267 131.908 25.24C132.174 25.04 132.368 24.7867 132.488 24.48C132.621 24.1733 132.694 23.84 132.708 23.48C132.721 23.2133 132.728 22.96 132.728 22.72C132.728 22.48 132.721 22.2333 132.708 21.98C132.694 21.6467 132.621 21.34 132.488 21.06C132.354 20.7667 132.154 20.5333 131.888 20.36C131.621 20.1733 131.274 20.08 130.848 20.08C130.408 20.08 130.054 20.1733 129.788 20.36C129.534 20.5467 129.354 20.8 129.248 21.12C129.141 21.44 129.074 21.7933 129.048 22.18C129.008 22.5933 129.008 23.0067 129.048 23.42C129.074 23.8067 129.141 24.16 129.248 24.48C129.354 24.8 129.534 25.0533 129.788 25.24C130.054 25.4267 130.408 25.52 130.848 25.52Z" fill="#2A4613"/>
<path d="M73.248 42.14C72.6227 42.14 72.072 42.014 71.596 41.762C71.1293 41.51 70.784 41.146 70.56 40.67C70.336 40.1847 70.2847 39.6013 70.406 38.92C70.434 38.78 70.4713 38.598 70.518 38.374C70.5647 38.1407 70.6067 37.9493 70.644 37.8C70.896 36.7827 71.3627 35.994 72.044 35.434C72.7253 34.8647 73.5933 34.58 74.648 34.58C75.236 34.58 75.726 34.664 76.118 34.832C76.5193 35 76.832 35.2147 77.056 35.476C77.2893 35.7373 77.448 36.008 77.532 36.288C77.6253 36.568 77.658 36.82 77.63 37.044C77.6207 37.1467 77.5787 37.2307 77.504 37.296C77.4387 37.352 77.3593 37.38 77.266 37.38H75.992C75.8987 37.38 75.824 37.3567 75.768 37.31C75.7213 37.2633 75.6933 37.1933 75.684 37.1C75.684 36.7267 75.5813 36.456 75.376 36.288C75.18 36.12 74.8953 36.036 74.522 36.036C74.0647 36.036 73.654 36.1853 73.29 36.484C72.9353 36.7733 72.6787 37.2353 72.52 37.87C72.4827 38.038 72.4453 38.2107 72.408 38.388C72.3707 38.5653 72.338 38.7193 72.31 38.85C72.2073 39.494 72.254 39.9607 72.45 40.25C72.646 40.5393 72.9727 40.684 73.43 40.684C73.794 40.684 74.1207 40.6093 74.41 40.46C74.6993 40.3013 74.942 40.0353 75.138 39.662C75.194 39.5593 75.25 39.4893 75.306 39.452C75.3713 39.4053 75.4507 39.382 75.544 39.382H76.804C76.8973 39.382 76.9673 39.4147 77.014 39.48C77.07 39.536 77.084 39.6153 77.056 39.718C76.9907 39.9233 76.8693 40.166 76.692 40.446C76.524 40.7167 76.2907 40.9827 75.992 41.244C75.6933 41.5053 75.3153 41.72 74.858 41.888C74.41 42.056 73.8733 42.14 73.248 42.14ZM78.3764 42C78.283 42 78.2084 41.9673 78.1524 41.902C78.1057 41.8367 78.0917 41.7573 78.1104 41.664L80.0844 32.396C80.103 32.3027 80.1497 32.2233 80.2244 32.158C80.299 32.0927 80.383 32.06 80.4764 32.06H81.6384C81.741 32.06 81.8157 32.0927 81.8624 32.158C81.9184 32.2233 81.937 32.3027 81.9184 32.396L79.9444 41.664C79.9257 41.7573 79.879 41.8367 79.8044 41.902C79.7297 41.9673 79.641 42 79.5384 42H78.3764ZM84.5455 42.14C83.9388 42.14 83.4441 42.014 83.0615 41.762C82.6788 41.5007 82.4221 41.1367 82.2915 40.67C82.1701 40.194 82.1748 39.634 82.3055 38.99L83.1455 35.056C83.1641 34.9627 83.2108 34.8833 83.2855 34.818C83.3695 34.7527 83.4581 34.72 83.5515 34.72H84.7835C84.8768 34.72 84.9468 34.7527 84.9935 34.818C85.0401 34.8833 85.0541 34.9627 85.0355 35.056L84.2235 38.906C84.1395 39.2887 84.1115 39.6107 84.1395 39.872C84.1768 40.124 84.2841 40.3153 84.4615 40.446C84.6388 40.5767 84.9141 40.642 85.2875 40.642C85.7915 40.642 86.2301 40.488 86.6035 40.18C86.9768 39.872 87.2195 39.4473 87.3315 38.906L88.1575 35.056C88.1761 34.9627 88.2228 34.8833 88.2975 34.818C88.3815 34.7527 88.4701 34.72 88.5635 34.72H89.7815C89.8841 34.72 89.9588 34.7527 90.0055 34.818C90.0521 34.8833 90.0661 34.9627 90.0475 35.056L88.6475 41.664C88.6288 41.7573 88.5821 41.8367 88.5075 41.902C88.4328 41.9673 88.3441 42 88.2415 42H87.1075C87.0141 42 86.9395 41.9673 86.8835 41.902C86.8368 41.8367 86.8228 41.7573 86.8415 41.664L86.9535 41.09C86.7481 41.3047 86.5335 41.4913 86.3095 41.65C86.0948 41.8087 85.8475 41.93 85.5675 42.014C85.2968 42.098 84.9561 42.14 84.5455 42.14ZM93.3528 42.14C92.7928 42.14 92.3261 42.0747 91.9528 41.944C91.5888 41.8133 91.2994 41.65 91.0848 41.454C90.8701 41.258 90.7254 41.062 90.6508 40.866C90.5761 40.67 90.5481 40.5067 90.5668 40.376C90.5854 40.2733 90.6321 40.194 90.7068 40.138C90.7908 40.0727 90.8701 40.04 90.9448 40.04H92.0648C92.1021 40.04 92.1348 40.0447 92.1628 40.054C92.1908 40.0633 92.2188 40.0913 92.2468 40.138C92.3494 40.2407 92.4568 40.348 92.5688 40.46C92.6808 40.572 92.8208 40.67 92.9888 40.754C93.1661 40.8287 93.3948 40.866 93.6748 40.866C94.0388 40.866 94.3561 40.796 94.6268 40.656C94.9068 40.5067 95.0748 40.2967 95.1308 40.026C95.1681 39.83 95.1448 39.6713 95.0608 39.55C94.9768 39.4287 94.8041 39.3213 94.5428 39.228C94.2814 39.1253 93.8941 39.018 93.3808 38.906C92.8768 38.7847 92.4708 38.6307 92.1628 38.444C91.8641 38.2573 91.6588 38.024 91.5468 37.744C91.4441 37.464 91.4348 37.1373 91.5188 36.764C91.5934 36.4 91.7754 36.0547 92.0648 35.728C92.3541 35.392 92.7368 35.1167 93.2128 34.902C93.6981 34.6873 94.2628 34.58 94.9068 34.58C95.4108 34.58 95.8354 34.6453 96.1808 34.776C96.5354 34.8973 96.8154 35.0513 97.0208 35.238C97.2354 35.4247 97.3848 35.616 97.4688 35.812C97.5528 35.9987 97.5808 36.162 97.5528 36.302C97.5434 36.4047 97.4968 36.4887 97.4128 36.554C97.3381 36.61 97.2588 36.638 97.1748 36.638H96.1528C96.1061 36.638 96.0641 36.6287 96.0268 36.61C95.9894 36.5913 95.9614 36.568 95.9428 36.54C95.8494 36.4467 95.7514 36.3487 95.6488 36.246C95.5554 36.1433 95.4294 36.0547 95.2708 35.98C95.1214 35.896 94.9068 35.854 94.6268 35.854C94.2721 35.854 93.9828 35.9333 93.7588 36.092C93.5441 36.2413 93.4088 36.4327 93.3528 36.666C93.3248 36.8247 93.3388 36.9647 93.3948 37.086C93.4601 37.198 93.6188 37.3053 93.8708 37.408C94.1228 37.5107 94.5054 37.618 95.0188 37.73C95.6254 37.842 96.0874 38.01 96.4048 38.234C96.7314 38.4487 96.9414 38.7007 97.0348 38.99C97.1374 39.27 97.1514 39.5827 97.0768 39.928C96.9928 40.348 96.7874 40.726 96.4608 41.062C96.1434 41.398 95.7234 41.664 95.2008 41.86C94.6781 42.0467 94.0621 42.14 93.3528 42.14ZM101.252 42C100.617 42 100.123 41.902 99.7679 41.706C99.4133 41.51 99.1846 41.2207 99.0819 40.838C98.9793 40.446 98.9886 39.9607 99.1099 39.382L99.7959 36.204H98.6899C98.5966 36.204 98.5219 36.1713 98.4659 36.106C98.4193 36.0407 98.4053 35.9613 98.4239 35.868L98.5919 35.056C98.6106 34.9627 98.6573 34.8833 98.7319 34.818C98.8159 34.7527 98.9093 34.72 99.0119 34.72H100.104L100.608 32.396C100.627 32.3027 100.673 32.2233 100.748 32.158C100.823 32.0927 100.907 32.06 101 32.06H102.134C102.237 32.06 102.311 32.0927 102.358 32.158C102.414 32.2233 102.433 32.3027 102.414 32.396L101.91 34.72H103.66C103.753 34.72 103.823 34.7527 103.87 34.818C103.926 34.8833 103.945 34.9627 103.926 35.056L103.758 35.868C103.739 35.9613 103.688 36.0407 103.604 36.106C103.529 36.1713 103.445 36.204 103.352 36.204H101.602L100.958 39.242C100.902 39.494 100.869 39.7133 100.86 39.9C100.86 40.0773 100.911 40.2173 101.014 40.32C101.117 40.4133 101.299 40.46 101.56 40.46H102.568C102.671 40.46 102.745 40.4927 102.792 40.558C102.839 40.6233 102.853 40.7027 102.834 40.796L102.652 41.664C102.633 41.7573 102.587 41.8367 102.512 41.902C102.437 41.9673 102.349 42 102.246 42H101.252ZM107.102 42.14C106.421 42.14 105.851 42.0047 105.394 41.734C104.946 41.4633 104.633 41.0713 104.456 40.558C104.288 40.0447 104.265 39.424 104.386 38.696C104.405 38.6027 104.428 38.486 104.456 38.346C104.484 38.1967 104.512 38.08 104.54 37.996C104.727 37.296 105.016 36.6893 105.408 36.176C105.8 35.6627 106.276 35.2707 106.836 35C107.405 34.72 108.031 34.58 108.712 34.58C109.468 34.58 110.065 34.7387 110.504 35.056C110.943 35.364 111.232 35.798 111.372 36.358C111.521 36.9087 111.526 37.548 111.386 38.276L111.316 38.57C111.297 38.6633 111.246 38.7427 111.162 38.808C111.087 38.8733 110.999 38.906 110.896 38.906H106.248C106.248 38.906 106.243 38.92 106.234 38.948C106.234 38.976 106.229 38.9993 106.22 39.018C106.173 39.3447 106.178 39.648 106.234 39.928C106.29 40.1987 106.411 40.418 106.598 40.586C106.794 40.754 107.051 40.838 107.368 40.838C107.629 40.838 107.858 40.8007 108.054 40.726C108.25 40.642 108.409 40.5487 108.53 40.446C108.661 40.3433 108.759 40.2593 108.824 40.194C108.936 40.082 109.02 40.0167 109.076 39.998C109.132 39.97 109.211 39.956 109.314 39.956H110.532C110.616 39.956 110.681 39.984 110.728 40.04C110.775 40.096 110.789 40.166 110.77 40.25C110.723 40.3993 110.607 40.5813 110.42 40.796C110.233 41.0107 109.981 41.2207 109.664 41.426C109.347 41.6313 108.969 41.804 108.53 41.944C108.101 42.0747 107.625 42.14 107.102 42.14ZM106.5 37.73H109.594L109.608 37.688C109.701 37.324 109.711 37.0067 109.636 36.736C109.571 36.4653 109.435 36.2507 109.23 36.092C109.025 35.9333 108.763 35.854 108.446 35.854C108.119 35.854 107.825 35.9333 107.564 36.092C107.303 36.2507 107.083 36.4653 106.906 36.736C106.729 37.0067 106.598 37.324 106.514 37.688L106.5 37.73ZM112.201 42C112.107 42 112.033 41.9673 111.977 41.902C111.93 41.8367 111.916 41.7573 111.935 41.664L113.335 35.07C113.353 34.9673 113.4 34.8833 113.475 34.818C113.559 34.7527 113.647 34.72 113.741 34.72H114.875C114.968 34.72 115.038 34.7527 115.085 34.818C115.141 34.8833 115.159 34.9673 115.141 35.07L115.015 35.644C115.239 35.3453 115.523 35.1167 115.869 34.958C116.214 34.7993 116.634 34.72 117.129 34.72H117.815C117.917 34.72 117.992 34.7527 118.039 34.818C118.085 34.8833 118.099 34.9627 118.081 35.056L117.871 36.064C117.852 36.1573 117.801 36.2367 117.717 36.302C117.642 36.3673 117.558 36.4 117.465 36.4H116.373C115.925 36.4 115.547 36.526 115.239 36.778C114.94 37.03 114.744 37.3753 114.651 37.814L113.825 41.664C113.806 41.7573 113.759 41.8367 113.685 41.902C113.61 41.9673 113.521 42 113.419 42H112.201ZM120.773 44.66C120.68 44.66 120.61 44.6273 120.563 44.562C120.507 44.4967 120.489 44.4173 120.507 44.324L122.481 35.056C122.5 34.9627 122.547 34.8833 122.621 34.818C122.696 34.7527 122.78 34.72 122.873 34.72H123.993C124.087 34.72 124.157 34.7527 124.203 34.818C124.259 34.8833 124.278 34.9627 124.259 35.056L124.133 35.616C124.423 35.3173 124.74 35.07 125.085 34.874C125.44 34.678 125.902 34.58 126.471 34.58C126.957 34.58 127.367 34.664 127.703 34.832C128.049 34.9907 128.319 35.2193 128.515 35.518C128.711 35.8167 128.837 36.1713 128.893 36.582C128.959 36.9833 128.949 37.4267 128.865 37.912C128.847 38.0707 128.819 38.22 128.781 38.36C128.753 38.5 128.716 38.654 128.669 38.822C128.557 39.2793 128.399 39.7133 128.193 40.124C127.988 40.5253 127.736 40.88 127.437 41.188C127.148 41.4867 126.803 41.72 126.401 41.888C126.009 42.056 125.566 42.14 125.071 42.14C124.549 42.14 124.119 42.0513 123.783 41.874C123.447 41.6873 123.205 41.4447 123.055 41.146L122.369 44.324C122.351 44.4173 122.304 44.4967 122.229 44.562C122.155 44.6273 122.066 44.66 121.963 44.66H120.773ZM124.763 40.642C125.137 40.642 125.454 40.558 125.715 40.39C125.977 40.2127 126.191 39.984 126.359 39.704C126.537 39.4147 126.677 39.1067 126.779 38.78C126.826 38.64 126.863 38.5 126.891 38.36C126.919 38.22 126.943 38.08 126.961 37.94C127.008 37.604 127.013 37.296 126.975 37.016C126.938 36.736 126.831 36.512 126.653 36.344C126.485 36.1667 126.215 36.078 125.841 36.078C125.449 36.078 125.109 36.1667 124.819 36.344C124.539 36.5213 124.306 36.75 124.119 37.03C123.942 37.3007 123.816 37.5807 123.741 37.87C123.695 38.038 123.653 38.2153 123.615 38.402C123.578 38.5887 123.545 38.7707 123.517 38.948C123.471 39.228 123.471 39.4987 123.517 39.76C123.573 40.012 123.699 40.222 123.895 40.39C124.101 40.558 124.39 40.642 124.763 40.642ZM129.906 42C129.812 42 129.738 41.9673 129.682 41.902C129.635 41.8367 129.621 41.7573 129.64 41.664L131.614 32.396C131.632 32.3027 131.679 32.2233 131.754 32.158C131.828 32.0927 131.912 32.06 132.006 32.06H133.168C133.27 32.06 133.345 32.0927 133.392 32.158C133.448 32.2233 133.466 32.3027 133.448 32.396L131.474 41.664C131.455 41.7573 131.408 41.8367 131.334 41.902C131.259 41.9673 131.17 42 131.068 42H129.906ZM136.005 42.14C135.519 42.14 135.109 42.0607 134.773 41.902C134.437 41.734 134.171 41.5007 133.975 41.202C133.788 40.9033 133.667 40.5533 133.611 40.152C133.555 39.7413 133.564 39.2933 133.639 38.808C133.676 38.64 133.709 38.4907 133.737 38.36C133.765 38.22 133.797 38.066 133.835 37.898C133.956 37.4313 134.115 36.9973 134.311 36.596C134.516 36.1947 134.763 35.8447 135.053 35.546C135.351 35.238 135.697 35 136.089 34.832C136.49 34.664 136.947 34.58 137.461 34.58C138.039 34.58 138.478 34.6733 138.777 34.86C139.085 35.0373 139.323 35.2567 139.491 35.518L139.589 35.056C139.607 34.9627 139.654 34.8833 139.729 34.818C139.803 34.7527 139.887 34.72 139.981 34.72H141.087C141.18 34.72 141.255 34.7527 141.311 34.818C141.367 34.8833 141.385 34.9627 141.367 35.056L139.953 41.664C139.934 41.7573 139.887 41.8367 139.813 41.902C139.738 41.9673 139.654 42 139.561 42H138.455C138.352 42 138.273 41.9673 138.217 41.902C138.17 41.8367 138.156 41.7573 138.175 41.664L138.287 41.146C138.007 41.4353 137.699 41.6733 137.363 41.86C137.027 42.0467 136.574 42.14 136.005 42.14ZM136.635 40.642C137.027 40.642 137.363 40.5533 137.643 40.376C137.923 40.1987 138.147 39.9747 138.315 39.704C138.492 39.424 138.618 39.1393 138.693 38.85C138.739 38.682 138.781 38.5047 138.819 38.318C138.856 38.122 138.889 37.94 138.917 37.772C138.973 37.492 138.973 37.226 138.917 36.974C138.87 36.7127 138.753 36.498 138.567 36.33C138.38 36.162 138.095 36.078 137.713 36.078C137.349 36.078 137.036 36.1667 136.775 36.344C136.523 36.512 136.313 36.736 136.145 37.016C135.977 37.296 135.841 37.604 135.739 37.94C135.701 38.08 135.669 38.22 135.641 38.36C135.613 38.5 135.589 38.64 135.571 38.78C135.524 39.116 135.51 39.424 135.529 39.704C135.557 39.984 135.655 40.2127 135.823 40.39C136 40.558 136.271 40.642 136.635 40.642ZM145.125 42C144.49 42 143.996 41.902 143.641 41.706C143.286 41.51 143.058 41.2207 142.955 40.838C142.852 40.446 142.862 39.9607 142.983 39.382L143.669 36.204H142.563C142.47 36.204 142.395 36.1713 142.339 36.106C142.292 36.0407 142.278 35.9613 142.297 35.868L142.465 35.056C142.484 34.9627 142.53 34.8833 142.605 34.818C142.689 34.7527 142.782 34.72 142.885 34.72H143.977L144.481 32.396C144.5 32.3027 144.546 32.2233 144.621 32.158C144.696 32.0927 144.78 32.06 144.873 32.06H146.007C146.11 32.06 146.184 32.0927 146.231 32.158C146.287 32.2233 146.306 32.3027 146.287 32.396L145.783 34.72H147.533C147.626 34.72 147.696 34.7527 147.743 34.818C147.799 34.8833 147.818 34.9627 147.799 35.056L147.631 35.868C147.612 35.9613 147.561 36.0407 147.477 36.106C147.402 36.1713 147.318 36.204 147.225 36.204H145.475L144.831 39.242C144.775 39.494 144.742 39.7133 144.733 39.9C144.733 40.0773 144.784 40.2173 144.887 40.32C144.99 40.4133 145.172 40.46 145.433 40.46H146.441C146.544 40.46 146.618 40.4927 146.665 40.558C146.712 40.6233 146.726 40.7027 146.707 40.796L146.525 41.664C146.506 41.7573 146.46 41.8367 146.385 41.902C146.31 41.9673 146.222 42 146.119 42H145.125ZM148.791 42C148.688 42 148.609 41.9673 148.553 41.902C148.506 41.8367 148.492 41.7573 148.511 41.664L149.673 36.204H148.539C148.446 36.204 148.371 36.1713 148.315 36.106C148.268 36.0407 148.254 35.9613 148.273 35.868L148.441 35.056C148.46 34.9627 148.506 34.8833 148.581 34.818C148.665 34.7527 148.758 34.72 148.861 34.72H149.981L150.107 34.146C150.228 33.586 150.424 33.124 150.695 32.76C150.975 32.3867 151.325 32.1067 151.745 31.92C152.165 31.7333 152.655 31.64 153.215 31.64H154.335C154.438 31.64 154.512 31.6727 154.559 31.738C154.606 31.8033 154.62 31.8827 154.601 31.976L154.433 32.788C154.414 32.8813 154.363 32.9607 154.279 33.026C154.204 33.0913 154.12 33.124 154.027 33.124H153.187C152.814 33.124 152.524 33.2173 152.319 33.404C152.114 33.5907 151.978 33.8613 151.913 34.216L151.801 34.72H153.537C153.64 34.72 153.714 34.7527 153.761 34.818C153.808 34.8833 153.822 34.9627 153.803 35.056L153.635 35.868C153.616 35.9613 153.57 36.0407 153.495 36.106C153.42 36.1713 153.332 36.204 153.229 36.204H151.493L150.317 41.664C150.298 41.7573 150.252 41.8367 150.177 41.902C150.102 41.9673 150.018 42 149.925 42H148.791ZM156.703 42.14C155.993 42.14 155.401 42.0093 154.925 41.748C154.458 41.4867 154.122 41.118 153.917 40.642C153.721 40.166 153.674 39.6107 153.777 38.976C153.805 38.808 153.842 38.6027 153.889 38.36C153.945 38.1173 153.996 37.912 154.043 37.744C154.211 37.1 154.467 36.5447 154.813 36.078C155.167 35.602 155.615 35.2333 156.157 34.972C156.707 34.7107 157.356 34.58 158.103 34.58C158.812 34.58 159.4 34.7107 159.867 34.972C160.343 35.2333 160.683 35.602 160.889 36.078C161.094 36.5447 161.145 37.1 161.043 37.744C161.005 37.912 160.963 38.1173 160.917 38.36C160.87 38.6027 160.823 38.808 160.777 38.976C160.609 39.6107 160.352 40.166 160.007 40.642C159.671 41.118 159.227 41.4867 158.677 41.748C158.135 42.0093 157.477 42.14 156.703 42.14ZM156.843 40.754C157.347 40.754 157.771 40.6 158.117 40.292C158.471 39.9747 158.728 39.5127 158.887 38.906C158.924 38.766 158.966 38.584 159.013 38.36C159.059 38.136 159.097 37.954 159.125 37.814C159.227 37.2167 159.185 36.7593 158.999 36.442C158.812 36.1247 158.467 35.966 157.963 35.966C157.468 35.966 157.043 36.1247 156.689 36.442C156.334 36.7593 156.082 37.2167 155.933 37.814C155.895 37.954 155.849 38.136 155.793 38.36C155.746 38.584 155.713 38.766 155.695 38.906C155.592 39.5127 155.629 39.9747 155.807 40.292C155.993 40.6 156.339 40.754 156.843 40.754ZM162.048 42C161.955 42 161.88 41.9673 161.824 41.902C161.778 41.8367 161.764 41.7573 161.782 41.664L163.182 35.07C163.201 34.9673 163.248 34.8833 163.322 34.818C163.406 34.7527 163.495 34.72 163.588 34.72H164.722C164.816 34.72 164.886 34.7527 164.932 34.818C164.988 34.8833 165.007 34.9673 164.988 35.07L164.862 35.644C165.086 35.3453 165.371 35.1167 165.716 34.958C166.062 34.7993 166.482 34.72 166.976 34.72H167.662C167.765 34.72 167.84 34.7527 167.886 34.818C167.933 34.8833 167.947 34.9627 167.928 35.056L167.718 36.064C167.7 36.1573 167.648 36.2367 167.564 36.302C167.49 36.3673 167.406 36.4 167.312 36.4H166.22C165.772 36.4 165.394 36.526 165.086 36.778C164.788 37.03 164.592 37.3753 164.498 37.814L163.672 41.664C163.654 41.7573 163.607 41.8367 163.532 41.902C163.458 41.9673 163.369 42 163.266 42H162.048ZM167.633 42C167.54 42 167.465 41.9673 167.409 41.902C167.363 41.8367 167.349 41.7573 167.367 41.664L168.767 35.056C168.786 34.9627 168.833 34.8833 168.907 34.818C168.991 34.7527 169.08 34.72 169.173 34.72H170.265C170.359 34.72 170.429 34.7527 170.475 34.818C170.522 34.8833 170.536 34.9627 170.517 35.056L170.419 35.532C170.597 35.3547 170.779 35.196 170.965 35.056C171.161 34.9067 171.385 34.79 171.637 34.706C171.889 34.622 172.183 34.58 172.519 34.58C173.061 34.58 173.504 34.692 173.849 34.916C174.204 35.1307 174.442 35.434 174.563 35.826C174.862 35.4527 175.207 35.154 175.599 34.93C175.991 34.6967 176.449 34.58 176.971 34.58C177.475 34.58 177.909 34.692 178.273 34.916C178.647 35.14 178.908 35.4807 179.057 35.938C179.207 36.386 179.211 36.9553 179.071 37.646L178.203 41.664C178.185 41.7573 178.138 41.8367 178.063 41.902C177.989 41.9673 177.905 42 177.811 42H176.663C176.57 42 176.495 41.9673 176.439 41.902C176.393 41.8367 176.379 41.7573 176.397 41.664L177.223 37.758C177.317 37.338 177.335 37.0067 177.279 36.764C177.223 36.512 177.107 36.3347 176.929 36.232C176.761 36.1293 176.556 36.078 176.313 36.078C176.099 36.078 175.87 36.1293 175.627 36.232C175.394 36.3347 175.175 36.512 174.969 36.764C174.773 37.0067 174.633 37.338 174.549 37.758L173.709 41.664C173.691 41.7573 173.644 41.8367 173.569 41.902C173.495 41.9673 173.411 42 173.317 42H172.169C172.067 42 171.987 41.9673 171.931 41.902C171.885 41.8367 171.871 41.7573 171.889 41.664L172.729 37.758C172.813 37.338 172.823 37.0067 172.757 36.764C172.701 36.512 172.589 36.3347 172.421 36.232C172.253 36.1293 172.048 36.078 171.805 36.078C171.6 36.078 171.376 36.134 171.133 36.246C170.891 36.3487 170.667 36.5213 170.461 36.764C170.265 37.0067 170.125 37.338 170.041 37.758L169.201 41.664C169.183 41.7573 169.136 41.8367 169.061 41.902C168.987 41.9673 168.903 42 168.809 42H167.633Z" fill="#546B42"/>
<path d="M158.252 10.8552C151.399 12.9501 149.562 22.1336 149.5 26.4635C150.535 19.0607 155.947 15.3331 158.524 14.3947C167.46 11.1402 170.841 11.7897 172.613 9.88961C172.013 15.0566 169.003 20.5385 165.199 22.6268C161.853 24.9089 158.436 25.0904 156.199 24.2745C156.846 20.0242 164.683 15.7474 168.521 14.1402C159.479 15.0251 153.329 23.0199 151.384 26.9067L153.186 27.3306L155.368 27.8062L157.854 28.1392L160.494 28.1812C172.906 27.0468 174.484 12.2607 174.741 4.5978C173.096 9.71363 166.818 8.23653 158.252 10.8552Z" fill="#2A4613"/>
</svg>
