<svg width="200" height="44" viewBox="0 0 200 44" fill="none" xmlns="http://www.w3.org/2000/svg">
<path d="M11.9866 1.83057H14.0666L25.8533 30.6906H23.5133L19.7866 21.4172H6.17995L2.45328 30.6039H0.199951L11.9866 1.83057ZM18.92 19.3372L12.9399 4.43057L6.95995 19.3372H18.92Z" fill="black"/>
<path d="M30.4465 1.83057H39.1132C41.0199 1.83057 42.5799 2.0039 43.8799 2.43723C45.1799 2.87057 46.2199 3.39057 46.9999 4.17057C47.7799 4.8639 48.3865 5.73057 48.7332 6.77057C49.0799 7.7239 49.2532 8.85057 49.2532 10.0639C49.2532 11.9706 48.7332 13.6172 47.7799 15.0906C46.8265 16.5639 45.2665 17.5172 43.1865 18.0372L50.0332 30.7772H47.6932L41.0199 18.2972H32.4399V30.7772H30.3599V1.83057H30.4465ZM39.9799 16.2172C44.7465 16.2172 47.0865 14.1372 47.0865 9.97723C47.0865 7.89723 46.4799 6.33723 45.1799 5.29723C43.9665 4.25723 42.0599 3.73723 39.6332 3.73723H32.4399V16.2172H39.9799Z" fill="black"/>
<path d="M56.1865 1.83057H58.2665V16.8239L72.4799 1.83057H74.9932L64.0732 13.4439L76.4665 30.6039H74.0399L62.5999 15.0039L58.2665 19.5972V30.6039H56.1865V1.83057Z" fill="black"/>
<path d="M193.033 5.4707L188.873 5.55737C190.78 7.11737 192.166 9.3707 192.686 12.0574C192.773 12.5774 192.86 13.184 192.86 13.704L195.286 10.2374L198.666 5.4707H193.033Z" fill="black"/>
<path d="M131.846 0.963867C130.286 0.963867 128.813 1.22387 127.6 1.6572C126.386 2.09053 125.346 2.6972 124.393 3.39053C123.526 4.08387 122.746 4.86387 122.14 5.64387C122.053 5.73053 122.053 5.8172 121.966 5.90387C121.966 5.38387 121.966 4.95053 121.966 4.5172C121.966 4.08387 121.966 3.56387 121.88 3.2172C121.88 2.78387 121.793 2.35053 121.793 1.9172V1.22387H117.893L117.98 1.9172C117.98 2.35053 118.066 2.78387 118.066 3.13053C118.066 3.4772 118.066 3.91053 118.066 4.34387V30.7772H122.14V15.6972C122.14 14.3972 122.4 13.0972 122.833 11.7972C123.266 10.4972 123.873 9.37053 124.74 8.33053C125.52 7.3772 126.473 6.51053 127.6 5.90387C128.726 5.2972 129.94 5.0372 131.326 5.0372C131.586 5.0372 131.933 5.0372 132.366 5.12387C132.713 5.12387 132.973 5.21053 133.233 5.2972L133.926 5.5572L135.14 1.6572L134.62 1.3972C133.666 1.1372 132.8 0.963867 131.846 0.963867Z" fill="#E7CC00"/>
<path d="M159.06 1.22412L150.046 24.7108L139.646 1.22412H135.14L147.966 29.8241L145.713 35.5441C145.106 37.1041 144.5 38.2308 143.893 39.0975C143.373 39.7908 142.593 40.1375 141.553 40.1375C140.86 40.1375 140.166 40.0508 139.646 39.7908C139.126 39.5308 138.606 39.2708 138.346 38.9241L137.826 38.4041L135.66 41.4375L136.093 41.7841C136.786 42.3908 137.566 42.9108 138.433 43.2575C139.3 43.6041 140.426 43.8641 141.64 43.8641C142.766 43.8641 143.806 43.6041 144.673 43.1708C145.54 42.7375 146.233 42.1308 146.84 41.4375C147.446 40.7441 147.88 40.0508 148.313 39.2708C148.66 38.4908 149.006 37.7975 149.266 37.1908L163.48 1.22412H159.06Z" fill="#E7CC00"/>
<path d="M189.48 18.2107C189.22 20.0307 188.613 21.8507 187.486 23.4974C183.586 29.304 175.786 30.864 169.98 26.964C164.173 23.064 162.613 15.264 166.513 9.45735C170.24 3.82402 177.78 2.17735 183.5 5.64402L188.873 5.55735C188.006 4.60402 187.053 3.73735 185.926 3.04402C178.56 -1.89598 168.506 0.0973525 163.566 7.55069C158.626 14.9174 160.62 24.9707 168.073 29.9107C175.44 34.8507 185.493 32.8574 190.433 25.404C192.86 21.764 193.64 17.5174 192.86 13.6174L189.48 18.2107Z" fill="#E7CC00"/>
<path d="M106.453 27.2238C100.56 30.8638 92.7598 29.1305 89.1198 23.1505C85.4798 17.2571 87.2132 9.45714 93.1932 5.81714C98.3065 2.61047 104.807 3.56381 108.793 7.63714H113.3C108.533 0.35714 98.7398 -1.80953 91.2865 2.78381C83.7465 7.46381 81.4065 17.4305 86.0865 24.9705C90.7665 32.5105 100.733 34.8505 108.273 30.1705C110.527 28.7838 112.347 26.8771 113.56 24.7971H109.227C108.447 25.6638 107.58 26.5305 106.453 27.2238Z" fill="#E7CC00"/>
</svg>
