<svg width="274" height="104" viewBox="0 0 274 104" fill="none" xmlns="http://www.w3.org/2000/svg">
<g clip-path="url(#clip0_1_148)">
<path d="M51.9405 10.0955C28.7975 10.0955 10.0165 28.6971 10.0165 51.6639C10.0165 74.6106 28.7773 93.2323 51.9405 93.2323C75.0835 93.2323 93.8644 74.6306 93.8644 51.6639C93.8644 28.7172 75.0835 10.0955 51.9405 10.0955ZM82.1718 31.5605C82.9997 31.2601 83.4642 31.3602 83.9085 32.0811C84.6153 33.2424 85.3221 34.4238 85.928 35.6652C86.554 36.9668 86.2309 37.5875 84.8374 37.9079C84.0297 38.0881 83.2017 38.1682 82.4141 38.3484C80.3341 38.869 78.3954 39.7901 76.5779 40.9514C75.4672 41.6522 74.3363 42.313 73.2256 42.9738C73.0236 43.0939 72.8015 43.174 72.5793 43.2541C72.5389 43.2341 72.4986 43.214 72.438 43.194C72.4784 42.9137 72.4582 42.6133 72.539 42.333C74.0939 37.147 77.1635 33.4226 82.1718 31.5605ZM62.7042 65.48C63.5322 67.1219 64.037 69.0241 64.2592 70.8662C64.6025 73.6495 63.0071 75.1913 60.1799 74.5706C58.0998 74.11 56.1813 72.8486 54.2629 71.7873C52.8896 71.0064 52.829 68.5235 54.0407 67.4823C55.0101 66.6614 56.0804 65.9405 56.9891 65.0595C57.5546 64.4988 57.9181 63.7379 58.3826 63.0772C57.6555 62.5966 56.9689 61.7757 56.2217 61.7156C54.2023 61.5354 52.1626 61.6755 50.1432 61.6956C49.295 61.6956 48.467 61.6956 47.8814 61.6956C47.8814 59.5731 47.9218 57.5708 47.8814 55.5885C47.8208 52.8453 45.2359 49.8418 42.55 49.4213C42.0855 49.3412 41.5403 49.6816 41.0354 49.8618C39.1573 50.5426 37.2792 50.9831 34.8357 49.6015C36.0473 48.7004 36.8551 47.7794 37.8851 47.3789C39.743 46.638 40.8739 45.6969 40.6315 43.4743C40.5709 42.8736 41.2374 41.8925 41.8432 41.5521C43.2366 40.8112 44.7714 40.2906 46.286 39.8301C46.6293 39.73 47.2957 40.0303 47.5785 40.3507C48.6488 41.6122 48.5074 42.3931 49.4969 43.6946C49.9816 44.3153 51.5366 45.5167 52.1222 46.2976C54.586 45.0161 54.9697 42.7135 56.9891 40.4308C57.3728 39.9903 58.3422 39.77 58.9682 39.8902C60.1597 40.1104 61.2502 40.8112 62.4417 41.0315C65.8545 41.6322 67.1672 43.9349 67.8336 46.9784C68.601 50.5426 67.9952 51.1633 64.34 50.3423C64.037 50.2823 63.6735 50.2422 63.4716 50.062C61.6945 48.4602 60.4626 49.8418 59.1903 50.8429C57.7161 51.9843 57.0093 53.466 57.4334 55.3482C57.4738 55.5084 57.6555 55.6285 57.8777 55.9088C58.1806 55.4883 58.4835 55.1279 58.7259 54.7274C59.4529 53.506 60.4626 53.0054 61.856 53.506C63.4716 54.1067 64.7236 54.0266 65.794 52.3647C66.8037 50.8229 67.8134 51.0632 68.5 52.8252C68.7424 53.446 68.9645 54.0867 69.1866 54.7274C69.8127 56.6497 69.2876 57.8311 67.5105 58.8723C66.1978 59.6532 61.2098 58.0113 60.0385 58.9724C58.6855 59.9936 61.7752 63.6378 62.7042 65.48ZM36.0473 50.8629C36.9561 51.6038 37.7235 52.3847 38.6323 52.9254C39.3997 53.3859 40.3892 53.9666 41.197 53.8464C44.5291 53.3458 46.4476 54.2269 45.8619 57.2704C43.9434 57.6709 42.5096 57.811 40.7931 58.1715C40.1267 58.3116 38.2082 58.8523 37.5417 58.9123C35.6031 59.0725 34.6337 58.2315 34.5328 56.3493C34.3914 54.4671 34.5933 52.6851 36.0473 50.8629ZM34.25 41.3719C33.5432 40.2506 32.8162 39.1293 32.17 37.9679C31.6045 36.9668 31.0997 35.9055 30.5948 34.8643C30.4938 34.6441 30.4131 34.4038 30.3525 34.1835C30.2717 33.9032 30.3525 33.763 30.6756 33.743C31.1603 33.9432 31.6853 34.1034 32.1498 34.3637C33.8259 35.2848 35.3607 36.4462 36.734 37.8077C37.5417 38.6087 37.5821 38.889 36.8753 39.77C36.3503 40.4108 35.7444 40.9914 35.1184 41.5321C34.7347 41.8925 34.553 41.8324 34.25 41.3719ZM40.4902 69.7449C40.9142 68.2232 41.4797 66.7414 42.1461 65.2998C42.9539 63.5377 44.8118 62.9771 46.4678 64.0984C48.0227 65.1396 49.4767 66.361 50.85 67.6425C52.0011 68.7037 51.5164 70.7461 50.2845 71.8474C48.568 73.4092 46.8515 74.8108 44.3877 74.7708C40.8335 74.7708 39.541 73.1289 40.4902 69.7449ZM67.773 40.7311C67.6519 40.4108 67.6115 40.0504 67.5509 39.8301C67.6721 38.2483 68.2577 37.0268 69.3684 36.1658C70.3579 35.3849 71.4484 34.7041 72.4986 34.0033C72.6803 33.8832 72.963 33.8832 73.1852 33.8231C73.2054 34.0634 73.2862 34.3237 73.2458 34.5439C73.0438 35.9656 72.4784 37.2471 71.7917 38.4685C71.3071 39.3095 70.7214 40.1104 70.1762 40.9314C70.1156 41.0115 70.055 41.0715 69.9944 41.1516C69.2472 42.0126 68.2375 41.8324 67.773 40.7311ZM78.1732 26.2743C79.3041 26.6147 80.1119 27.3756 80.6572 28.4368C81.0005 29.0776 80.9197 29.3179 80.2533 29.478C78.88 29.8385 77.527 30.1989 76.1336 30.4592C73.1246 31.0198 70.1156 31.5404 67.1066 32.061C67.0056 32.0811 66.9047 32.0811 66.7431 32.0811C68.7222 29.6382 70.8224 27.4957 73.7708 26.4946C75.2046 26.034 76.6788 25.8138 78.1732 26.2743ZM66.9652 19.2261C67.046 18.7856 67.1874 18.6054 67.6115 18.6654C67.9346 18.7055 68.2779 18.8056 68.5808 18.9458C69.9742 19.6065 71.2869 20.4075 72.4784 21.4086C72.8621 21.729 73.2054 22.1295 73.4679 22.55C73.791 23.0706 73.6093 23.451 73.0438 23.6312C72.9428 23.6713 72.8419 23.6913 72.7409 23.6913C71.9533 23.6713 71.3273 24.0317 70.7618 24.5323C69.328 25.7337 68.1365 27.1754 66.9854 28.6571C65.491 30.5793 64.2188 32.6417 62.9869 34.7442C62.5224 35.5251 61.9772 36.2659 61.4319 36.9868C61.2098 37.2671 60.9271 37.5074 60.6443 37.7076C60.2001 38.008 59.8971 37.8678 59.776 37.3472C59.7356 37.167 59.7154 36.9668 59.6952 36.7865C59.675 36.7865 59.6548 36.7665 59.6144 36.7665C59.8568 35.9456 60.0385 35.1246 60.3212 34.3237C61.6743 30.4592 63.2091 26.6748 65.1275 23.0506C65.6324 22.1095 66.1777 21.2084 66.6623 20.2473C66.8441 19.9469 66.8845 19.5665 66.9652 19.2261ZM58.4027 19.3062C58.5643 18.7055 58.7864 18.1248 59.0288 17.5642C59.3115 16.8834 59.8164 16.563 60.4828 16.5229C61.6137 16.4429 62.7446 16.4429 63.7947 17.0035C64.1986 17.2037 64.5823 17.5041 64.8852 17.8645C65.3901 18.4452 65.3901 19.2461 64.8448 19.7867C63.7745 20.8079 63.1283 22.1495 62.5224 23.5311C61.2502 26.4145 60.2203 29.3979 59.5336 32.5416C59.1903 34.1234 58.8672 35.7053 58.4229 37.2471C58.221 37.9279 57.7969 38.5486 57.4132 39.1493C57.0901 39.6299 56.5852 39.8501 56.04 39.6499C55.4745 39.4296 55.0303 39.0492 54.9293 38.3283C54.8283 37.6275 54.7879 36.9267 54.7273 36.2259C54.7879 33.9432 55.1514 31.7407 55.7573 29.5581C56.6458 26.1341 57.494 22.7102 58.4027 19.3062ZM49.4565 15.3816C50.0018 15.0612 50.9711 14.841 52.102 14.841C52.9906 14.881 54.0609 15.0212 55.0706 15.4417C55.7169 15.702 55.8582 16.0023 55.5351 16.7032C54.8485 18.265 54.7071 19.987 54.586 21.6689C54.3234 25.2531 54.1619 28.8373 53.9397 32.4215C53.8388 34.0233 53.6974 35.6052 53.556 37.207C53.5359 37.4273 53.4753 37.6476 53.4147 37.8678C53.2733 38.4285 52.93 38.7088 52.4252 38.7288C52.0818 38.7288 51.7183 38.7288 51.375 38.6687C50.7692 38.5686 50.4461 38.1882 50.3653 37.4874C50.2845 36.6264 50.2643 35.7453 50.2239 34.8843C50.0422 31.7607 49.8604 28.6371 49.6383 25.5134C49.4364 22.7702 49.194 20.027 48.9517 17.2838C48.9315 17.0235 48.8911 16.7832 48.8709 16.5229C48.8507 15.9222 48.9719 15.682 49.4565 15.3816ZM39.8641 17.0035C40.6517 16.6831 41.4999 16.543 42.3279 16.3628C42.6914 16.2827 43.0751 16.2827 43.4588 16.2626C44.1454 16.2226 44.6704 16.563 44.9532 17.2438C45.3167 18.1248 45.66 19.0058 45.9629 19.9069C46.9524 22.8503 47.7198 25.8538 48.1035 28.9775C48.3055 30.6594 48.4266 32.3614 48.568 34.0634C48.4872 35.3849 48.467 36.6864 48.1237 37.9479C47.8208 39.0492 47.2351 39.4296 46.3466 39.0892C45.9225 38.929 45.6802 38.6087 45.5792 38.1081C45.0541 35.5251 44.4685 32.9621 43.9636 30.3791C43.2568 26.8149 41.9644 23.5511 40.0863 20.6077C39.7833 20.1271 39.4804 19.6666 39.2179 19.166C38.7332 18.2049 38.915 17.404 39.8641 17.0035ZM30.4938 22.55C31.0189 21.9493 31.5843 21.3886 32.1902 20.868C33.1595 20.027 34.1895 19.3062 35.3607 18.7856C36.0877 18.4652 36.3301 18.4852 36.7542 19.166C37.5216 20.3274 38.2688 21.5088 38.915 22.7502C40.5911 25.9339 42.0249 29.2378 43.1558 32.6818C43.4991 33.703 43.8425 34.7442 43.8425 36.0857C43.7819 36.4462 43.7213 37.0268 43.5799 37.6075C43.479 38.048 43.277 38.1081 43.0145 37.7276C42.3077 36.7265 41.5807 35.7453 40.9748 34.7041C39.642 32.4415 38.3293 30.1789 36.6532 28.1565C35.4617 26.7148 34.25 25.3132 32.6749 24.312C32.2306 24.0317 31.6853 23.9116 31.2007 23.7313C31.1199 23.6913 31.0189 23.6913 30.9381 23.6713C30.2515 23.5511 30.0496 23.0906 30.4938 22.55ZM24.2133 27.6359C25.0009 26.4145 26.1924 26.0541 27.505 26.014C29.4639 25.974 31.2208 26.6748 32.8566 27.736C34.2904 28.6571 35.4213 29.9186 36.532 31.2201C36.6128 31.3202 36.6734 31.4403 36.7542 31.5605C36.7945 31.6205 36.7945 31.6806 36.8551 31.8808C36.4109 31.9009 36.0272 31.9609 35.6838 31.9009C33.1191 31.4804 30.5544 31.0399 28.0099 30.5793C27.0002 30.3991 25.9905 30.1188 25.0009 29.8184C23.5873 29.418 23.4055 28.8974 24.2133 27.6359ZM19.1445 33.5628C19.407 33.0622 19.7705 32.6017 20.1542 32.1812C20.5581 31.7407 21.1236 31.5805 21.6486 31.5805C22.4362 31.6205 23.1228 31.8808 23.769 32.2413C25.1625 32.9821 26.354 33.9833 27.3637 35.2247C29.06 37.2471 30.5948 39.3896 31.7459 41.8124C31.8873 42.0927 31.9882 42.3931 32.0488 42.6934C32.0892 42.8536 32.069 43.0739 31.9882 43.174C31.9277 43.2341 31.6853 43.214 31.5642 43.154C30.4333 42.6133 29.3226 42.0527 28.2119 41.492C26.253 40.5309 24.3143 39.5498 22.3352 38.6087C21.5476 38.2282 20.7197 38.028 19.8311 38.008C19.5686 38.008 19.306 37.9279 19.0637 37.8278C18.5185 37.6275 18.2357 37.187 18.2155 36.5863C18.2155 35.465 18.6598 34.5039 19.1445 33.5628ZM14.1766 42.6133C14.4392 41.5921 15.1056 40.9314 16.0143 40.5509C16.8625 40.1905 17.7713 40.1304 18.6396 40.1104C20.6995 40.1705 22.6785 40.611 24.597 41.3318C26.1116 41.8925 27.5858 42.5933 29.0802 43.2341C29.3831 43.3742 29.6457 43.6145 29.9284 43.8147C30.0092 43.8748 30.0294 44.015 30.09 44.1151C29.989 44.1551 29.888 44.2553 29.787 44.2553C29.1812 44.1952 28.5956 44.1351 28.0099 44.055C26.5155 43.8147 25.0211 43.4944 23.5267 43.3542C21.6284 43.174 19.8513 43.6345 18.2963 44.876C17.7309 45.3365 17.0846 45.6769 16.4384 45.9973C16.1355 46.1575 15.7518 46.1775 15.4085 46.1775C14.8632 46.1575 14.4997 45.7971 14.318 45.2564C14.0555 44.3954 13.9545 43.5144 14.1766 42.6133ZM14.8632 52.1244C14.4392 50.5426 14.8632 49.221 16.0143 48.1398C17.2462 46.9784 18.7608 46.4178 20.336 46.0574C22.8805 45.4767 25.4452 45.4366 28.0099 45.777C29.3226 45.9572 30.6352 46.2175 31.9479 46.4578C32.1094 46.4778 32.271 46.5579 32.4325 46.618C32.4325 46.6581 32.4325 46.6981 32.4527 46.7582C32.2508 46.8182 32.0488 46.9184 31.8469 46.9584C30.0698 47.3188 28.3128 47.6392 26.5357 48.0196C25.2836 48.2799 24.072 48.5803 22.9007 49.161C21.891 49.6616 21.063 50.4024 20.2754 51.2033C19.1445 52.3246 18.0136 53.466 16.8221 54.5272C16.0143 55.2681 15.7316 55.1279 15.4287 54.0867C15.2267 53.4259 15.0248 52.7852 14.8632 52.1244ZM24.1931 69.805C24.1527 70.3456 24.0114 70.8662 23.9104 71.4069C23.8296 71.7473 23.6479 71.8274 23.3854 71.5671C22.6382 70.8462 21.8506 70.1254 21.1236 69.3645C19.609 67.7626 18.1146 66.1207 16.9433 64.1985C16.1557 62.917 15.7518 61.6755 15.7114 60.1938C15.7114 58.9323 16.3172 57.6909 17.1048 56.5095C18.579 54.2669 20.6389 52.7451 22.9411 51.5638C25.0009 50.5025 27.1415 49.6816 29.4437 49.4613C30.1505 49.4012 30.8775 49.4413 31.5843 49.5815C32.3719 49.7416 32.9778 50.6026 32.9576 51.4436C32.9576 51.6439 32.7354 51.9042 32.5537 52.0043C32.1296 52.2245 31.6651 52.4047 31.2007 52.5249C28.5148 53.2657 26.9396 55.188 25.9703 57.771C25.2029 59.8134 24.8192 61.9559 24.6172 64.1184C24.4355 66.0406 24.3547 67.9228 24.1931 69.805ZM40.7527 87.4456C39.7833 87.5257 38.8948 87.2654 38.0062 86.925C33.4826 85.223 30.2313 81.9992 27.8887 77.6942C26.152 74.4905 25.2836 71.0465 25.2634 66.8616C25.3038 63.4576 26.3741 59.8935 28.4138 56.6497C29.1812 55.4082 30.2313 54.4872 31.6651 54.1268C32.4325 53.9465 32.7758 54.1067 33.0182 54.8676C33.1999 55.4483 33.2807 56.069 33.4423 56.6497C33.624 57.2904 33.8259 57.9112 34.0885 58.5119C34.1894 58.7722 34.4116 59.0124 34.6539 59.1726C34.977 59.3729 35.0578 59.6532 34.9972 59.9936C34.9366 60.2339 34.8761 60.4741 34.7751 60.6944C34.1289 61.8958 33.9269 63.1973 33.7856 64.5189C33.5028 67.3221 33.4826 70.1054 33.8259 72.9086C34.1693 75.772 35.078 78.4351 36.6734 80.7978C37.8649 82.5599 39.1977 84.1818 40.47 85.8837C40.6921 86.1641 40.9142 86.4644 41.096 86.7648C41.3585 87.2053 41.2576 87.3855 40.7527 87.4456ZM57.5546 86.4244C56.565 86.985 55.6765 87.7259 54.586 88.4868C53.9397 86.6046 54.2427 84.362 51.6174 83.3408C51.6174 84.5822 51.6981 85.6435 51.577 86.6847C51.5164 87.2854 51.1125 87.846 50.8702 88.4267C50.4259 88.1664 49.9614 87.9261 49.5171 87.6658C47.9622 86.7047 46.4072 85.7636 44.8522 84.8025C42.5298 83.3608 42.6914 79.276 45.0339 77.8944C46.2052 77.1936 47.0938 76.0523 48.2449 75.2914C48.8911 74.8509 49.7595 74.6507 50.5672 74.5906C52.0213 74.4705 53.4753 74.5105 54.9293 74.5505C55.3938 74.5706 55.9592 74.6507 56.3227 74.911C57.8575 75.9722 59.3519 77.1135 60.8059 78.2549C61.0482 78.4551 61.6945 80.6376 61.6137 80.918C60.9271 83.5811 60.4424 84.8225 57.5546 86.4244ZM78.0723 72.7284C77.8299 74.6106 77.0221 76.2926 76.073 77.8544C74.1949 80.918 71.8119 83.501 68.9039 85.5233C67.6519 86.3843 66.3594 87.1452 64.8448 87.3855C64.0976 87.5056 63.3302 87.4856 62.583 87.5056C62.5628 87.4656 62.5224 87.4055 62.5022 87.3655C63.5322 85.9839 64.4207 84.422 65.6324 83.2607C67.5105 81.4586 68.3991 79.1759 69.2472 76.8332C70.0752 74.5305 70.6205 72.1477 70.984 69.7249C71.2263 68.063 71.0849 66.4211 70.5801 64.8192C70.2368 63.6979 69.9137 62.5566 69.5905 61.4353C69.3684 60.6744 69.3886 59.8734 69.7117 59.1526C70.3377 57.751 70.9638 56.3493 71.6706 54.9878C72.0543 54.2269 72.4986 54.1468 73.3063 54.4471C74.417 54.8676 75.1642 55.7286 75.8711 56.6497C76.8808 57.9712 77.3655 59.533 77.6684 61.1549C78.355 64.9994 78.5771 68.8439 78.0723 72.7284ZM87.7051 63.5377C86.0087 66.2809 83.9893 68.7638 81.6669 70.9664C81.4044 71.2267 81.1014 71.4469 80.7783 71.6271C80.6168 71.7072 80.3946 71.6672 80.1927 71.6672C80.1927 71.487 80.1725 71.2867 80.1725 71.1065C80.1927 70.4257 80.2937 69.7249 80.2331 69.0441C79.7686 64.8593 78.9002 60.7344 77.628 56.7298C76.9212 54.4872 75.3258 53.2858 73.2659 52.605C72.8621 52.4848 72.4582 52.3647 72.0745 52.1845C71.4888 51.9042 71.3677 51.5437 71.5696 50.923C71.711 50.4825 71.7917 50.022 71.9735 49.6015C72.0341 49.4413 72.2562 49.2411 72.4178 49.2411C73.0236 49.2411 73.6295 49.221 74.2151 49.3412C77.5068 50.022 80.6168 51.1833 83.6056 52.7652C85.6654 53.8664 86.9175 55.6485 87.7051 57.8511C87.9272 58.4918 88.0888 59.1526 88.2301 59.8134C88.3311 60.2339 88.3311 60.6744 88.3715 61.1149C88.3917 62.0159 88.1494 62.7968 87.7051 63.5377ZM88.8764 53.8664C88.5532 54.6474 88.2705 54.7875 87.5839 54.327C86.8973 53.8664 86.2713 53.3058 85.625 52.7652C84.7567 52.0043 83.9287 51.1433 83.0199 50.4024C81.4851 49.1409 79.6474 48.5002 77.7895 48.0196C75.9114 47.5391 74.0333 47.0785 72.1553 46.618C72.0341 46.598 71.9331 46.5579 71.8119 46.5379V46.4578C73.7304 46.2376 75.6489 46.0173 77.5674 45.8171C79.2839 45.6369 81.0005 45.5768 82.7372 45.8171C84.4941 46.0574 86.1097 46.618 87.4829 47.8595C89.0379 49.2611 89.6639 51.9642 88.8764 53.8664ZM87.6445 46.0574C87.2608 45.8771 86.8771 45.6769 86.5944 45.3565C85.5443 44.1952 84.2316 43.7947 82.7776 43.7947C79.9302 43.7947 77.0827 43.8548 74.2353 43.8948C74.1545 43.8948 74.0737 43.8948 74.0132 43.8948C76.7394 42.5332 79.4657 41.1717 82.4747 40.631C84.0297 40.3507 85.5846 40.2105 87.1396 40.611C87.6243 40.7311 88.0888 40.9314 88.5129 41.1717C89.4822 41.7323 89.9467 42.6334 89.8255 43.7747C89.7649 44.3353 89.5832 44.896 89.361 45.3966C88.9975 46.1775 88.3715 46.3977 87.6445 46.0574Z" fill="#104A80"/>
<path d="M51.9404 0.164062C23.2642 0.164062 0 23.2309 0 51.6641C0 80.1172 23.2642 103.164 51.9404 103.164C80.6167 103.164 103.881 80.0972 103.881 51.6641C103.881 23.2309 80.6369 0.164062 51.9404 0.164062ZM51.9404 98.7789C25.6875 98.7789 4.42261 77.6744 4.42261 51.6641C4.42261 25.6538 25.7077 4.54917 51.9404 4.54917C78.1732 4.54917 99.4583 25.6538 99.4583 51.6641C99.4583 77.6744 78.1934 98.7789 51.9404 98.7789Z" fill="#FF9015"/>
<path d="M130.962 22.8103C129.225 24.5323 128.337 26.6348 128.337 29.0776V43.0138H132.174V31.6206H137.303V27.8161H132.335C132.557 26.9551 133.001 26.1742 133.688 25.4934C134.678 24.4923 135.889 24.0117 137.283 24.0117H137.303V20.2273H137.283C134.819 20.2273 132.719 21.0683 130.962 22.8103Z" fill="#104A80"/>
<path d="M148.814 25.2734C146.33 25.2734 144.23 26.1344 142.493 27.8765C140.756 29.5985 139.868 31.7009 139.868 34.1438C139.868 36.6066 140.736 38.6891 142.493 40.4111C144.23 42.1331 146.35 43.0141 148.814 43.0141C151.298 43.0141 153.398 42.1531 155.135 40.4111C156.871 38.6891 157.76 36.5866 157.76 34.1438C157.76 31.6809 156.892 29.5985 155.135 27.8765C153.398 26.1545 151.278 25.2734 148.814 25.2734ZM152.429 37.7279C151.439 38.7091 150.227 39.2097 148.814 39.2097C147.4 39.2097 146.189 38.7091 145.199 37.7279C144.21 36.7468 143.705 35.5454 143.705 34.1438C143.705 32.7421 144.21 31.5608 145.199 30.5596C146.189 29.5785 147.4 29.0779 148.814 29.0779C150.227 29.0779 151.419 29.5785 152.429 30.5596C153.418 31.5407 153.923 32.7421 153.923 34.1438C153.923 35.5454 153.418 36.7468 152.429 37.7279Z" fill="#104A80"/>
<path d="M160.305 34.1438V43.0141H164.142V34.1438C164.142 32.7421 164.646 31.5608 165.636 30.5596C166.625 29.5785 167.837 29.0779 169.251 29.0779V25.2734C166.767 25.2734 164.667 26.1344 162.93 27.8765C161.173 29.5985 160.305 31.7009 160.305 34.1438Z" fill="#104A80"/>
<path d="M179.772 32.061C176.945 31.3602 175.511 30.6394 175.511 29.8585C175.471 29.3379 176.137 29.0776 177.49 29.0575H184.578V25.2531H176.904C173.492 25.2331 171.795 26.9551 171.795 30.4391C171.795 31.7206 172.199 32.8019 172.987 33.723C173.774 34.624 176.016 35.5251 179.712 36.4461C180.802 36.7265 181.347 37.207 181.347 37.8878C181.287 38.6888 180.418 39.1293 178.742 39.1893H171.795L171.815 42.9938H178.843C180.964 42.9938 182.579 42.5132 183.69 41.5521C184.801 40.591 185.346 39.1693 185.346 37.2671C185.346 35.8254 184.942 34.7241 184.114 33.9633C183.286 33.2224 181.852 32.5816 179.772 32.061Z" fill="#104A80"/>
<path d="M201.199 25.2734V26.8353C199.724 25.794 198.008 25.2734 196.089 25.2734C193.605 25.2734 191.505 26.1344 189.768 27.8765C188.032 29.5985 187.143 31.7009 187.143 34.1438C187.143 36.6066 188.011 38.6891 189.768 40.4111C191.505 42.1331 193.626 43.0141 196.089 43.0141C198.008 43.0141 199.724 42.4735 201.199 41.4323V43.0141H205.036V34.1438V25.2734H201.199ZM199.684 37.7279C198.694 38.7091 197.483 39.2097 196.069 39.2097C194.655 39.2097 193.444 38.7091 192.454 37.7279C191.465 36.7468 190.96 35.5454 190.96 34.1438C190.96 32.7421 191.465 31.5608 192.454 30.5596C193.444 29.5785 194.655 29.0779 196.069 29.0779C197.483 29.0779 198.674 29.5785 199.684 30.5596C200.673 31.5407 201.178 32.7421 201.178 34.1438C201.199 35.5454 200.694 36.7468 199.684 37.7279Z" fill="#104A80"/>
<path d="M137.303 56.5098C134.819 56.5098 132.719 57.3708 130.982 59.1128C129.245 60.8348 128.357 62.9373 128.357 65.3801C128.357 67.843 129.225 69.9254 130.982 71.6474C132.719 73.3694 134.839 74.2504 137.303 74.2504C139.787 74.2504 141.887 73.3894 143.624 71.6474L143.644 71.6274L140.938 68.9443L140.918 68.9643C139.928 69.9454 138.717 70.446 137.303 70.446C135.889 70.446 134.678 69.9454 133.688 68.9643C133.001 68.2835 132.557 67.5226 132.355 66.6416H144.977H146.128C146.209 66.2211 146.249 65.8006 146.249 65.3801C146.249 62.9172 145.381 60.8348 143.624 59.1128C141.887 57.3708 139.767 56.5098 137.303 56.5098ZM132.86 62.8371C133.082 62.4767 133.345 62.1163 133.688 61.7959C134.678 60.8148 135.889 60.3142 137.303 60.3142C138.717 60.3142 139.908 60.8148 140.918 61.7959C141.241 62.1363 141.524 62.4767 141.746 62.8371H132.86Z" fill="#104A80"/>
<path d="M157.74 56.5098C155.256 56.5098 153.156 57.3708 151.419 59.1128C149.682 60.8348 148.794 62.9373 148.794 65.3801C148.794 67.843 149.662 69.9254 151.419 71.6474C153.156 73.3694 155.276 74.2504 157.74 74.2504C159.679 74.2504 161.375 73.7298 162.849 72.6886V74.2504C162.849 75.6521 162.344 76.8535 161.355 77.8346C160.365 78.8158 159.153 79.3163 157.74 79.3163V83.1208C160.224 83.1208 162.324 82.2598 164.061 80.5177C165.797 78.7957 166.686 76.6933 166.686 74.2504V65.3801C166.686 62.9172 165.818 60.8348 164.061 59.1128C162.324 57.3708 160.204 56.5098 157.74 56.5098ZM161.355 68.9643C160.365 69.9454 159.153 70.446 157.74 70.446C156.326 70.446 155.115 69.9454 154.125 68.9643C153.135 67.9831 152.631 66.7817 152.631 65.3801C152.631 63.9785 153.135 62.7971 154.125 61.7959C155.115 60.8148 156.326 60.3142 157.74 60.3142C159.153 60.3142 160.345 60.8148 161.355 61.7959C162.344 62.7771 162.849 63.9785 162.849 65.3801C162.849 66.7817 162.344 67.9631 161.355 68.9643Z" fill="#104A80"/>
<path d="M178.177 56.5098C175.693 56.5098 173.593 57.3708 171.856 59.1128C170.119 60.8348 169.231 62.9373 169.231 65.3801C169.231 67.843 170.099 69.9254 171.856 71.6474C173.593 73.3694 175.713 74.2504 178.177 74.2504C180.115 74.2504 181.812 73.7298 183.286 72.6886V74.2504C183.286 75.6521 182.781 76.8535 181.792 77.8346C180.802 78.8158 179.59 79.3163 178.177 79.3163V83.1208C180.661 83.1208 182.761 82.2598 184.498 80.5177C186.234 78.7957 187.123 76.6933 187.123 74.2504V65.3801C187.123 62.9172 186.254 60.8348 184.498 59.1128C182.761 57.3708 180.661 56.5098 178.177 56.5098ZM181.792 68.9643C180.802 69.9454 179.59 70.446 178.177 70.446C176.763 70.446 175.551 69.9454 174.562 68.9643C173.572 67.9831 173.067 66.7817 173.067 65.3801C173.067 63.9785 173.572 62.7971 174.562 61.7959C175.551 60.8148 176.763 60.3142 178.177 60.3142C179.59 60.3142 180.782 60.8148 181.792 61.7959C182.781 62.7771 183.286 63.9785 183.286 65.3801C183.286 66.7817 182.781 67.9631 181.792 68.9643Z" fill="#104A80"/>
<path d="M206.288 56.5095C204.349 56.5095 202.653 57.0301 201.178 58.0713V51.4436H197.341V65.3798C197.341 67.8427 198.21 69.9251 199.967 71.6471C201.703 73.3691 203.824 74.2502 206.288 74.2502C208.772 74.2502 210.872 73.3892 212.609 71.6471C214.345 69.9251 215.234 67.8227 215.234 65.3798C215.234 62.917 214.365 60.8345 212.609 59.1125C210.872 57.3705 208.751 56.5095 206.288 56.5095ZM209.902 68.964C208.913 69.9452 207.701 70.4457 206.288 70.4457C204.874 70.4457 203.662 69.9452 202.673 68.964C201.683 67.9829 201.178 66.7815 201.178 65.3798C201.178 63.9782 201.683 62.7968 202.673 61.7957C203.662 60.8145 204.874 60.3139 206.288 60.3139C207.701 60.3139 208.893 60.8145 209.902 61.7957C210.892 62.7768 211.397 63.9782 211.397 65.3798C211.397 66.7815 210.892 67.9629 209.902 68.964Z" fill="#104A80"/>
<path d="M247.161 56.5098C244.677 56.5098 242.577 57.3708 240.841 59.1128C239.104 60.8348 238.215 62.9373 238.215 65.3801V74.2504H242.052V65.3801C242.052 63.9785 242.557 62.7971 243.547 61.7959C244.536 60.8148 245.748 60.3142 247.161 60.3142C248.575 60.3142 249.767 60.8148 250.776 61.7959C251.766 62.7771 252.271 63.9785 252.271 65.3801V74.2504H256.108V65.3801C256.108 62.9172 255.239 60.8348 253.482 59.1128C251.746 57.3708 249.645 56.5098 247.161 56.5098Z" fill="#104A80"/>
<path d="M274 56.5095H269.416L262.509 64.659V51.4436H258.672V74.2502H262.509V69.1843L268.891 74.2502H274L265.458 66.9817L274 56.5095Z" fill="#104A80"/>
<path d="M231.834 58.0716C230.36 57.0304 228.643 56.5098 226.724 56.5098C224.241 56.5098 222.14 57.3708 220.404 59.1128C218.667 60.8348 217.778 62.9373 217.778 65.3801C217.778 67.843 218.647 69.9254 220.404 71.6474C222.14 73.3694 224.261 74.2504 226.724 74.2504C228.643 74.2504 230.36 73.7098 231.834 72.6686V74.2504H235.671V65.3801V56.5098H231.834V58.0716ZM230.339 68.9643C229.35 69.9454 228.138 70.446 226.724 70.446C225.311 70.446 224.099 69.9454 223.11 68.9643C222.12 67.9831 221.615 66.7817 221.615 65.3801C221.615 63.9785 222.12 62.7971 223.11 61.7959C224.099 60.8148 225.311 60.3142 226.724 60.3142C228.138 60.3142 229.33 60.8148 230.339 61.7959C231.329 62.7771 231.834 63.9785 231.834 65.3801C231.834 66.7817 231.329 67.9631 230.339 68.9643Z" fill="#104A80"/>
</g>
<defs>
<clipPath id="clip0_1_148">
<rect width="274" height="103" fill="white" transform="translate(0 0.164062)"/>
</clipPath>
</defs>
</svg>
